# Blender 4.4.3
# www.blender.org
g edge_04_Mesh
v -4.853030 0.169706 -0.084853
v -4.946210 0.231822 -0.031059
v -4.830290 0.169706 -0.000000
v -7.946210 -1.963870 -0.031059
v -4.937880 -0.231822 -0.000000
v -7.937880 -1.963870 -0.000001
v -5.115910 0.062117 -0.200764
v -5.084850 0.169706 -0.146969
v -5.000000 0.062117 -0.231822
v -7.915150 -1.901760 -0.146970
v -4.853030 -0.169706 -0.084853
v -7.853030 -1.901760 -0.084853
v -7.968940 -1.963870 0.053794
v -8.031060 -1.963870 0.053794
v -7.946210 -1.963870 0.031058
v -5.053790 0.231822 -0.031059
v -5.146970 0.169706 -0.084853
v -7.915150 -1.901760 0.146968
v -4.853030 -0.169706 0.084852
v -4.915150 -0.169706 0.146969
v -8.000000 -1.901760 -0.169707
v -8.031060 -1.963870 -0.053795
v -8.084850 -1.901760 -0.146970
v -4.768180 -0.062117 -0.000000
v -4.799240 -0.062117 0.115911
v -5.000000 -0.062117 -0.231822
v -4.884090 -0.062117 -0.200764
v -8.000000 -1.794170 -0.231823
v -4.946210 -0.231822 -0.031059
v -5.053790 0.231822 0.031058
v -4.937880 0.231822 -0.000000
v -5.062120 0.231822 -0.000000
v -4.884090 0.062117 0.200764
v -4.853030 0.169706 0.084852
v -4.915150 0.169706 0.146969
v -5.000000 0.062117 0.231822
v -8.000000 -1.794170 0.231821
v -5.000000 -0.062117 0.231822
v -4.830290 -0.169706 -0.000000
v -4.946210 -0.231822 0.031058
v -8.115910 -1.669930 0.200763
v -5.084850 0.169706 0.146969
v -8.084850 -1.562350 0.146968
v -8.115910 -1.794170 -0.200765
v -8.000000 -1.669930 -0.231823
v -7.884090 -1.794170 -0.200765
v -5.031060 0.231822 -0.053795
v -5.000000 0.231822 -0.062117
v -4.799240 0.062117 0.115911
v -8.169710 -1.562350 -0.000001
v -8.000000 -1.901760 0.169705
v -8.115910 -1.794170 0.200763
v -8.000000 -1.669930 0.231821
v -4.915150 -0.169706 -0.146969
v -8.115910 -1.669930 -0.200765
v -4.768180 0.062117 -0.000000
v -8.200760 -1.669930 -0.115912
v -8.231820 -1.794170 -0.000001
v -8.231820 -1.669930 -0.000001
v -4.884090 0.062117 -0.200764
v -4.799240 0.062117 -0.115911
v -8.084850 -1.562350 -0.146970
v -4.968940 0.231822 -0.053795
v -4.915150 0.169706 -0.146969
v -5.000000 0.231822 0.062116
v -5.031060 0.231822 0.053794
v -8.053790 -1.500230 0.031058
v -5.146970 0.169706 0.084852
v -8.200760 -1.794170 0.115910
v -8.146970 -1.901760 0.084852
v -4.884090 -0.062117 0.200764
v -4.968940 0.231822 0.053794
v -5.000000 0.169706 -0.169706
v -8.000000 -1.963870 0.062116
v -8.053790 -1.963870 -0.031059
v -8.062120 -1.963870 -0.000001
v -8.169710 -1.901760 -0.000001
v -8.000000 -1.963870 -0.062117
v -8.084850 -1.901760 0.146968
v -8.146970 -1.562350 -0.084853
v -8.200760 -1.669930 0.115910
v -8.146970 -1.562350 0.084852
v -5.000000 0.169706 0.169706
v -5.115910 0.062117 0.200764
v -8.146970 -1.901760 -0.084853
v -4.799240 -0.062117 -0.115911
v -8.200760 -1.794170 -0.115912
v -8.053790 -1.500230 -0.031059
v -7.968940 -1.963870 -0.053795
v -7.853030 -1.901760 0.084852
v -7.884090 -1.794170 0.200763
v -4.946210 0.231822 0.031058
v -8.053790 -1.963870 0.031058
vn 0.6299 0.6863 -0.3637
vn 0.2581 0.9545 -0.1491
vn 0.7273 0.6863 -0.0000
vn 0.2581 -0.9545 -0.1490
vn 0.5000 -0.8660 -0.0000
vn 0.2981 -0.9545 -0.0000
vn -0.2518 0.4582 -0.8525
vn -0.2887 0.7229 -0.6277
vn 0.0469 0.2853 -0.9573
vn 0.2886 -0.7230 -0.6277
vn 0.6498 -0.6708 -0.3575
vn 0.4555 -0.8390 -0.2977
vn 0.1491 -0.9545 0.2582
vn -0.1491 -0.9545 0.2582
vn 0.2581 -0.9545 0.1490
vn -0.2581 0.9545 -0.1491
vn -0.4555 0.8390 -0.2978
vn 0.2886 -0.7230 0.6277
vn 0.6498 -0.6708 0.3575
vn 0.4483 -0.6117 0.6518
vn -0.0000 -0.6863 -0.7273
vn -0.1491 -0.9545 -0.2581
vn -0.3636 -0.6863 -0.6299
vn 0.9686 -0.2487 -0.0000
vn 0.8388 -0.2487 0.4843
vn 0.1673 -0.1733 -0.9706
vn 0.4924 -0.2409 -0.8364
vn -0.0469 -0.2853 -0.9573
vn 0.4956 -0.8584 -0.1328
vn -0.2581 0.9545 0.1491
vn 0.2982 0.9545 -0.0000
vn -0.2981 0.9545 -0.0000
vn 0.4843 0.2487 0.8388
vn 0.6299 0.6863 0.3637
vn 0.3636 0.6863 0.6299
vn 0.0469 0.2853 0.9573
vn -0.0469 -0.2853 0.9573
vn 0.1673 -0.1733 0.9706
vn 0.7273 -0.6863 -0.0000
vn 0.4956 -0.8584 0.1328
vn -0.4924 0.2409 0.8364
vn -0.2887 0.7229 0.6277
vn -0.4483 0.6117 0.6518
vn -0.4843 -0.2487 -0.8388
vn -0.1673 0.1733 -0.9706
vn 0.2518 -0.4582 -0.8525
vn -0.1491 0.9545 -0.2582
vn -0.0000 0.9545 -0.2981
vn 0.8388 0.2487 0.4843
vn -0.7273 0.6863 -0.0000
vn -0.0000 -0.6863 0.7273
vn -0.4843 -0.2487 0.8388
vn -0.1673 0.1733 0.9706
vn 0.4483 -0.6117 -0.6518
vn -0.4924 0.2409 -0.8364
vn 0.9686 0.2487 -0.0000
vn -0.8388 0.2487 -0.4843
vn -0.9686 -0.2487 -0.0000
vn -0.9686 0.2487 -0.0000
vn 0.4843 0.2487 -0.8388
vn 0.8388 0.2487 -0.4843
vn -0.4483 0.6117 -0.6518
vn 0.1491 0.9545 -0.2582
vn 0.3636 0.6863 -0.6299
vn -0.0000 0.9545 0.2981
vn -0.1491 0.9545 0.2582
vn -0.4956 0.8584 0.1328
vn -0.4555 0.8390 0.2978
vn -0.8388 -0.2487 0.4843
vn -0.6299 -0.6863 0.3637
vn 0.4924 -0.2409 0.8364
vn 0.1491 0.9545 0.2582
vn -0.0000 0.6863 -0.7273
vn -0.0000 -0.9545 0.2981
vn -0.2581 -0.9546 -0.1490
vn -0.2981 -0.9545 -0.0000
vn -0.7273 -0.6863 -0.0000
vn -0.0000 -0.9545 -0.2981
vn -0.3636 -0.6863 0.6299
vn -0.6498 0.6708 -0.3575
vn -0.8388 0.2487 0.4843
vn -0.6498 0.6708 0.3575
vn -0.0000 0.6863 0.7273
vn -0.2518 0.4582 0.8525
vn -0.6299 -0.6863 -0.3637
vn 0.8388 -0.2487 -0.4843
vn -0.8388 -0.2487 -0.4843
vn -0.4956 0.8584 -0.1328
vn 0.1491 -0.9545 -0.2582
vn 0.4555 -0.8390 0.2977
vn 0.2518 -0.4582 0.8525
vn 0.2581 0.9545 0.1491
vn -0.2581 -0.9545 0.1490
s 1
f 1//1 2//2 3//3
f 4//4 5//5 6//6
f 7//7 8//8 9//9
f 10//10 11//11 12//12
f 13//13 14//14 15//15
f 16//16 8//8 17//17
f 18//18 19//19 20//20
f 21//21 22//22 23//23
f 19//19 24//24 25//25
f 26//26 27//27 28//28
f 29//29 4//4 11//11
f 30//30 31//31 32//32
f 33//33 34//34 35//35
f 36//36 37//37 38//38
f 39//39 19//19 40//40
f 41//41 42//42 43//43
f 28//28 44//44 45//45
f 28//28 46//46 10//10
f 47//47 8//8 16//16
f 48//48 8//8 47//47
f 49//49 34//34 33//33
f 16//16 17//17 50//50
f 51//51 37//37 52//52
f 41//41 37//37 53//53
f 54//54 27//27 11//11
f 12//12 4//4 10//10
f 55//55 9//9 45//45
f 56//56 34//34 49//49
f 57//57 58//58 59//59
f 11//11 24//24 39//39
f 11//11 39//39 29//29
f 10//10 21//21 28//28
f 60//60 1//1 61//61
f 50//50 57//57 59//59
f 62//62 8//8 55//55
f 63//63 64//64 48//48
f 65//65 31//31 66//66
f 67//67 68//68 50//50
f 52//52 69//69 70//70
f 71//71 25//25 33//33
f 20//20 71//71 18//18
f 53//53 36//36 41//41
f 72//72 65//65 35//35
f 50//50 32//32 16//16
f 50//50 68//68 30//30
f 8//8 73//73 9//9
f 7//7 9//9 55//55
f 42//42 68//68 43//43
f 18//18 51//51 74//74
f 75//75 76//76 77//77
f 78//78 21//21 10//10
f 79//79 14//14 51//51
f 46//46 27//27 10//10
f 33//33 25//25 49//49
f 10//10 27//27 54//54
f 39//39 24//24 19//19
f 55//55 8//8 7//7
f 55//55 80//80 62//62
f 59//59 58//58 81//81
f 43//43 82//82 41//41
f 11//11 4//4 12//12
f 39//39 5//5 29//29
f 5//5 15//15 6//6
f 20//20 19//19 71//71
f 52//52 37//37 41//41
f 83//83 36//36 35//35
f 25//25 24//24 49//49
f 41//41 36//36 84//84
f 9//9 64//64 60//60
f 61//61 1//1 56//56
f 42//42 36//36 83//83
f 66//66 31//31 30//30
f 54//54 11//11 10//10
f 48//48 73//73 8//8
f 28//28 9//9 26//26
f 45//45 9//9 28//28
f 77//77 85//85 75//75
f 44//44 57//57 55//55
f 78//78 22//22 21//21
f 74//74 13//13 18//18
f 59//59 81//81 50//50
f 52//52 81//81 69//69
f 28//28 27//27 46//46
f 9//9 27//27 26//26
f 60//60 27//27 9//9
f 27//27 86//86 11//11
f 87//87 57//57 44//44
f 80//80 88//88 17//17
f 30//30 68//68 42//42
f 82//82 67//67 50//50
f 22//22 14//14 75//75
f 4//4 89//89 10//10
f 71//71 19//19 25//25
f 29//29 5//5 4//4
f 18//18 15//15 90//90
f 40//40 15//15 5//5
f 71//71 91//91 18//18
f 18//18 37//37 51//51
f 56//56 3//3 34//34
f 34//34 92//92 35//35
f 41//41 84//84 42//42
f 91//91 37//37 18//18
f 42//42 66//66 30//30
f 30//30 32//32 50//50
f 71//71 36//36 38//38
f 84//84 36//36 42//42
f 1//1 3//3 56//56
f 48//48 31//31 63//63
f 80//80 8//8 62//62
f 17//17 8//8 80//80
f 18//18 13//13 15//15
f 22//22 85//85 23//23
f 85//85 44//44 23//23
f 87//87 44//44 85//85
f 53//53 37//37 36//36
f 74//74 14//14 13//13
f 69//69 58//58 77//77
f 50//50 81//81 82//82
f 60//60 86//86 27//27
f 61//61 86//86 60//60
f 50//50 88//88 80//80
f 17//17 88//88 50//50
f 77//77 76//76 93//93
f 10//10 89//89 78//78
f 40//40 5//5 39//39
f 90//90 19//19 18//18
f 56//56 24//24 61//61
f 49//49 24//24 56//56
f 93//93 14//14 70//70
f 77//77 93//93 70//70
f 64//64 2//2 1//1
f 60//60 64//64 1//1
f 83//83 65//65 42//42
f 35//35 65//65 83//83
f 63//63 2//2 64//64
f 72//72 31//31 65//65
f 82//82 68//68 67//67
f 43//43 68//68 82//82
f 33//33 36//36 71//71
f 35//35 36//36 33//33
f 63//63 31//31 2//2
f 3//3 92//92 34//34
f 15//15 14//14 6//6
f 75//75 85//85 22//22
f 70//70 14//14 79//79
f 51//51 14//14 74//74
f 87//87 85//85 77//77
f 45//45 44//44 55//55
f 21//21 44//44 28//28
f 23//23 44//44 21//21
f 71//71 37//37 91//91
f 38//38 37//37 71//71
f 81//81 58//58 69//69
f 70//70 69//69 77//77
f 80//80 57//57 50//50
f 55//55 57//57 80//80
f 15//15 19//19 90//90
f 40//40 19//19 15//15
f 86//86 24//24 11//11
f 61//61 24//24 86//86
f 89//89 14//14 78//78
f 78//78 14//14 22//22
f 64//64 73//73 48//48
f 9//9 73//73 64//64
f 65//65 66//66 42//42
f 92//92 31//31 72//72
f 32//32 31//31 16//16
f 35//35 92//92 72//72
f 52//52 79//79 51//51
f 70//70 79//79 52//52
f 75//75 14//14 76//76
f 76//76 14//14 93//93
f 41//41 81//81 52//52
f 82//82 81//81 41//41
f 87//87 58//58 57//57
f 77//77 58//58 87//87
f 16//16 31//31 47//47
f 47//47 31//31 48//48
f 4//4 14//14 89//89
f 6//6 14//14 4//4
f 3//3 31//31 92//92
f 2//2 31//31 3//3
