# Blender 4.4.3
# www.blender.org
g edge_06_Mesh
v 8.915150 0.169706 -0.146968
v 9.000000 0.169706 -0.169705
v 8.884090 0.062117 -0.200763
v 9.146970 -0.169706 -0.084852
v 6.146970 -1.901760 -0.084852
v 9.084850 -0.169706 -0.146968
v 5.768180 -1.794170 0.000000
v 5.768180 -1.669930 0.000000
v 5.799240 -1.794170 -0.115911
v 5.884090 -1.794170 -0.200764
v 5.799240 -1.669930 -0.115911
v 5.884090 -1.669930 -0.200764
v 6.000000 -1.794170 -0.231822
v 6.000000 -1.669930 -0.231822
v 9.000000 -0.062117 -0.231821
v 5.830290 -1.901760 0.000000
v 5.946210 -1.963870 0.031059
v 5.853030 -1.901760 0.084853
v 6.146970 -1.901760 0.084853
v 9.146970 -0.169706 0.084853
v 6.084850 -1.901760 0.146969
v 6.084850 -1.901760 -0.146969
v 9.200760 -0.062117 -0.115910
v 9.200760 0.062117 -0.115910
v 9.231820 -0.062117 0.000001
v 8.946210 0.231822 -0.031058
v 8.830290 0.169706 0.000001
v 8.937880 0.231822 0.000001
v 5.853030 -1.901760 -0.084852
v 9.053790 -0.231822 0.031059
v 9.169710 -0.169706 0.000001
v 5.915150 -1.562350 -0.146969
v 5.853030 -1.562350 0.084853
v 8.946210 0.231822 0.031059
v 8.968940 0.231822 0.053795
v 8.915150 0.169706 0.146970
v 9.000000 0.169706 0.169707
v 8.968940 0.231822 -0.053794
v 9.053790 0.231822 -0.031058
v 9.000000 0.231822 -0.062116
v 5.853030 -1.562350 -0.084852
v 5.830290 -1.562350 0.000000
v 5.946210 -1.500230 -0.031058
v 5.937880 -1.500230 0.000000
v 8.853030 0.169706 -0.084852
v 5.946210 -1.500230 0.031059
v 9.000000 0.062117 -0.231821
v 9.115910 0.062117 -0.200763
v 9.231820 0.062117 0.000001
v 5.799240 -1.794170 0.115911
v 9.000000 -0.062117 0.231823
v 9.115910 -0.062117 0.200765
v 9.000000 0.062117 0.231823
v 6.031060 -1.963870 -0.053794
v 6.000000 -1.963870 -0.062116
v 5.915150 -1.901760 -0.146969
v 5.946210 -1.963870 -0.031058
v 6.000000 -1.794170 0.231822
v 5.884090 -1.794170 0.200764
v 5.915150 -1.901760 0.146969
v 6.115910 -1.794170 0.200764
v 6.000000 -1.669930 0.231822
v 5.884090 -1.669930 0.200764
v 8.884090 0.062117 0.200765
v 5.915150 -1.562350 0.146969
v 5.968940 -1.963870 0.053795
v 9.115910 -0.062117 -0.200763
v 9.115910 0.062117 0.200765
v 9.146970 0.169706 0.084853
v 9.084850 0.169706 0.146970
v 9.146970 0.169706 -0.084852
v 9.169710 0.169706 0.000001
v 6.000000 -1.901760 -0.169706
v 6.115910 -1.794170 -0.200764
v 8.853030 0.169706 0.084853
v 6.053790 -1.963870 -0.031058
v 6.053790 -1.963870 0.031059
v 6.031060 -1.963870 0.053795
v 6.062120 -1.963870 0.000000
v 9.031060 0.231822 -0.053794
v 9.084850 0.169706 -0.146968
v 9.200760 -0.062117 0.115912
v 9.000000 0.231822 0.062117
v 9.084850 -0.169706 0.146970
v 5.968940 -1.963870 -0.053794
v 9.053790 0.231822 0.031059
v 9.031060 0.231822 0.053795
v 9.062120 0.231822 0.000001
v 6.000000 -1.963870 0.062117
v 6.000000 -1.901760 0.169706
v 9.200760 0.062117 0.115912
v 9.053790 -0.231822 -0.031058
v 5.799240 -1.669930 0.115911
v 5.937880 -1.963870 0.000000
vn -0.2887 0.7229 -0.6277
vn -0.0000 0.6863 -0.7273
vn -0.2518 0.4582 -0.8525
vn 0.6498 -0.6708 -0.3575
vn 0.4555 -0.8390 -0.2977
vn 0.4483 -0.6117 -0.6518
vn -0.9686 -0.2487 -0.0000
vn -0.9686 0.2487 -0.0000
vn -0.8388 -0.2487 -0.4843
vn -0.4843 -0.2487 -0.8388
vn -0.8388 0.2487 -0.4843
vn -0.4924 0.2409 -0.8364
vn -0.0469 -0.2853 -0.9573
vn -0.1673 0.1733 -0.9706
vn 0.1673 -0.1733 -0.9706
vn -0.7273 -0.6863 -0.0000
vn -0.2581 -0.9545 0.1490
vn -0.6299 -0.6863 0.3637
vn 0.4555 -0.8390 0.2977
vn 0.6498 -0.6708 0.3575
vn 0.2886 -0.7230 0.6277
vn 0.2887 -0.7230 -0.6277
vn 0.8388 -0.2487 -0.4843
vn 0.8388 0.2487 -0.4843
vn 0.9686 -0.2487 -0.0000
vn -0.2581 0.9545 -0.1490
vn -0.5000 0.8660 -0.0000
vn -0.2981 0.9545 -0.0000
vn -0.6299 -0.6863 -0.3637
vn 0.4956 -0.8584 0.1328
vn 0.7273 -0.6863 -0.0000
vn -0.4483 0.6118 -0.6518
vn -0.6498 0.6708 0.3575
vn -0.2581 0.9545 0.1490
vn -0.1491 0.9545 0.2582
vn -0.2887 0.7229 0.6277
vn -0.0000 0.6863 0.7273
vn -0.1491 0.9545 -0.2582
vn 0.2582 0.9545 -0.1491
vn -0.0000 0.9545 -0.2981
vn -0.6498 0.6708 -0.3575
vn -0.7273 0.6863 -0.0000
vn -0.4956 0.8583 -0.1329
vn -0.4555 0.8390 -0.2978
vn -0.4956 0.8583 0.1329
vn 0.0469 0.2853 -0.9573
vn 0.4843 0.2487 -0.8388
vn 0.9686 0.2487 -0.0000
vn -0.8388 -0.2487 0.4843
vn 0.1673 -0.1733 0.9706
vn 0.4924 -0.2409 0.8364
vn 0.0469 0.2853 0.9573
vn 0.1491 -0.9545 -0.2581
vn -0.0000 -0.9545 -0.2981
vn -0.3636 -0.6863 -0.6299
vn -0.2581 -0.9545 -0.1490
vn -0.0469 -0.2853 0.9573
vn -0.4843 -0.2487 0.8388
vn -0.3636 -0.6863 0.6299
vn 0.2518 -0.4582 0.8525
vn -0.1673 0.1733 0.9706
vn -0.4924 0.2409 0.8364
vn -0.2518 0.4582 0.8525
vn -0.4483 0.6118 0.6518
vn -0.1491 -0.9545 0.2582
vn 0.4924 -0.2409 -0.8364
vn 0.4843 0.2487 0.8388
vn 0.6299 0.6863 0.3637
vn 0.3637 0.6863 0.6299
vn 0.6299 0.6863 -0.3637
vn 0.7273 0.6863 -0.0000
vn -0.0000 -0.6863 -0.7273
vn 0.2518 -0.4582 -0.8525
vn -0.4555 0.8390 0.2978
vn 0.2581 -0.9545 -0.1490
vn 0.2581 -0.9545 0.1490
vn 0.1491 -0.9545 0.2582
vn 0.2981 -0.9545 -0.0000
vn 0.1491 0.9545 -0.2582
vn 0.3637 0.6863 -0.6299
vn 0.8388 -0.2487 0.4843
vn -0.0000 0.9545 0.2981
vn 0.4483 -0.6117 0.6518
vn -0.1491 -0.9545 -0.2581
vn 0.2581 0.9545 0.1490
vn 0.1491 0.9545 0.2582
vn 0.2981 0.9545 -0.0000
vn -0.0000 -0.9545 0.2981
vn -0.0000 -0.6863 0.7273
vn 0.8388 0.2487 0.4843
vn 0.4956 -0.8584 -0.1328
vn -0.8388 0.2487 0.4843
vn -0.2981 -0.9545 -0.0000
s 1
f 1//1 2//2 3//3
f 4//4 5//5 6//6
f 7//7 8//8 9//9
f 10//10 11//11 12//12
f 9//9 11//11 10//10
f 13//13 14//14 15//15
f 16//16 17//17 18//18
f 19//19 20//20 21//21
f 6//6 5//5 22//22
f 23//23 24//24 25//25
f 26//26 27//27 28//28
f 10//10 29//29 9//9
f 20//20 30//30 31//31
f 32//32 3//3 12//12
f 33//33 34//34 27//27
f 35//35 36//36 37//37
f 38//38 39//39 40//40
f 16//16 18//18 7//7
f 1//1 3//3 32//32
f 41//41 42//42 43//43
f 44//27 27//27 43//43
f 1//1 41//41 45//44
f 38//38 45//44 26//26
f 46//45 27//27 44//27
f 47//46 14//14 3//3
f 3//3 2//2 47//46
f 47//46 2//2 48//47
f 25//25 24//24 49//48
f 7//7 18//18 50//49
f 23//23 31//31 4//4
f 51//50 52//51 53//52
f 22//22 54//53 55//54
f 11//11 41//41 12//12
f 9//9 8//8 11//11
f 13//13 56//55 10//10
f 29//29 56//55 57//56
f 58//57 59//58 60//59
f 61//60 52//51 58//57
f 46//45 42//42 33//33
f 62//61 63//62 58//57
f 1//1 45//44 38//38
f 45//44 41//41 26//26
f 15//15 14//14 47//46
f 3//3 14//14 12//12
f 63//62 64//63 65//64
f 17//17 66//65 60//59
f 47//46 67//66 15//15
f 53//52 52//51 68//67
f 69//68 70//69 68//67
f 71//70 39//39 72//71
f 22//22 73//72 13//13
f 55//54 73//72 22//22
f 13//13 74//73 22//22
f 74//73 67//66 22//22
f 22//22 67//66 6//6
f 6//6 67//66 4//4
f 75//74 34//34 33//33
f 5//5 76//75 22//22
f 16//16 29//29 57//56
f 77//76 78//77 79//78
f 8//8 42//42 41//41
f 80//79 71//70 81//80
f 38//38 2//2 1//1
f 40//40 2//2 38//38
f 10//10 14//14 13//13
f 12//12 14//14 10//10
f 49//48 82//81 25//25
f 77//76 79//78 31//31
f 83//82 39//39 35//35
f 84//83 52//51 21//21
f 85//84 56//55 55//54
f 76//75 54//53 22//22
f 4//4 67//66 23//23
f 48//47 67//66 47//46
f 2//2 81//80 48//47
f 35//35 34//34 75//74
f 58//57 53//52 62//61
f 86//85 39//39 87//86
f 87//86 70//69 69//68
f 72//71 39//39 88//87
f 89//88 78//77 21//21
f 58//57 90//89 21//21
f 46//45 33//33 27//27
f 8//8 41//41 11//11
f 25//25 82//81 31//31
f 25//25 31//31 23//23
f 60//59 90//89 58//57
f 18//18 59//58 50//49
f 62//61 64//63 63//62
f 21//21 61//60 58//57
f 21//21 52//51 61//60
f 51//50 53//52 58//57
f 33//33 63//62 65//64
f 65//64 36//36 33//33
f 7//7 29//29 16//16
f 9//9 29//29 7//7
f 57//56 56//55 85//84
f 10//10 56//55 29//29
f 13//13 67//66 74//73
f 15//15 67//66 13//13
f 67//66 24//24 23//23
f 48//47 24//24 67//66
f 24//24 72//71 49//48
f 33//33 42//42 8//8
f 81//80 71//70 48//47
f 88//87 86//85 72//71
f 69//68 86//85 87//86
f 68//67 91//90 69//68
f 21//21 78//77 77//76
f 21//21 77//76 19//19
f 5//5 31//31 76//75
f 4//4 92//91 5//5
f 32//32 41//41 1//1
f 12//12 41//41 32//32
f 7//7 93//92 8//8
f 50//49 93//92 7//7
f 92//91 31//31 5//5
f 4//4 31//31 92//91
f 55//54 78//77 85//84
f 60//59 59//58 18//18
f 19//19 77//76 31//31
f 18//18 17//17 60//59
f 59//58 63//62 50//49
f 58//57 63//62 59//58
f 73//72 56//55 13//13
f 55//54 56//55 73//72
f 41//41 27//27 26//26
f 43//43 27//27 41//41
f 27//27 34//34 28//28
f 26//26 39//39 38//38
f 88//87 39//39 86//85
f 72//71 86//85 69//68
f 91//90 72//71 69//68
f 49//48 72//71 91//90
f 2//2 80//79 81//80
f 40//40 80//79 2//2
f 91//90 82//81 49//48
f 58//57 52//51 51//50
f 93//92 33//33 8//8
f 53//52 37//37 64//63
f 82//81 20//20 31//31
f 52//51 20//20 82//81
f 16//16 94//93 17//17
f 66//65 78//77 89//88
f 89//88 90//89 60//59
f 21//21 90//89 89//88
f 93//92 63//62 33//33
f 50//49 63//62 93//92
f 68//67 37//37 53//52
f 53//52 64//63 62//61
f 35//35 39//39 34//34
f 87//86 39//39 83//82
f 24//24 71//70 72//71
f 48//47 71//70 24//24
f 91//90 52//51 82//81
f 68//67 52//51 91//90
f 84//83 20//20 52//51
f 21//21 20//20 84//83
f 28//28 39//39 26//26
f 34//34 39//39 28//28
f 44//27 42//42 46//45
f 43//43 42//42 44//27
f 57//56 94//93 16//16
f 60//59 66//65 89//88
f 54//53 78//77 55//54
f 31//31 79//78 76//75
f 94//93 78//77 17//17
f 17//17 78//77 66//65
f 87//86 37//37 70//69
f 35//35 37//37 83//82
f 70//69 37//37 68//67
f 83//82 37//37 87//86
f 80//79 39//39 71//70
f 40//40 39//39 80//79
f 19//19 30//30 20//20
f 31//31 30//30 19//19
f 57//56 78//77 94//93
f 85//84 78//77 57//56
f 76//75 78//77 54//53
f 79//78 78//77 76//75
f 33//33 36//36 75//74
f 75//74 36//36 35//35
f 64//63 36//36 65//64
f 37//37 36//36 64//63
