# Blender 4.4.3
# www.blender.org
mtllib edge_10.mtl
o edge_10
v 6.000000 1.562350 0.169706
v 8.830290 -0.169706 0.000001
v 9.000000 -0.169706 0.169707
v 9.169710 -0.169706 0.000001
v 9.000000 -0.169706 -0.169705
v 6.000000 1.562350 -0.169706
v 9.000000 0.169706 -0.169705
v 6.000000 1.901760 -0.169706
v 9.169710 0.169706 0.000001
v 6.000000 1.901760 0.169706
v 9.000000 0.169706 0.169707
v 5.830290 1.562350 0.000000
v 5.830290 1.901760 0.000000
v 6.169710 1.901760 0.000000
vn -0.4209 -0.3448 0.8390
vn -0.3689 -0.9295 -0.0000
vn 0.2008 -0.6503 0.7327
vn 0.8165 -0.5774 -0.0000
vn 0.2007 -0.6503 -0.7327
vn -0.4209 -0.3448 -0.8390
vn 0.4209 0.3448 -0.8390
vn -0.2008 0.6503 -0.7327
vn 0.9067 0.4217 -0.0000
vn -0.2008 0.6503 0.7327
vn 0.4209 0.3448 0.8390
vn -0.9067 -0.4217 -0.0000
vn -0.8165 0.5774 -0.0000
vn 0.3689 0.9295 -0.0000
s 1
usemtl metalEdge
f 1//1 2//2 3//3
f 3//3 2//2 4//4
f 5//5 6//6 7//7
f 8//8 9//9 7//7
f 9//9 4//4 7//7
f 4//4 2//2 5//5
f 10//10 3//3 11//11
f 10//10 12//12 1//1
f 1//1 3//3 10//10
f 7//7 4//4 5//5
f 2//2 12//12 6//6
f 7//7 6//6 8//8
f 9//9 10//10 11//11
f 13//13 14//14 8//8
f 9//9 3//3 4//4
f 11//11 3//3 9//9
f 1//1 12//12 2//2
f 10//10 14//14 13//13
f 9//9 14//14 10//10
f 8//8 14//14 9//9
f 6//6 12//12 8//8
f 5//5 2//2 6//6
f 13//13 12//12 10//10
f 8//8 12//12 13//13
