# Blender 4.4.3
# www.blender.org
o edge_06
g edge_06_Mesh
v 8.915150 0.169706 -0.146968
v 9.000000 0.169706 -0.169705
v 8.884090 0.062117 -0.200763
v 9.146970 -0.169706 -0.084852
v 6.146970 -1.901760 -0.084852
v 9.084850 -0.169706 -0.146968
v 5.768180 -1.794170 0.000000
v 5.768180 -1.669930 0.000000
v 5.799240 -1.794170 -0.115911
v 5.884090 -1.794170 -0.200764
v 5.799240 -1.669930 -0.115911
v 5.884090 -1.669930 -0.200764
v 6.000000 -1.794170 -0.231822
v 6.000000 -1.669930 -0.231822
v 9.000000 -0.062117 -0.231821
v 5.830290 -1.901760 0.000000
v 5.946210 -1.963870 0.031059
v 5.853030 -1.901760 0.084853
v 6.146970 -1.901760 0.084853
v 9.146970 -0.169706 0.084853
v 6.084850 -1.901760 0.146969
v 6.084850 -1.901760 -0.146969
v 9.200760 -0.062117 -0.115910
v 9.200760 0.062117 -0.115910
v 9.231820 -0.062117 0.000001
v 8.946210 0.231822 -0.031058
v 8.830290 0.169706 0.000001
v 8.937880 0.231822 0.000001
v 5.853030 -1.901760 -0.084852
v 9.053790 -0.231822 0.031059
v 9.169710 -0.169706 0.000001
v 5.915150 -1.562350 -0.146969
v 5.853030 -1.562350 0.084853
v 8.946210 0.231822 0.031059
v 8.968940 0.231822 0.053795
v 8.915150 0.169706 0.146970
v 9.000000 0.169706 0.169707
v 8.968940 0.231822 -0.053794
v 9.053790 0.231822 -0.031058
v 9.000000 0.231822 -0.062116
v 5.853030 -1.562350 -0.084852
v 5.830290 -1.562350 0.000000
v 5.946210 -1.500230 -0.031058
v 5.937880 -1.500230 0.000000
v 8.853030 0.169706 -0.084852
v 5.946210 -1.500230 0.031059
v 9.000000 0.062117 -0.231821
v 9.115910 0.062117 -0.200763
v 9.231820 0.062117 0.000001
v 5.799240 -1.794170 0.115911
v 9.000000 -0.062117 0.231823
v 9.115910 -0.062117 0.200765
v 9.000000 0.062117 0.231823
v 6.031060 -1.963870 -0.053794
v 6.000000 -1.963870 -0.062116
v 5.915150 -1.901760 -0.146969
v 5.946210 -1.963870 -0.031058
v 6.000000 -1.794170 0.231822
v 5.884090 -1.794170 0.200764
v 5.915150 -1.901760 0.146969
v 6.115910 -1.794170 0.200764
v 6.000000 -1.669930 0.231822
v 5.884090 -1.669930 0.200764
v 8.884090 0.062117 0.200765
v 5.915150 -1.562350 0.146969
v 5.968940 -1.963870 0.053795
v 9.115910 -0.062117 -0.200763
v 9.115910 0.062117 0.200765
v 9.146970 0.169706 0.084853
v 9.084850 0.169706 0.146970
v 9.146970 0.169706 -0.084852
v 9.169710 0.169706 0.000001
v 6.000000 -1.901760 -0.169706
v 6.115910 -1.794170 -0.200764
v 8.853030 0.169706 0.084853
v 6.053790 -1.963870 -0.031058
v 6.053790 -1.963870 0.031059
v 6.031060 -1.963870 0.053795
v 6.062120 -1.963870 0.000000
v 9.031060 0.231822 -0.053794
v 9.084850 0.169706 -0.146968
v 9.200760 -0.062117 0.115912
v 9.000000 0.231822 0.062117
v 9.084850 -0.169706 0.146970
v 5.968940 -1.963870 -0.053794
v 9.053790 0.231822 0.031059
v 9.031060 0.231822 0.053795
v 9.062120 0.231822 0.000001
v 6.000000 -1.963870 0.062117
v 6.000000 -1.901760 0.169706
v 9.200760 0.062117 0.115912
v 9.053790 -0.231822 -0.031058
v 5.799240 -1.669930 0.115911
v 5.937880 -1.963870 0.000000
vn -0.2887 0.7229 -0.6277
vn -0.0000 0.6863 -0.7273
vn -0.2518 0.4582 -0.8525
vn 0.6498 -0.6708 -0.3575
vn 0.4555 -0.8390 -0.2977
vn 0.4483 -0.6117 -0.6518
vn -0.9686 -0.2487 -0.0000
vn -0.9686 0.2487 -0.0000
vn -0.8388 -0.2487 -0.4843
vn -0.4843 -0.2487 -0.8388
vn -0.8388 0.2487 -0.4843
vn -0.4924 0.2409 -0.8364
vn -0.0469 -0.2853 -0.9573
vn -0.1673 0.1733 -0.9706
vn 0.1673 -0.1733 -0.9706
vn -0.7273 -0.6863 -0.0000
vn -0.2581 -0.9545 0.1490
vn -0.6299 -0.6863 0.3637
vn 0.4555 -0.8390 0.2977
vn 0.6498 -0.6708 0.3575
vn 0.2886 -0.7230 0.6277
vn 0.2887 -0.7230 -0.6277
vn 0.8388 -0.2487 -0.4843
vn 0.8388 0.2487 -0.4843
vn 0.9686 -0.2487 -0.0000
vn -0.2581 0.9545 -0.1490
vn -0.5000 0.8660 -0.0000
vn -0.2981 0.9545 -0.0000
vn -0.6299 -0.6863 -0.3637
vn 0.4956 -0.8584 0.1328
vn 0.7273 -0.6863 -0.0000
vn -0.4483 0.6118 -0.6518
vn -0.6498 0.6708 0.3575
vn -0.2581 0.9545 0.1490
vn -0.1491 0.9545 0.2582
vn -0.2887 0.7229 0.6277
vn -0.0000 0.6863 0.7273
vn -0.1491 0.9545 -0.2582
vn 0.2582 0.9545 -0.1491
vn -0.0000 0.9545 -0.2981
vn -0.6498 0.6708 -0.3575
vn -0.7273 0.6863 -0.0000
vn -0.4956 0.8583 -0.1329
vn -0.4555 0.8390 -0.2978
vn -0.4956 0.8583 0.1329
vn 0.0469 0.2853 -0.9573
vn 0.4843 0.2487 -0.8388
vn 0.9686 0.2487 -0.0000
vn -0.8388 -0.2487 0.4843
vn 0.1673 -0.1733 0.9706
vn 0.4924 -0.2409 0.8364
vn 0.0469 0.2853 0.9573
vn 0.1491 -0.9545 -0.2581
vn -0.0000 -0.9545 -0.2981
vn -0.3636 -0.6863 -0.6299
vn -0.2581 -0.9545 -0.1490
vn -0.0469 -0.2853 0.9573
vn -0.4843 -0.2487 0.8388
vn -0.3636 -0.6863 0.6299
vn 0.2518 -0.4582 0.8525
vn -0.1673 0.1733 0.9706
vn -0.4924 0.2409 0.8364
vn -0.2518 0.4582 0.8525
vn -0.4483 0.6118 0.6518
vn -0.1491 -0.9545 0.2582
vn 0.4924 -0.2409 -0.8364
vn 0.4843 0.2487 0.8388
vn 0.6299 0.6863 0.3637
vn 0.3637 0.6863 0.6299
vn 0.6299 0.6863 -0.3637
vn 0.7273 0.6863 -0.0000
vn -0.0000 -0.6863 -0.7273
vn 0.2518 -0.4582 -0.8525
vn -0.4555 0.8390 0.2978
vn 0.2581 -0.9545 -0.1490
vn 0.2581 -0.9545 0.1490
vn 0.1491 -0.9545 0.2582
vn 0.2981 -0.9545 -0.0000
vn 0.1491 0.9545 -0.2582
vn 0.3637 0.6863 -0.6299
vn 0.8388 -0.2487 0.4843
vn -0.0000 0.9545 0.2981
vn 0.4483 -0.6117 0.6518
vn -0.1491 -0.9545 -0.2581
vn 0.2581 0.9545 0.1490
vn 0.1491 0.9545 0.2582
vn 0.2981 0.9545 -0.0000
vn -0.0000 -0.9545 0.2981
vn -0.0000 -0.6863 0.7273
vn 0.8388 0.2487 0.4843
vn 0.4956 -0.8584 -0.1328
vn -0.8388 0.2487 0.4843
vn -0.2981 -0.9545 -0.0000
vt 0.000000 0.051912
vt 0.010748 0.032911
vt 0.020159 0.072495
vt 0.317933 0.005676
vt 0.312237 0.811755
vt 0.301840 0.021489
vt 0.435069 0.146963
vt 0.435069 0.114999
vt 0.461806 0.146963
vt 0.055846 0.979417
vt 0.017277 0.982680
vt 0.028025 0.963680
vt 0.045099 0.998417
vt 0.070528 0.953461
vt 0.042707 0.937724
vt 0.062660 0.062275
vt 0.333493 0.893100
vt 0.341684 0.864761
vt 0.355364 0.887424
vt 0.355896 0.812064
vt 0.361592 0.005984
vt 0.371764 0.828103
vt 0.296144 0.827569
vt 0.377460 0.059642
vt 0.377460 0.027680
vt 0.404196 0.059642
vt 0.254552 0.054984
vt 0.246781 0.086632
vt 0.246577 0.057166
vt 0.076005 1.000000
vt 0.347574 0.031101
vt 0.339804 -0.000000
vt 0.007868 0.943098
vt 0.230610 0.902592
vt 0.238572 0.055095
vt 0.232682 0.049334
vt 0.208821 0.065235
vt 0.202821 0.043619
vt 0.260361 0.049142
vt 0.254362 0.027526
vt 0.262447 0.041200
vt 0.430934 0.174643
vt 0.408333 0.174643
vt 0.274270 0.902289
vt 0.252481 0.908244
vt 0.260252 0.876597
vt 0.252276 0.878778
vt 0.284441 0.064710
vt 0.268571 0.080676
vt 0.244271 0.876708
vt 0.034840 0.046539
vt 0.049522 0.020583
vt 0.404196 0.027680
vt 0.404197 0.146963
vt 0.408332 0.087322
vt 0.388760 0.087322
vt 0.140255 0.048726
vt 0.125345 0.022901
vt 0.167935 0.032745
vt 0.320008 0.842853
vt 0.317810 0.850801
vt 0.000000 0.957009
vt 0.461806 0.114999
vt 0.083873 0.986089
vt 0.311704 0.887116
vt 0.295836 0.871077
vt 0.325703 0.864648
vt 0.140256 0.939947
vt 0.155166 0.965772
vt 0.127199 0.972692
vt 0.125345 0.914121
vt 0.167937 0.923965
vt 0.182847 0.949790
vt 0.182845 0.058570
vt 0.202821 0.929031
vt 0.347574 0.858975
vt 0.371457 0.871611
vt 0.077342 0.036319
vt 0.153025 0.006920
vt 0.430933 0.000000
vt 0.450506 0.000000
vt 0.461806 0.027680
vt 0.268050 0.005653
vt 0.246180 0.000000
vt 0.105368 0.948088
vt 0.094621 0.967089
vt 0.290141 0.849281
vt 0.085210 0.927505
vt 0.097500 0.056902
vt 0.105369 0.042991
vt 0.224911 0.080979
vt 0.325898 0.837067
vt 0.341879 0.837180
vt 0.347687 0.843049
vt 0.333903 0.834988
vt 0.430934 0.087322
vt 0.450506 0.087322
vt 0.260251 0.033287
vt 0.284141 0.021397
vt 0.290141 0.043013
vt 0.435069 0.059642
vt 0.230486 0.041422
vt 0.105369 0.043661
vt 0.105369 0.934882
vt 0.319895 0.858780
vt 0.088089 0.017318
vt 0.021495 0.013910
vt 0.238381 0.027637
vt 0.232572 0.033479
vt 0.208520 0.021921
vt 0.224391 0.005956
vt 0.246357 0.025455
vt 0.349771 0.851027
vt 0.116284 0.953787
vt 0.377460 0.146963
vt 0.408333 0.087322
vt 0.377460 0.114999
vt 0.388760 0.087322
vt 0.214520 0.886847
vt 0.450506 0.174643
vt 0.060269 0.001582
vt 0.408332 0.000000
vt 0.029363 -0.000000
vt 0.435069 0.027680
vt 0.331594 0.030988
vt 0.290141 0.886323
vt 0.404197 0.114999
vt 0.388760 0.174643
vt 0.191906 0.018905
vt 0.430933 0.087322
vt 0.461806 0.059642
vt 0.333678 0.866841
vt 0.377460 0.849898
vt 0.388760 0.000000
vt 0.450506 0.087322
vt 0.377460 0.022024
vt 0.180991 0.000000
vt 0.202821 0.037810
s 1
f 1/1/1 2/2/2 3/3/3
f 4/4/4 5/5/5 6/6/6
f 7/7/7 8/8/8 9/9/9
f 10/10/10 11/11/11 12/12/12
f 9/13/9 11/11/11 10/10/10
f 13/14/13 14/15/14 15/16/15
f 16/17/16 17/18/17 18/19/18
f 19/20/19 20/21/20 21/22/21
f 6/6/6 5/5/5 22/23/22
f 23/24/23 24/25/24 25/26/25
f 26/27/26 27/28/27 28/29/28
f 10/10/10 29/30/29 9/13/9
f 20/21/20 30/31/30 31/32/31
f 32/33/32 3/3/3 12/12/12
f 33/34/33 34/35/34 27/28/27
f 35/36/35 36/37/36 37/38/37
f 38/39/38 39/40/39 40/41/40
f 16/42/16 18/43/18 7/7/7
f 1/1/1 3/3/3 32/33/32
f 41/44/41 42/45/42 43/46/43
f 44/47/27 27/28/27 43/46/43
f 1/48/1 41/44/41 45/49/44
f 38/39/38 45/49/44 26/27/26
f 46/50/45 27/28/27 44/47/27
f 47/51/46 14/15/14 3/3/3
f 3/3/3 2/2/2 47/51/46
f 47/51/46 2/2/2 48/52/47
f 25/26/25 24/25/24 49/53/48
f 7/7/7 18/43/18 50/54/49
f 23/24/23 31/55/31 4/56/4
f 51/57/50 52/58/51 53/59/52
f 22/23/22 54/60/53 55/61/54
f 11/11/11 41/62/41 12/12/12
f 9/9/9 8/8/8 11/63/11
f 13/14/13 56/64/55 10/10/10
f 29/65/29 56/66/55 57/67/56
f 58/68/57 59/69/58 60/70/59
f 61/71/60 52/58/51 58/68/57
f 46/50/45 42/45/42 33/34/33
f 62/72/61 63/73/62 58/68/57
f 1/48/1 45/49/44 38/39/38
f 45/49/44 41/44/41 26/27/26
f 15/16/15 14/15/14 47/51/46
f 3/3/3 14/15/14 12/12/12
f 63/73/62 64/74/63 65/75/64
f 17/18/17 66/76/65 60/77/59
f 47/51/46 67/78/66 15/16/15
f 53/59/52 52/58/51 68/79/67
f 69/80/68 70/81/69 68/82/67
f 71/83/70 39/40/39 72/84/71
f 22/85/22 73/86/72 13/14/13
f 55/61/54 73/87/72 22/23/22
f 13/14/13 74/88/73 22/85/22
f 74/88/73 67/78/66 22/85/22
f 22/85/22 67/78/66 6/89/6
f 6/89/6 67/78/66 4/90/4
f 75/91/74 34/35/34 33/34/33
f 5/5/5 76/92/75 22/23/22
f 16/17/16 29/65/29 57/67/56
f 77/93/76 78/94/77 79/95/78
f 8/8/8 42/96/42 41/97/41
f 80/98/79 71/83/70 81/99/80
f 38/39/38 2/100/2 1/48/1
f 40/41/40 2/100/2 38/39/38
f 10/10/10 14/15/14 13/14/13
f 12/12/12 14/15/14 10/10/10
f 49/53/48 82/101/81 25/26/25
f 77/93/76 79/95/78 31/32/31
f 83/102/82 39/40/39 35/36/35
f 84/103/83 52/58/51 21/104/21
f 85/105/84 56/66/55 55/61/54
f 76/92/75 54/60/53 22/23/22
f 4/90/4 67/78/66 23/106/23
f 48/52/47 67/78/66 47/51/46
f 2/2/2 81/107/80 48/52/47
f 35/36/35 34/35/34 75/91/74
f 58/68/57 53/59/52 62/72/61
f 86/108/85 39/40/39 87/109/86
f 87/109/86 70/110/69 69/111/68
f 72/84/71 39/40/39 88/112/87
f 89/113/88 78/94/77 21/22/21
f 58/68/57 90/114/89 21/104/21
f 46/50/45 33/34/33 27/28/27
f 8/8/8 41/97/41 11/63/11
f 25/26/25 82/101/81 31/55/31
f 25/26/25 31/55/31 23/24/23
f 60/70/59 90/114/89 58/68/57
f 18/43/18 59/115/58 50/54/49
f 62/72/61 64/74/63 63/73/62
f 21/104/21 61/71/60 58/68/57
f 21/104/21 52/58/51 61/71/60
f 51/57/50 53/59/52 58/68/57
f 33/116/33 63/117/62 65/118/64
f 65/119/64 36/37/36 33/34/33
f 7/7/7 29/120/29 16/42/16
f 9/9/9 29/120/29 7/7/7
f 57/67/56 56/66/55 85/105/84
f 10/10/10 56/64/55 29/30/29
f 13/14/13 67/78/66 74/88/73
f 15/16/15 67/78/66 13/14/13
f 67/78/66 24/121/24 23/106/23
f 48/52/47 24/121/24 67/78/66
f 24/25/24 72/122/71 49/53/48
f 33/116/33 42/96/42 8/8/8
f 81/107/80 71/123/70 48/52/47
f 88/112/87 86/108/85 72/84/71
f 69/111/68 86/108/85 87/109/86
f 68/82/67 91/124/90 69/80/68
f 21/22/21 78/94/77 77/93/76
f 21/22/21 77/93/76 19/20/19
f 5/5/5 31/32/31 76/92/75
f 4/4/4 92/125/91 5/5/5
f 32/126/32 41/44/41 1/48/1
f 12/12/12 41/62/41 32/33/32
f 7/7/7 93/127/92 8/8/8
f 50/54/49 93/127/92 7/7/7
f 92/125/91 31/32/31 5/5/5
f 4/4/4 31/32/31 92/125/91
f 55/61/54 78/94/77 85/105/84
f 60/128/59 59/115/58 18/43/18
f 19/20/19 77/93/76 31/32/31
f 18/19/18 17/18/17 60/77/59
f 59/115/58 63/117/62 50/54/49
f 58/68/57 63/73/62 59/69/58
f 73/86/72 56/64/55 13/14/13
f 55/61/54 56/66/55 73/87/72
f 41/44/41 27/28/27 26/27/26
f 43/46/43 27/28/27 41/44/41
f 27/28/27 34/35/34 28/29/28
f 26/27/26 39/40/39 38/39/38
f 88/112/87 39/40/39 86/108/85
f 72/84/71 86/108/85 69/111/68
f 91/124/90 72/122/71 69/80/68
f 49/53/48 72/122/71 91/124/90
f 2/100/2 80/98/79 81/99/80
f 40/41/40 80/98/79 2/100/2
f 91/124/90 82/101/81 49/53/48
f 58/68/57 52/58/51 51/57/50
f 93/127/92 33/116/33 8/8/8
f 53/59/52 37/129/37 64/74/63
f 82/101/81 20/130/20 31/55/31
f 52/131/51 20/130/20 82/101/81
f 16/17/16 94/132/93 17/18/17
f 66/76/65 78/94/77 89/113/88
f 89/113/88 90/133/89 60/77/59
f 21/22/21 90/133/89 89/113/88
f 93/127/92 63/117/62 33/116/33
f 50/54/49 63/117/62 93/127/92
f 68/79/67 37/129/37 53/59/52
f 53/59/52 64/74/63 62/72/61
f 35/36/35 39/40/39 34/35/34
f 87/109/86 39/40/39 83/102/82
f 24/25/24 71/134/70 72/122/71
f 48/52/47 71/123/70 24/121/24
f 91/124/90 52/131/51 82/101/81
f 68/82/67 52/131/51 91/124/90
f 84/135/83 20/130/20 52/131/51
f 21/22/21 20/21/20 84/136/83
f 28/29/28 39/40/39 26/27/26
f 34/35/34 39/40/39 28/29/28
f 44/47/27 42/45/42 46/50/45
f 43/46/43 42/45/42 44/47/27
f 57/67/56 94/132/93 16/17/16
f 60/77/59 66/76/65 89/113/88
f 54/60/53 78/94/77 55/61/54
f 31/32/31 79/95/78 76/92/75
f 94/132/93 78/94/77 17/18/17
f 17/18/17 78/94/77 66/76/65
f 87/109/86 37/38/37 70/110/69
f 35/36/35 37/38/37 83/102/82
f 70/137/69 37/129/37 68/79/67
f 83/102/82 37/38/37 87/109/86
f 80/98/79 39/40/39 71/83/70
f 40/41/40 39/40/39 80/98/79
f 19/20/19 30/31/30 20/21/20
f 31/32/31 30/31/30 19/20/19
f 57/67/56 78/94/77 94/132/93
f 85/105/84 78/94/77 57/67/56
f 76/92/75 78/94/77 54/60/53
f 79/95/78 78/94/77 76/92/75
f 33/34/33 36/37/36 75/91/74
f 75/91/74 36/37/36 35/36/35
f 64/74/63 36/138/36 65/75/64
f 37/129/37 36/138/36 64/74/63
