# Blender 4.4.3
# www.blender.org
o edge_07
g edge_07_Mesh
v -0.200765 1.062120 8.616140
v -0.200765 -1.937880 6.884090
v -0.231823 1.062120 8.732050
v -0.115912 0.937883 8.932810
v -0.200765 1.062120 8.847960
v -0.200765 0.937883 8.847960
v -0.000001 1.169710 8.901760
v -0.031059 1.231820 8.785850
v -0.084853 1.169710 8.879020
v -0.169707 -2.169710 7.000000
v -0.231823 -2.062120 7.000000
v -0.146970 -2.169710 6.915150
v -0.115912 -2.062120 7.200760
v -0.084853 -2.169710 6.853030
v -0.031059 -2.231820 6.946210
v 0.115910 -2.062120 6.799240
v 0.084852 -2.169710 6.853030
v -0.000001 -2.062120 6.768180
v 0.200763 -2.062120 6.884090
v 0.200763 -1.937880 6.884090
v 0.231821 1.062120 8.732050
v 0.231821 -2.062120 7.000000
v 0.231821 -1.937880 7.000000
v -0.084853 1.169710 8.585080
v -0.031059 1.231820 8.678260
v -0.000001 1.169710 8.562350
v 0.231821 0.937883 8.732050
v 0.200763 1.062120 8.847960
v 0.200763 0.937883 8.847960
v 0.115910 -1.937880 6.799240
v 0.200763 1.062120 8.616140
v 0.169705 1.169710 8.732050
v 0.053794 1.231820 8.763110
v 0.031058 1.231820 8.785850
v 0.031058 -2.231820 6.946210
v -0.000001 -2.169710 6.830290
v 0.115910 1.062120 8.531290
v -0.146970 -2.169710 7.084850
v -0.200765 -2.062120 7.115910
v -0.146970 1.169710 8.816900
v -0.169707 1.169710 8.732050
v -0.000001 1.231820 8.669930
v -0.115912 -2.062120 6.799240
v -0.115912 -1.937880 6.799240
v -0.115912 1.062120 8.531290
v 0.146968 1.169710 8.647200
v 0.084852 1.169710 8.585080
v -0.000001 0.830294 8.901760
v 0.115910 0.937883 8.932810
v -0.000001 0.937883 8.963870
v -0.053795 1.231820 8.763110
v -0.115912 1.062120 8.932810
v -0.000001 -1.937880 6.768180
v -0.231823 -1.937880 7.000000
v -0.062117 -2.231820 7.000000
v -0.053795 -2.231820 7.031060
v -0.231823 0.937883 8.732050
v -0.053795 1.231820 8.700990
v 0.053794 1.231820 8.700990
v 0.084852 -1.830290 6.853030
v -0.000001 -1.830290 6.830290
v 0.062116 1.231820 8.732050
v 0.031058 1.231820 8.678260
v -0.084853 -2.169710 7.146970
v 0.146968 -2.169710 6.915150
v -0.053795 -2.231820 6.968940
v -0.200765 -2.062120 6.884090
v -0.084853 -1.830290 6.853030
v 0.200763 -2.062120 7.115910
v 0.084852 1.169710 8.879020
v 0.115910 1.062120 8.932810
v 0.084852 -2.169710 7.146970
v 0.146968 -2.169710 7.084850
v 0.115910 -2.062120 7.200760
v -0.000001 1.062120 8.963870
v -0.031059 -2.231820 7.053790
v -0.146970 1.169710 8.647200
v -0.000001 -2.169710 7.169710
v -0.000001 1.231820 8.794170
v 0.031058 -2.231820 7.053790
v -0.000001 -2.231820 7.062120
v 0.053794 -2.231820 7.031060
v 0.053794 -2.231820 6.968940
v -0.062117 1.231820 8.732050
v -0.000001 -2.231820 6.937880
v 0.146968 1.169710 8.816900
v 0.062116 -2.231820 7.000000
v 0.169705 -2.169710 7.000000
vn -0.8254 0.3666 -0.4294
vn -0.8393 0.1517 -0.5221
vn -0.9616 0.2734 0.0234
vn -0.4727 -0.2256 0.8519
vn -0.8388 0.2487 0.4843
vn -0.8393 -0.1517 0.5221
vn -0.0000 0.6863 0.7273
vn -0.1491 0.9545 0.2582
vn -0.3637 0.6863 0.6299
vn -0.7273 -0.6863 -0.0000
vn -0.9616 -0.2734 -0.0234
vn -0.6299 -0.6863 -0.3636
vn -0.4617 -0.4665 0.7544
vn -0.3637 -0.6863 -0.6299
vn -0.1490 -0.9545 -0.2581
vn 0.4843 -0.2487 -0.8388
vn 0.3637 -0.6863 -0.6299
vn -0.0000 -0.2487 -0.9686
vn 0.8388 -0.2487 -0.4843
vn 0.8393 0.1517 -0.5221
vn 0.9616 0.2734 0.0234
vn 0.9616 -0.2734 -0.0234
vn 0.9872 0.0495 -0.1513
vn -0.3636 0.6863 -0.6299
vn -0.1490 0.9545 -0.2581
vn -0.0000 0.6863 -0.7273
vn 0.9872 -0.0495 0.1513
vn 0.8388 0.2487 0.4843
vn 0.8393 -0.1517 0.5221
vn 0.4727 0.2256 -0.8519
vn 0.8254 0.3666 -0.4294
vn 0.7273 0.6863 -0.0000
vn 0.2581 0.9545 0.1490
vn 0.1491 0.9545 0.2581
vn 0.1490 -0.9545 -0.2581
vn -0.0000 -0.6863 -0.7273
vn 0.4617 0.4665 -0.7545
vn -0.6299 -0.6863 0.3636
vn -0.8254 -0.3666 0.4294
vn -0.6299 0.6863 0.3636
vn -0.7273 0.6863 -0.0000
vn -0.0000 0.9545 -0.2981
vn -0.4843 -0.2487 -0.8388
vn -0.4727 0.2256 -0.8519
vn -0.4617 0.4665 -0.7545
vn 0.6299 0.6863 -0.3636
vn 0.3636 0.6863 -0.6299
vn -0.0000 -0.5000 0.8660
vn 0.4727 -0.2256 0.8519
vn -0.0000 -0.2487 0.9686
vn -0.2582 0.9545 0.1490
vn -0.4843 0.2487 0.8388
vn -0.0000 0.2487 -0.9686
vn -0.9872 0.0495 -0.1513
vn -0.2981 -0.9545 -0.0000
vn -0.2581 -0.9545 0.1491
vn -0.9872 -0.0495 0.1513
vn -0.2581 0.9545 -0.1491
vn 0.2581 0.9545 -0.1491
vn 0.2261 0.4870 -0.8436
vn -0.0000 0.5000 -0.8660
vn 0.2981 0.9545 -0.0000
vn 0.1490 0.9545 -0.2581
vn -0.3637 -0.6863 0.6298
vn 0.6299 -0.6863 -0.3636
vn -0.2581 -0.9545 -0.1491
vn -0.8388 -0.2487 -0.4843
vn -0.2261 0.4870 -0.8436
vn 0.8254 -0.3666 0.4294
vn 0.3637 0.6863 0.6299
vn 0.4843 0.2487 0.8388
vn 0.3637 -0.6863 0.6298
vn 0.6299 -0.6863 0.3636
vn 0.4617 -0.4665 0.7544
vn -0.0000 0.2487 0.9686
vn -0.1490 -0.9545 0.2581
vn -0.6299 0.6863 -0.3636
vn -0.0000 -0.6863 0.7273
vn -0.0000 0.9545 0.2981
vn 0.1490 -0.9545 0.2581
vn -0.0000 -0.9545 0.2981
vn 0.2581 -0.9545 0.1491
vn 0.2581 -0.9545 -0.1491
vn -0.2981 0.9545 -0.0000
vn -0.0000 -0.9545 -0.2981
vn 0.6299 0.6863 0.3636
vn 0.2981 -0.9545 -0.0000
vn 0.7273 -0.6863 -0.0000
vt 0.183357 0.059513
vt 0.188178 0.952717
vt 0.158667 0.045614
vt 0.094089 0.046137
vt 0.131763 0.030468
vt 0.115998 0.058471
vt 0.416457 0.163805
vt 0.416456 0.129551
vt 0.436134 0.152878
vt 0.131858 0.989825
vt 0.147724 0.966822
vt 0.149931 1.000000
vt 0.098910 0.939342
vt 0.393734 0.022554
vt 0.400936 0.052811
vt 0.374056 0.033480
vt 0.447495 0.014925
vt 0.436134 0.033480
vt 0.420615 -0.000000
vt 0.037674 0.969532
vt 0.015765 0.981865
vt 0.021909 0.941528
vt 0.053635 0.033179
vt 0.064578 0.954386
vt 0.048814 0.926382
vt 0.221370 0.029175
vt 0.232658 0.002972
vt 0.243886 0.032058
vt 0.069399 0.061181
vt 0.078325 0.019279
vt 0.094089 0.047282
vt 0.000000 0.953862
vt 0.026731 0.048324
vt 0.037769 0.010175
vt 0.393734 0.129550
vt 0.400937 0.133550
vt 0.416456 0.056810
vt 0.416457 0.022553
vt 0.004822 0.060658
vt 0.112163 0.978738
vt 0.120820 0.951676
vt 0.150409 0.009030
vt 0.170105 0.020117
vt 0.240900 0.004028
vt 0.213230 0.983808
vt 0.216041 0.956186
vt 0.243987 0.987747
vt 0.188178 0.049155
vt 0.213230 0.060250
vt 0.190990 0.945091
vt 0.018074 0.021262
vt 0.002034 0.030292
vt 0.334971 0.059700
vt 0.304304 0.031465
vt 0.335098 0.027571
vt 0.420615 0.122624
vt 0.447495 0.171433
vt 0.362695 0.031930
vt 0.246798 0.960125
vt 0.272208 0.983475
vt 0.163489 0.938818
vt 0.389575 0.063735
vt 0.389575 0.071734
vt 0.362695 0.074254
vt 0.142903 0.073617
vt 0.225946 -0.000000
vt 0.362695 0.112104
vt 0.389575 0.114624
vt 0.362695 0.133955
vt 0.272208 0.059918
vt 0.267357 0.924868
vt 0.246698 0.927995
vt 0.389575 0.122623
vt 0.264546 0.028932
vt 0.248462 0.002883
vt 0.096123 0.969708
vt 0.362695 0.052403
vt 0.275020 0.955854
vt 0.040281 1.000000
vt 0.056321 0.990970
vt 0.393734 0.056808
vt 0.447495 0.133954
vt 0.447495 0.112103
vt 0.389576 0.000000
vt 0.172414 0.980721
vt 0.188178 0.972713
vt 0.224182 0.925111
vt 0.278565 0.042568
vt 0.275020 0.938452
vt 0.393734 0.163805
vt 0.389576 0.186358
vt 0.362695 0.171435
vt 0.374055 0.093179
vt 0.400936 0.103699
vt 0.393734 0.107699
vt 0.308884 0.958436
vt 0.290041 0.966564
vt 0.300759 0.927350
vt 0.109853 0.018135
vt 0.420615 0.186359
vt 0.374055 0.093179
vt 0.393734 0.078659
vt 0.447495 0.052405
vt 0.362695 0.014924
vt 0.203031 0.021052
vt 0.331426 0.955585
vt 0.351629 0.958776
vt 0.335056 0.984831
vt 0.409254 0.133550
vt 0.359150 0.004359
vt 0.331553 -0.000000
vt 0.409253 0.082658
vt 0.400936 0.082660
vt 0.416456 0.078661
vt 0.420615 0.063735
vt 0.300759 0.003894
vt 0.420614 0.114625
vt 0.416456 0.107698
vt 0.409254 0.052809
vt 0.436134 0.093179
vt 0.188178 0.030292
vt 0.374056 0.152878
vt 0.055843 -0.000000
vt 0.134370 0.000000
vt 0.359150 0.927815
vt 0.436134 0.093179
vt 0.420614 0.071734
vt 0.447495 0.074256
vt 0.089268 0.940487
vt 0.319410 0.984707
vt 0.076016 0.979883
vt 0.094089 0.969708
vt 0.275020 0.014996
vt 0.409253 0.103700
vt 0.312513 0.987681
vt 0.327662 0.983662
s 1
f 1/1/1 2/2/2 3/3/3
f 4/4/4 5/5/5 6/6/6
f 7/7/7 8/8/8 9/9/9
f 10/10/10 11/11/11 12/12/12
f 6/6/6 13/13/13 4/4/4
f 14/14/14 15/15/15 12/16/12
f 16/17/16 17/18/17 18/19/18
f 19/20/19 16/21/16 20/22/20
f 21/23/21 22/24/22 23/25/23
f 24/26/24 25/27/25 26/28/26
f 27/29/27 28/30/28 29/31/29
f 30/32/30 31/33/31 20/22/20
f 31/33/31 32/34/32 21/23/21
f 33/35/33 8/8/8 34/36/34
f 17/18/17 35/37/35 36/38/36
f 37/39/37 31/33/31 30/32/30
f 11/11/11 38/40/38 39/41/39
f 40/42/40 41/43/41 5/5/5
f 26/28/26 25/27/25 42/44/42
f 43/45/43 44/46/44 18/47/18
f 21/23/21 28/30/28 27/29/27
f 1/48/1 45/49/45 2/50/2
f 46/51/46 32/34/32 31/33/31
f 46/51/46 31/33/31 47/52/47
f 48/53/48 49/54/49 50/55/50
f 9/9/9 8/8/8 51/56/51
f 23/25/23 22/24/22 20/22/20
f 14/14/14 36/38/36 15/15/15
f 7/7/7 9/9/9 52/57/52
f 4/58/4 48/53/48 50/55/50
f 2/50/2 45/49/45 44/46/44
f 53/59/53 16/60/16 18/47/18
f 11/11/11 3/3/3 54/61/54
f 55/62/55 56/63/56 38/64/38
f 57/65/57 3/3/3 11/11/11
f 57/65/57 5/5/5 3/3/3
f 58/66/58 25/27/25 24/26/24
f 46/67/46 59/68/59 32/69/32
f 37/70/37 60/71/60 26/28/26
f 26/28/26 60/71/60 61/72/61
f 21/23/21 32/34/32 28/30/28
f 62/73/62 33/35/33 32/69/32
f 26/28/26 47/74/47 37/70/37
f 42/44/42 63/75/63 26/28/26
f 39/41/39 64/76/64 13/13/13
f 12/16/12 55/62/55 10/77/10
f 5/5/5 41/43/41 3/3/3
f 11/11/11 6/6/6 57/65/57
f 30/78/30 60/71/60 37/70/37
f 47/52/47 31/33/31 37/39/37
f 23/25/23 31/33/31 21/23/21
f 20/22/20 31/33/31 23/25/23
f 19/20/19 17/79/17 16/21/16
f 65/80/65 17/79/17 19/20/19
f 20/22/20 22/24/22 19/20/19
f 12/16/12 66/81/66 55/62/55
f 27/29/27 22/24/22 21/23/21
f 40/82/40 51/56/51 41/83/41
f 24/26/24 45/49/45 1/48/1
f 18/19/18 14/14/14 43/84/43
f 11/11/11 67/85/67 12/12/12
f 67/86/67 2/50/2 43/45/43
f 43/45/43 2/50/2 44/46/44
f 26/28/26 68/87/68 45/49/45
f 29/88/29 49/54/49 69/89/69
f 70/90/70 71/91/71 28/92/28
f 47/93/47 59/68/59 46/67/46
f 42/94/42 8/8/8 63/95/63
f 39/41/39 6/6/6 11/11/11
f 39/41/39 13/13/13 6/6/6
f 72/96/72 73/97/73 69/89/69
f 69/89/69 49/54/49 74/98/74
f 6/6/6 5/5/5 57/65/57
f 52/99/52 5/5/5 4/4/4
f 75/100/75 7/7/7 52/57/52
f 7/7/7 71/91/71 70/90/70
f 53/59/53 60/71/60 30/78/30
f 61/72/61 60/71/60 53/59/53
f 30/78/30 16/60/16 53/59/53
f 20/22/20 16/21/16 30/32/30
f 64/101/64 38/64/38 76/102/76
f 65/103/65 35/37/35 17/18/17
f 14/14/14 67/104/67 43/84/43
f 12/16/12 67/104/67 14/14/14
f 24/26/24 77/105/77 58/66/58
f 11/11/11 2/2/2 67/85/67
f 1/48/1 77/105/77 24/26/24
f 70/90/70 33/35/33 34/36/34
f 61/72/61 68/87/68 26/28/26
f 18/47/18 44/46/44 53/59/53
f 47/93/47 63/95/63 59/68/59
f 26/28/26 63/75/63 47/74/47
f 75/100/75 71/91/71 7/7/7
f 78/106/78 64/107/64 76/108/76
f 34/36/34 79/109/79 7/7/7
f 32/69/32 59/68/59 62/73/62
f 10/10/10 38/40/38 11/11/11
f 52/110/52 50/55/50 75/111/75
f 80/112/80 81/113/81 82/114/82
f 39/41/39 38/40/38 64/76/64
f 4/58/4 50/55/50 52/110/52
f 65/103/65 83/115/83 35/37/35
f 75/111/75 49/54/49 71/116/71
f 72/96/72 49/54/49 48/53/48
f 70/90/70 34/36/34 7/7/7
f 84/117/84 8/8/8 58/118/58
f 15/15/15 81/113/81 66/81/66
f 15/15/15 36/38/36 85/119/85
f 51/56/51 8/8/8 84/117/84
f 77/120/77 41/83/41 58/118/58
f 1/1/1 41/43/41 77/121/77
f 3/3/3 41/43/41 1/1/1
f 54/61/54 2/2/2 11/11/11
f 3/3/3 2/2/2 54/61/54
f 26/28/26 45/49/45 24/26/24
f 45/49/45 68/87/68 44/46/44
f 28/92/28 86/122/86 70/90/70
f 32/34/32 86/123/86 28/30/28
f 63/95/63 8/8/8 59/68/59
f 52/99/52 9/124/9 5/5/5
f 64/107/64 48/53/48 4/58/4
f 13/125/13 64/107/64 4/58/4
f 19/20/19 22/24/22 65/80/65
f 15/15/15 66/81/66 12/16/12
f 73/126/73 82/114/82 87/127/87
f 65/103/65 88/128/88 87/127/87
f 29/31/29 22/24/22 27/29/27
f 69/129/69 22/24/22 29/31/29
f 78/106/78 48/53/48 64/107/64
f 74/98/74 72/96/72 69/89/69
f 51/56/51 84/117/84 41/83/41
f 41/83/41 84/117/84 58/118/58
f 18/19/18 36/38/36 14/14/14
f 17/18/17 36/38/36 18/19/18
f 53/59/53 68/87/68 61/72/61
f 44/46/44 68/87/68 53/59/53
f 86/122/86 33/35/33 70/90/70
f 32/69/32 33/35/33 86/122/86
f 55/62/55 38/64/38 10/77/10
f 38/64/38 56/63/56 76/102/76
f 74/98/74 49/54/49 72/96/72
f 50/55/50 49/54/49 75/111/75
f 66/81/66 81/113/81 55/62/55
f 36/38/36 35/37/35 85/119/85
f 83/115/83 81/113/81 35/37/35
f 72/96/72 80/130/80 73/97/73
f 78/106/78 72/96/72 48/53/48
f 82/114/82 81/113/81 87/127/87
f 22/24/22 88/131/88 65/80/65
f 69/129/69 73/132/73 22/24/22
f 28/133/28 49/54/49 29/88/29
f 71/116/71 49/54/49 28/133/28
f 58/118/58 8/8/8 25/134/25
f 25/134/25 8/8/8 42/94/42
f 40/82/40 9/9/9 51/56/51
f 5/5/5 9/124/9 40/42/40
f 34/36/34 8/8/8 79/109/79
f 79/109/79 8/8/8 7/7/7
f 35/37/35 81/113/81 85/119/85
f 85/119/85 81/113/81 15/15/15
f 87/127/87 83/115/83 65/103/65
f 87/127/87 81/113/81 83/115/83
f 78/106/78 80/130/80 72/96/72
f 56/63/56 81/113/81 76/102/76
f 73/132/73 88/131/88 22/24/22
f 87/127/87 88/128/88 73/126/73
f 62/73/62 8/8/8 33/35/33
f 59/68/59 8/8/8 62/73/62
f 80/130/80 82/135/82 73/97/73
f 55/62/55 81/113/81 56/63/56
f 78/106/78 81/136/81 80/130/80
f 76/108/76 81/136/81 78/106/78
