# Blender 4.4.3
# www.blender.org
o edge_09
g edge_09_Mesh
v -0.062116 -1.231820 -8.732050
v 0.000001 -1.231820 -8.669930
v -0.053794 -1.231820 -8.700990
v -0.231821 -1.062120 -8.732050
v -0.200763 1.937880 -6.884090
v -0.231821 1.937880 -7.000000
v -0.231821 -0.937883 -8.732050
v 0.084853 2.169710 -7.146970
v 0.031059 2.231820 -7.053790
v 0.146970 2.169710 -7.084850
v -0.200763 2.062120 -6.884090
v 0.084853 1.830290 -6.853030
v 0.115912 -1.062120 -8.531290
v 0.115912 1.937880 -6.799240
v 0.000001 2.231820 -7.062120
v 0.000001 2.169710 -7.169710
v -0.031058 -1.231820 -8.785850
v -0.053794 -1.231820 -8.763110
v -0.084852 -1.169710 -8.879020
v -0.084852 2.169710 -7.146970
v -0.031058 2.231820 -7.053790
v 0.000001 2.062120 -7.231820
v 0.000001 -0.937883 -8.963870
v -0.146968 2.169710 -7.084850
v 0.115912 2.062120 -7.200760
v 0.200765 2.062120 -7.115910
v 0.115912 -0.937883 -8.932810
v 0.231823 1.937880 -7.000000
v 0.200765 2.062120 -6.884090
v 0.200765 1.937880 -6.884090
v 0.115912 -1.062120 -8.932810
v 0.000001 -1.062120 -8.963870
v 0.000001 -0.830294 -8.901760
v 0.000001 1.937880 -6.768180
v -0.200763 -1.062120 -8.847960
v -0.200763 -0.937883 -8.847960
v -0.200763 2.062120 -7.115910
v -0.231821 2.062120 -7.000000
v 0.231823 2.062120 -7.000000
v -0.031058 2.231820 -6.946210
v -0.146968 2.169710 -6.915150
v -0.084852 2.169710 -6.853030
v 0.146970 -1.169710 -8.816900
v 0.169707 -1.169710 -8.732050
v 0.053795 -1.231820 -8.763110
v 0.000001 2.062120 -6.768180
v 0.000001 2.169710 -6.830290
v 0.000001 -1.169710 -8.901760
v 0.031059 -1.231820 -8.785850
v 0.000001 -1.231820 -8.794170
v 0.084853 2.169710 -6.853030
v 0.115912 2.062120 -6.799240
v 0.084853 -1.169710 -8.879020
v -0.146968 -1.169710 -8.816900
v -0.115910 -1.062120 -8.932810
v 0.146970 2.169710 -6.915150
v 0.053795 2.231820 -6.968940
v 0.031059 2.231820 -6.946210
v 0.062117 2.231820 -7.000000
v -0.053794 2.231820 -6.968940
v 0.200765 -1.062120 -8.847960
v 0.169707 2.169710 -7.000000
v -0.053794 2.231820 -7.031060
v 0.231823 -1.062120 -8.732050
v 0.000001 -1.169710 -8.562350
v -0.084852 1.830290 -6.853030
v -0.115910 -1.062120 -8.531290
v -0.200763 -1.062120 -8.616140
v -0.115910 1.937880 -6.799240
v -0.146968 -1.169710 -8.647200
v -0.084852 -1.169710 -8.585080
v -0.115910 2.062120 -6.799240
v 0.200765 -0.937883 -8.847960
v 0.084853 -1.169710 -8.585080
v -0.115910 -0.937883 -8.932810
v -0.169705 2.169710 -7.000000
v -0.062116 2.231820 -7.000000
v -0.169705 -1.169710 -8.732050
v 0.031059 -1.231820 -8.678260
v -0.115910 2.062120 -7.200760
v 0.000001 1.830290 -6.830290
v 0.231823 -0.937883 -8.732050
v 0.200765 -1.062120 -8.616140
v 0.146970 -1.169710 -8.647200
v 0.000001 2.231820 -6.937880
v 0.053795 2.231820 -7.031060
v -0.031058 -1.231820 -8.678260
v 0.000001 -1.062120 -8.500230
v 0.062117 -1.231820 -8.732050
v 0.053795 -1.231820 -8.700990
vn -0.2981 -0.9545 -0.0000
vn -0.0000 -0.9545 0.2981
vn -0.2581 -0.9545 0.1491
vn -0.9616 -0.2734 -0.0234
vn -0.8393 -0.1517 0.5221
vn -0.9872 -0.0495 0.1513
vn -0.9872 0.0495 -0.1513
vn 0.3637 0.6863 -0.6298
vn 0.1490 0.9545 -0.2581
vn 0.6299 0.6863 -0.3636
vn -0.8388 0.2487 0.4843
vn 0.2261 -0.4870 0.8436
vn 0.4617 -0.4665 0.7545
vn 0.4727 -0.2256 0.8519
vn -0.0000 0.9545 -0.2981
vn -0.0000 0.6863 -0.7273
vn -0.1491 -0.9545 -0.2581
vn -0.2581 -0.9545 -0.1490
vn -0.3637 -0.6863 -0.6299
vn -0.3637 0.6863 -0.6299
vn -0.1490 0.9545 -0.2581
vn -0.7829 0.3110 -0.5387
vn -0.0000 0.2487 -0.9686
vn -0.6299 0.6863 -0.3636
vn 0.4617 0.4665 -0.7544
vn 0.8254 0.3666 -0.4294
vn 0.4727 0.2256 -0.8519
vn 0.9872 -0.0495 0.1513
vn 0.8388 0.2487 0.4843
vn 0.8393 -0.1517 0.5221
vn 0.4843 -0.2487 -0.8388
vn -0.0000 -0.2487 -0.9686
vn -0.6221 0.3915 -0.6781
vn -0.0000 -0.2487 0.9686
vn -0.8388 -0.2487 -0.4843
vn -0.8393 0.1517 -0.5221
vn -0.8254 0.3666 -0.4294
vn -0.9616 0.2734 0.0234
vn 0.9616 0.2734 0.0234
vn -0.1490 0.9545 0.2581
vn -0.6299 0.6863 0.3636
vn -0.3637 0.6863 0.6299
vn 0.6299 -0.6863 -0.3636
vn 0.7273 -0.6863 -0.0000
vn 0.2581 -0.9545 -0.1490
vn -0.0000 0.2487 0.9686
vn -0.0000 0.6863 0.7273
vn -0.0000 -0.6863 -0.7273
vn 0.1491 -0.9545 -0.2581
vn -0.0000 -0.9545 -0.2981
vn 0.3637 0.6863 0.6299
vn 0.4843 0.2487 0.8388
vn 0.3637 -0.6863 -0.6299
vn -0.6299 -0.6863 -0.3636
vn -0.4843 -0.2487 -0.8388
vn 0.6299 0.6863 0.3636
vn 0.2581 0.9545 0.1491
vn 0.1490 0.9545 0.2581
vn 0.2981 0.9545 -0.0000
vn -0.2582 0.9545 0.1491
vn 0.8388 -0.2487 -0.4843
vn 0.7273 0.6863 -0.0000
vn -0.2581 0.9545 -0.1491
vn 0.9616 -0.2734 -0.0234
vn -0.0000 -0.6863 0.7273
vn -0.2261 -0.4870 0.8436
vn -0.4617 -0.4665 0.7545
vn -0.8254 -0.3666 0.4294
vn -0.4727 -0.2256 0.8519
vn -0.6299 -0.6863 0.3636
vn -0.3636 -0.6863 0.6299
vn -0.4843 0.2487 0.8388
vn 0.8393 0.1517 -0.5221
vn 0.3636 -0.6863 0.6299
vn -0.4727 0.2256 -0.8519
vn -0.7273 0.6863 -0.0000
vn -0.2981 0.9545 -0.0000
vn -0.7273 -0.6863 -0.0000
vn 0.1490 -0.9545 0.2581
vn -0.4617 0.4665 -0.7544
vn 0.6221 -0.3915 0.6781
vn 0.9872 0.0495 -0.1513
vn 0.8254 -0.3666 0.4294
vn 0.6299 -0.6863 0.3636
vn -0.0000 0.9545 0.2981
vn 0.2581 0.9545 -0.1491
vn -0.1490 -0.9545 0.2581
vn -0.6221 -0.3915 0.6781
vn 0.2981 -0.9545 -0.0000
vn 0.2581 -0.9545 0.1491
vt 0.389397 0.063685
vt 0.400749 0.082596
vt 0.389397 0.071678
vt 0.053372 0.966515
vt 0.021442 0.058025
vt 0.048220 0.073147
vt 0.069161 0.938555
vt 0.373890 0.093107
vt 0.393553 0.107615
vt 0.362538 0.112017
vt 0.037231 0.030064
vt 0.224129 0.062587
vt 0.213186 0.926771
vt 0.215995 0.031537
vt 0.327528 0.004015
vt 0.334916 0.002847
vt 0.331290 0.032071
vt 0.400750 0.052767
vt 0.393553 0.056764
vt 0.393553 0.022536
vt 0.308765 0.029222
vt 0.319283 0.002972
vt 0.331417 0.064174
vt 0.334958 0.959358
vt 0.289937 0.021100
vt 0.099044 0.060655
vt 0.120768 0.048410
vt 0.094101 0.953503
vt 0.163381 0.061251
vt 0.172387 0.019314
vt 0.188154 0.047287
vt 0.358992 0.982552
vt 0.331417 0.986907
vt 0.334832 0.927254
vt 0.362534 0.955002
vt 0.351476 0.028882
vt 0.246728 0.027600
vt 0.078312 0.980599
vt 0.094101 0.952639
vt 0.094101 0.030244
vt 0.088950 0.059270
vt 0.064010 0.045186
vt 0.147614 0.033278
vt 0.112235 0.021299
vt 0.362535 -0.000000
vt 0.362535 0.893384
vt 0.362534 0.032039
vt 0.416257 0.129448
vt 0.447272 0.133849
vt 0.435920 0.152759
vt 0.447272 0.052364
vt 0.447272 0.074198
vt 0.420412 0.063685
vt 0.420413 0.186213
vt 0.416258 0.163677
vt 0.416258 0.022536
vt 0.416258 0.056763
vt 0.409060 0.052768
vt 0.362538 0.171301
vt 0.393553 0.163677
vt 0.389398 0.186213
vt 0.435920 0.033454
vt 0.362538 0.014912
vt 0.373890 0.033454
vt 0.389398 0.000000
vt 0.373890 0.152759
vt 0.393553 0.129449
vt 0.400749 0.133444
vt 0.389397 0.122528
vt 0.420412 0.122528
vt 0.420413 0.000000
vt 0.134463 0.999533
vt 0.109868 0.981475
vt 0.131592 0.969230
vt 0.362534 0.925423
vt 0.190964 0.042623
vt 0.213186 0.003937
vt 0.131887 0.010222
vt 0.312392 0.000000
vt 0.158438 0.954098
vt 0.243818 0.954941
vt 0.267271 0.062831
vt 0.272119 0.927103
vt 0.026594 0.951393
vt 0.005152 0.939285
vt 0.000000 0.045916
vt 0.018257 0.978620
vt 0.002560 0.969756
vt 0.170019 0.979491
vt 0.150367 0.990568
vt 0.447272 0.171299
vt 0.150022 0.000000
vt 0.188154 0.015023
vt 0.115825 0.941258
vt 0.221320 0.957822
vt 0.304189 0.955467
vt 0.075844 0.019934
vt 0.274928 0.971923
vt 0.300647 0.983016
vt 0.278470 0.944373
vt 0.274928 0.049190
vt 0.358992 0.059819
vt 0.362538 0.133851
vt 0.435919 0.093107
vt 0.420412 0.114535
vt 0.416257 0.107614
vt 0.037860 0.989690
vt 0.232600 0.984004
vt 0.272119 0.004269
vt 0.243919 0.000000
vt 0.274928 0.031869
vt 0.447272 0.112015
vt 0.096331 0.030264
vt 0.300647 0.060283
vt 0.409060 0.103619
vt 0.056117 1.000000
vt 0.373890 0.093106
vt 0.362538 0.074196
vt 0.246628 0.059705
vt 0.142671 0.926126
vt 0.188154 0.937857
vt 0.183211 0.940135
vt 0.188154 0.969269
vt 0.447272 0.014914
vt 0.015790 0.017956
vt 0.040544 -0.000000
vt 0.400749 0.103618
vt 0.409060 0.133445
vt 0.056242 0.008864
vt 0.389397 0.114535
vt 0.393553 0.078598
vt 0.243919 0.922834
vt 0.362536 0.893385
vt 0.362535 0.861345
vt 0.362536 0.000000
vt 0.202996 0.965938
vt 0.240835 0.982949
vt 0.362538 0.052362
vt 0.420412 0.071678
vt 0.416257 0.078599
vt 0.435919 0.093106
vt 0.362538 0.032020
vt 0.362538 0.892861
vt 0.362536 -0.000000
vt 0.225893 0.986974
vt 0.248391 0.984093
vt 0.409060 0.082594
vt 0.264462 0.958065
s 1
f 1/1/1 2/2/2 3/3/3
f 4/4/4 5/5/5 6/6/6
f 6/6/6 7/7/7 4/4/4
f 8/8/8 9/9/9 10/10/10
f 5/5/5 11/11/11 6/6/6
f 12/12/12 13/13/13 14/14/14
f 15/15/15 9/16/9 16/17/16
f 17/18/17 18/19/18 19/20/19
f 20/21/20 21/22/21 16/17/16
f 20/21/20 22/23/22 23/24/23
f 24/25/24 21/22/21 20/21/20
f 25/26/25 26/27/26 27/28/27
f 28/29/28 29/30/29 30/31/30
f 23/24/23 31/32/31 32/33/32
f 33/34/33 27/35/27 23/24/23
f 16/17/16 8/36/8 33/34/33
f 34/37/34 12/12/12 14/14/14
f 35/38/35 7/7/7 36/39/36
f 24/40/24 37/41/37 38/42/38
f 4/4/4 7/7/7 35/38/35
f 39/43/39 26/27/26 10/44/10
f 16/45/16 33/46/33 22/47/22
f 40/48/40 41/49/41 42/50/42
f 43/51/43 44/52/44 45/53/45
f 46/54/46 47/55/47 42/50/42
f 48/56/48 49/57/49 50/58/50
f 39/43/39 29/30/29 28/29/28
f 29/59/29 51/60/51 52/61/52
f 53/62/53 43/51/43 45/53/45
f 35/63/35 19/20/19 54/64/54
f 55/65/55 19/20/19 35/63/35
f 56/66/56 51/60/51 29/59/29
f 56/66/56 57/67/57 58/68/58
f 59/69/59 60/70/60 57/67/57
f 7/7/7 37/41/37 36/39/36
f 55/65/55 32/71/32 48/56/48
f 16/17/16 22/23/22 20/21/20
f 16/17/16 9/16/9 8/36/8
f 53/72/53 31/73/31 61/74/61
f 22/47/22 33/46/33 23/75/23
f 30/76/30 52/77/52 14/14/14
f 39/43/39 10/44/10 62/78/62
f 63/79/63 21/22/21 24/25/24
f 52/61/52 51/60/51 46/54/46
f 30/31/30 64/80/64 28/29/28
f 65/81/65 66/82/66 67/83/67
f 68/84/68 67/85/67 69/86/69
f 70/87/70 71/88/71 68/84/68
f 61/74/61 44/89/44 43/90/43
f 46/54/46 42/50/42 72/91/72
f 39/43/39 56/92/56 29/30/29
f 29/93/29 52/77/52 30/76/30
f 26/27/26 73/94/73 27/28/27
f 39/43/39 73/94/73 26/27/26
f 27/35/27 31/32/31 23/24/23
f 65/81/65 74/95/74 13/13/13
f 23/24/23 75/96/75 20/21/20
f 48/56/48 19/20/19 55/65/55
f 69/86/69 11/11/11 5/5/5
f 6/6/6 11/11/11 38/42/38
f 38/42/38 37/41/37 7/7/7
f 76/97/76 24/40/24 38/42/38
f 35/98/35 75/96/75 55/99/55
f 36/100/36 75/96/75 35/98/35
f 38/42/38 7/7/7 6/6/6
f 20/21/20 37/101/37 24/25/24
f 27/35/27 8/36/8 25/102/25
f 33/34/33 8/36/8 27/35/27
f 62/78/62 56/92/56 39/43/39
f 10/10/10 59/69/59 62/103/62
f 16/17/16 21/22/21 15/15/15
f 24/104/24 77/105/77 63/106/63
f 4/4/4 78/107/78 68/84/68
f 79/108/79 74/95/74 65/81/65
f 50/58/50 2/2/2 17/18/17
f 28/29/28 64/80/64 39/43/39
f 72/109/72 34/37/34 46/110/46
f 69/111/69 34/37/34 72/109/72
f 59/69/59 56/66/56 62/103/62
f 76/112/76 77/105/77 24/104/24
f 8/113/8 26/27/26 25/26/25
f 10/44/10 26/27/26 8/113/8
f 75/96/75 32/33/32 55/99/55
f 23/24/23 32/33/32 75/96/75
f 48/56/48 17/18/17 19/20/19
f 50/58/50 17/18/17 48/56/48
f 61/74/61 31/73/31 73/94/73
f 73/94/73 31/73/31 27/28/27
f 51/60/51 47/55/47 46/54/46
f 58/68/58 47/55/47 51/60/51
f 68/84/68 5/5/5 4/4/4
f 69/86/69 5/5/5 68/84/68
f 20/21/20 80/114/80 37/101/37
f 75/96/75 80/114/80 20/21/20
f 57/67/57 60/70/60 58/68/58
f 63/106/63 60/70/60 21/115/21
f 41/49/41 77/105/77 76/112/76
f 41/49/41 60/70/60 77/105/77
f 35/38/35 78/107/78 4/4/4
f 54/116/54 78/107/78 35/38/35
f 3/3/3 71/117/71 70/118/70
f 65/81/65 81/119/81 66/82/66
f 69/111/69 66/82/66 34/37/34
f 67/83/67 66/82/66 69/111/69
f 82/120/82 64/80/64 73/94/73
f 13/13/13 74/95/74 83/121/83
f 34/37/34 52/77/52 46/110/46
f 14/14/14 52/77/52 34/37/34
f 59/69/59 57/67/57 56/66/56
f 77/105/77 60/70/60 63/106/63
f 82/120/82 73/94/73 39/43/39
f 83/122/83 64/80/64 30/31/30
f 84/123/84 44/89/44 83/122/83
f 39/43/39 64/80/64 82/120/82
f 17/18/17 2/2/2 18/19/18
f 68/84/68 71/88/71 67/85/67
f 48/56/48 31/124/31 53/62/53
f 32/71/32 31/124/31 48/56/48
f 72/125/72 11/11/11 69/86/69
f 42/126/42 11/11/11 72/125/72
f 58/68/58 51/60/51 56/66/56
f 15/127/15 60/70/60 9/9/9
f 58/68/58 85/128/85 47/55/47
f 38/42/38 41/129/41 76/97/76
f 36/100/36 80/114/80 75/96/75
f 37/101/37 80/114/80 36/100/36
f 10/10/10 86/130/86 59/69/59
f 9/9/9 86/130/86 10/10/10
f 87/131/87 71/117/71 3/3/3
f 78/107/78 70/87/70 68/84/68
f 61/74/61 43/90/43 53/72/53
f 13/13/13 88/132/88 65/81/65
f 12/12/12 88/132/88 13/13/13
f 66/82/66 81/119/81 34/37/34
f 65/133/65 88/134/88 81/135/81
f 83/121/83 74/95/74 84/136/84
f 53/62/53 49/57/49 48/56/48
f 45/53/45 49/57/49 53/62/53
f 11/11/11 41/129/41 38/42/38
f 42/126/42 41/129/41 11/11/11
f 40/48/40 60/70/60 41/49/41
f 42/50/42 47/55/47 40/48/40
f 21/115/21 60/70/60 15/127/15
f 47/55/47 85/128/85 40/48/40
f 65/81/65 2/137/2 79/108/79
f 78/138/78 3/3/3 70/118/70
f 30/76/30 13/13/13 83/121/83
f 14/14/14 13/13/13 30/76/30
f 89/139/89 2/2/2 45/53/45
f 18/19/18 1/1/1 78/138/78
f 90/140/90 44/52/44 84/141/84
f 83/122/83 44/89/44 64/80/64
f 34/37/34 88/132/88 12/12/12
f 81/142/81 88/143/88 34/144/34
f 58/68/58 60/70/60 85/128/85
f 85/128/85 60/70/60 40/48/40
f 86/130/86 60/70/60 59/69/59
f 9/9/9 60/70/60 86/130/86
f 54/64/54 18/19/18 78/138/78
f 19/20/19 18/19/18 54/64/54
f 18/19/18 2/2/2 1/1/1
f 3/3/3 2/2/2 87/131/87
f 90/145/90 74/95/74 79/108/79
f 84/136/84 74/95/74 90/145/90
f 64/80/64 44/89/44 61/74/61
f 73/94/73 64/80/64 61/74/61
f 87/146/87 2/137/2 65/81/65
f 90/140/90 2/2/2 89/139/89
f 79/147/79 2/2/2 90/140/90
f 78/138/78 1/1/1 3/3/3
f 49/57/49 2/2/2 50/58/50
f 45/53/45 2/2/2 49/57/49
f 65/81/65 71/148/71 87/146/87
f 67/83/67 71/148/71 65/81/65
f 89/139/89 44/52/44 90/140/90
f 45/53/45 44/52/44 89/139/89
