# Blender 4.4.3
# www.blender.org
mtllib edge_11.mtl
o edge_11
v 0.169706 0.830294 5.267950
v 0.169705 1.169710 8.732050
v 0.169705 0.830294 8.732050
v -0.169707 0.830294 8.732050
v -0.000001 0.830294 8.901760
v -0.169707 1.169710 8.732050
v -0.169706 0.830294 5.267950
v -0.000001 1.169710 8.901760
v -0.000000 1.169710 5.437650
v -0.169706 1.169710 5.267950
v -0.000001 0.830294 8.562350
v 0.169706 1.169710 5.267950
v -0.000000 0.830294 5.098240
v -0.000000 1.169710 5.098240
vn 0.7173 -0.6303 -0.2971
vn 0.7173 0.6302 0.2971
vn 0.7173 -0.6303 0.2971
vn -0.7173 -0.6303 0.2971
vn -0.0000 -0.5773 0.8165
vn -0.7173 0.6302 0.2971
vn -0.7173 -0.6303 -0.2971
vn -0.0000 0.5774 0.8165
vn -0.0000 1.0000 -0.0000
vn -0.7173 0.6303 -0.2971
vn -0.0000 -1.0000 -0.0000
vn 0.7173 0.6303 -0.2971
vn -0.0000 -0.5774 -0.8165
vn -0.0000 0.5773 -0.8165
s 1
usemtl metalEdge
f 1//1 2//2 3//3
f 4//4 5//5 6//6
f 6//6 7//7 4//4
f 8//8 9//9 10//10
f 11//11 3//3 4//4
f 12//12 13//13 14//14
f 8//8 10//10 6//6
f 5//5 2//2 8//8
f 1//1 13//13 12//12
f 4//4 7//7 11//11
f 4//4 3//3 5//5
f 6//6 5//5 8//8
f 10//10 12//12 14//14
f 9//9 12//12 10//10
f 10//10 7//7 6//6
f 11//11 13//13 1//1
f 1//1 3//3 11//11
f 8//8 12//12 9//9
f 3//3 2//2 5//5
f 7//7 13//13 11//11
f 10//10 13//13 7//7
f 14//14 13//13 10//10
f 12//12 2//2 1//1
f 8//8 2//2 12//12
