# Blender 4.4.3
# www.blender.org
mtllib edge_06.mtl
o edge_06
v 5.830290 -1.562350 0.000000
v 8.830290 0.169706 0.000001
v 6.000000 -1.562350 -0.169706
v 5.830290 -1.901760 0.000000
v 6.000000 -1.901760 0.169706
v 6.000000 -1.901760 -0.169706
v 6.000000 -1.562350 0.169706
v 9.000000 0.169706 -0.169705
v 9.000000 -0.169706 -0.169705
v 9.169710 0.169706 0.000001
v 9.169710 -0.169706 0.000001
v 6.169710 -1.901760 0.000000
v 9.000000 -0.169706 0.169707
v 9.000000 0.169706 0.169707
vn -0.9067 0.4217 -0.0000
vn -0.3689 0.9295 -0.0000
vn -0.4209 0.3448 -0.8390
vn -0.8165 -0.5774 -0.0000
vn -0.2008 -0.6503 0.7327
vn -0.2007 -0.6503 -0.7327
vn -0.4209 0.3448 0.8390
vn 0.2007 0.6503 -0.7327
vn 0.4209 -0.3448 -0.8390
vn 0.8165 0.5773 -0.0000
vn 0.9067 -0.4217 -0.0000
vn 0.3689 -0.9295 -0.0000
vn 0.4209 -0.3448 0.8390
vn 0.2007 0.6503 0.7327
s 1
usemtl metalEdge
f 1//1 2//2 3//3
f 4//4 5//5 1//1
f 6//6 4//4 3//3
f 7//7 2//2 1//1
f 8//8 9//9 3//3
f 9//9 10//10 11//11
f 11//11 12//12 6//6
f 3//3 4//4 1//1
f 5//5 12//12 11//11
f 3//3 2//2 8//8
f 10//10 13//13 11//11
f 5//5 13//13 7//7
f 8//8 10//10 9//9
f 1//1 5//5 7//7
f 6//6 9//9 11//11
f 3//3 9//9 6//6
f 8//8 14//14 10//10
f 11//11 13//13 5//5
f 4//4 12//12 5//5
f 6//6 12//12 4//4
f 2//2 14//14 8//8
f 7//7 14//14 2//2
f 14//14 13//13 10//10
f 7//7 13//13 14//14
