# Blender 4.4.3
# www.blender.org
mtllib edge_00.mtl
o edge_00
v -8.000000 1.901760 0.169705
v -7.830290 1.901760 -0.000001
v -8.169710 1.901760 -0.000001
v -4.830290 -0.169706 -0.000000
v -5.000000 0.169706 0.169706
v -5.000000 -0.169706 0.169706
v -8.000000 1.562350 -0.169707
v -8.169710 1.562350 -0.000001
v -8.000000 1.901760 -0.169707
v -5.000000 -0.169706 -0.169706
v -8.000000 1.562350 0.169705
v -5.000000 0.169706 -0.169706
v -4.830290 0.169706 -0.000000
v -5.169710 -0.169706 -0.000000
vn -0.2008 0.6503 0.7327
vn 0.3689 0.9295 -0.0000
vn -0.8165 0.5774 -0.0000
vn 0.8165 -0.5774 -0.0000
vn 0.4209 0.3448 0.8390
vn 0.2007 -0.6503 0.7327
vn -0.4209 -0.3448 -0.8390
vn -0.9067 -0.4217 -0.0000
vn -0.2008 0.6503 -0.7327
vn 0.2007 -0.6503 -0.7327
vn -0.4209 -0.3448 0.8390
vn 0.4209 0.3448 -0.8390
vn 0.9067 0.4217 -0.0000
vn -0.3689 -0.9295 -0.0000
s 1
usemtl metalEdge
f 1//1 2//2 3//3
f 4//4 5//5 6//6
f 7//7 8//8 9//9
f 3//3 2//2 9//9
f 10//10 8//8 7//7
f 1//1 8//8 11//11
f 6//6 5//5 11//11
f 2//2 12//12 9//9
f 8//8 6//6 11//11
f 13//13 4//4 12//12
f 13//13 5//5 4//4
f 13//13 12//12 2//2
f 7//7 12//12 10//10
f 9//9 12//12 7//7
f 3//3 8//8 1//1
f 9//9 8//8 3//3
f 12//12 4//4 10//10
f 11//11 5//5 1//1
f 8//8 14//14 6//6
f 10//10 14//14 8//8
f 14//14 4//4 6//6
f 10//10 4//4 14//14
f 2//2 5//5 13//13
f 1//1 5//5 2//2
