# Blender 4.4.3
# www.blender.org
g edge_08_Mesh
v -8.084850 1.901760 0.146968
v -8.053790 1.963870 0.031058
v -8.146970 1.901760 0.084852
v -7.968940 1.963870 -0.053795
v -7.915150 1.901760 -0.146970
v -8.000000 1.963870 -0.062117
v -7.853030 1.901760 -0.084853
v -7.946210 1.963870 -0.031059
v -7.830290 1.901760 -0.000001
v -8.000000 1.669930 -0.231823
v -8.115910 1.669930 -0.200765
v -8.000000 1.794170 -0.231823
v -7.968940 -1.963870 0.053794
v -8.031060 -1.963870 0.053794
v -7.946210 -1.963870 0.031058
v -8.115910 1.794170 0.200763
v -8.084850 -1.901760 0.146968
v -8.000000 -1.901760 0.169705
v -7.799240 -1.794170 -0.115912
v -7.768180 -1.669930 -0.000001
v -7.768180 -1.794170 -0.000001
v -8.000000 -1.963870 0.062116
v -7.915150 -1.901760 0.146968
v -7.884090 -1.794170 0.200763
v -8.000000 -1.794170 0.231821
v -8.084850 -1.901760 -0.146970
v -8.031060 -1.963870 -0.053795
v -8.146970 -1.901760 -0.084853
v -8.115910 -1.794170 -0.200765
v -7.853030 -1.901760 0.084852
v -8.000000 1.901760 -0.169707
v -8.084850 1.901760 -0.146970
v -8.000000 1.794170 0.231821
v -8.115910 1.669930 0.200763
v -8.000000 1.669930 0.231821
v -8.115910 1.794170 -0.200765
v -8.000000 -1.669930 0.231821
v -8.000000 -1.794170 -0.231823
v -7.915150 -1.901760 -0.146970
v -8.000000 -1.901760 -0.169707
v -8.000000 -1.669930 -0.231823
v -7.884090 1.794170 -0.200765
v -7.884090 -1.669930 -0.200765
v -8.000000 1.901760 0.169705
v -7.768180 1.794170 -0.000001
v -8.200760 1.669930 -0.115912
v -8.200760 -1.794170 -0.115912
v -8.231820 -1.794170 -0.000001
v -8.169710 -1.901760 -0.000001
v -8.200760 -1.794170 0.115910
v -7.853030 -1.901760 -0.084853
v -8.231820 1.794170 -0.000001
v -8.200760 1.794170 -0.115912
v -8.231820 1.669930 -0.000001
v -8.169710 1.901760 -0.000001
v -8.146970 1.901760 -0.084853
v -8.053790 -1.963870 -0.031059
v -7.853030 1.901760 0.084852
v -7.915150 1.901760 0.146968
v -7.884090 1.794170 0.200763
v -7.884090 -1.669930 0.200763
v -7.799240 1.794170 0.115910
v -7.884090 -1.794170 -0.200765
v -7.799240 -1.669930 -0.115912
v -7.799240 -1.794170 0.115910
v -8.115910 -1.794170 0.200763
v -7.968940 -1.963870 -0.053795
v -8.000000 -1.963870 -0.062117
v -8.200760 1.794170 0.115910
v -7.799240 1.794170 -0.115912
v -8.200760 1.669930 0.115910
v -7.799240 -1.669930 0.115910
v -8.146970 -1.901760 0.084852
v -8.053790 -1.963870 0.031058
v -8.062120 -1.963870 -0.000001
v -7.946210 -1.963870 -0.031059
v -8.053790 1.963870 -0.031059
v -8.000000 1.963870 0.062116
v -8.062120 1.963870 -0.000001
v -7.968940 1.963870 0.053794
v -7.830290 -1.901760 -0.000001
v -8.031060 1.963870 -0.053795
v -7.946210 1.963870 0.031058
v -7.937880 1.963870 -0.000001
v -7.937880 -1.963870 -0.000001
v -8.031060 1.963870 0.053794
vn -0.3637 0.6863 0.6299
vn -0.2581 0.9545 0.1490
vn -0.6299 0.6863 0.3637
vn 0.1491 0.9545 -0.2582
vn 0.3636 0.6863 -0.6299
vn -0.0000 0.9545 -0.2981
vn 0.6299 0.6863 -0.3637
vn 0.2581 0.9545 -0.1490
vn 0.7273 0.6863 -0.0000
vn 0.5547 -0.0000 0.8321
vn -0.5000 -0.0000 -0.8660
vn -0.0674 -0.0052 -0.9977
vn 0.1491 -0.9545 0.2582
vn -0.1491 -0.9545 0.2582
vn 0.2581 -0.9545 0.1490
vn -0.4843 0.2487 0.8388
vn -0.3636 -0.6863 0.6299
vn -0.0000 -0.6863 0.7273
vn 0.8388 -0.2487 -0.4843
vn 1.0000 -0.0000 -0.0000
vn 0.9686 -0.2487 -0.0000
vn -0.0000 -0.9545 0.2981
vn 0.3636 -0.6863 0.6299
vn 0.4843 -0.2487 0.8388
vn -0.0000 -0.2487 0.9686
vn -0.3636 -0.6863 -0.6299
vn -0.1491 -0.9545 -0.2581
vn -0.6299 -0.6863 -0.3637
vn -0.4843 -0.2487 -0.8388
vn 0.6299 -0.6863 0.3637
vn -0.0000 0.6863 -0.7273
vn -0.3637 0.6863 -0.6299
vn -0.0000 0.2487 0.9686
vn -0.5000 -0.0000 0.8660
vn -0.9315 0.1835 0.3142
vn -0.4843 0.2487 -0.8388
vn 0.8795 -0.1889 0.4368
vn -0.2262 0.0959 -0.9693
vn 0.3636 -0.6863 -0.6299
vn -0.0000 -0.6863 -0.7273
vn 0.1801 0.7217 -0.6683
vn 0.4843 0.2487 -0.8388
vn 0.5000 -0.0000 -0.8660
vn -0.0000 0.6863 0.7273
vn 0.9686 0.2487 -0.0000
vn -0.8660 -0.0000 -0.5000
vn -0.8388 -0.2487 -0.4843
vn -0.9686 -0.2487 -0.0000
vn -0.7273 -0.6863 -0.0000
vn -0.8388 -0.2487 0.4843
vn 0.6299 -0.6863 -0.3637
vn -0.9686 0.2487 -0.0000
vn -0.8388 0.2487 -0.4843
vn -1.0000 -0.0000 -0.0000
vn -0.7273 0.6863 -0.0000
vn -0.6299 0.6863 -0.3637
vn -0.2581 -0.9546 -0.1490
vn 0.6299 0.6863 0.3637
vn 0.3636 0.6863 0.6299
vn 0.4843 0.2487 0.8388
vn 0.5000 -0.0000 0.8660
vn 0.8388 0.2487 0.4843
vn 0.4843 -0.2487 -0.8388
vn 0.8660 -0.0000 -0.5000
vn 0.8388 -0.2487 0.4843
vn -0.4843 -0.2487 0.8388
vn 0.1491 -0.9545 -0.2582
vn -0.0000 -0.9545 -0.2981
vn -0.8388 0.2487 0.4843
vn 0.8388 0.2487 -0.4843
vn -0.8660 -0.0000 0.5000
vn 0.8660 -0.0000 0.5000
vn -0.6299 -0.6863 0.3637
vn -0.2581 -0.9545 0.1490
vn -0.2981 -0.9545 -0.0000
vn 0.2581 -0.9545 -0.1490
vn -0.2581 0.9545 -0.1490
vn -0.0000 0.9545 0.2981
vn -0.2981 0.9545 -0.0000
vn 0.1491 0.9545 0.2582
vn 0.7273 -0.6863 -0.0000
vn -0.1491 0.9545 -0.2582
vn 0.2581 0.9545 0.1490
vn 0.2981 0.9545 -0.0000
vn 0.2981 -0.9545 -0.0000
vn -0.1491 0.9545 0.2581
s 1
f 1//1 2//2 3//3
f 4//4 5//5 6//6
f 7//7 8//8 9//9
f 10//10 11//11 12//12
f 13//13 14//14 15//15
f 16//16 1//1 3//3
f 17//17 14//14 18//18
f 19//19 20//20 21//21
f 22//22 13//13 23//23
f 23//23 24//24 25//25
f 26//26 27//27 28//28
f 29//29 26//26 28//28
f 23//23 15//15 30//30
f 6//6 31//31 32//32
f 33//33 34//34 35//35
f 12//12 11//11 36//36
f 24//24 37//37 25//25
f 38//38 39//39 40//40
f 41//41 42//42 43//43
f 16//16 33//33 44//44
f 7//7 9//9 45//45
f 30//30 24//24 23//23
f 29//29 38//38 40//40
f 46//46 11//11 47//47
f 48//48 49//49 50//50
f 21//21 51//51 19//19
f 31//31 36//36 32//32
f 52//52 53//53 54//54
f 55//55 53//53 52//52
f 36//36 56//56 32//32
f 57//57 49//49 28//28
f 35//35 34//34 25//25
f 58//58 59//59 60//60
f 61//61 37//37 24//24
f 62//62 20//20 45//45
f 63//63 64//64 19//19
f 60//60 62//62 58//58
f 65//65 24//24 30//30
f 66//66 18//18 25//25
f 40//40 27//27 26//26
f 51//51 39//39 63//63
f 40//40 26//26 29//29
f 38//38 10//10 41//41
f 36//36 11//11 53//53
f 12//12 36//36 31//31
f 28//28 47//47 29//29
f 60//60 59//59 33//33
f 44//44 1//1 16//16
f 67//67 14//14 68//68
f 3//3 69//69 16//16
f 69//69 55//55 52//52
f 3//3 55//55 69//69
f 64//64 70//70 20//20
f 43//43 38//38 41//41
f 36//36 53//53 56//56
f 56//56 53//53 55//55
f 69//69 34//34 16//16
f 71//71 34//34 69//69
f 45//45 70//70 7//7
f 30//30 21//21 65//65
f 7//7 42//42 5//5
f 43//43 64//64 63//63
f 60//60 72//72 62//62
f 60//60 33//33 61//61
f 19//19 51//51 63//63
f 61//61 72//72 60//60
f 48//48 71//71 54//54
f 14//14 73//73 74//74
f 50//50 73//73 66//66
f 57//57 75//75 49//49
f 39//39 67//67 68//68
f 68//68 27//27 40//40
f 63//63 38//38 43//43
f 76//76 39//39 51//51
f 33//33 59//59 44//44
f 45//45 9//9 58//58
f 50//50 71//71 48//48
f 16//16 34//34 33//33
f 56//56 77//77 32//32
f 5//5 8//8 7//7
f 48//48 46//46 47//47
f 54//54 46//46 48//48
f 37//37 33//33 25//25
f 61//61 33//33 37//37
f 59//59 78//78 44//44
f 64//64 20//20 19//19
f 2//2 79//79 55//55
f 80//80 78//78 59//59
f 21//21 20//20 65//65
f 62//62 45//45 58//58
f 6//6 5//5 31//31
f 12//12 42//42 41//41
f 42//42 70//70 43//43
f 7//7 70//70 42//42
f 63//63 39//39 38//38
f 66//66 17//17 18//18
f 23//23 13//13 15//15
f 22//22 14//14 13//13
f 51//51 81//81 76//76
f 21//21 81//81 51//51
f 30//30 81//81 21//21
f 15//15 81//81 30//30
f 53//53 11//11 46//46
f 41//41 10//10 12//12
f 47//47 49//49 48//48
f 28//28 49//49 47//47
f 52//52 71//71 69//69
f 54//54 71//71 52//52
f 38//38 11//11 10//10
f 54//54 53//53 46//46
f 50//50 34//34 71//71
f 25//25 33//33 35//35
f 2//2 82//82 79//79
f 83//83 82//82 80//80
f 55//55 77//77 56//56
f 3//3 2//2 55//55
f 84//84 82//82 83//83
f 9//9 8//8 84//84
f 43//43 70//70 64//64
f 20//20 70//70 45//45
f 24//24 72//72 61//61
f 65//65 72//72 24//24
f 5//5 42//42 12//12
f 31//31 5//5 12//12
f 76//76 67//67 39//39
f 28//28 27//27 57//57
f 23//23 18//18 22//22
f 25//25 18//18 23//23
f 49//49 75//75 74//74
f 27//27 14//14 57//57
f 57//57 14//14 75//75
f 40//40 39//39 68//68
f 81//81 85//85 76//76
f 15//15 85//85 81//81
f 29//29 11//11 38//38
f 47//47 11//11 29//29
f 18//18 14//14 22//22
f 75//75 14//14 74//74
f 66//66 34//34 50//50
f 25//25 34//34 66//66
f 78//78 82//82 86//86
f 9//9 83//83 58//58
f 78//78 86//86 1//1
f 44//44 78//78 1//1
f 8//8 82//82 84//84
f 77//77 82//82 32//32
f 72//72 20//20 62//62
f 65//65 20//20 72//72
f 17//17 73//73 14//14
f 66//66 73//73 17//17
f 76//76 14//14 67//67
f 68//68 14//14 27//27
f 80//80 82//82 78//78
f 84//84 83//83 9//9
f 4//4 8//8 5//5
f 86//86 82//82 2//2
f 59//59 83//83 80//80
f 58//58 83//83 59//59
f 4//4 82//82 8//8
f 1//1 86//86 2//2
f 79//79 82//82 77//77
f 55//55 79//79 77//77
f 6//6 82//82 4//4
f 32//32 82//82 6//6
f 85//85 14//14 76//76
f 15//15 14//14 85//85
f 49//49 73//73 50//50
f 74//74 73//73 49//49
