# Blender 4.4.3
# www.blender.org
g edge_10_Mesh
v 8.968940 -0.231822 0.053795
v 9.000000 -0.169706 0.169707
v 8.915150 -0.169706 0.146970
v 6.000000 1.794170 -0.231822
v 6.000000 1.901760 -0.169706
v 6.084850 1.901760 -0.146969
v 9.169710 -0.169706 0.000001
v 9.231820 -0.062117 0.000001
v 9.200760 -0.062117 0.115912
v 6.000000 1.963870 -0.062116
v 5.768180 1.669930 0.000000
v 5.768180 1.794170 0.000000
v 5.799240 1.669930 -0.115911
v 9.053790 -0.231822 -0.031058
v 8.946210 -0.231822 -0.031058
v 9.031060 -0.231822 -0.053794
v 6.115910 1.794170 0.200764
v 9.000000 0.062117 0.231823
v 9.115910 0.062117 0.200765
v 5.884090 1.669930 -0.200764
v 5.915150 1.562350 -0.146969
v 5.853030 1.562350 -0.084852
v 9.000000 -0.169706 -0.169705
v 9.000000 -0.231822 -0.062116
v 8.853030 -0.169706 -0.084852
v 5.853030 1.562350 0.084853
v 8.946210 -0.231822 0.031059
v 8.853030 -0.169706 0.084853
v 9.200760 0.062117 0.115912
v 9.231820 0.062117 0.000001
v 9.146970 0.169706 -0.084852
v 9.084850 0.169706 -0.146968
v 5.884090 1.794170 -0.200764
v 5.915150 1.901760 -0.146969
v 5.915150 1.901760 0.146969
v 5.968940 1.963870 0.053795
v 5.946210 1.963870 0.031059
v 9.200760 0.062117 -0.115910
v 9.169710 0.169706 0.000001
v 5.799240 1.794170 -0.115911
v 9.115910 0.062117 -0.200763
v 6.115910 1.794170 -0.200764
v 5.884090 1.669930 0.200764
v 5.915150 1.562350 0.146969
v 8.884090 -0.062117 0.200765
v 6.062120 1.963870 0.000000
v 6.053790 1.963870 0.031059
v 6.146970 1.901760 0.084853
v 6.084850 1.901760 0.146969
v 9.146970 0.169706 0.084853
v 9.053790 0.231822 0.031059
v 9.084850 0.169706 0.146970
v 9.146970 -0.169706 0.084853
v 9.115910 -0.062117 0.200765
v 9.084850 -0.169706 0.146970
v 8.884090 -0.062117 -0.200763
v 9.000000 -0.062117 -0.231821
v 6.000000 1.669930 -0.231822
v 9.000000 0.062117 -0.231821
v 9.053790 0.231822 -0.031058
v 6.053790 1.963870 -0.031058
v 6.031060 1.963870 0.053795
v 6.031060 1.963870 -0.053794
v 9.115910 -0.062117 -0.200763
v 9.084850 -0.169706 -0.146968
v 6.146970 1.901760 -0.084852
v 8.937880 -0.231822 0.000001
v 5.830290 1.562350 0.000000
v 9.200760 -0.062117 -0.115910
v 5.799240 1.669930 0.115911
v 6.000000 1.794170 0.231822
v 5.937880 1.963870 0.000000
v 5.830290 1.901760 0.000000
v 9.146970 -0.169706 -0.084852
v 5.853030 1.901760 -0.084852
v 5.946210 1.963870 -0.031058
v 5.968940 1.963870 -0.053794
v 9.000000 -0.231822 0.062117
v 8.915150 -0.169706 -0.146968
v 9.053790 -0.231822 0.031059
v 9.062120 -0.231822 0.000001
v 9.031060 -0.231822 0.053795
v 6.000000 1.901760 0.169706
v 5.799240 1.794170 0.115911
v 5.884090 1.794170 0.200764
v 9.000000 -0.062117 0.231823
v 6.000000 1.669930 0.231822
v 8.830290 -0.169706 0.000001
v 5.946210 1.500230 0.031059
v 5.853030 1.901760 0.084853
v 6.000000 1.963870 0.062117
v 8.968940 -0.231822 -0.053794
v 5.946210 1.500230 -0.031058
v 5.937880 1.500230 0.000000
vn -0.1491 -0.9545 0.2582
vn -0.0000 -0.6863 0.7273
vn -0.2887 -0.7229 0.6277
vn -0.0469 0.2853 -0.9573
vn -0.0000 0.6863 -0.7273
vn 0.2886 0.7230 -0.6277
vn 0.7273 -0.6863 -0.0000
vn 0.9686 -0.2487 -0.0000
vn 0.8388 -0.2487 0.4843
vn -0.0000 0.9545 -0.2981
vn -0.9686 -0.2487 -0.0000
vn -0.9686 0.2487 -0.0000
vn -0.8388 -0.2487 -0.4843
vn 0.2581 -0.9545 -0.1490
vn -0.2582 -0.9545 -0.1491
vn 0.1491 -0.9545 -0.2582
vn 0.2518 0.4582 0.8525
vn 0.1673 0.1733 0.9706
vn 0.4924 0.2409 0.8364
vn -0.4924 -0.2409 -0.8364
vn -0.4483 -0.6118 -0.6518
vn -0.6498 -0.6708 -0.3575
vn -0.0000 -0.6863 -0.7273
vn -0.0000 -0.9545 -0.2981
vn -0.4555 -0.8390 -0.2978
vn -0.6498 -0.6708 0.3575
vn -0.2581 -0.9545 0.1490
vn -0.4555 -0.8390 0.2978
vn 0.8388 0.2487 0.4843
vn 0.9686 0.2487 -0.0000
vn 0.6498 0.6708 -0.3575
vn 0.4483 0.6117 -0.6518
vn -0.4843 0.2487 -0.8388
vn -0.3636 0.6863 -0.6299
vn -0.3636 0.6863 0.6299
vn -0.1491 0.9545 0.2582
vn -0.2581 0.9545 0.1490
vn 0.8388 0.2487 -0.4843
vn 0.7273 0.6863 -0.0000
vn -0.8388 0.2487 -0.4843
vn 0.4924 0.2409 -0.8364
vn 0.2518 0.4582 -0.8525
vn -0.4924 -0.2409 0.8364
vn -0.4483 -0.6118 0.6518
vn -0.2518 -0.4582 0.8525
vn 0.2981 0.9545 -0.0000
vn 0.2581 0.9545 0.1490
vn 0.4555 0.8390 0.2977
vn 0.2886 0.7230 0.6277
vn 0.6498 0.6708 0.3575
vn 0.4956 0.8584 0.1328
vn 0.4483 0.6117 0.6518
vn 0.6299 -0.6863 0.3637
vn 0.4843 -0.2487 0.8388
vn 0.3637 -0.6863 0.6299
vn -0.2518 -0.4582 -0.8525
vn 0.0469 -0.2853 -0.9573
vn -0.1673 -0.1733 -0.9706
vn 0.1673 0.1733 -0.9706
vn 0.4956 0.8583 -0.1328
vn 0.2581 0.9545 -0.1490
vn 0.1491 0.9545 0.2582
vn 0.1491 0.9545 -0.2581
vn 0.4843 -0.2487 -0.8388
vn 0.3637 -0.6863 -0.6299
vn 0.4555 0.8390 -0.2977
vn -0.2981 -0.9545 -0.0000
vn -0.7273 -0.6863 -0.0000
vn 0.8388 -0.2487 -0.4843
vn -0.8388 -0.2487 0.4843
vn -0.0469 0.2853 0.9573
vn -0.2981 0.9545 -0.0000
vn -0.7273 0.6863 -0.0000
vn 0.6299 -0.6863 -0.3637
vn -0.6299 0.6863 -0.3637
vn -0.2581 0.9545 -0.1490
vn -0.1491 0.9545 -0.2582
vn -0.0000 -0.9545 0.2981
vn -0.2887 -0.7229 -0.6277
vn 0.2581 -0.9545 0.1490
vn 0.2981 -0.9545 -0.0000
vn 0.1491 -0.9545 0.2582
vn -0.0000 0.6863 0.7273
vn -0.8388 0.2487 0.4843
vn -0.4843 0.2487 0.8388
vn 0.0469 -0.2853 0.9573
vn -0.1673 -0.1733 0.9706
vn -0.5000 -0.8660 -0.0000
vn -0.4956 -0.8583 0.1329
vn -0.6299 0.6863 0.3637
vn -0.0000 0.9545 0.2981
vn -0.1491 -0.9545 -0.2582
vn -0.4956 -0.8583 -0.1329
s 1
f 1//1 2//2 3//3
f 4//4 5//5 6//6
f 7//7 8//8 9//9
f 6//6 5//5 10//10
f 11//11 12//12 13//13
f 14//14 15//15 16//16
f 17//17 18//18 19//19
f 20//20 21//21 22//22
f 23//23 16//16 24//24
f 25//25 15//15 22//22
f 13//13 20//20 22//22
f 26//26 27//27 28//28
f 29//29 8//8 30//30
f 6//6 31//31 32//32
f 33//33 34//34 4//4
f 35//35 36//36 37//37
f 30//30 38//38 39//39
f 39//39 29//29 30//30
f 40//40 20//20 13//13
f 41//41 42//42 6//6
f 43//43 44//44 45//45
f 38//38 31//31 39//39
f 46//46 47//47 39//39
f 48//48 47//47 49//49
f 48//48 50//50 51//51
f 28//28 44//44 26//26
f 29//29 50//50 19//19
f 39//39 50//50 29//29
f 6//6 42//42 4//4
f 6//6 32//32 41//41
f 52//52 49//49 19//19
f 50//50 49//49 52//52
f 9//9 53//53 7//7
f 54//54 2//2 55//55
f 48//48 49//49 50//50
f 3//3 44//44 28//28
f 56//56 21//21 20//20
f 57//57 58//58 59//59
f 56//56 57//57 23//23
f 5//5 34//34 10//10
f 39//39 31//31 60//60
f 39//39 61//61 46//46
f 51//51 50//50 39//39
f 48//48 51//51 39//39
f 10//10 62//62 63//63
f 19//19 50//50 52//52
f 23//23 64//64 65//65
f 66//66 31//31 6//6
f 9//9 8//8 29//29
f 41//41 64//64 59//59
f 59//59 42//42 41//41
f 4//4 42//42 59//59
f 67//67 15//15 27//27
f 11//11 68//68 26//26
f 7//7 69//69 8//8
f 9//9 54//54 53//53
f 39//39 47//47 48//48
f 43//43 70//70 26//26
f 45//45 44//44 3//3
f 71//71 18//18 17//17
f 37//37 72//72 73//73
f 49//49 17//17 19//19
f 13//13 12//12 40//40
f 74//74 69//69 7//7
f 4//4 34//34 5//5
f 12//12 75//75 40//40
f 72//72 62//62 76//76
f 66//66 61//61 39//39
f 6//6 61//61 66//66
f 76//76 77//77 34//34
f 39//39 60//60 66//66
f 60//60 31//31 66//66
f 41//41 31//31 38//38
f 32//32 31//31 41//41
f 8//8 69//69 30//30
f 69//69 64//64 38//38
f 74//74 64//64 69//69
f 14//14 16//16 74//74
f 38//38 64//64 41//41
f 7//7 14//14 74//74
f 74//74 16//16 65//65
f 65//65 16//16 23//23
f 1//1 15//15 78//78
f 26//26 44//44 43//43
f 79//79 21//21 56//56
f 80//80 81//81 7//7
f 18//18 54//54 19//19
f 55//55 2//2 82//82
f 49//49 83//83 71//71
f 84//84 70//70 85//85
f 85//85 43//43 71//71
f 86//86 43//43 45//45
f 73//73 72//72 76//76
f 47//47 62//62 49//49
f 71//71 17//17 49//49
f 87//87 18//18 71//71
f 22//22 11//11 13//13
f 22//22 68//68 11//11
f 33//33 20//20 40//40
f 20//20 58//58 56//56
f 34//34 75//75 76//76
f 34//34 77//77 10//10
f 6//6 63//63 61//61
f 10//10 63//63 6//6
f 56//56 58//58 57//57
f 59//59 58//58 4//4
f 65//65 64//64 74//74
f 30//30 69//69 38//38
f 16//16 15//15 24//24
f 28//28 1//1 3//3
f 86//86 2//2 54//54
f 27//27 15//15 1//1
f 22//22 15//15 88//88
f 86//86 54//54 18//18
f 23//23 79//79 56//56
f 78//78 15//15 82//82
f 68//68 89//89 26//26
f 28//28 27//27 1//1
f 86//86 18//18 87//87
f 53//53 54//54 55//55
f 87//87 43//43 86//86
f 71//71 43//43 87//87
f 12//12 84//84 90//90
f 12//12 70//70 84//84
f 85//85 35//35 90//90
f 71//71 35//35 85//85
f 35//35 37//37 90//90
f 37//37 73//73 90//90
f 33//33 75//75 34//34
f 40//40 75//75 33//33
f 46//46 62//62 47//47
f 83//83 91//91 35//35
f 33//33 58//58 20//20
f 4//4 58//58 33//33
f 57//57 64//64 23//23
f 59//59 64//64 57//57
f 82//82 53//53 55//55
f 92//92 25//25 79//79
f 88//88 15//15 67//67
f 79//79 25//25 21//21
f 80//80 53//53 82//82
f 7//7 53//53 80//80
f 29//29 54//54 9//9
f 19//19 54//54 29//29
f 45//45 2//2 86//86
f 3//3 2//2 45//45
f 88//88 93//93 22//22
f 7//7 81//81 14//14
f 23//23 92//92 79//79
f 24//24 92//92 23//23
f 27//27 88//88 67//67
f 26//26 88//88 27//27
f 75//75 73//73 76//76
f 71//71 83//83 35//35
f 49//49 91//91 83//83
f 91//91 62//62 36//36
f 85//85 70//70 43//43
f 90//90 84//84 85//85
f 12//12 73//73 75//75
f 90//90 73//73 12//12
f 2//2 78//78 82//82
f 1//1 78//78 2//2
f 81//81 15//15 14//14
f 82//82 15//15 80//80
f 80//80 15//15 81//81
f 21//21 25//25 22//22
f 93//93 94//88 68//68
f 26//26 89//89 88//88
f 88//88 94//88 93//93
f 22//22 93//93 68//68
f 76//76 62//62 77//77
f 77//77 62//62 10//10
f 11//11 70//70 12//12
f 26//26 70//70 11//11
f 91//91 36//36 35//35
f 49//49 62//62 91//91
f 92//92 15//15 25//25
f 24//24 15//15 92//92
f 89//89 94//88 88//88
f 68//68 94//88 89//89
f 61//61 62//62 46//46
f 63//63 62//62 61//61
f 37//37 62//62 72//72
f 36//36 62//62 37//37
