# Blender 4.4.3
# www.blender.org
o edge_02
g edge_02_Mesh
v 5.768180 1.794170 0.000000
v 5.853030 1.901760 0.084853
v 5.830290 1.901760 0.000000
v 6.000000 1.794170 0.231822
v 6.000000 -1.669930 0.231822
v 6.115910 1.794170 0.200764
v 5.915150 1.901760 -0.146969
v 5.853030 1.901760 -0.084852
v 5.946210 1.963870 -0.031058
v 5.946210 1.963870 0.031059
v 6.000000 -1.669930 -0.231822
v 6.000000 1.669930 -0.231822
v 6.000000 1.794170 -0.231822
v 5.768180 -1.794170 0.000000
v 5.799240 1.669930 0.115911
v 5.768180 1.669930 0.000000
v 6.000000 -1.963870 -0.062116
v 6.000000 -1.901760 -0.169706
v 6.084850 -1.901760 -0.146969
v 5.884090 1.669930 0.200764
v 6.000000 1.669930 0.231822
v 5.884090 1.794170 0.200764
v 5.915150 1.901760 0.146969
v 5.968940 1.963870 0.053795
v 6.000000 -1.794170 0.231822
v 6.115910 -1.794170 0.200764
v 5.884090 1.794170 -0.200764
v 5.968940 1.963870 -0.053794
v 6.000000 1.963870 -0.062116
v 6.146970 1.901760 0.084853
v 6.053790 1.963870 0.031059
v 6.084850 1.901760 0.146969
v 6.231820 1.794170 0.000000
v 6.231820 -1.669930 0.000000
v 6.200760 1.794170 -0.115911
v 6.115910 -1.669930 0.200764
v 6.062120 -1.963870 0.000000
v 6.053790 -1.963870 -0.031058
v 6.169710 -1.901760 0.000000
v 6.200760 -1.794170 -0.115911
v 6.200760 -1.669930 -0.115911
v 5.884090 1.669930 -0.200764
v 6.000000 1.901760 -0.169706
v 5.799240 -1.794170 -0.115911
v 5.799240 1.669930 -0.115911
v 5.884090 -1.794170 -0.200764
v 6.115910 -1.794170 -0.200764
v 6.146970 -1.901760 -0.084852
v 6.053790 -1.963870 0.031059
v 5.884090 -1.794170 0.200764
v 5.799240 -1.794170 0.115911
v 6.231820 -1.794170 0.000000
v 6.200760 -1.794170 0.115911
v 6.146970 -1.901760 0.084853
v 6.031060 -1.963870 -0.053794
v 6.000000 -1.794170 -0.231822
v 6.200760 -1.669930 0.115911
v 5.946210 -1.963870 0.031059
v 5.968940 -1.963870 -0.053794
v 5.968940 -1.963870 0.053795
v 5.799240 1.794170 -0.115911
v 6.200760 1.794170 0.115911
v 6.062120 1.963870 0.000000
v 6.031060 1.963870 -0.053794
v 6.115910 -1.669930 -0.200764
v 6.031060 1.963870 0.053795
v 6.000000 1.963870 0.062117
v 6.084850 1.901760 -0.146969
v 5.853030 -1.901760 -0.084852
v 5.946210 -1.963870 -0.031058
v 5.937880 -1.963870 0.000000
v 6.053790 1.963870 -0.031058
v 6.115910 1.794170 -0.200764
v 6.146970 1.901760 -0.084852
v 6.169710 1.901760 0.000000
v 5.799240 1.794170 0.115911
v 6.000000 1.901760 0.169706
v 5.915150 -1.901760 0.146969
v 5.853030 -1.901760 0.084853
v 6.000000 -1.901760 0.169706
v 6.084850 -1.901760 0.146969
v 5.830290 -1.901760 0.000000
v 5.915150 -1.901760 -0.146969
v 6.000000 -1.963870 0.062117
v 6.031060 -1.963870 0.053795
v 5.937880 1.963870 0.000000
vn -0.9686 0.2487 -0.0000
vn -0.6299 0.6863 0.3637
vn -0.7273 0.6863 -0.0000
vn -0.0000 0.6637 0.7480
vn 0.1900 -0.4213 0.8868
vn 0.4843 0.2487 0.8388
vn -0.3636 0.6863 -0.6299
vn -0.6299 0.6863 -0.3637
vn -0.2581 0.9545 -0.1490
vn -0.2581 0.9545 0.1490
vn 0.1794 0.7207 -0.6696
vn 0.1868 -0.9517 -0.2435
vn -0.0674 -0.0050 -0.9977
vn -0.9686 -0.2487 -0.0000
vn -0.8660 -0.0000 0.5000
vn -1.0000 -0.0000 -0.0000
vn -0.0000 -0.9545 -0.2981
vn -0.0000 -0.6863 -0.7273
vn 0.3636 -0.6863 -0.6299
vn -0.5000 -0.0000 0.8660
vn 0.5312 -0.0800 0.8435
vn -0.4843 0.2487 0.8388
vn -0.3636 0.6863 0.6299
vn -0.1491 0.9545 0.2581
vn -0.4558 -0.1918 0.8692
vn 0.4843 -0.2487 0.8388
vn -0.4843 0.2487 -0.8388
vn -0.1491 0.9545 -0.2581
vn -0.0000 0.9545 -0.2981
vn 0.6299 0.6863 0.3637
vn 0.2581 0.9545 0.1490
vn 0.3636 0.6863 0.6299
vn 0.9686 0.2487 -0.0000
vn 1.0000 -0.0000 -0.0000
vn 0.8388 0.2487 -0.4843
vn 0.5000 -0.0000 0.8660
vn 0.2981 -0.9545 -0.0000
vn 0.2581 -0.9545 -0.1490
vn 0.7273 -0.6863 -0.0000
vn 0.8388 -0.2487 -0.4843
vn 0.8660 -0.0000 -0.5000
vn -0.5000 -0.0000 -0.8660
vn -0.0000 0.6863 -0.7273
vn -0.8388 -0.2487 -0.4843
vn -0.8660 -0.0000 -0.5000
vn -0.4843 -0.2487 -0.8388
vn 0.4843 -0.2487 -0.8388
vn 0.6299 -0.6863 -0.3637
vn 0.2581 -0.9545 0.1490
vn -0.4843 -0.2487 0.8388
vn -0.8388 -0.2487 0.4843
vn 0.9686 -0.2487 -0.0000
vn 0.8388 -0.2487 0.4843
vn 0.6299 -0.6863 0.3637
vn 0.1491 -0.9545 -0.2582
vn -0.4558 -0.1918 -0.8692
vn 0.8660 -0.0000 0.5000
vn -0.2581 -0.9545 0.1490
vn -0.1491 -0.9545 -0.2582
vn -0.1491 -0.9545 0.2581
vn -0.8388 0.2487 -0.4843
vn 0.8388 0.2487 0.4843
vn 0.2981 0.9545 -0.0000
vn 0.1491 0.9545 -0.2582
vn 0.5000 -0.0000 -0.8660
vn 0.1491 0.9545 0.2582
vn -0.0000 0.9545 0.2981
vn 0.3636 0.6863 -0.6299
vn -0.6299 -0.6863 -0.3637
vn -0.2581 -0.9545 -0.1490
vn -0.2981 -0.9545 -0.0000
vn 0.2581 0.9545 -0.1490
vn 0.4843 0.2487 -0.8388
vn 0.6299 0.6863 -0.3637
vn 0.7273 0.6863 -0.0000
vn -0.8388 0.2487 0.4843
vn -0.0000 0.6863 0.7273
vn -0.3636 -0.6863 0.6299
vn -0.6299 -0.6863 0.3637
vn -0.0000 -0.6863 0.7273
vn 0.3636 -0.6863 0.6299
vn -0.7273 -0.6863 -0.0000
vn -0.3636 -0.6863 -0.6299
vn -0.0000 -0.9545 0.2981
vn 0.1491 -0.9545 0.2581
vn -0.2981 0.9545 -0.0000
vt 0.058873 0.028287
vt 0.031550 0.000000
vt 0.054646 0.000000
vt 0.231262 0.028287
vt 0.231262 0.939049
vt 0.199713 0.028287
vt 0.399426 0.086195
vt 0.376330 0.086196
vt 0.383651 0.058872
vt 0.356327 0.074649
vt 0.344779 0.054647
vt 0.372103 0.047324
vt 0.344779 0.172392
vt 0.058873 0.971713
vt 0.027323 0.060951
vt 0.058873 0.060951
vt 0.074648 0.000000
vt 0.376328 0.117747
vt 0.356326 0.097745
vt 0.376327 0.086197
vt 0.258585 0.060951
vt 0.231262 0.060951
vt 0.258585 0.028287
vt 0.344779 0.031551
vt 0.372101 0.038872
vt 0.231262 0.971713
vt 0.199713 0.971713
vt 0.290134 0.000000
vt 0.317457 0.028287
vt 0.285907 0.028287
vt 0.392103 0.058873
vt 0.399425 0.054646
vt 0.399423 -0.000000
vt 0.392102 0.027324
vt 0.376327 0.000001
vt 0.145068 0.028287
vt 0.145068 0.939049
vt 0.113518 0.028287
vt 0.199713 0.939049
vt 0.399425 0.117745
vt 0.392102 0.113520
vt 0.419426 0.097743
vt 0.113518 0.971713
vt 0.113518 0.939049
vt 0.317457 0.060951
vt 0.285907 0.060951
vt 0.270132 0.000000
vt 0.419427 0.074647
vt 0.203940 0.000000
vt 0.258585 0.971713
vt 0.258585 0.060951
vt 0.285907 0.971713
vt 0.097743 1.000000
vt 0.086195 0.971713
vt 0.117745 1.000000
vt 0.403650 0.125068
vt 0.344779 0.878097
vt 0.344779 0.000000
vt 0.344779 0.910762
vt 0.000000 0.971713
vt 0.027323 0.971713
vt 0.145068 0.971713
vt 0.172391 0.971713
vt 0.160843 1.000000
vt 0.383649 0.113519
vt 0.317457 0.971713
vt 0.344779 0.971713
vt 0.333231 1.000000
vt 0.172391 0.939049
vt 0.383651 0.145068
vt 0.372101 0.125068
vt 0.392103 0.145069
vt 0.172390 0.971713
vt 0.183937 1.000000
vt 0.258585 0.028287
vt 0.172390 0.028287
vt 0.183937 0.000000
vt 0.399425 0.031549
vt 0.403652 0.047324
vt 0.313230 0.000000
vt 0.317457 0.939049
vt 0.344779 0.939049
vt 0.000000 0.028287
vt 0.000000 0.060951
vt 0.383650 0.027323
vt 0.376328 0.031550
vt 0.333231 0.000000
vt 0.074648 1.000000
vt 0.086195 0.971713
vt 0.372103 0.133521
vt 0.376328 0.140843
vt 0.258585 0.971713
vt 0.399423 0.086196
vt 0.403650 0.038871
vt 0.160843 0.000000
vt 0.172391 0.028287
vt 0.172390 0.939049
vt 0.086195 0.939049
vt 0.086195 0.028287
vt 0.117745 0.000000
vt 0.140841 0.000000
vt 0.344779 0.028287
vt 0.027323 0.028287
vt 0.227035 0.000000
vt 0.247036 0.000000
vt 0.419426 0.011546
vt 0.430974 0.054645
vt 0.399426 0.172391
vt 0.376330 0.172392
vt 0.031550 1.000000
vt 0.011548 1.000000
vt 0.140841 1.000000
vt 0.227035 1.000000
vt 0.203940 1.000000
vt 0.430974 0.117745
vt 0.430974 0.140841
vt 0.356327 0.160846
vt 0.290134 1.000000
vt 0.313230 1.000000
vt 0.054646 1.000000
vt 0.270132 1.000000
vt 0.097743 0.000000
vt 0.344779 0.910762
vt 0.344779 0.000000
vt 0.344779 0.878097
vt 0.356326 0.011549
vt 0.399425 0.140842
vt 0.403652 0.133520
vt 0.247036 1.000000
vt 0.344779 0.117747
vt 0.086195 0.028287
vt 0.430974 0.031549
vt 0.376328 0.054647
vt 0.011548 0.000000
vt 0.344779 0.140844
vt 0.086195 0.060951
vt 0.419427 0.160843
s 1
f 1/1/1 2/2/2 3/3/3
f 4/4/4 5/5/5 6/6/6
f 7/7/7 8/8/8 9/9/9
f 3/10/3 2/11/2 10/12/10
f 11/13/11 12/13/12 13/13/13
f 14/14/14 15/15/15 16/16/16
f 8/17/8 1/1/1 3/3/3
f 17/18/17 18/19/18 19/20/19
f 20/21/20 21/22/21 22/23/22
f 23/24/23 24/25/24 10/12/10
f 25/26/25 26/27/26 5/5/5
f 7/28/7 13/29/13 27/30/27
f 28/31/28 7/7/7 9/9/9
f 29/32/29 7/7/7 28/31/28
f 30/33/30 31/34/31 32/35/32
f 33/36/33 34/37/34 35/38/35
f 6/6/6 5/5/5 36/39/36
f 37/40/37 38/41/38 39/42/39
f 34/37/34 40/43/40 41/44/41
f 27/30/27 12/45/12 42/46/42
f 27/30/27 8/47/8 7/28/7
f 29/32/29 43/48/43 7/7/7
f 32/49/32 4/4/4 6/6/6
f 44/50/44 45/51/45 46/52/46
f 19/53/19 47/54/47 48/55/48
f 39/42/39 49/56/49 37/40/37
f 5/57/5 21/58/21 25/59/25
f 50/60/50 15/15/15 51/61/51
f 52/62/52 53/63/53 54/64/54
f 19/20/19 55/65/55 17/18/17
f 56/66/56 47/67/47 19/68/19
f 33/36/33 57/69/57 34/37/34
f 58/70/58 59/71/59 60/72/60
f 53/73/53 26/27/26 54/74/54
f 15/15/15 1/1/1 16/16/16
f 27/30/27 45/51/45 61/75/61
f 62/76/62 30/77/30 6/6/6
f 29/32/29 63/78/63 64/79/64
f 43/80/43 13/29/13 7/28/7
f 47/67/47 11/81/11 65/82/65
f 22/83/22 15/15/15 20/84/20
f 66/85/66 67/86/67 32/35/32
f 43/80/43 68/87/68 13/29/13
f 24/25/24 63/78/63 10/12/10
f 20/84/20 15/15/15 50/60/50
f 69/88/69 14/14/14 44/89/44
f 70/90/70 59/71/59 71/91/71
f 50/92/50 21/22/21 20/21/20
f 52/62/52 40/43/40 34/37/34
f 48/93/48 38/41/38 19/20/19
f 35/38/35 34/37/34 41/44/41
f 64/79/64 63/78/63 72/94/72
f 38/41/38 55/65/55 19/20/19
f 39/42/39 38/41/38 48/93/48
f 33/36/33 30/95/30 62/96/62
f 6/6/6 57/97/57 62/76/62
f 56/66/56 11/81/11 47/67/47
f 48/55/48 40/43/40 52/62/52
f 65/98/65 73/99/73 41/44/41
f 33/36/33 74/100/74 75/101/75
f 65/82/65 11/81/11 73/102/73
f 42/46/42 12/45/12 46/52/46
f 76/103/76 1/1/1 15/15/15
f 9/9/9 8/8/8 3/10/3
f 4/4/4 77/104/77 23/105/23
f 75/106/75 31/34/31 30/33/30
f 13/29/13 68/87/68 73/102/73
f 29/32/29 68/107/68 43/48/43
f 58/70/58 78/108/78 79/109/79
f 34/37/34 57/69/57 52/62/52
f 79/110/79 78/111/78 50/60/50
f 51/61/51 79/110/79 50/60/50
f 52/62/52 39/112/39 48/55/48
f 54/64/54 39/112/39 52/62/52
f 25/26/25 80/113/80 81/114/81
f 47/54/47 40/43/40 48/55/48
f 81/114/81 26/27/26 25/26/25
f 54/115/54 81/116/81 49/56/49
f 70/90/70 71/91/71 82/117/82
f 60/72/60 78/108/78 58/70/58
f 53/73/53 57/97/57 26/27/26
f 52/62/52 57/69/57 53/63/53
f 56/66/56 83/118/83 46/52/46
f 19/68/19 18/119/18 56/66/56
f 46/52/46 45/51/45 42/46/42
f 14/14/14 82/120/82 79/110/79
f 44/50/44 46/52/46 69/121/69
f 42/46/42 45/51/45 27/30/27
f 65/98/65 40/43/40 47/54/47
f 41/44/41 40/43/40 65/98/65
f 68/122/68 74/100/74 73/99/73
f 41/44/41 73/99/73 35/38/35
f 13/29/13 12/45/12 27/30/27
f 73/102/73 11/81/11 13/29/13
f 56/123/56 12/124/12 11/125/11
f 46/52/46 12/45/12 56/66/56
f 32/49/32 77/104/77 4/4/4
f 72/94/72 63/78/63 75/106/75
f 23/105/23 22/23/22 4/4/4
f 76/103/76 2/2/2 1/1/1
f 32/35/32 67/86/67 77/126/77
f 77/126/77 67/86/67 23/24/23
f 6/6/6 30/77/30 32/49/32
f 67/86/67 24/25/24 23/24/23
f 75/101/75 30/95/30 33/36/33
f 32/35/32 31/34/31 66/85/66
f 25/26/25 21/22/21 50/92/50
f 54/74/54 26/27/26 81/114/81
f 4/13/4 21/13/21 5/13/5
f 22/23/22 21/22/21 4/4/4
f 54/115/54 49/56/49 39/42/39
f 84/127/84 85/128/85 81/116/81
f 85/128/85 59/71/59 49/56/49
f 79/109/79 82/117/82 58/70/58
f 50/92/50 78/129/78 25/26/25
f 83/130/83 59/71/59 70/90/70
f 81/116/81 85/128/85 49/56/49
f 82/117/82 71/91/71 58/70/58
f 62/96/62 57/69/57 33/36/33
f 5/5/5 26/27/26 36/39/36
f 36/39/36 57/97/57 6/6/6
f 26/27/26 57/97/57 36/39/36
f 38/41/38 59/71/59 55/65/55
f 84/127/84 59/71/59 85/128/85
f 51/61/51 14/14/14 79/110/79
f 51/61/51 15/15/15 14/14/14
f 17/18/17 83/130/83 18/19/18
f 18/119/18 83/118/83 56/66/56
f 76/103/76 15/15/15 22/83/22
f 22/83/22 2/2/2 76/103/76
f 8/17/8 61/131/61 1/1/1
f 27/30/27 61/75/61 8/47/8
f 72/94/72 74/132/74 68/107/68
f 75/106/75 74/132/74 72/94/72
f 3/10/3 86/133/86 9/9/9
f 10/12/10 86/133/86 3/10/3
f 23/134/23 2/2/2 22/83/22
f 10/12/10 2/11/2 23/24/23
f 67/86/67 63/78/63 24/25/24
f 75/106/75 63/78/63 31/34/31
f 68/107/68 64/79/64 72/94/72
f 29/32/29 64/79/64 68/107/68
f 84/127/84 78/108/78 60/72/60
f 78/129/78 80/113/80 25/26/25
f 60/72/60 59/71/59 84/127/84
f 71/91/71 59/71/59 58/70/58
f 69/88/69 82/120/82 14/14/14
f 70/90/70 82/117/82 69/135/69
f 69/135/69 83/130/83 70/90/70
f 46/52/46 83/118/83 69/121/69
f 1/1/1 45/136/45 16/16/16
f 61/131/61 45/136/45 1/1/1
f 66/85/66 63/78/63 67/86/67
f 31/34/31 63/78/63 66/85/66
f 35/38/35 74/100/74 33/36/33
f 73/99/73 74/100/74 35/38/35
f 28/31/28 63/78/63 29/32/29
f 9/9/9 63/78/63 28/31/28
f 86/133/86 63/78/63 9/9/9
f 10/12/10 63/78/63 86/133/86
f 84/127/84 80/137/80 78/108/78
f 81/116/81 80/137/80 84/127/84
f 37/40/37 59/71/59 38/41/38
f 49/56/49 59/71/59 37/40/37
f 17/18/17 59/71/59 83/130/83
f 55/65/55 59/71/59 17/18/17
f 14/14/14 45/136/45 44/89/44
f 16/16/16 45/136/45 14/14/14
