# Blender 4.4.3
# www.blender.org
g edge_05_Mesh
v 0.200765 -0.937883 -8.847960
v 0.115912 -0.937883 -8.932810
v 0.084853 -0.830294 -8.879020
v 0.169707 -0.830294 -8.732050
v 0.062117 -0.768178 -5.267950
v 0.169706 -0.830294 -5.267950
v 0.000001 -0.937883 -8.963870
v 0.000001 -0.830294 -8.901760
v 0.146970 -0.830294 -8.816900
v 0.053795 -0.768178 -8.763110
v 0.062117 -0.768178 -8.732050
v -0.062116 -1.231820 -5.267950
v -0.053794 -1.231820 -5.236890
v -0.146969 -1.169710 -5.183100
v 0.084853 -0.830294 -5.120980
v 0.146969 -0.830294 -5.183100
v 0.031059 -0.768178 -5.214150
v 0.053795 -0.768178 -5.236890
v -0.115911 -0.937883 -5.067190
v -0.200764 -1.062120 -5.152040
v -0.115911 -1.062120 -5.067190
v 0.146970 -1.169710 -8.816900
v 0.053795 -1.231820 -8.763110
v 0.084853 -1.169710 -8.879020
v -0.231822 -0.937883 -5.267950
v -0.200764 -0.937883 -5.152040
v -0.146969 -0.830294 -5.183100
v 0.000001 -0.768178 -8.794170
v 0.031059 -0.768178 -8.785850
v -0.053794 -0.768178 -8.763110
v -0.146968 -0.830294 -8.816900
v -0.169705 -0.830294 -8.732050
v -0.169706 -0.830294 -5.267950
v -0.231821 -0.937883 -8.732050
v 0.062117 -1.231820 -8.732050
v 0.169707 -1.169710 -8.732050
v 0.084853 -1.169710 -5.120980
v 0.200764 -1.062120 -5.152040
v 0.115911 -1.062120 -5.067190
v -0.084852 -1.169710 -5.120980
v 0.000000 -1.062120 -5.036130
v 0.115912 -1.062120 -8.932810
v 0.000001 -1.169710 -8.901760
v 0.000001 -1.062120 -8.963870
v -0.031058 -1.231820 -5.214150
v 0.000000 -1.231820 -5.205830
v 0.000000 -0.937883 -5.036130
v 0.115911 -0.937883 -5.067190
v 0.000000 -0.830294 -5.098240
v -0.084852 -0.830294 -5.120980
v -0.231822 -1.062120 -5.267950
v 0.200765 -1.062120 -8.847960
v -0.169705 -1.169710 -8.732050
v -0.169706 -1.169710 -5.267950
v -0.031058 -0.768178 -8.785850
v -0.200763 -1.062120 -8.847960
v -0.231821 -1.062120 -8.732050
v 0.053795 -1.231820 -5.236890
v 0.062117 -1.231820 -5.267950
v 0.231822 -0.937883 -5.267950
v 0.200764 -0.937883 -5.152040
v 0.231823 -0.937883 -8.732050
v 0.169706 -1.169710 -5.267950
v -0.031058 -0.768178 -5.214150
v -0.053794 -0.768178 -5.236890
v -0.200763 -0.937883 -8.847960
v -0.115910 -0.937883 -8.932810
v 0.000000 -1.169710 -5.098240
v -0.084852 -0.830294 -8.879020
v -0.062116 -0.768178 -8.732050
v -0.053794 -1.231820 -8.763110
v -0.062116 -1.231820 -8.732050
v 0.231823 -1.062120 -8.732050
v -0.115910 -1.062120 -8.932810
v -0.084852 -1.169710 -8.879020
v 0.146969 -1.169710 -5.183100
v 0.231822 -1.062120 -5.267950
v -0.062116 -0.768178 -5.267950
v 0.000000 -0.768178 -5.205830
v -0.146968 -1.169710 -8.816900
v -0.031058 -1.231820 -8.785850
v 0.031059 -1.231820 -5.214150
v 0.000001 -1.231820 -8.794170
v 0.031059 -1.231820 -8.785850
vn 0.8388 0.2487 -0.4843
vn 0.4843 0.2487 -0.8388
vn 0.3637 0.6863 -0.6299
vn 0.7138 0.6939 -0.0946
vn 0.2781 0.9597 0.0396
vn 0.7138 0.6939 0.0946
vn -0.0000 0.2487 -0.9686
vn -0.0000 0.6863 -0.7273
vn 0.6299 0.6863 -0.3637
vn 0.2582 0.9545 -0.1490
vn 0.2781 0.9597 -0.0396
vn -0.2781 -0.9597 0.0396
vn -0.2582 -0.9545 0.1490
vn -0.6299 -0.6863 0.3636
vn 0.3637 0.6863 0.6299
vn 0.6299 0.6863 0.3636
vn 0.1491 0.9545 0.2582
vn 0.2582 0.9545 0.1490
vn -0.4843 0.2487 0.8388
vn -0.8388 -0.2487 0.4843
vn -0.4843 -0.2487 0.8388
vn 0.6299 -0.6863 -0.3636
vn 0.2582 -0.9545 -0.1490
vn 0.3637 -0.6863 -0.6299
vn -0.9597 0.2520 0.1241
vn -0.8388 0.2487 0.4843
vn -0.6299 0.6863 0.3636
vn -0.0000 0.9545 -0.2981
vn 0.1491 0.9545 -0.2582
vn -0.2582 0.9545 -0.1490
vn -0.6299 0.6863 -0.3637
vn -0.7138 0.6939 -0.0946
vn -0.7138 0.6939 0.0946
vn -0.9597 0.2520 -0.1241
vn 0.2781 -0.9597 -0.0396
vn 0.7138 -0.6939 -0.0946
vn 0.3637 -0.6863 0.6299
vn 0.8388 -0.2487 0.4843
vn 0.4843 -0.2487 0.8388
vn -0.3637 -0.6863 0.6299
vn -0.0000 -0.2487 0.9686
vn 0.4843 -0.2487 -0.8388
vn -0.0000 -0.6863 -0.7273
vn -0.0000 -0.2487 -0.9686
vn -0.1491 -0.9545 0.2581
vn -0.0000 -0.9545 0.2981
vn -0.0000 0.2487 0.9686
vn 0.4843 0.2487 0.8388
vn -0.0000 0.6863 0.7273
vn -0.3637 0.6863 0.6299
vn -0.9597 -0.2520 0.1241
vn 0.8388 -0.2487 -0.4843
vn -0.7138 -0.6939 -0.0946
vn -0.7138 -0.6939 0.0946
vn -0.1491 0.9545 -0.2582
vn -0.8388 -0.2487 -0.4843
vn -0.9597 -0.2520 -0.1241
vn 0.2582 -0.9545 0.1490
vn 0.2781 -0.9597 0.0396
vn 0.9597 0.2520 0.1241
vn 0.8388 0.2487 0.4843
vn 0.9597 0.2520 -0.1241
vn 0.7138 -0.6939 0.0946
vn -0.1491 0.9545 0.2582
vn -0.2582 0.9545 0.1490
vn -0.8388 0.2487 -0.4843
vn -0.4843 0.2487 -0.8388
vn -0.0000 -0.6863 0.7273
vn -0.3637 0.6863 -0.6299
vn -0.2781 0.9597 -0.0396
vn -0.2581 -0.9545 -0.1490
vn -0.2781 -0.9597 -0.0396
vn 0.9597 -0.2520 -0.1241
vn -0.4843 -0.2487 -0.8388
vn -0.3637 -0.6863 -0.6299
vn 0.6299 -0.6863 0.3636
vn 0.9597 -0.2520 0.1241
vn -0.2781 0.9597 0.0396
vn -0.0000 0.9545 0.2981
vn -0.6299 -0.6863 -0.3636
vn -0.1491 -0.9545 -0.2581
vn 0.1491 -0.9545 0.2581
vn -0.0000 -0.9545 -0.2981
vn 0.1491 -0.9545 -0.2581
vt 0.027832 0.978050
vt 0.027832 1.000000
vt 0.000000 0.986085
vt 0.087804 0.043902
vt 0.115636 0.940033
vt 0.087804 0.940033
vt 0.409140 0.115636
vt 0.404981 0.087804
vt 0.436024 0.115636
vt 0.000000 0.970015
vt 0.117789 0.035867
vt 0.115636 0.043902
vt 0.235577 0.043902
vt 0.233424 0.035867
vt 0.257528 0.021953
vt 0.109755 0.978053
vt 0.093686 0.961983
vt 0.123671 0.953951
vt 0.117789 0.948068
vt 0.409140 0.027832
vt 0.436024 0.059971
vt 0.409140 0.059971
vt 0.181489 0.961983
vt 0.205592 0.948068
vt 0.197557 0.978053
vt 0.291242 0.926116
vt 0.291242 0.956100
vt 0.263409 0.948065
vt 0.131705 0.027832
vt 0.123671 0.029985
vt 0.131705 -0.000000
vt 0.145621 0.035867
vt 0.169725 0.021952
vt 0.175607 0.043902
vt 0.263409 0.926116
vt 0.291242 0.029985
vt 0.203439 0.940033
vt 0.175607 0.940033
vt 0.087804 0.013915
vt 0.059971 0.021950
vt 0.059971 -0.000000
vt 0.404981 0.087804
vt 0.378097 0.059971
vt 0.436024 0.147775
vt 0.404981 0.175608
vt 0.409140 0.147775
vt 0.227542 0.029985
vt 0.219508 0.027833
vt 0.378097 0.027832
vt 0.351213 0.027832
vt 0.382256 0.000000
vt 0.404981 0.000000
vt 0.323381 0.926116
vt 0.323381 0.956100
vt 0.362576 0.000000
vt 0.059971 0.978050
vt 0.059971 1.000000
vt 0.263409 0.940033
vt 0.263409 0.043902
vt 0.139740 0.029985
vt 0.323381 -0.000000
vt 0.323381 0.029985
vt 0.205592 0.035867
vt 0.203439 0.043902
vt 0.027832 0.051935
vt 0.027832 0.021950
vt 0.027832 -0.000000
vt 0.000000 0.948065
vt 0.027832 0.948065
vt 0.175607 0.043902
vt 0.139740 0.953951
vt 0.145621 0.948068
vt 0.169725 0.961983
vt 0.263409 0.029985
vt 0.263409 0.008035
vt 0.291242 -0.000000
vt 0.378097 0.115636
vt 0.351213 0.147775
vt 0.351213 0.115636
vt 0.000000 0.051935
vt 0.382256 0.087804
vt 0.362576 0.087804
vt 0.382256 0.087804
vt 0.436024 0.027832
vt 0.424661 0.000000
vt 0.153656 0.978053
vt 0.131705 0.983935
vt 0.175607 0.940033
vt 0.147774 0.043902
vt 0.351213 0.029985
vt 0.351213 0.926116
vt 0.424661 0.087804
vt 0.233424 0.948068
vt 0.235577 0.940033
vt 0.351213 0.059971
vt 0.059971 0.948065
vt 0.424662 0.087804
vt 0.000000 0.029985
vt 0.378097 0.147775
vt 0.382256 0.175608
vt 0.153656 0.005883
vt 0.087804 0.029985
vt 0.059971 0.051935
vt 0.181488 0.021953
vt 0.147774 0.940033
vt 0.131705 0.956103
vt 0.241459 0.005883
vt 0.351213 0.008035
vt 0.087804 0.970015
vt 0.087804 0.986085
vt 0.000000 0.013915
vt 0.227543 0.953950
vt 0.109755 0.005883
vt 0.362576 0.087804
vt 0.197557 0.005883
vt 0.211474 0.029985
vt 0.219508 -0.000000
vt 0.219508 0.956103
vt 0.257528 0.961983
vt 0.241459 0.978053
vt 0.362576 0.175608
vt 0.219508 0.983935
vt 0.087804 0.051935
vt 0.093686 0.021952
vt 0.087804 0.948065
vt 0.351213 0.948065
vt 0.211474 0.953950
vt 0.424662 0.175608
s 1
f 1/1/1 2/2/2 3/3/3
f 4/4/4 5/5/5 6/6/6
f 7/7/7 8/8/8 2/9/2
f 3/3/3 9/10/9 1/1/1
f 4/4/4 10/11/10 11/12/11
f 12/13/12 13/14/13 14/15/14
f 15/16/15 16/17/16 17/18/17
f 5/5/5 18/19/18 16/17/16
f 19/20/19 20/21/20 21/22/21
f 22/23/22 23/24/23 24/25/24
f 25/26/25 26/27/26 27/28/27
f 28/29/28 29/30/29 8/31/8
f 30/32/30 31/33/31 32/34/32
f 25/26/25 33/35/33 34/36/34
f 35/37/35 23/24/23 36/38/36
f 37/39/37 38/40/38 39/41/39
f 21/22/21 40/42/40 41/43/41
f 42/44/42 43/45/43 44/46/44
f 45/47/45 23/24/23 46/48/46
f 47/49/47 41/43/41 48/50/48
f 49/51/49 50/52/50 47/49/47
f 51/53/51 20/54/20 25/26/25
f 15/55/15 47/49/47 48/50/48
f 41/43/41 19/20/19 21/22/21
f 2/2/2 52/56/52 42/57/42
f 16/17/16 18/19/18 17/18/17
f 13/14/13 23/24/23 45/47/45
f 53/58/53 12/13/12 54/59/54
f 34/36/34 51/53/51 25/26/25
f 47/49/47 19/20/19 41/43/41
f 8/31/8 55/60/55 28/29/28
f 30/32/30 29/30/29 55/60/55
f 34/36/34 56/61/56 57/62/57
f 58/63/58 23/24/23 59/64/59
f 38/40/38 60/65/60 61/66/61
f 39/41/39 38/40/38 48/67/48
f 4/68/4 62/69/62 1/1/1
f 6/6/6 5/5/5 16/17/16
f 59/64/59 36/38/36 63/70/63
f 64/71/64 65/72/65 27/73/27
f 32/74/32 31/75/31 66/76/66
f 34/36/34 33/35/33 32/74/32
f 66/76/66 56/61/56 34/36/34
f 67/77/67 56/78/56 66/79/66
f 6/80/6 60/65/60 4/68/4
f 41/43/41 68/81/68 37/82/37
f 69/83/69 67/77/67 66/79/66
f 67/77/67 8/8/8 7/7/7
f 26/84/26 50/52/50 27/85/27
f 64/71/64 50/86/50 49/87/49
f 33/88/33 70/89/70 32/34/32
f 55/60/55 29/30/29 28/29/28
f 53/90/53 51/53/51 57/62/57
f 54/91/54 51/53/51 53/90/53
f 15/55/15 49/51/49 47/49/47
f 17/18/17 49/87/49 15/16/15
f 20/21/20 14/92/14 40/42/40
f 1/1/1 52/56/52 2/2/2
f 26/84/26 20/21/20 19/20/19
f 25/26/25 20/54/20 26/27/26
f 53/58/53 71/93/71 72/94/72
f 57/62/57 51/53/51 34/36/34
f 39/95/39 41/43/41 37/82/37
f 48/50/48 41/43/41 39/95/39
f 62/69/62 60/65/60 73/96/73
f 11/12/11 5/5/5 4/4/4
f 11/12/11 29/30/29 5/5/5
f 2/9/2 8/8/8 3/97/3
f 16/98/16 60/65/60 6/80/6
f 61/66/61 60/65/60 16/98/16
f 74/99/74 75/100/75 56/78/56
f 44/46/44 43/45/43 74/99/74
f 32/34/32 70/89/70 30/32/30
f 30/32/30 55/60/55 69/101/69
f 76/102/76 77/103/77 38/40/38
f 63/70/63 76/104/76 59/64/59
f 1/1/1 9/10/9 4/68/4
f 18/19/18 29/30/29 17/18/17
f 66/76/66 34/36/34 32/74/32
f 74/99/74 56/78/56 67/77/67
f 27/28/27 33/35/33 25/26/25
f 78/105/78 33/88/33 27/73/27
f 27/73/27 50/86/50 64/71/64
f 12/13/12 14/15/14 54/59/54
f 49/87/49 79/106/79 64/71/64
f 17/18/17 79/106/79 49/87/49
f 40/107/40 14/15/14 45/47/45
f 40/42/40 68/81/68 41/43/41
f 56/61/56 80/108/80 53/90/53
f 57/62/57 56/61/56 53/90/53
f 2/9/2 44/46/44 7/7/7
f 42/44/42 44/46/44 2/9/2
f 52/56/52 22/109/22 24/110/24
f 72/94/72 12/13/12 53/58/53
f 15/111/15 61/66/61 16/98/16
f 48/67/48 61/66/61 15/111/15
f 64/71/64 29/30/29 65/72/65
f 27/73/27 65/72/65 78/105/78
f 74/99/74 43/45/43 75/100/75
f 52/56/52 24/110/24 42/57/42
f 69/83/69 8/8/8 67/77/67
f 78/105/78 70/89/70 33/88/33
f 62/69/62 52/56/52 1/1/1
f 73/96/73 52/56/52 62/69/62
f 69/101/69 55/60/55 8/31/8
f 65/72/65 29/30/29 78/105/78
f 81/112/81 23/24/23 71/93/71
f 35/37/35 36/38/36 59/64/59
f 5/5/5 29/30/29 18/19/18
f 3/113/3 29/30/29 10/11/10
f 10/11/10 29/30/29 11/12/11
f 8/31/8 29/30/29 3/113/3
f 69/101/69 31/33/31 30/32/30
f 66/79/66 31/114/31 69/83/69
f 78/105/78 29/30/29 70/89/70
f 70/89/70 29/30/29 30/32/30
f 19/20/19 50/52/50 26/84/26
f 47/49/47 50/52/50 19/20/19
f 37/115/37 82/116/82 76/104/76
f 76/104/76 82/116/82 58/63/58
f 45/47/45 68/117/68 40/107/40
f 46/48/46 68/117/68 45/47/45
f 83/118/83 23/24/23 81/112/81
f 21/22/21 20/21/20 40/42/40
f 67/77/67 44/46/44 74/99/74
f 7/7/7 44/46/44 67/77/67
f 80/119/80 71/93/71 53/58/53
f 75/120/75 71/93/71 80/119/80
f 75/100/75 80/121/80 56/78/56
f 83/118/83 81/112/81 43/122/43
f 63/123/63 77/103/77 76/102/76
f 48/67/48 38/40/38 61/66/61
f 10/11/10 9/124/9 3/113/3
f 4/4/4 9/124/9 10/11/10
f 79/106/79 29/30/29 64/71/64
f 17/18/17 29/30/29 79/106/79
f 73/96/73 36/125/36 52/56/52
f 36/38/36 23/24/23 22/23/22
f 59/64/59 76/104/76 58/63/58
f 43/122/43 81/112/81 75/120/75
f 51/53/51 14/126/14 20/54/20
f 54/91/54 14/126/14 51/53/51
f 43/122/43 84/127/84 83/118/83
f 24/25/24 84/127/84 43/122/43
f 4/68/4 60/65/60 62/69/62
f 37/39/37 76/102/76 38/40/38
f 36/125/36 77/103/77 63/123/63
f 73/96/73 77/103/77 36/125/36
f 24/128/24 43/45/43 42/44/42
f 75/120/75 81/112/81 71/93/71
f 59/64/59 23/24/23 35/37/35
f 14/15/14 13/14/13 45/47/45
f 68/117/68 82/116/82 37/115/37
f 46/48/46 82/116/82 68/117/68
f 72/94/72 23/24/23 12/13/12
f 71/93/71 23/24/23 72/94/72
f 84/127/84 23/24/23 83/118/83
f 24/25/24 23/24/23 84/127/84
f 77/103/77 60/65/60 38/40/38
f 73/96/73 60/65/60 77/103/77
f 36/125/36 22/109/22 52/56/52
f 12/13/12 23/24/23 13/14/13
f 82/116/82 23/24/23 58/63/58
f 46/48/46 23/24/23 82/116/82
