# Blender 4.4.3
# www.blender.org
g edge_11_Mesh
v 0.115910 1.062120 8.932810
v -0.000001 1.169710 8.901760
v -0.000001 1.062120 8.963870
v 0.231822 1.062120 5.267950
v 0.231821 0.937883 8.732050
v 0.231822 0.937883 5.267950
v -0.053795 0.768178 8.763110
v -0.084853 0.830294 8.879020
v -0.146970 0.830294 8.816900
v -0.169706 1.169710 5.267950
v -0.146969 1.169710 5.183100
v -0.231822 1.062120 5.267950
v 0.084852 1.169710 8.879020
v 0.053794 1.231820 8.763110
v 0.031058 1.231820 8.785850
v -0.169707 1.169710 8.732050
v -0.062117 1.231820 5.267950
v 0.031058 0.768178 5.214150
v 0.053794 0.768178 5.236890
v 0.053794 0.768178 8.700990
v 0.200764 1.062120 5.152040
v 0.146969 1.169710 5.183100
v 0.115910 0.937883 8.932810
v 0.200763 1.062120 8.847960
v -0.000001 0.937883 8.963870
v -0.115912 1.062120 8.932810
v -0.115912 0.937883 8.932810
v -0.200764 0.937883 5.152040
v -0.231822 0.937883 5.267950
v -0.231823 0.937883 8.732050
v -0.231823 1.062120 8.732050
v -0.053795 0.768178 8.700990
v -0.031059 0.768178 8.785850
v 0.200763 0.937883 8.847960
v 0.146968 0.830294 8.816900
v 0.169705 0.830294 8.732050
v 0.169706 1.169710 5.267950
v -0.000001 0.768178 8.669930
v -0.031059 0.768178 8.678260
v -0.000000 0.768178 5.205830
v -0.200765 0.937883 8.847960
v -0.200765 1.062120 8.847960
v -0.084853 1.169710 8.879020
v -0.146970 1.169710 8.816900
v -0.053795 1.231820 5.236890
v 0.146968 1.169710 8.816900
v -0.000000 0.830294 5.098240
v -0.084853 0.830294 5.120980
v -0.000000 0.937883 5.036130
v -0.031059 1.231820 5.321740
v -0.053795 1.231820 8.763110
v -0.053795 1.231820 5.299010
v -0.062117 1.231820 8.732050
v -0.146969 0.830294 5.183100
v -0.000001 0.830294 8.901760
v -0.000001 0.768178 8.794170
v 0.031058 0.768178 8.785850
v 0.084852 0.830294 8.879020
v 0.115911 0.937883 5.067190
v -0.000000 1.062120 5.036130
v 0.115911 1.062120 5.067190
v 0.169705 1.169710 8.732050
v 0.084852 1.169710 5.120980
v -0.000000 1.169710 5.098240
v 0.031058 1.231820 5.214150
v -0.200764 1.062120 5.152040
v -0.115911 1.062120 5.067190
v 0.062116 1.231820 5.267950
v 0.053794 1.231820 5.299010
v 0.062116 1.231820 8.732050
v 0.231821 1.062120 8.732050
v -0.115911 0.937883 5.067190
v -0.169706 0.830294 5.267950
v -0.169707 0.830294 8.732050
v 0.146969 0.830294 5.183100
v 0.084852 0.830294 5.120980
v 0.200764 0.937883 5.152040
v 0.053794 0.768178 8.763110
v -0.031059 0.768178 5.214150
v 0.169706 0.830294 5.267950
v -0.031059 1.231820 8.785850
v -0.031059 1.231820 5.214150
v -0.062117 0.768178 5.267950
v -0.084853 1.169710 5.120980
v -0.000000 1.231820 5.330070
v -0.000001 1.231820 8.794170
v 0.031058 1.231820 5.321740
v 0.031058 0.768178 8.678260
v 0.062116 0.768178 8.732050
v 0.062116 0.768178 5.267950
v -0.053795 0.768178 5.236890
v -0.000000 1.231820 5.205830
v -0.062117 0.768178 8.732050
v 0.053794 1.231820 5.236890
vn 0.4843 0.2487 0.8388
vn -0.0000 0.6863 0.7273
vn -0.0000 0.2487 0.9686
vn 0.9597 0.2520 -0.1241
vn 0.9597 -0.2520 0.1241
vn 0.9597 -0.2520 -0.1241
vn -0.2582 -0.9545 0.1490
vn -0.3637 -0.6863 0.6299
vn -0.6299 -0.6863 0.3637
vn -0.7138 0.6939 -0.0946
vn -0.6299 0.6863 -0.3636
vn -0.9597 0.2520 -0.1241
vn 0.3637 0.6863 0.6299
vn 0.2582 0.9545 0.1490
vn 0.1491 0.9545 0.2581
vn -0.7138 0.6939 0.0946
vn -0.2781 0.9597 -0.0396
vn 0.1491 -0.9545 -0.2582
vn 0.2582 -0.9545 -0.1490
vn -0.0000 -1.0000 -0.0000
vn 0.8388 0.2487 -0.4843
vn 0.6299 0.6863 -0.3636
vn 0.4843 -0.2487 0.8388
vn 0.8388 0.2487 0.4843
vn -0.0000 -0.2487 0.9686
vn -0.4843 0.2487 0.8388
vn -0.4843 -0.2487 0.8388
vn -0.8388 -0.2487 -0.4843
vn -0.9597 -0.2520 -0.1241
vn -0.9597 -0.2520 0.1241
vn -0.9597 0.2520 0.1241
vn -0.1491 -0.9545 0.2582
vn 0.8388 -0.2487 0.4843
vn 0.6299 -0.6863 0.3637
vn 0.7138 -0.6939 0.0946
vn 0.7138 0.6939 -0.0946
vn -0.0000 -0.9545 -0.2981
vn -0.8388 -0.2487 0.4843
vn -0.8388 0.2487 0.4843
vn -0.3637 0.6863 0.6299
vn -0.6299 0.6863 0.3636
vn -0.2581 0.9545 -0.1490
vn 0.6299 0.6863 0.3636
vn -0.0000 -0.6863 -0.7273
vn -0.3637 -0.6863 -0.6299
vn -0.0000 -0.2487 -0.9686
vn -0.0000 1.0000 -0.0000
vn -0.2582 0.9545 0.1490
vn -0.2781 0.9597 0.0396
vn -0.6299 -0.6863 -0.3636
vn -0.0000 -0.6863 0.7273
vn -0.0000 -0.9545 0.2981
vn 0.1491 -0.9545 0.2582
vn 0.3637 -0.6863 0.6299
vn 0.4843 -0.2487 -0.8388
vn -0.0000 0.2487 -0.9686
vn 0.4843 0.2487 -0.8388
vn 0.7138 0.6939 0.0946
vn 0.3637 0.6863 -0.6299
vn -0.0000 0.6863 -0.7273
vn 0.1491 0.9545 -0.2581
vn -0.8388 0.2487 -0.4843
vn -0.4843 0.2487 -0.8388
vn 0.2781 0.9597 -0.0396
vn 0.2781 0.9597 0.0396
vn 0.9597 0.2520 0.1241
vn -0.4843 -0.2487 -0.8388
vn -0.7138 -0.6939 -0.0946
vn -0.7138 -0.6939 0.0946
vn 0.6299 -0.6863 -0.3636
vn 0.3637 -0.6863 -0.6299
vn 0.8388 -0.2487 -0.4843
vn 0.2582 -0.9545 0.1490
vn -0.1491 -0.9545 -0.2582
vn 0.7138 -0.6939 -0.0946
vn -0.1491 0.9545 0.2581
vn -0.1491 0.9545 -0.2581
vn -0.2781 -0.9597 -0.0396
vn -0.3637 0.6863 -0.6299
vn -0.0000 0.9545 0.2981
vn 0.2781 -0.9597 0.0396
vn 0.2781 -0.9597 -0.0396
vn -0.2582 -0.9545 -0.1490
vn -0.0000 0.9545 -0.2981
vn -0.2781 -0.9597 0.0396
vn 0.2581 0.9545 -0.1490
vt 0.384270 0.117524
vt 0.411594 0.089237
vt 0.415820 0.117524
vt 0.239423 0.052783
vt 0.206759 0.963544
vt 0.206759 0.052783
vt 0.058761 0.036453
vt 0.066927 0.005979
vt 0.083258 0.022311
vt 0.267710 0.030474
vt 0.267710 0.008166
vt 0.295997 0.030474
vt 0.111545 0.994021
vt 0.119711 0.963547
vt 0.125689 0.969525
vt 0.178473 0.044619
vt 0.178473 0.955381
vt 0.150186 0.044619
vt 0.036453 0.969526
vt 0.030475 0.963547
vt 0.030475 0.052785
vt 0.239423 0.022308
vt 0.267710 0.030474
vt 0.384270 0.150188
vt 0.356947 0.117524
vt 0.415820 0.150188
vt 0.443143 0.117524
vt 0.443143 0.150188
vt 0.267710 0.941236
vt 0.328661 -0.000000
vt 0.328661 0.030474
vt 0.328661 0.941236
vt 0.295997 0.941236
vt 0.058761 0.052785
vt 0.052784 0.030475
vt 0.206759 0.994019
vt 0.178473 0.985853
vt 0.178473 0.963544
vt 0.267710 0.052783
vt 0.044618 0.060951
vt 0.052784 0.058761
vt 0.044618 0.971713
vt 0.328661 0.971710
vt 0.295997 0.971710
vt 0.267710 0.979876
vt 0.267710 0.963544
vt 0.147998 0.036453
vt 0.172495 0.022311
vt 0.095214 0.977689
vt 0.411594 0.089237
vt 0.388497 0.089237
vt 0.415820 0.060951
vt 0.142020 0.058761
vt 0.147998 0.963547
vt 0.147998 0.052785
vt 0.150186 0.955381
vt 0.356947 0.008166
vt 0.431595 0.178475
vt 0.411594 0.178475
vt 0.044618 0.028287
vt 0.036452 0.030475
vt 0.388497 0.178475
vt 0.356947 0.150188
vt 0.443143 0.060951
vt 0.415820 0.028287
vt 0.443143 0.028287
vt 0.089236 0.955381
vt 0.111545 0.005979
vt 0.133854 -0.000000
vt 0.125689 0.030474
vt 0.356947 0.028287
vt 0.384270 0.028287
vt 0.356947 0.060951
vt 0.117523 0.044619
vt 0.119711 0.052785
vt 0.117523 0.955381
vt 0.239423 0.963544
vt 0.295997 -0.000000
vt 0.384270 0.060951
vt 0.356947 0.030474
vt 0.356947 0.941236
vt 0.388497 0.089237
vt 0.133854 1.000000
vt 0.178473 0.030474
vt 0.178473 0.014142
vt 0.206759 0.022308
vt 0.022309 0.005979
vt 0.030475 0.036453
vt 0.005978 0.022311
vt 0.295997 0.994018
vt 0.328661 0.994018
vt 0.052784 0.969526
vt 0.044618 1.000000
vt 0.239423 0.994019
vt 0.089236 0.044619
vt 0.178473 0.052783
vt 0.206759 0.000000
vt 0.239423 0.000000
vt 0.368495 0.089237
vt 0.267710 0.985853
vt 0.267710 0.963544
vt 0.156164 0.994021
vt 0.142020 0.969525
vt 0.044618 -0.000000
vt 0.142020 0.030474
vt 0.172495 0.977689
vt 0.431595 0.089237
vt 0.089236 0.044619
vt 0.089236 0.955381
vt 0.060950 0.955381
vt 0.083258 0.977689
vt 0.095214 0.022311
vt 0.368495 0.000000
vt 0.388497 0.000000
vt 0.133854 0.060951
vt 0.133854 0.971713
vt 0.125689 0.058761
vt 0.036452 0.058761
vt 0.028287 0.044619
vt 0.028287 0.955381
vt 0.000000 0.955381
vt -0.000000 0.044619
vt 0.368495 0.178475
vt 0.022309 0.994021
vt 0.058762 0.963547
vt 0.133854 0.028287
vt 0.356947 0.963544
vt 0.431595 0.000000
vt 0.356947 0.979876
vt 0.267710 0.014142
vt 0.005978 0.977689
vt 0.060949 0.044619
vt 0.119711 0.036453
vt 0.431595 0.089237
vt 0.411594 0.000000
vt 0.066927 0.994021
vt 0.156163 0.005979
s 1
f 1/1/1 2/2/2 3/3/3
f 4/4/4 5/5/5 6/6/6
f 7/7/7 8/8/8 9/9/9
f 10/10/10 11/11/11 12/12/12
f 13/13/13 14/14/14 15/15/15
f 10/16/10 16/17/16 17/18/17
f 18/19/18 19/20/19 20/21/20
f 21/22/21 22/23/22 4/4/4
f 23/24/23 24/25/24 1/1/1
f 25/26/25 26/27/26 27/28/27
f 12/12/12 16/29/16 10/10/10
f 12/12/12 28/30/28 29/31/29
f 12/12/12 30/32/30 31/33/31
f 7/7/7 32/34/20 33/35/32
f 34/36/33 35/37/34 36/38/35
f 4/4/4 22/23/22 37/39/36
f 38/40/20 39/41/20 40/42/37
f 3/3/3 25/26/25 1/1/1
f 2/2/2 26/27/26 3/3/3
f 31/33/31 41/43/38 42/44/39
f 3/3/3 26/27/26 25/26/25
f 42/44/39 43/45/40 44/46/41
f 17/18/17 45/47/42 11/48/11
f 46/49/43 14/14/14 13/13/13
f 31/33/31 16/29/16 12/12/12
f 47/50/44 48/51/45 49/52/46
f 42/44/39 16/29/16 31/33/31
f 17/18/17 50/53/47 45/47/42
f 51/54/48 50/53/47 52/55/47
f 17/18/17 16/17/16 53/56/49
f 53/56/49 51/54/48 17/18/17
f 16/17/16 51/54/48 53/56/49
f 29/31/29 28/30/28 54/57/50
f 27/28/27 8/58/8 55/59/51
f 56/60/52 32/34/20 57/61/53
f 58/62/54 34/63/33 23/24/23
f 59/64/55 60/65/56 61/66/57
f 62/67/58 14/14/14 46/49/43
f 63/68/59 64/69/60 65/70/61
f 66/71/62 67/72/63 28/73/28
f 68/74/64 50/53/47 69/75/47
f 68/74/64 14/14/14 70/76/65
f 37/39/36 71/77/66 4/4/4
f 40/42/37 18/19/18 38/40/20
f 12/12/12 11/11/11 66/78/62
f 66/78/62 28/30/28 12/12/12
f 17/18/17 11/48/11 10/16/10
f 28/73/28 67/72/63 72/79/67
f 73/80/68 30/32/30 29/31/29
f 74/81/69 30/32/30 73/80/68
f 13/82/13 2/2/2 1/1/1
f 15/15/15 2/83/2 13/13/13
f 75/84/70 76/85/71 77/86/72
f 58/87/54 78/88/73 35/89/34
f 26/90/26 41/43/38 27/91/27
f 42/44/39 41/43/38 26/90/26
f 40/42/37 79/92/74 47/93/44
f 29/31/29 30/32/30 12/12/12
f 25/26/25 55/59/51 23/24/23
f 1/1/1 25/26/25 23/24/23
f 34/36/33 5/5/5 24/94/24
f 37/95/36 70/76/65 62/67/58
f 80/96/75 5/5/5 36/38/35
f 34/63/33 24/25/24 23/24/23
f 59/97/55 61/98/57 77/86/72
f 28/73/28 48/51/45 54/99/50
f 6/6/6 5/5/5 80/96/75
f 46/100/43 24/94/24 62/101/58
f 68/74/64 70/76/65 37/95/36
f 70/76/65 14/14/14 62/67/58
f 43/102/40 81/103/76 51/54/48
f 52/55/47 50/53/47 17/18/17
f 33/35/32 56/60/52 55/104/51
f 47/93/44 18/19/18 40/42/37
f 49/52/46 60/65/56 59/64/55
f 6/6/6 75/84/70 77/86/72
f 51/54/48 52/55/47 17/18/17
f 11/48/11 45/47/42 82/105/77
f 44/46/41 16/29/16 42/44/39
f 43/102/40 51/54/48 44/106/41
f 26/90/26 43/45/40 42/44/39
f 30/32/30 41/43/38 31/33/31
f 2/2/2 43/107/40 26/27/26
f 44/106/41 51/54/48 16/17/16
f 74/108/69 7/7/7 9/9/9
f 23/24/23 55/59/51 58/62/54
f 40/42/37 39/41/20 79/92/74
f 29/31/29 54/57/50 73/80/68
f 73/109/68 83/110/78 74/108/69
f 54/111/50 83/110/78 73/109/68
f 27/28/27 55/59/51 25/26/25
f 33/35/32 8/8/8 7/7/7
f 68/74/64 69/75/47 14/14/14
f 81/103/76 50/53/47 51/54/48
f 13/82/13 24/25/24 46/99/43
f 1/1/1 24/25/24 13/82/13
f 37/95/36 22/112/22 68/74/64
f 11/113/11 84/114/79 66/71/62
f 85/115/47 86/116/80 87/117/47
f 2/83/2 81/103/76 43/102/40
f 20/21/20 32/34/20 88/118/20
f 33/35/32 32/34/20 56/60/52
f 89/119/81 90/120/82 80/121/75
f 20/21/20 90/120/82 89/119/81
f 80/121/75 36/122/35 89/119/81
f 36/38/35 5/5/5 34/36/33
f 58/62/54 35/123/34 34/63/33
f 55/104/51 57/61/53 58/87/54
f 4/4/4 77/86/72 21/22/21
f 6/6/6 77/86/72 4/4/4
f 47/93/44 76/124/71 18/19/18
f 79/92/74 91/125/83 54/111/50
f 92/126/84 64/69/60 82/105/77
f 65/70/61 64/69/60 92/126/84
f 82/105/77 50/53/47 92/126/84
f 92/126/84 50/53/47 65/70/61
f 74/81/69 41/43/38 30/32/30
f 9/127/9 41/43/38 74/81/69
f 78/88/73 32/34/20 89/119/81
f 55/104/51 8/8/8 33/35/32
f 61/66/57 60/65/56 63/128/59
f 72/79/67 60/65/56 49/52/46
f 57/61/53 78/88/73 58/87/54
f 32/34/20 91/125/83 79/92/74
f 41/43/38 8/129/8 27/91/27
f 9/127/9 8/129/8 41/43/38
f 2/83/2 86/116/80 81/103/76
f 14/14/14 87/117/47 15/15/15
f 62/101/58 71/77/66 37/39/36
f 24/94/24 71/77/66 62/101/58
f 63/130/59 22/23/22 21/22/21
f 65/70/61 22/112/22 63/68/59
f 81/103/76 86/116/80 85/115/47
f 45/47/42 50/53/47 82/105/77
f 69/75/47 50/53/47 87/117/47
f 87/117/47 50/53/47 85/115/47
f 18/19/18 76/124/71 75/131/70
f 75/131/70 19/20/19 18/19/18
f 71/77/66 5/5/5 4/4/4
f 24/94/24 5/5/5 71/77/66
f 36/122/35 78/88/73 89/119/81
f 35/89/34 78/88/73 36/122/35
f 38/40/20 32/34/20 39/41/20
f 55/104/51 56/60/52 57/61/53
f 80/96/75 75/84/70 6/6/6
f 90/120/82 75/131/70 80/121/75
f 21/22/21 61/98/57 63/130/59
f 77/86/72 61/98/57 21/22/21
f 74/108/69 93/132/85 7/7/7
f 83/110/78 93/132/85 74/108/69
f 88/118/20 32/34/20 38/40/20
f 39/41/20 32/34/20 79/92/74
f 85/115/47 50/53/47 81/103/76
f 14/14/14 69/75/47 87/117/47
f 22/112/22 94/133/86 68/74/64
f 65/70/61 94/133/86 22/112/22
f 15/15/15 86/116/80 2/83/2
f 87/117/47 86/116/80 15/15/15
f 94/133/86 50/53/47 68/74/64
f 65/70/61 50/53/47 94/133/86
f 18/19/18 88/118/20 38/40/20
f 20/21/20 88/118/20 18/19/18
f 89/119/81 32/34/20 20/21/20
f 57/61/53 32/34/20 78/88/73
f 90/120/82 19/20/19 75/131/70
f 20/21/20 19/20/19 90/120/82
f 76/134/71 49/52/46 59/64/55
f 77/86/72 76/85/71 59/97/55
f 47/50/44 49/52/46 76/134/71
f 63/128/59 60/65/56 64/135/60
f 93/132/85 32/34/20 7/7/7
f 83/110/78 32/34/20 93/132/85
f 49/52/46 48/51/45 72/79/67
f 72/79/67 48/51/45 28/73/28
f 83/110/78 91/125/83 32/34/20
f 54/111/50 91/125/83 83/110/78
f 79/92/74 48/136/45 47/93/44
f 54/111/50 48/136/45 79/92/74
f 60/65/56 84/114/79 64/135/60
f 67/72/63 84/114/79 60/65/56
f 67/72/63 60/65/56 72/79/67
f 66/71/62 84/114/79 67/72/63
f 82/105/77 84/137/79 11/48/11
f 64/69/60 84/137/79 82/105/77
