# Blender 4.4.3
# www.blender.org
mtllib edge_03.mtl
o edge_03
v -0.169707 -1.830290 7.000000
v -0.000001 -1.830290 7.169710
v -0.000000 1.169710 5.437650
v -0.169706 1.169710 5.267950
v 0.169706 1.169710 5.267950
v -0.000000 1.169710 5.098240
v -0.000000 0.830294 5.098240
v -0.169706 0.830294 5.267950
v -0.169707 -2.169710 7.000000
v 0.169705 -1.830290 7.000000
v 0.169706 0.830294 5.267950
v 0.169705 -2.169710 7.000000
v -0.000001 -2.169710 6.830290
v -0.000001 -2.169710 7.169710
vn -0.8953 0.1309 0.4259
vn -0.0000 0.2336 0.9723
vn -0.0000 0.7678 0.6407
vn -0.7634 0.6381 -0.1004
vn 0.7634 0.6381 -0.1004
vn -0.0000 0.5773 -0.8165
vn -0.0000 -0.2336 -0.9723
vn -0.8952 -0.1309 -0.4259
vn -0.7634 -0.6381 0.1004
vn 0.8952 0.1309 0.4259
vn 0.8952 -0.1309 -0.4259
vn 0.7634 -0.6381 0.1004
vn -0.0000 -0.7678 -0.6407
vn -0.0000 -0.5774 0.8165
s 1
usemtl metalEdge
f 1//1 2//2 3//3
f 4//4 5//5 6//6
f 7//7 8//8 6//6
f 3//3 5//5 4//4
f 8//8 9//9 4//4
f 7//7 9//9 8//8
f 2//2 10//10 5//5
f 4//4 1//1 3//3
f 5//5 11//11 6//6
f 11//11 12//12 13//13
f 13//13 9//9 7//7
f 6//6 8//8 4//4
f 2//2 14//14 10//10
f 3//3 2//2 5//5
f 7//7 11//11 13//13
f 6//6 11//11 7//7
f 1//1 14//14 2//2
f 4//4 9//9 1//1
f 12//12 14//14 13//13
f 10//10 14//14 12//12
f 11//11 10//10 12//12
f 5//5 10//10 11//11
f 9//9 14//14 1//1
f 13//13 14//14 9//9
