# Blender 4.4.3
# www.blender.org
g edge_01_Mesh
v 0.000000 -0.937883 -5.036130
v -0.084852 -0.830294 -5.120980
v -0.115911 -0.937883 -5.067190
v -0.084852 -1.169710 -5.414920
v -0.031058 -1.231820 -5.321740
v -0.146969 -1.169710 -5.352800
v -0.115911 -1.062120 -5.468710
v -0.084852 1.830290 -7.146970
v 0.000001 1.937880 -7.231820
v 0.115912 2.062120 -7.200760
v 0.115912 1.937880 -7.200760
v 0.146970 2.169710 -7.084850
v 0.200765 2.062120 -7.115910
v 0.084853 2.169710 -7.146970
v -0.231821 1.937880 -7.000000
v -0.200763 1.937880 -7.115910
v -0.231822 -1.062120 -5.267950
v -0.200764 -1.062120 -5.383860
v 0.115912 2.062120 -6.799240
v 0.084853 -0.830294 -5.120980
v 0.115911 -0.937883 -5.067190
v 0.115911 -1.062120 -5.468710
v 0.200765 1.937880 -7.115910
v 0.053795 -1.231820 -5.299010
v 0.053795 -1.231820 -5.236890
v 0.031059 -1.231820 -5.321740
v 0.000001 2.169710 -6.830290
v -0.031058 2.231820 -6.946210
v -0.084852 2.169710 -6.853030
v 0.031059 2.231820 -6.946210
v 0.084853 2.169710 -6.853030
v 0.231822 -1.062120 -5.267950
v 0.231822 -0.937883 -5.267950
v 0.200764 -1.062120 -5.152040
v 0.231823 2.062120 -7.000000
v 0.231823 1.937880 -7.000000
v 0.053795 2.231820 -7.031060
v 0.062117 2.231820 -7.000000
v 0.000001 2.062120 -7.231820
v -0.115910 2.062120 -7.200760
v -0.084852 2.169710 -7.146970
v -0.200763 2.062120 -7.115910
v 0.115911 -1.062120 -5.067190
v 0.000000 -1.062120 -5.036130
v 0.084853 -1.169710 -5.120980
v 0.200764 -1.062120 -5.383860
v -0.200764 -1.062120 -5.152040
v -0.115911 -1.062120 -5.067190
v -0.200764 -0.937883 -5.152040
v 0.146969 -1.169710 -5.352800
v -0.053794 2.231820 -6.968940
v 0.000001 2.231820 -6.937880
v -0.231821 2.062120 -7.000000
v -0.146968 2.169710 -6.915150
v -0.169705 2.169710 -7.000000
v -0.146968 2.169710 -7.084850
v 0.000000 -1.062120 -5.499770
v 0.000001 1.830290 -7.169710
v 0.146969 -1.169710 -5.183100
v 0.084853 -1.169710 -5.414920
v 0.000000 -1.169710 -5.437650
v -0.231822 -0.937883 -5.267950
v -0.115910 1.937880 -7.200760
v 0.169706 -1.169710 -5.267950
v 0.062117 -1.231820 -5.267950
v 0.200764 -0.937883 -5.152040
v 0.200765 2.062120 -6.884090
v 0.000001 2.169710 -7.169710
v -0.031058 2.231820 -7.053790
v -0.053794 2.231820 -7.031060
v 0.000000 -1.169710 -5.098240
v -0.031058 -1.231820 -5.214150
v 0.000000 -1.231820 -5.205830
v -0.062116 -1.231820 -5.267950
v -0.169706 -1.169710 -5.267950
v 0.031059 2.231820 -7.053790
v 0.146970 2.169710 -6.915150
v 0.000000 -1.231820 -5.330070
v -0.084852 -1.169710 -5.120980
v 0.084853 1.830290 -7.146970
v 0.000001 2.231820 -7.062120
v -0.200763 2.062120 -6.884090
v -0.115910 2.062120 -6.799240
v -0.146969 -1.169710 -5.183100
v -0.062116 2.231820 -7.000000
v 0.031059 -1.231820 -5.214150
v 0.000001 2.062120 -6.768180
v 0.000000 -0.830294 -5.098240
v 0.169707 2.169710 -7.000000
v -0.053794 -1.231820 -5.299010
v -0.053794 -1.231820 -5.236890
v 0.053795 2.231820 -6.968940
vn -0.0000 0.2487 0.9686
vn -0.2261 0.4870 0.8436
vn -0.4727 0.2256 0.8519
vn -0.3636 -0.6863 -0.6299
vn -0.1490 -0.9545 -0.2581
vn -0.6299 -0.6863 -0.3636
vn -0.4617 -0.4665 -0.7544
vn -0.2261 -0.4870 -0.8436
vn -0.0000 -0.2487 -0.9686
vn 0.4843 0.2487 -0.8388
vn 0.4727 -0.2256 -0.8519
vn 0.6299 0.6863 -0.3636
vn 0.8388 0.2487 -0.4843
vn 0.3637 0.6863 -0.6299
vn -0.9872 -0.0495 -0.1513
vn -0.8393 -0.1517 -0.5221
vn -0.9616 -0.2734 0.0234
vn -0.8254 -0.3666 -0.4294
vn 0.4617 0.4665 0.7545
vn 0.2261 0.4870 0.8436
vn 0.4727 0.2256 0.8519
vn 0.4617 -0.4665 -0.7544
vn 0.8393 -0.1517 -0.5221
vn 0.2581 -0.9545 -0.1491
vn 0.2582 -0.9545 0.1490
vn 0.1490 -0.9545 -0.2581
vn -0.0000 0.6863 0.7273
vn -0.1490 0.9545 0.2581
vn -0.3637 0.6863 0.6299
vn 0.1490 0.9545 0.2581
vn 0.3637 0.6863 0.6299
vn 0.9616 -0.2734 0.0234
vn 0.9872 0.0495 0.1513
vn 0.8388 -0.2487 0.4843
vn 0.9616 0.2734 -0.0234
vn 0.9872 -0.0495 -0.1513
vn 0.2581 0.9545 -0.1491
vn 0.2981 0.9545 -0.0000
vn -0.0000 0.2487 -0.9686
vn -0.4843 0.2487 -0.8388
vn -0.3637 0.6863 -0.6299
vn -0.8388 0.2487 -0.4843
vn 0.4843 -0.2487 0.8388
vn -0.0000 -0.2487 0.9686
vn 0.3637 -0.6863 0.6299
vn 0.8254 -0.3666 -0.4294
vn -0.8388 -0.2487 0.4843
vn -0.4843 -0.2487 0.8388
vn -0.8393 0.1517 0.5221
vn 0.6299 -0.6863 -0.3636
vn -0.2582 0.9545 0.1491
vn -0.0000 0.9545 0.2981
vn -0.9616 0.2734 -0.0234
vn -0.6299 0.6863 0.3636
vn -0.7273 0.6863 -0.0000
vn -0.6299 0.6863 -0.3636
vn -0.6221 -0.3915 -0.6780
vn 0.6221 -0.3915 -0.6781
vn 0.6299 -0.6863 0.3636
vn 0.3636 -0.6863 -0.6299
vn -0.0000 -0.6863 -0.7273
vn -0.9872 0.0495 0.1513
vn -0.4727 -0.2256 -0.8519
vn 0.7273 -0.6863 -0.0000
vn 0.2981 -0.9545 -0.0000
vn 0.8393 0.1517 0.5221
vn 0.8254 0.3666 0.4294
vn -0.0000 0.6863 -0.7273
vn -0.1490 0.9545 -0.2581
vn -0.2581 0.9545 -0.1491
vn -0.0000 -0.6863 0.7273
vn -0.1491 -0.9545 0.2581
vn -0.0000 -0.9545 0.2981
vn -0.2981 -0.9545 -0.0000
vn -0.7273 -0.6863 -0.0000
vn 0.1490 0.9545 -0.2581
vn 0.6299 0.6863 0.3636
vn -0.0000 -0.9545 -0.2981
vn -0.3637 -0.6863 0.6299
vn 0.2261 -0.4870 -0.8436
vn -0.0000 0.9545 -0.2981
vn -0.8254 0.3666 0.4294
vn -0.4617 0.4665 0.7545
vn -0.6299 -0.6863 0.3636
vn -0.2981 0.9545 -0.0000
vn 0.1491 -0.9545 0.2581
vn -0.7830 0.3110 0.5387
vn -0.6221 0.3915 0.6781
vn 0.7273 0.6863 -0.0000
vn -0.2581 -0.9545 -0.1491
vn -0.2581 -0.9545 0.1490
vn 0.2581 0.9545 0.1491
vt 0.271698 0.930139
vt 0.289525 0.892366
vt 0.296008 0.921390
vt 0.059121 0.966695
vt 0.062085 0.993087
vt 0.037637 0.974581
vt 0.051882 0.935263
vt 0.068693 0.063114
vt 0.179501 0.049806
vt 0.216471 0.028842
vt 0.203811 0.058555
vt 0.252990 0.015221
vt 0.245260 0.040885
vt 0.231913 0.006405
vt 0.009573 0.057482
vt 0.032107 0.042454
vt 0.000000 0.961063
vt 0.022535 0.946036
vt 0.141632 0.064737
vt 0.158444 0.936887
vt 0.151205 0.968319
vt 0.204693 0.933239
vt 0.232601 0.070598
vt 0.395375 0.157082
vt 0.407102 0.145957
vt 0.395101 0.165224
vt 0.376545 -0.000000
vt 0.395099 0.022437
vt 0.365849 0.019268
vt 0.151836 0.006913
vt 0.169586 0.035964
vt 0.148872 0.033305
vt 0.089751 0.970568
vt 0.099323 0.942518
vt 0.112285 0.985595
vt 0.270817 0.052995
vt 0.271698 0.927680
vt 0.258157 0.082708
vt 0.450565 0.019267
vt 0.426107 0.022436
vt 0.421713 0.015384
vt 0.448612 0.078634
vt 0.422272 0.093830
vt 0.421339 0.071907
vt 0.391264 0.093831
vt 0.422272 0.093831
vt 0.448612 0.109026
vt 0.421340 0.115753
vt 0.233483 0.945282
vt 0.259039 0.957392
vt 0.337457 0.939060
vt 0.308668 0.951102
vt 0.324798 0.909348
vt 0.219287 0.971080
vt 0.406072 0.011313
vt 0.395373 0.030579
vt 0.399013 0.015383
vt 0.351236 0.022553
vt 0.311483 0.008865
vt 0.330191 -0.000000
vt 0.363896 0.078636
vt 0.398639 0.071907
vt 0.051881 0.003632
vt 0.022535 0.014404
vt 0.180383 0.924490
vt 0.179532 0.081174
vt 0.363896 0.109027
vt 0.391263 0.093831
vt 0.398639 0.115755
vt 0.365850 0.168394
vt 0.376550 0.187660
vt 0.363895 0.052266
vt 0.350355 0.897238
vt 0.169929 1.000000
vt 0.141632 0.996368
vt 0.192161 0.020093
vt 0.198210 0.962263
vt 0.061454 0.031682
vt 0.366604 0.146145
vt 0.378605 0.126878
vt 0.399768 0.150029
vt 0.121858 0.957546
vt 0.112285 0.053964
vt 0.378604 0.060784
vt 0.440622 0.060784
vt 0.415408 0.041703
vt 0.407101 0.041704
vt 0.440623 0.126876
vt 0.426385 0.157080
vt 0.422469 0.150028
vt 0.048184 1.000000
vt 0.021141 0.985582
vt 0.079834 0.964037
vt 0.179501 0.971950
vt 0.426381 0.030579
vt 0.284358 0.959852
vt 0.127388 0.025419
vt 0.069668 0.992113
vt 0.324110 0.973540
vt 0.306314 0.979945
vt 0.399015 0.172278
vt 0.197328 0.087579
vt 0.422467 0.037632
vt 0.089751 0.028050
vt 0.080178 0.000000
vt 0.325679 0.034663
vt 0.290407 0.017681
vt 0.296890 0.046705
vt 0.450567 0.168393
vt 0.438566 0.187660
vt 0.421715 0.172277
vt 0.000000 0.029432
vt 0.345187 0.964723
vt 0.363014 0.926950
vt 0.399767 0.037632
vt 0.089408 0.060455
vt 0.451320 0.146144
vt 0.415411 0.145956
vt 0.180415 0.955859
vt 0.237995 0.979945
vt 0.451319 0.041515
vt 0.366603 0.041517
vt 0.272580 0.055455
vt 0.271729 0.898771
vt 0.272610 0.024086
vt 0.179159 0.939546
vt 0.363895 0.955858
vt 0.110891 0.014418
vt 0.137935 -0.000000
vt 0.089751 0.038937
vt 0.363895 0.874685
vt 0.363895 0.000000
vt 0.363896 0.843316
vt 0.054223 0.995973
vt 0.159419 0.007887
vt 0.426109 0.165224
vt 0.406074 0.176348
vt 0.143973 0.004027
vt 0.271698 0.024086
vt 0.438563 -0.000000
vt 0.214117 -0.000000
vt 0.414380 0.011312
vt 0.414382 0.176349
s 1
f 1/1/1 2/2/2 3/3/3
f 4/4/4 5/5/5 6/6/6
f 7/7/7 8/8/8 4/4/4
f 9/9/9 10/10/10 11/11/11
f 12/12/12 13/13/13 14/14/14
f 15/15/15 16/16/16 17/17/17
f 18/18/18 4/4/4 6/6/6
f 19/19/19 20/20/20 21/21/21
f 22/22/22 11/11/11 23/23/23
f 24/24/24 25/25/25 26/26/26
f 27/27/27 28/28/28 29/29/29
f 30/30/30 27/31/27 31/32/31
f 32/33/32 33/34/33 34/35/34
f 35/36/35 33/37/33 36/38/36
f 12/39/12 37/40/37 38/41/38
f 39/42/39 40/43/40 41/44/41
f 41/44/41 40/43/40 42/45/42
f 7/7/7 4/4/4 18/18/18
f 43/46/43 44/47/44 45/48/45
f 17/17/17 18/18/18 6/6/6
f 36/38/36 13/13/13 35/36/35
f 22/22/22 23/23/23 46/49/46
f 36/38/36 33/37/33 32/50/32
f 47/51/47 48/52/48 49/53/49
f 50/54/50 46/49/46 32/50/32
f 30/55/30 51/56/51 52/57/52
f 53/58/53 54/59/54 55/60/55
f 53/61/53 56/62/56 42/45/42
f 40/63/40 16/16/16 42/64/42
f 57/65/57 58/66/58 9/9/9
f 32/67/32 34/68/34 59/69/59
f 60/70/60 26/26/26 61/71/61
f 15/72/15 62/73/62 53/58/53
f 21/21/21 44/74/44 43/75/43
f 31/32/31 27/31/27 20/20/20
f 39/76/39 10/10/10 9/9/9
f 50/54/50 60/77/60 46/49/46
f 63/78/63 8/8/8 7/7/7
f 46/49/46 60/77/60 22/22/22
f 50/79/50 64/80/64 65/81/65
f 10/10/10 13/13/13 11/11/11
f 66/82/66 67/83/67 21/21/21
f 32/50/32 23/23/23 36/38/36
f 46/49/46 23/23/23 32/50/32
f 55/84/55 56/62/56 53/61/53
f 41/44/41 68/85/68 39/42/39
f 63/78/63 16/16/16 40/63/40
f 18/18/18 16/16/16 63/78/63
f 69/86/69 68/85/68 41/44/41
f 69/86/69 56/62/56 70/87/70
f 71/88/71 72/89/72 73/90/73
f 74/91/74 75/92/75 6/6/6
f 7/7/7 18/18/18 63/78/63
f 4/4/4 8/8/8 61/93/61
f 1/94/1 44/74/44 21/21/21
f 21/21/21 34/35/34 66/82/66
f 21/21/21 20/20/20 1/94/1
f 12/39/12 76/95/76 37/40/37
f 1/1/1 48/52/48 44/96/44
f 62/73/62 47/51/47 49/53/49
f 21/21/21 67/83/67 19/19/19
f 31/32/31 77/97/77 30/30/30
f 61/93/61 5/5/5 4/4/4
f 78/98/78 5/5/5 61/93/61
f 79/99/79 71/100/71 44/96/44
f 50/79/50 26/26/26 60/70/60
f 61/71/61 26/26/26 78/101/78
f 65/81/65 64/80/64 59/69/59
f 59/69/59 34/68/34 45/48/45
f 19/19/19 67/83/67 31/32/31
f 60/77/60 80/102/80 22/22/22
f 31/32/31 67/83/67 77/97/77
f 81/103/81 68/85/68 69/86/69
f 9/104/9 40/63/40 39/105/39
f 63/78/63 40/63/40 9/104/9
f 17/17/17 16/16/16 18/18/18
f 49/53/49 82/106/82 62/73/62
f 81/103/81 51/56/51 76/95/76
f 29/107/29 83/108/83 2/2/2
f 82/106/82 83/108/83 29/107/29
f 3/3/3 48/52/48 1/1/1
f 84/109/84 75/110/75 74/111/74
f 53/112/53 16/16/16 15/15/15
f 42/64/42 16/16/16 53/112/53
f 59/69/59 25/25/25 65/81/65
f 65/81/65 24/24/24 50/79/50
f 84/113/84 47/51/47 17/114/17
f 44/47/44 71/88/71 45/48/45
f 31/32/31 20/20/20 19/19/19
f 55/84/55 85/115/85 56/62/56
f 37/40/37 51/56/51 38/41/38
f 69/86/69 51/56/51 81/103/81
f 9/104/9 8/8/8 63/78/63
f 9/104/9 58/116/58 8/8/8
f 84/109/84 72/89/72 79/117/79
f 86/118/86 25/25/25 59/69/59
f 60/77/60 57/65/57 9/9/9
f 61/119/61 57/65/57 60/77/60
f 72/89/72 25/25/25 73/90/73
f 50/79/50 24/24/24 26/26/26
f 32/50/32 64/120/64 50/54/50
f 59/69/59 64/80/64 32/67/32
f 43/75/43 34/35/34 21/21/21
f 45/48/45 34/68/34 43/46/43
f 22/22/22 80/102/80 11/11/11
f 76/95/76 14/121/14 68/85/68
f 41/44/41 56/62/56 69/86/69
f 42/45/42 56/62/56 41/44/41
f 55/84/55 54/122/54 85/115/85
f 12/39/12 14/121/14 76/95/76
f 17/114/17 62/73/62 15/72/15
f 17/114/17 47/51/47 62/73/62
f 87/123/87 88/124/88 27/125/27
f 49/53/49 83/108/83 82/106/82
f 1/1/1 87/123/87 2/2/2
f 27/31/27 88/126/88 20/20/20
f 28/28/28 51/56/51 54/122/54
f 81/103/81 76/95/76 68/85/68
f 82/106/82 54/59/54 53/58/53
f 62/73/62 82/106/82 53/58/53
f 17/114/17 75/127/75 84/113/84
f 6/6/6 75/92/75 17/17/17
f 79/99/79 47/51/47 84/113/84
f 49/53/49 48/52/48 3/3/3
f 71/88/71 86/118/86 45/48/45
f 73/90/73 86/118/86 71/88/71
f 26/26/26 25/25/25 78/101/78
f 73/90/73 25/25/25 86/118/86
f 77/97/77 89/128/89 38/129/38
f 35/130/35 89/128/89 77/97/77
f 27/27/27 52/57/52 28/28/28
f 76/95/76 51/56/51 37/40/37
f 33/34/33 67/83/67 66/82/66
f 34/35/34 33/34/33 66/82/66
f 61/131/61 58/132/58 57/133/57
f 8/8/8 58/116/58 61/93/61
f 6/6/6 90/134/90 74/91/74
f 5/5/5 90/134/90 6/6/6
f 65/81/65 25/25/25 24/24/24
f 79/117/79 72/89/72 71/88/71
f 14/14/14 13/13/13 10/10/10
f 35/36/35 13/13/13 12/12/12
f 9/9/9 80/102/80 60/77/60
f 11/11/11 80/102/80 9/9/9
f 70/87/70 51/56/51 69/86/69
f 56/62/56 85/115/85 70/87/70
f 29/107/29 87/123/87 27/125/27
f 2/2/2 87/123/87 29/107/29
f 1/1/1 88/124/88 87/123/87
f 20/20/20 88/126/88 1/94/1
f 54/122/54 51/56/51 85/115/85
f 85/115/85 51/56/51 70/87/70
f 29/107/29 54/59/54 82/106/82
f 28/28/28 54/122/54 29/29/29
f 30/30/30 52/135/52 27/31/27
f 52/57/52 51/56/51 28/28/28
f 3/3/3 83/108/83 49/53/49
f 2/2/2 83/108/83 3/3/3
f 79/99/79 48/52/48 47/51/47
f 44/96/44 48/52/48 79/99/79
f 74/111/74 91/136/91 84/109/84
f 84/109/84 91/136/91 72/89/72
f 78/101/78 25/25/25 5/137/5
f 45/48/45 86/118/86 59/69/59
f 77/97/77 92/138/92 30/30/30
f 38/129/38 92/138/92 77/97/77
f 35/130/35 67/83/67 33/34/33
f 77/97/77 67/83/67 35/130/35
f 12/12/12 89/139/89 35/36/35
f 38/41/38 89/140/89 12/39/12
f 39/76/39 14/14/14 10/10/10
f 68/141/68 14/14/14 39/76/39
f 23/23/23 13/13/13 36/38/36
f 11/11/11 13/13/13 23/23/23
f 92/142/92 51/56/51 30/55/30
f 38/41/38 51/56/51 92/142/92
f 74/111/74 25/25/25 91/136/91
f 91/136/91 25/25/25 72/89/72
f 90/143/90 25/25/25 74/111/74
f 5/137/5 25/25/25 90/143/90
