# Blender 4.4.3
# www.blender.org
o edge_03
g edge_03_Mesh
v -0.200765 -1.937880 7.115910
v -0.115911 1.062120 5.468710
v -0.200764 1.062120 5.383860
v 0.084852 -2.169710 6.853030
v 0.031058 -2.231820 6.946210
v -0.000001 -2.169710 6.830290
v 0.115911 1.062120 5.067190
v 0.084852 1.169710 5.120980
v 0.200764 1.062120 5.152040
v -0.084853 1.169710 5.414920
v -0.031059 1.231820 5.321740
v -0.146969 1.169710 5.352800
v 0.084852 1.169710 5.414920
v 0.084852 -1.830290 7.146970
v 0.115911 1.062120 5.468710
v -0.115912 -2.062120 7.200760
v -0.115912 -1.937880 7.200760
v 0.146968 -2.169710 6.915150
v 0.053794 -2.231820 6.968940
v -0.200764 1.062120 5.152040
v -0.200764 0.937883 5.152040
v -0.231822 1.062120 5.267950
v 0.115910 -2.062120 6.799240
v 0.200763 -2.062120 6.884090
v -0.115912 -2.062120 6.799240
v -0.084853 0.830294 5.120980
v -0.084853 -2.169710 6.853030
v -0.231822 0.937883 5.267950
v -0.231823 -2.062120 7.000000
v -0.146969 1.169710 5.183100
v -0.084853 1.169710 5.120980
v 0.146969 1.169710 5.352800
v 0.031058 1.231820 5.321740
v 0.146968 -2.169710 7.084850
v 0.062116 -2.231820 7.000000
v 0.169705 -2.169710 7.000000
v 0.231821 -2.062120 7.000000
v 0.200763 -2.062120 7.115910
v -0.169706 1.169710 5.267950
v -0.062117 1.231820 5.267950
v -0.053795 1.231820 5.236890
v -0.200765 -2.062120 6.884090
v -0.115911 0.937883 5.067190
v -0.062117 -2.231820 7.000000
v 0.053794 -2.231820 7.031060
v -0.053795 -2.231820 7.031060
v 0.115910 -1.937880 7.200760
v 0.200764 1.062120 5.383860
v 0.084852 -2.169710 7.146970
v 0.084852 0.830294 5.120980
v 0.115911 0.937883 5.067190
v -0.000000 0.937883 5.036130
v -0.031059 1.231820 5.214150
v -0.115911 1.062120 5.067190
v 0.115910 -2.062120 7.200760
v -0.000001 -2.062120 7.231820
v -0.169707 -2.169710 7.000000
v -0.146970 -2.169710 7.084850
v -0.000001 -1.937880 7.231820
v -0.031059 -2.231820 7.053790
v -0.053795 1.231820 5.299010
v -0.000000 1.231820 5.330070
v -0.000000 1.169710 5.437650
v -0.000001 -2.169710 7.169710
v -0.084853 -2.169710 7.146970
v -0.000001 -2.062120 6.768180
v 0.031058 -2.231820 7.053790
v 0.231821 -1.937880 7.000000
v -0.000000 1.062120 5.036130
v 0.146969 1.169710 5.183100
v 0.231822 1.062120 5.267950
v -0.000000 1.169710 5.098240
v -0.231823 -1.937880 7.000000
v -0.084853 -1.830290 7.146970
v -0.146970 -2.169710 6.915150
v -0.000000 0.830294 5.098240
v 0.231822 0.937883 5.267950
v -0.000001 -1.830290 7.169710
v 0.200764 0.937883 5.152040
v -0.000001 -2.231820 6.937880
v 0.200763 -1.937880 7.115910
v 0.031058 1.231820 5.214150
v -0.000000 1.062120 5.499770
v -0.031059 -2.231820 6.946210
v -0.200765 -2.062120 7.115910
v 0.169706 1.169710 5.267950
v 0.062116 1.231820 5.267950
v -0.000001 -2.231820 7.062120
v -0.000000 1.231820 5.205830
v 0.053794 1.231820 5.236890
v 0.053794 1.231820 5.299010
v -0.053795 -2.231820 6.968940
vn -0.8393 0.1517 0.5221
vn -0.4617 0.4665 0.7544
vn -0.8254 0.3666 0.4294
vn 0.3637 -0.6863 -0.6299
vn 0.1490 -0.9545 -0.2581
vn -0.0000 -0.6863 -0.7273
vn 0.4843 0.2487 -0.8388
vn 0.3637 0.6863 -0.6299
vn 0.8388 0.2487 -0.4843
vn -0.3636 0.6863 0.6299
vn -0.1490 0.9545 0.2581
vn -0.6299 0.6863 0.3636
vn 0.3636 0.6863 0.6299
vn 0.2261 0.4870 0.8436
vn 0.4617 0.4665 0.7544
vn -0.4843 -0.2487 0.8388
vn -0.4727 0.2256 0.8519
vn 0.6299 -0.6863 -0.3636
vn 0.2581 -0.9545 -0.1491
vn -0.8388 0.2487 -0.4843
vn -0.8393 -0.1517 -0.5221
vn -0.9616 0.2734 -0.0234
vn 0.4617 -0.4665 -0.7545
vn 0.8254 -0.3666 -0.4294
vn -0.4617 -0.4665 -0.7544
vn -0.2261 -0.4870 -0.8436
vn -0.3637 -0.6863 -0.6299
vn -0.9872 -0.0495 -0.1513
vn -0.9616 -0.2734 0.0234
vn -0.6299 0.6863 -0.3636
vn -0.3637 0.6863 -0.6299
vn 0.6299 0.6863 0.3636
vn 0.1490 0.9545 0.2581
vn 0.6299 -0.6863 0.3636
vn 0.2981 -0.9545 -0.0000
vn 0.7273 -0.6863 -0.0000
vn 0.9616 -0.2734 0.0234
vn 0.8388 -0.2487 0.4843
vn -0.7273 0.6863 -0.0000
vn -0.2981 0.9545 -0.0000
vn -0.2581 0.9545 -0.1490
vn -0.8254 -0.3666 -0.4294
vn -0.4727 -0.2256 -0.8519
vn -0.2981 -0.9545 -0.0000
vn 0.2582 -0.9545 0.1491
vn -0.2581 -0.9545 0.1491
vn 0.4727 0.2256 0.8519
vn 0.8254 0.3666 0.4294
vn 0.3637 -0.6863 0.6299
vn 0.2261 -0.4870 -0.8436
vn 0.4727 -0.2256 -0.8519
vn -0.0000 -0.2487 -0.9686
vn -0.1491 0.9545 -0.2581
vn -0.4843 0.2487 -0.8388
vn 0.4843 -0.2487 0.8388
vn -0.0000 -0.2487 0.9686
vn -0.7273 -0.6863 -0.0000
vn -0.6299 -0.6863 0.3636
vn -0.0000 0.2487 0.9686
vn -0.1490 -0.9545 0.2581
vn -0.2581 0.9545 0.1491
vn -0.0000 0.9545 0.2981
vn -0.0000 0.6863 0.7273
vn -0.0000 -0.6863 0.7273
vn -0.3637 -0.6863 0.6299
vn -0.0000 -0.5000 -0.8660
vn 0.1490 -0.9545 0.2581
vn 0.9872 0.0495 0.1513
vn -0.0000 0.2487 -0.9686
vn 0.6299 0.6863 -0.3636
vn 0.9616 0.2734 -0.0234
vn -0.0000 0.6863 -0.7273
vn -0.9872 0.0495 0.1513
vn -0.2261 0.4870 0.8436
vn -0.6299 -0.6863 -0.3636
vn -0.6221 -0.3915 -0.6781
vn 0.9872 -0.0495 -0.1513
vn 0.6221 0.3915 0.6781
vn 0.8393 -0.1517 -0.5221
vn -0.0000 -0.9545 -0.2981
vn 0.8393 0.1517 0.5221
vn 0.1491 0.9545 -0.2582
vn -0.6221 0.3915 0.6780
vn -0.1490 -0.9545 -0.2581
vn -0.8388 -0.2487 0.4843
vn 0.7273 0.6863 -0.0000
vn 0.2981 0.9545 -0.0000
vn -0.0000 -0.9545 0.2981
vn -0.0000 0.9545 -0.2981
vn 0.2581 0.9545 -0.1490
vn 0.2581 0.9545 0.1491
vn -0.2581 -0.9545 -0.1491
vt 0.324798 0.909347
vt 0.296889 0.046706
vt 0.325679 0.034663
vt 0.365850 0.074562
vt 0.395101 0.071394
vt 0.376547 0.093831
vt 0.216470 0.028842
vt 0.231913 0.006405
vt 0.245260 0.040885
vt 0.365852 0.113097
vt 0.395102 0.116267
vt 0.366605 0.135346
vt 0.059121 0.033305
vt 0.068693 0.936887
vt 0.051881 0.064737
vt 0.308667 0.951102
vt 0.296008 0.921390
vt 0.366604 0.052314
vt 0.395375 0.063251
vt 0.112285 0.014404
vt 0.121857 0.042454
vt 0.089750 0.029432
vt 0.204692 0.933239
vt 0.233482 0.945282
vt 0.198209 0.962264
vt 0.141632 0.935263
vt 0.158444 0.063113
vt 0.148871 0.966695
vt 0.099323 0.057481
vt 0.089750 0.961063
vt 0.391265 0.187660
vt 0.398641 0.165737
vt 0.421342 0.165738
vt 0.037637 0.025419
vt 0.062085 0.006913
vt 0.398641 0.021924
vt 0.399769 0.056199
vt 0.378606 0.033047
vt 0.363897 0.015195
vt 0.391266 -0.000000
vt 0.378607 0.154613
vt 0.399770 0.131462
vt 0.407104 0.135534
vt 0.112285 0.946035
vt 0.151204 0.031681
vt 0.421715 0.078447
vt 0.407102 0.052127
vt 0.426109 0.071394
vt 0.061454 0.968318
vt 0.219285 0.971080
vt 0.022535 0.053965
vt 0.421341 0.021924
vt 0.197328 0.087578
vt 0.203811 0.058554
vt 0.259038 0.957392
vt 0.179501 0.049805
vt 0.415413 0.135535
vt 0.141632 0.003632
vt 0.179501 0.028049
vt 0.422274 0.000001
vt 0.448614 0.015197
vt 0.363013 0.926950
vt 0.363895 0.955858
vt 0.345186 0.964723
vt 0.271698 0.930139
vt 0.426383 0.063252
vt 0.395377 0.124409
vt 0.069668 0.007887
vt 0.079834 0.035963
vt 0.440624 0.033047
vt 0.451321 0.052315
vt 0.180412 0.955858
vt 0.180382 0.924490
vt 0.415410 0.052128
vt 0.237994 0.979945
vt -0.000000 0.970568
vt 0.009573 0.942518
vt 0.022534 0.985596
vt 0.192160 0.020093
vt 0.252989 0.015221
vt 0.270816 0.052995
vt 0.363898 0.172464
vt 0.440625 0.154615
vt 0.422274 0.187660
vt 0.350354 0.897237
vt 0.289525 0.892365
vt 0.127387 0.974581
vt 0.110891 0.985582
vt 0.363895 0.000000
vt 0.363896 0.031368
vt 0.363895 0.874685
vt 0.258157 0.082707
vt 0.271698 0.927679
vt 0.080178 1.000000
vt 0.051881 0.996368
vt 0.089750 0.971950
vt 0.271728 0.898771
vt 0.232600 0.070597
vt 0.169928 0.931631
vt 0.399015 0.078447
vt 0.000000 0.038937
vt 0.032107 0.957546
vt 0.448614 0.172466
vt 0.169928 0.000000
vt 0.426387 0.124411
vt 0.351236 0.022553
vt 0.311483 0.008865
vt 0.330191 0.000000
vt 0.080178 0.068369
vt 0.376551 0.093831
vt 0.450567 0.074564
vt 0.151835 0.993087
vt 0.324110 0.973540
vt 0.337457 0.939060
vt 0.284357 0.959852
vt 0.272580 0.055455
vt 0.272612 0.024085
vt 0.438567 0.093831
vt 0.450568 0.113098
vt 0.421717 0.109214
vt 0.048184 -0.000000
vt 0.021140 0.014418
vt 0.169586 0.964036
vt 0.159419 0.992113
vt 0.406074 0.082518
vt 0.422469 0.056198
vt 0.363895 0.052265
vt 0.422470 0.131463
vt 0.306313 0.979945
vt 0.137934 1.000000
vt 0.438565 0.093831
vt 0.426110 0.116267
vt 0.054223 0.004027
vt 0.143973 0.995973
vt 0.290407 0.017681
vt 0.414384 0.105142
vt 0.399017 0.109213
vt 0.363896 0.874685
vt 0.363897 -0.000000
vt 0.363897 0.843316
vt 0.451322 0.135347
vt 0.214116 -0.000000
vt 0.406076 0.105143
vt 0.271698 0.024086
vt 0.179531 0.081173
vt 0.414381 0.082519
s 1
f 1/1/1 2/2/2 3/3/3
f 4/4/4 5/5/5 6/6/6
f 7/7/7 8/8/8 9/9/9
f 10/10/10 11/11/11 12/12/12
f 13/13/13 14/14/14 15/15/15
f 1/1/1 16/16/16 17/17/17
f 18/18/18 19/19/19 5/5/5
f 20/20/20 21/21/21 22/22/22
f 23/23/23 24/24/24 4/25/4
f 25/26/25 26/27/26 27/28/27
f 28/29/28 21/21/21 29/30/29
f 20/31/20 30/32/30 31/33/31
f 13/13/13 32/34/32 33/35/33
f 34/36/34 35/37/35 36/38/36
f 37/39/37 38/40/38 34/36/34
f 17/17/17 2/2/2 1/1/1
f 39/41/39 40/42/40 30/32/30
f 30/32/30 40/42/40 41/43/41
f 25/26/25 42/44/42 43/45/43
f 44/46/44 45/47/45 46/48/46
f 15/15/15 14/14/14 47/49/47
f 18/18/18 5/5/5 4/4/4
f 4/25/4 24/24/24 18/50/18
f 15/15/15 48/51/48 13/13/13
f 34/36/34 38/40/38 49/52/49
f 23/23/23 50/53/50 51/54/51
f 18/50/18 24/24/24 37/55/37
f 51/54/51 50/53/50 52/56/52
f 31/33/31 30/32/30 53/57/53
f 43/45/43 54/58/54 52/59/52
f 22/22/22 21/21/21 28/29/28
f 25/26/25 27/28/27 42/44/42
f 55/60/55 56/61/56 49/52/49
f 29/62/29 57/63/57 58/64/58
f 17/17/17 16/16/16 59/65/59
f 46/48/46 45/47/45 60/66/60
f 40/42/40 12/12/12 61/67/61
f 33/35/33 62/68/62 63/69/63
f 60/66/60 64/70/64 65/71/65
f 6/72/6 66/73/66 4/25/4
f 34/36/34 49/52/49 67/74/67
f 37/55/37 36/75/36 18/50/18
f 47/49/47 48/51/48 15/15/15
f 37/76/37 68/77/68 38/78/38
f 69/79/69 7/7/7 52/56/52
f 70/80/70 71/81/71 9/9/9
f 30/32/30 22/82/22 39/41/39
f 53/57/53 72/83/72 31/33/31
f 54/58/54 21/21/21 20/20/20
f 31/33/31 54/84/54 20/31/20
f 1/1/1 3/3/3 73/85/73
f 59/65/59 74/86/74 17/17/17
f 75/87/75 57/88/57 29/30/29
f 42/44/42 27/28/27 75/87/75
f 52/89/52 76/90/76 66/91/66
f 29/30/29 42/44/42 75/87/75
f 77/92/77 71/81/71 37/55/37
f 37/55/37 71/81/71 68/93/68
f 47/49/47 56/94/56 55/95/55
f 59/96/59 56/94/56 47/49/47
f 59/65/59 78/97/78 74/86/74
f 20/31/20 22/82/22 30/32/30
f 9/9/9 71/81/71 79/98/79
f 79/98/79 71/81/71 77/92/77
f 52/59/52 66/99/66 26/27/26
f 34/36/34 45/47/45 35/37/35
f 23/23/23 79/98/79 24/24/24
f 6/6/6 5/5/5 80/100/80
f 34/36/34 36/38/36 37/39/37
f 36/38/36 35/37/35 18/18/18
f 68/77/68 71/101/71 81/102/81
f 81/102/81 48/51/48 47/49/47
f 37/55/37 79/98/79 77/92/77
f 24/24/24 79/98/79 37/55/37
f 69/103/69 54/84/54 31/33/31
f 52/59/52 54/58/54 69/104/69
f 61/67/61 82/105/82 40/42/40
f 53/57/53 30/32/30 41/43/41
f 43/45/43 21/21/21 54/58/54
f 22/106/22 12/107/12 39/108/39
f 13/13/13 83/109/83 14/14/14
f 63/110/63 11/11/11 10/10/10
f 44/46/44 46/48/46 58/111/58
f 27/28/27 84/112/84 75/87/75
f 65/113/65 85/114/85 58/64/58
f 59/65/59 16/16/16 56/115/56
f 42/44/42 21/21/21 43/45/43
f 29/30/29 21/21/21 42/44/42
f 47/49/47 38/78/38 81/102/81
f 85/114/85 16/16/16 1/1/1
f 78/97/78 83/116/83 63/117/63
f 47/49/47 14/14/14 59/96/59
f 73/85/73 85/114/85 1/1/1
f 56/61/56 64/70/64 49/52/49
f 13/13/13 48/51/48 32/34/32
f 86/118/86 70/119/70 87/120/87
f 81/102/81 71/101/71 48/51/48
f 87/121/87 32/34/32 86/122/86
f 51/54/51 7/7/7 79/98/79
f 79/98/79 7/7/7 9/9/9
f 6/123/6 84/112/84 27/28/27
f 80/124/80 84/112/84 6/123/6
f 43/45/43 26/27/26 25/26/25
f 52/59/52 26/27/26 43/45/43
f 27/28/27 66/99/66 6/123/6
f 26/27/26 66/99/66 27/28/27
f 80/100/80 45/47/45 84/125/84
f 60/66/60 88/126/88 64/70/64
f 55/95/55 38/78/38 47/49/47
f 49/52/49 38/40/38 55/60/55
f 48/51/48 71/101/71 32/34/32
f 38/78/38 68/77/68 81/102/81
f 28/127/28 73/85/73 22/106/22
f 29/62/29 73/85/73 28/127/28
f 89/128/89 82/105/82 72/83/72
f 39/41/39 12/12/12 40/42/40
f 3/3/3 12/107/12 22/106/22
f 73/85/73 3/3/3 22/106/22
f 33/35/33 63/69/63 13/13/13
f 74/86/74 2/2/2 17/17/17
f 11/11/11 82/105/82 61/67/61
f 63/69/63 83/109/83 13/13/13
f 65/113/65 64/129/64 56/115/56
f 58/111/58 60/66/60 65/71/65
f 44/130/44 57/88/57 75/87/75
f 58/111/58 57/131/57 44/46/44
f 29/62/29 85/114/85 73/85/73
f 58/64/58 85/114/85 29/62/29
f 5/5/5 45/47/45 80/100/80
f 49/52/49 64/70/64 67/74/67
f 69/79/69 8/8/8 7/7/7
f 70/119/70 90/132/90 87/120/87
f 32/34/32 91/133/91 33/35/33
f 87/121/87 91/133/91 32/34/32
f 51/54/51 79/98/79 23/23/23
f 52/56/52 7/7/7 51/54/51
f 75/87/75 92/134/92 44/130/44
f 84/112/84 92/134/92 75/87/75
f 4/25/4 50/53/50 23/23/23
f 66/73/66 50/53/50 4/25/4
f 67/74/67 45/47/45 34/36/34
f 64/70/64 88/126/88 67/74/67
f 41/43/41 82/105/82 53/57/53
f 12/12/12 11/11/11 61/67/61
f 10/135/10 12/107/12 3/3/3
f 90/132/90 82/105/82 87/120/87
f 87/120/87 82/105/82 91/136/91
f 63/110/63 62/137/62 11/11/11
f 10/135/10 2/2/2 74/86/74
f 3/3/3 2/2/2 10/135/10
f 10/135/10 78/97/78 63/117/63
f 74/86/74 78/97/78 10/135/10
f 59/138/59 83/139/83 78/140/78
f 14/14/14 83/109/83 59/96/59
f 35/37/35 19/19/19 18/18/18
f 58/111/58 46/48/46 60/66/60
f 65/113/65 16/16/16 85/114/85
f 56/115/56 16/16/16 65/113/65
f 35/37/35 45/47/45 19/19/19
f 19/19/19 45/47/45 5/5/5
f 31/33/31 72/83/72 69/103/69
f 72/83/72 82/105/82 8/141/8
f 89/128/89 72/83/72 53/57/53
f 72/142/72 8/8/8 69/79/69
f 40/42/40 82/105/82 41/43/41
f 33/143/33 82/105/82 62/137/62
f 86/144/86 71/81/71 70/80/70
f 32/34/32 71/101/71 86/122/86
f 50/53/50 76/145/76 52/56/52
f 66/73/66 76/145/76 50/53/50
f 88/126/88 45/47/45 67/74/67
f 60/66/60 45/47/45 88/126/88
f 92/146/92 45/47/45 44/46/44
f 84/125/84 45/47/45 92/146/92
f 91/136/91 82/105/82 33/143/33
f 62/137/62 82/105/82 11/11/11
f 53/57/53 82/105/82 89/128/89
f 9/9/9 8/8/8 70/80/70
f 70/119/70 82/105/82 90/132/90
f 8/141/8 82/105/82 70/119/70
