# Blender 4.4.3
# www.blender.org
g edge_03_Mesh
v -0.200765 -1.937880 7.115910
v -0.115911 1.062120 5.468710
v -0.200764 1.062120 5.383860
v 0.084852 -2.169710 6.853030
v 0.031058 -2.231820 6.946210
v -0.000001 -2.169710 6.830290
v 0.115911 1.062120 5.067190
v 0.084852 1.169710 5.120980
v 0.200764 1.062120 5.152040
v -0.084853 1.169710 5.414920
v -0.031059 1.231820 5.321740
v -0.146969 1.169710 5.352800
v 0.084852 1.169710 5.414920
v 0.084852 -1.830290 7.146970
v 0.115911 1.062120 5.468710
v -0.115912 -2.062120 7.200760
v -0.115912 -1.937880 7.200760
v 0.146968 -2.169710 6.915150
v 0.053794 -2.231820 6.968940
v -0.200764 1.062120 5.152040
v -0.200764 0.937883 5.152040
v -0.231822 1.062120 5.267950
v 0.115910 -2.062120 6.799240
v 0.200763 -2.062120 6.884090
v -0.115912 -2.062120 6.799240
v -0.084853 0.830294 5.120980
v -0.084853 -2.169710 6.853030
v -0.231822 0.937883 5.267950
v -0.231823 -2.062120 7.000000
v -0.146969 1.169710 5.183100
v -0.084853 1.169710 5.120980
v 0.146969 1.169710 5.352800
v 0.031058 1.231820 5.321740
v 0.146968 -2.169710 7.084850
v 0.062116 -2.231820 7.000000
v 0.169705 -2.169710 7.000000
v 0.231821 -2.062120 7.000000
v 0.200763 -2.062120 7.115910
v -0.169706 1.169710 5.267950
v -0.062117 1.231820 5.267950
v -0.053795 1.231820 5.236890
v -0.200765 -2.062120 6.884090
v -0.115911 0.937883 5.067190
v -0.062117 -2.231820 7.000000
v 0.053794 -2.231820 7.031060
v -0.053795 -2.231820 7.031060
v 0.115910 -1.937880 7.200760
v 0.200764 1.062120 5.383860
v 0.084852 -2.169710 7.146970
v 0.084852 0.830294 5.120980
v 0.115911 0.937883 5.067190
v -0.000000 0.937883 5.036130
v -0.031059 1.231820 5.214150
v -0.115911 1.062120 5.067190
v 0.115910 -2.062120 7.200760
v -0.000001 -2.062120 7.231820
v -0.169707 -2.169710 7.000000
v -0.146970 -2.169710 7.084850
v -0.000001 -1.937880 7.231820
v -0.031059 -2.231820 7.053790
v -0.053795 1.231820 5.299010
v -0.000000 1.231820 5.330070
v -0.000000 1.169710 5.437650
v -0.000001 -2.169710 7.169710
v -0.084853 -2.169710 7.146970
v -0.000001 -2.062120 6.768180
v 0.031058 -2.231820 7.053790
v 0.231821 -1.937880 7.000000
v -0.000000 1.062120 5.036130
v 0.146969 1.169710 5.183100
v 0.231822 1.062120 5.267950
v -0.000000 1.169710 5.098240
v -0.231823 -1.937880 7.000000
v -0.084853 -1.830290 7.146970
v -0.146970 -2.169710 6.915150
v -0.000000 0.830294 5.098240
v 0.231822 0.937883 5.267950
v -0.000001 -1.830290 7.169710
v 0.200764 0.937883 5.152040
v -0.000001 -2.231820 6.937880
v 0.200763 -1.937880 7.115910
v 0.031058 1.231820 5.214150
v -0.000000 1.062120 5.499770
v -0.031059 -2.231820 6.946210
v -0.200765 -2.062120 7.115910
v 0.169706 1.169710 5.267950
v 0.062116 1.231820 5.267950
v -0.000001 -2.231820 7.062120
v -0.000000 1.231820 5.205830
v 0.053794 1.231820 5.236890
v 0.053794 1.231820 5.299010
v -0.053795 -2.231820 6.968940
vn -0.8393 0.1517 0.5221
vn -0.4617 0.4665 0.7544
vn -0.8254 0.3666 0.4294
vn 0.3637 -0.6863 -0.6299
vn 0.1490 -0.9545 -0.2581
vn -0.0000 -0.6863 -0.7273
vn 0.4843 0.2487 -0.8388
vn 0.3637 0.6863 -0.6299
vn 0.8388 0.2487 -0.4843
vn -0.3636 0.6863 0.6299
vn -0.1490 0.9545 0.2581
vn -0.6299 0.6863 0.3636
vn 0.3636 0.6863 0.6299
vn 0.2261 0.4870 0.8436
vn 0.4617 0.4665 0.7544
vn -0.4843 -0.2487 0.8388
vn -0.4727 0.2256 0.8519
vn 0.6299 -0.6863 -0.3636
vn 0.2581 -0.9545 -0.1491
vn -0.8388 0.2487 -0.4843
vn -0.8393 -0.1517 -0.5221
vn -0.9616 0.2734 -0.0234
vn 0.4617 -0.4665 -0.7545
vn 0.8254 -0.3666 -0.4294
vn -0.4617 -0.4665 -0.7544
vn -0.2261 -0.4870 -0.8436
vn -0.3637 -0.6863 -0.6299
vn -0.9872 -0.0495 -0.1513
vn -0.9616 -0.2734 0.0234
vn -0.6299 0.6863 -0.3636
vn -0.3637 0.6863 -0.6299
vn 0.6299 0.6863 0.3636
vn 0.1490 0.9545 0.2581
vn 0.6299 -0.6863 0.3636
vn 0.2981 -0.9545 -0.0000
vn 0.7273 -0.6863 -0.0000
vn 0.9616 -0.2734 0.0234
vn 0.8388 -0.2487 0.4843
vn -0.7273 0.6863 -0.0000
vn -0.2981 0.9545 -0.0000
vn -0.2581 0.9545 -0.1490
vn -0.8254 -0.3666 -0.4294
vn -0.4727 -0.2256 -0.8519
vn -0.2981 -0.9545 -0.0000
vn 0.2582 -0.9545 0.1491
vn -0.2581 -0.9545 0.1491
vn 0.4727 0.2256 0.8519
vn 0.8254 0.3666 0.4294
vn 0.3637 -0.6863 0.6299
vn 0.2261 -0.4870 -0.8436
vn 0.4727 -0.2256 -0.8519
vn -0.0000 -0.2487 -0.9686
vn -0.1491 0.9545 -0.2581
vn -0.4843 0.2487 -0.8388
vn 0.4843 -0.2487 0.8388
vn -0.0000 -0.2487 0.9686
vn -0.7273 -0.6863 -0.0000
vn -0.6299 -0.6863 0.3636
vn -0.0000 0.2487 0.9686
vn -0.1490 -0.9545 0.2581
vn -0.2581 0.9545 0.1491
vn -0.0000 0.9545 0.2981
vn -0.0000 0.6863 0.7273
vn -0.0000 -0.6863 0.7273
vn -0.3637 -0.6863 0.6299
vn -0.0000 -0.5000 -0.8660
vn 0.1490 -0.9545 0.2581
vn 0.9872 0.0495 0.1513
vn -0.0000 0.2487 -0.9686
vn 0.6299 0.6863 -0.3636
vn 0.9616 0.2734 -0.0234
vn -0.0000 0.6863 -0.7273
vn -0.9872 0.0495 0.1513
vn -0.2261 0.4870 0.8436
vn -0.6299 -0.6863 -0.3636
vn -0.6221 -0.3915 -0.6781
vn 0.9872 -0.0495 -0.1513
vn 0.6221 0.3915 0.6781
vn 0.8393 -0.1517 -0.5221
vn -0.0000 -0.9545 -0.2981
vn 0.8393 0.1517 0.5221
vn 0.1491 0.9545 -0.2582
vn -0.6221 0.3915 0.6780
vn -0.1490 -0.9545 -0.2581
vn -0.8388 -0.2487 0.4843
vn 0.7273 0.6863 -0.0000
vn 0.2981 0.9545 -0.0000
vn -0.0000 -0.9545 0.2981
vn -0.0000 0.9545 -0.2981
vn 0.2581 0.9545 -0.1490
vn 0.2581 0.9545 0.1491
vn -0.2581 -0.9545 -0.1491
s 1
f 1//1 2//2 3//3
f 4//4 5//5 6//6
f 7//7 8//8 9//9
f 10//10 11//11 12//12
f 13//13 14//14 15//15
f 1//1 16//16 17//17
f 18//18 19//19 5//5
f 20//20 21//21 22//22
f 23//23 24//24 4//4
f 25//25 26//26 27//27
f 28//28 21//21 29//29
f 20//20 30//30 31//31
f 13//13 32//32 33//33
f 34//34 35//35 36//36
f 37//37 38//38 34//34
f 17//17 2//2 1//1
f 39//39 40//40 30//30
f 30//30 40//40 41//41
f 25//25 42//42 43//43
f 44//44 45//45 46//46
f 15//15 14//14 47//47
f 18//18 5//5 4//4
f 4//4 24//24 18//18
f 15//15 48//48 13//13
f 34//34 38//38 49//49
f 23//23 50//50 51//51
f 18//18 24//24 37//37
f 51//51 50//50 52//52
f 31//31 30//30 53//53
f 43//43 54//54 52//52
f 22//22 21//21 28//28
f 25//25 27//27 42//42
f 55//55 56//56 49//49
f 29//29 57//57 58//58
f 17//17 16//16 59//59
f 46//46 45//45 60//60
f 40//40 12//12 61//61
f 33//33 62//62 63//63
f 60//60 64//64 65//65
f 6//6 66//66 4//4
f 34//34 49//49 67//67
f 37//37 36//36 18//18
f 47//47 48//48 15//15
f 37//37 68//68 38//38
f 69//69 7//7 52//52
f 70//70 71//71 9//9
f 30//30 22//22 39//39
f 53//53 72//72 31//31
f 54//54 21//21 20//20
f 31//31 54//54 20//20
f 1//1 3//3 73//73
f 59//59 74//74 17//17
f 75//75 57//57 29//29
f 42//42 27//27 75//75
f 52//52 76//76 66//66
f 29//29 42//42 75//75
f 77//77 71//71 37//37
f 37//37 71//71 68//68
f 47//47 56//56 55//55
f 59//59 56//56 47//47
f 59//59 78//78 74//74
f 20//20 22//22 30//30
f 9//9 71//71 79//79
f 79//79 71//71 77//77
f 52//52 66//66 26//26
f 34//34 45//45 35//35
f 23//23 79//79 24//24
f 6//6 5//5 80//80
f 34//34 36//36 37//37
f 36//36 35//35 18//18
f 68//68 71//71 81//81
f 81//81 48//48 47//47
f 37//37 79//79 77//77
f 24//24 79//79 37//37
f 69//69 54//54 31//31
f 52//52 54//54 69//69
f 61//61 82//82 40//40
f 53//53 30//30 41//41
f 43//43 21//21 54//54
f 22//22 12//12 39//39
f 13//13 83//83 14//14
f 63//63 11//11 10//10
f 44//44 46//46 58//58
f 27//27 84//84 75//75
f 65//65 85//85 58//58
f 59//59 16//16 56//56
f 42//42 21//21 43//43
f 29//29 21//21 42//42
f 47//47 38//38 81//81
f 85//85 16//16 1//1
f 78//78 83//83 63//63
f 47//47 14//14 59//59
f 73//73 85//85 1//1
f 56//56 64//64 49//49
f 13//13 48//48 32//32
f 86//86 70//70 87//87
f 81//81 71//71 48//48
f 87//87 32//32 86//86
f 51//51 7//7 79//79
f 79//79 7//7 9//9
f 6//6 84//84 27//27
f 80//80 84//84 6//6
f 43//43 26//26 25//25
f 52//52 26//26 43//43
f 27//27 66//66 6//6
f 26//26 66//66 27//27
f 80//80 45//45 84//84
f 60//60 88//88 64//64
f 55//55 38//38 47//47
f 49//49 38//38 55//55
f 48//48 71//71 32//32
f 38//38 68//68 81//81
f 28//28 73//73 22//22
f 29//29 73//73 28//28
f 89//89 82//82 72//72
f 39//39 12//12 40//40
f 3//3 12//12 22//22
f 73//73 3//3 22//22
f 33//33 63//63 13//13
f 74//74 2//2 17//17
f 11//11 82//82 61//61
f 63//63 83//83 13//13
f 65//65 64//64 56//56
f 58//58 60//60 65//65
f 44//44 57//57 75//75
f 58//58 57//57 44//44
f 29//29 85//85 73//73
f 58//58 85//85 29//29
f 5//5 45//45 80//80
f 49//49 64//64 67//67
f 69//69 8//8 7//7
f 70//70 90//90 87//87
f 32//32 91//91 33//33
f 87//87 91//91 32//32
f 51//51 79//79 23//23
f 52//52 7//7 51//51
f 75//75 92//92 44//44
f 84//84 92//92 75//75
f 4//4 50//50 23//23
f 66//66 50//50 4//4
f 67//67 45//45 34//34
f 64//64 88//88 67//67
f 41//41 82//82 53//53
f 12//12 11//11 61//61
f 10//10 12//12 3//3
f 90//90 82//82 87//87
f 87//87 82//82 91//91
f 63//63 62//62 11//11
f 10//10 2//2 74//74
f 3//3 2//2 10//10
f 10//10 78//78 63//63
f 74//74 78//78 10//10
f 59//59 83//83 78//78
f 14//14 83//83 59//59
f 35//35 19//19 18//18
f 58//58 46//46 60//60
f 65//65 16//16 85//85
f 56//56 16//16 65//65
f 35//35 45//45 19//19
f 19//19 45//45 5//5
f 31//31 72//72 69//69
f 72//72 82//82 8//8
f 89//89 72//72 53//53
f 72//72 8//8 69//69
f 40//40 82//82 41//41
f 33//33 82//82 62//62
f 86//86 71//71 70//70
f 32//32 71//71 86//86
f 50//50 76//76 52//52
f 66//66 76//76 50//50
f 88//88 45//45 67//67
f 60//60 45//45 88//88
f 92//92 45//45 44//44
f 84//84 45//45 92//92
f 91//91 82//82 33//33
f 62//62 82//82 11//11
f 53//53 82//82 89//89
f 9//9 8//8 70//70
f 70//70 82//82 90//90
f 8//8 82//82 70//70
