# Blender 4.4.3
# www.blender.org
g edge_09_Mesh
v -0.062116 -1.231820 -8.732050
v 0.000001 -1.231820 -8.669930
v -0.053794 -1.231820 -8.700990
v -0.231821 -1.062120 -8.732050
v -0.200763 1.937880 -6.884090
v -0.231821 1.937880 -7.000000
v -0.231821 -0.937883 -8.732050
v 0.084853 2.169710 -7.146970
v 0.031059 2.231820 -7.053790
v 0.146970 2.169710 -7.084850
v -0.200763 2.062120 -6.884090
v 0.084853 1.830290 -6.853030
v 0.115912 -1.062120 -8.531290
v 0.115912 1.937880 -6.799240
v 0.000001 2.231820 -7.062120
v 0.000001 2.169710 -7.169710
v -0.031058 -1.231820 -8.785850
v -0.053794 -1.231820 -8.763110
v -0.084852 -1.169710 -8.879020
v -0.084852 2.169710 -7.146970
v -0.031058 2.231820 -7.053790
v 0.000001 2.062120 -7.231820
v 0.000001 -0.937883 -8.963870
v -0.146968 2.169710 -7.084850
v 0.115912 2.062120 -7.200760
v 0.200765 2.062120 -7.115910
v 0.115912 -0.937883 -8.932810
v 0.231823 1.937880 -7.000000
v 0.200765 2.062120 -6.884090
v 0.200765 1.937880 -6.884090
v 0.115912 -1.062120 -8.932810
v 0.000001 -1.062120 -8.963870
v 0.000001 -0.830294 -8.901760
v 0.000001 1.937880 -6.768180
v -0.200763 -1.062120 -8.847960
v -0.200763 -0.937883 -8.847960
v -0.200763 2.062120 -7.115910
v -0.231821 2.062120 -7.000000
v 0.231823 2.062120 -7.000000
v -0.031058 2.231820 -6.946210
v -0.146968 2.169710 -6.915150
v -0.084852 2.169710 -6.853030
v 0.146970 -1.169710 -8.816900
v 0.169707 -1.169710 -8.732050
v 0.053795 -1.231820 -8.763110
v 0.000001 2.062120 -6.768180
v 0.000001 2.169710 -6.830290
v 0.000001 -1.169710 -8.901760
v 0.031059 -1.231820 -8.785850
v 0.000001 -1.231820 -8.794170
v 0.084853 2.169710 -6.853030
v 0.115912 2.062120 -6.799240
v 0.084853 -1.169710 -8.879020
v -0.146968 -1.169710 -8.816900
v -0.115910 -1.062120 -8.932810
v 0.146970 2.169710 -6.915150
v 0.053795 2.231820 -6.968940
v 0.031059 2.231820 -6.946210
v 0.062117 2.231820 -7.000000
v -0.053794 2.231820 -6.968940
v 0.200765 -1.062120 -8.847960
v 0.169707 2.169710 -7.000000
v -0.053794 2.231820 -7.031060
v 0.231823 -1.062120 -8.732050
v 0.000001 -1.169710 -8.562350
v -0.084852 1.830290 -6.853030
v -0.115910 -1.062120 -8.531290
v -0.200763 -1.062120 -8.616140
v -0.115910 1.937880 -6.799240
v -0.146968 -1.169710 -8.647200
v -0.084852 -1.169710 -8.585080
v -0.115910 2.062120 -6.799240
v 0.200765 -0.937883 -8.847960
v 0.084853 -1.169710 -8.585080
v -0.115910 -0.937883 -8.932810
v -0.169705 2.169710 -7.000000
v -0.062116 2.231820 -7.000000
v -0.169705 -1.169710 -8.732050
v 0.031059 -1.231820 -8.678260
v -0.115910 2.062120 -7.200760
v 0.000001 1.830290 -6.830290
v 0.231823 -0.937883 -8.732050
v 0.200765 -1.062120 -8.616140
v 0.146970 -1.169710 -8.647200
v 0.000001 2.231820 -6.937880
v 0.053795 2.231820 -7.031060
v -0.031058 -1.231820 -8.678260
v 0.000001 -1.062120 -8.500230
v 0.062117 -1.231820 -8.732050
v 0.053795 -1.231820 -8.700990
vn -0.2981 -0.9545 -0.0000
vn -0.0000 -0.9545 0.2981
vn -0.2581 -0.9545 0.1491
vn -0.9616 -0.2734 -0.0234
vn -0.8393 -0.1517 0.5221
vn -0.9872 -0.0495 0.1513
vn -0.9872 0.0495 -0.1513
vn 0.3637 0.6863 -0.6298
vn 0.1490 0.9545 -0.2581
vn 0.6299 0.6863 -0.3636
vn -0.8388 0.2487 0.4843
vn 0.2261 -0.4870 0.8436
vn 0.4617 -0.4665 0.7545
vn 0.4727 -0.2256 0.8519
vn -0.0000 0.9545 -0.2981
vn -0.0000 0.6863 -0.7273
vn -0.1491 -0.9545 -0.2581
vn -0.2581 -0.9545 -0.1490
vn -0.3637 -0.6863 -0.6299
vn -0.3637 0.6863 -0.6299
vn -0.1490 0.9545 -0.2581
vn -0.7829 0.3110 -0.5387
vn -0.0000 0.2487 -0.9686
vn -0.6299 0.6863 -0.3636
vn 0.4617 0.4665 -0.7544
vn 0.8254 0.3666 -0.4294
vn 0.4727 0.2256 -0.8519
vn 0.9872 -0.0495 0.1513
vn 0.8388 0.2487 0.4843
vn 0.8393 -0.1517 0.5221
vn 0.4843 -0.2487 -0.8388
vn -0.0000 -0.2487 -0.9686
vn -0.6221 0.3915 -0.6781
vn -0.0000 -0.2487 0.9686
vn -0.8388 -0.2487 -0.4843
vn -0.8393 0.1517 -0.5221
vn -0.8254 0.3666 -0.4294
vn -0.9616 0.2734 0.0234
vn 0.9616 0.2734 0.0234
vn -0.1490 0.9545 0.2581
vn -0.6299 0.6863 0.3636
vn -0.3637 0.6863 0.6299
vn 0.6299 -0.6863 -0.3636
vn 0.7273 -0.6863 -0.0000
vn 0.2581 -0.9545 -0.1490
vn -0.0000 0.2487 0.9686
vn -0.0000 0.6863 0.7273
vn -0.0000 -0.6863 -0.7273
vn 0.1491 -0.9545 -0.2581
vn -0.0000 -0.9545 -0.2981
vn 0.3637 0.6863 0.6299
vn 0.4843 0.2487 0.8388
vn 0.3637 -0.6863 -0.6299
vn -0.6299 -0.6863 -0.3636
vn -0.4843 -0.2487 -0.8388
vn 0.6299 0.6863 0.3636
vn 0.2581 0.9545 0.1491
vn 0.1490 0.9545 0.2581
vn 0.2981 0.9545 -0.0000
vn -0.2582 0.9545 0.1491
vn 0.8388 -0.2487 -0.4843
vn 0.7273 0.6863 -0.0000
vn -0.2581 0.9545 -0.1491
vn 0.9616 -0.2734 -0.0234
vn -0.0000 -0.6863 0.7273
vn -0.2261 -0.4870 0.8436
vn -0.4617 -0.4665 0.7545
vn -0.8254 -0.3666 0.4294
vn -0.4727 -0.2256 0.8519
vn -0.6299 -0.6863 0.3636
vn -0.3636 -0.6863 0.6299
vn -0.4843 0.2487 0.8388
vn 0.8393 0.1517 -0.5221
vn 0.3636 -0.6863 0.6299
vn -0.4727 0.2256 -0.8519
vn -0.7273 0.6863 -0.0000
vn -0.2981 0.9545 -0.0000
vn -0.7273 -0.6863 -0.0000
vn 0.1490 -0.9545 0.2581
vn -0.4617 0.4665 -0.7544
vn 0.6221 -0.3915 0.6781
vn 0.9872 0.0495 -0.1513
vn 0.8254 -0.3666 0.4294
vn 0.6299 -0.6863 0.3636
vn -0.0000 0.9545 0.2981
vn 0.2581 0.9545 -0.1491
vn -0.1490 -0.9545 0.2581
vn -0.6221 -0.3915 0.6781
vn 0.2981 -0.9545 -0.0000
vn 0.2581 -0.9545 0.1491
s 1
f 1//1 2//2 3//3
f 4//4 5//5 6//6
f 6//6 7//7 4//4
f 8//8 9//9 10//10
f 5//5 11//11 6//6
f 12//12 13//13 14//14
f 15//15 9//9 16//16
f 17//17 18//18 19//19
f 20//20 21//21 16//16
f 20//20 22//22 23//23
f 24//24 21//21 20//20
f 25//25 26//26 27//27
f 28//28 29//29 30//30
f 23//23 31//31 32//32
f 33//33 27//27 23//23
f 16//16 8//8 33//33
f 34//34 12//12 14//14
f 35//35 7//7 36//36
f 24//24 37//37 38//38
f 4//4 7//7 35//35
f 39//39 26//26 10//10
f 16//16 33//33 22//22
f 40//40 41//41 42//42
f 43//43 44//44 45//45
f 46//46 47//47 42//42
f 48//48 49//49 50//50
f 39//39 29//29 28//28
f 29//29 51//51 52//52
f 53//53 43//43 45//45
f 35//35 19//19 54//54
f 55//55 19//19 35//35
f 56//56 51//51 29//29
f 56//56 57//57 58//58
f 59//59 60//60 57//57
f 7//7 37//37 36//36
f 55//55 32//32 48//48
f 16//16 22//22 20//20
f 16//16 9//9 8//8
f 53//53 31//31 61//61
f 22//22 33//33 23//23
f 30//30 52//52 14//14
f 39//39 10//10 62//62
f 63//63 21//21 24//24
f 52//52 51//51 46//46
f 30//30 64//64 28//28
f 65//65 66//66 67//67
f 68//68 67//67 69//69
f 70//70 71//71 68//68
f 61//61 44//44 43//43
f 46//46 42//42 72//72
f 39//39 56//56 29//29
f 29//29 52//52 30//30
f 26//26 73//73 27//27
f 39//39 73//73 26//26
f 27//27 31//31 23//23
f 65//65 74//74 13//13
f 23//23 75//75 20//20
f 48//48 19//19 55//55
f 69//69 11//11 5//5
f 6//6 11//11 38//38
f 38//38 37//37 7//7
f 76//76 24//24 38//38
f 35//35 75//75 55//55
f 36//36 75//75 35//35
f 38//38 7//7 6//6
f 20//20 37//37 24//24
f 27//27 8//8 25//25
f 33//33 8//8 27//27
f 62//62 56//56 39//39
f 10//10 59//59 62//62
f 16//16 21//21 15//15
f 24//24 77//77 63//63
f 4//4 78//78 68//68
f 79//79 74//74 65//65
f 50//50 2//2 17//17
f 28//28 64//64 39//39
f 72//72 34//34 46//46
f 69//69 34//34 72//72
f 59//59 56//56 62//62
f 76//76 77//77 24//24
f 8//8 26//26 25//25
f 10//10 26//26 8//8
f 75//75 32//32 55//55
f 23//23 32//32 75//75
f 48//48 17//17 19//19
f 50//50 17//17 48//48
f 61//61 31//31 73//73
f 73//73 31//31 27//27
f 51//51 47//47 46//46
f 58//58 47//47 51//51
f 68//68 5//5 4//4
f 69//69 5//5 68//68
f 20//20 80//80 37//37
f 75//75 80//80 20//20
f 57//57 60//60 58//58
f 63//63 60//60 21//21
f 41//41 77//77 76//76
f 41//41 60//60 77//77
f 35//35 78//78 4//4
f 54//54 78//78 35//35
f 3//3 71//71 70//70
f 65//65 81//81 66//66
f 69//69 66//66 34//34
f 67//67 66//66 69//69
f 82//82 64//64 73//73
f 13//13 74//74 83//83
f 34//34 52//52 46//46
f 14//14 52//52 34//34
f 59//59 57//57 56//56
f 77//77 60//60 63//63
f 82//82 73//73 39//39
f 83//83 64//64 30//30
f 84//84 44//44 83//83
f 39//39 64//64 82//82
f 17//17 2//2 18//18
f 68//68 71//71 67//67
f 48//48 31//31 53//53
f 32//32 31//31 48//48
f 72//72 11//11 69//69
f 42//42 11//11 72//72
f 58//58 51//51 56//56
f 15//15 60//60 9//9
f 58//58 85//85 47//47
f 38//38 41//41 76//76
f 36//36 80//80 75//75
f 37//37 80//80 36//36
f 10//10 86//86 59//59
f 9//9 86//86 10//10
f 87//87 71//71 3//3
f 78//78 70//70 68//68
f 61//61 43//43 53//53
f 13//13 88//88 65//65
f 12//12 88//88 13//13
f 66//66 81//81 34//34
f 65//65 88//88 81//81
f 83//83 74//74 84//84
f 53//53 49//49 48//48
f 45//45 49//49 53//53
f 11//11 41//41 38//38
f 42//42 41//41 11//11
f 40//40 60//60 41//41
f 42//42 47//47 40//40
f 21//21 60//60 15//15
f 47//47 85//85 40//40
f 65//65 2//2 79//79
f 78//78 3//3 70//70
f 30//30 13//13 83//83
f 14//14 13//13 30//30
f 89//89 2//2 45//45
f 18//18 1//1 78//78
f 90//90 44//44 84//84
f 83//83 44//44 64//64
f 34//34 88//88 12//12
f 81//81 88//88 34//34
f 58//58 60//60 85//85
f 85//85 60//60 40//40
f 86//86 60//60 59//59
f 9//9 60//60 86//86
f 54//54 18//18 78//78
f 19//19 18//18 54//54
f 18//18 2//2 1//1
f 3//3 2//2 87//87
f 90//90 74//74 79//79
f 84//84 74//74 90//90
f 64//64 44//44 61//61
f 73//73 64//64 61//61
f 87//87 2//2 65//65
f 90//90 2//2 89//89
f 79//79 2//2 90//90
f 78//78 1//1 3//3
f 49//49 2//2 50//50
f 45//45 2//2 49//49
f 65//65 71//71 87//87
f 67//67 71//71 65//65
f 89//89 44//44 90//90
f 45//45 44//44 89//89
