# Blender 4.4.3
# www.blender.org
o A
v -0.277882 -0.075000 0.304900
v -0.043935 -0.075000 -0.268372
v -0.107808 -0.075000 0.076644
v -0.131413 -0.075000 0.137267
v 0.129787 -0.075000 0.137267
v 0.274638 -0.075000 0.304900
v 0.195293 -0.075000 0.304900
v 0.106593 -0.075000 0.076644
v 0.044338 -0.075000 -0.268372
v -0.197331 -0.075000 0.304900
v -0.034581 -0.075000 -0.111710
v -0.017079 -0.075000 -0.159837
v -0.000813 -0.075000 -0.209779
v 0.010173 -0.075000 -0.175996
v -0.004491 -0.075000 -0.198380
v 0.021556 -0.075000 -0.142442
v 0.032954 -0.075000 -0.112534
v -0.107808 0.075000 0.076644
v -0.043935 0.075000 -0.268372
v -0.277882 0.075000 0.304900
v -0.131413 0.075000 0.137267
v 0.195293 0.075000 0.304900
v 0.274638 0.075000 0.304900
v 0.129787 0.075000 0.137267
v 0.044338 0.075000 -0.268372
v 0.106593 0.075000 0.076644
v -0.197331 0.075000 0.304900
v -0.017079 0.075000 -0.159837
v -0.034581 0.075000 -0.111710
v 0.010173 0.075000 -0.175996
v -0.000813 0.075000 -0.209779
v -0.004491 0.075000 -0.198380
v 0.021556 0.075000 -0.142442
v 0.032954 0.075000 -0.112534
vn -0.6878 -0.5597 0.4622
vn -0.4460 -0.6005 -0.6637
vn 0.2720 -0.9442 -0.1860
vn 0.2892 -0.8580 0.4244
vn -0.2894 -0.8583 0.4237
vn 0.6865 -0.5599 0.4640
vn -0.4514 -0.5995 0.6610
vn -0.2719 -0.9442 -0.1859
vn 0.4480 -0.6001 -0.6627
vn 0.4506 -0.5997 0.6613
vn 0.6641 -0.7046 0.2498
vn 0.6719 -0.7034 0.2318
vn 0.0002 -0.9857 0.1687
vn -0.6724 -0.7057 0.2234
vn 0.6729 -0.7067 0.2184
vn -0.6692 -0.7030 0.2409
vn -0.6606 -0.7063 0.2545
vn 0.2719 0.9442 -0.1861
vn -0.4460 0.6005 -0.6637
vn -0.6879 0.5597 0.4622
vn 0.2892 0.8580 0.4244
vn -0.4514 0.5995 0.6609
vn 0.6865 0.5599 0.4640
vn -0.2894 0.8583 0.4237
vn 0.4480 0.6001 -0.6627
vn -0.2719 0.9442 -0.1859
vn 0.4506 0.5997 0.6613
vn 0.6719 0.7034 0.2318
vn 0.6641 0.7046 0.2498
vn -0.6724 0.7057 0.2234
vn 0.0002 0.9857 0.1687
vn 0.6729 0.7067 0.2184
vn -0.6692 0.7030 0.2409
vn -0.6606 0.7063 0.2544
s 1
f 1//1 2//2 3//3
f 3//3 4//4 1//1
f 5//5 6//6 7//7
f 8//8 9//9 6//6
f 3//3 8//8 5//5
f 10//10 1//1 4//4
f 5//5 8//8 6//6
f 11//11 2//2 12//12
f 4//4 3//3 5//5
f 3//3 2//2 11//11
f 13//13 9//9 14//14
f 12//12 2//2 15//15
f 15//15 2//2 13//13
f 13//13 2//2 9//9
f 14//14 9//9 16//16
f 16//16 9//9 17//17
f 17//17 9//9 8//8
f 18//18 19//19 20//20
f 20//20 21//21 18//18
f 22//22 23//23 24//24
f 23//23 25//25 26//26
f 24//24 26//26 18//18
f 21//21 20//20 27//27
f 23//23 26//26 24//24
f 28//28 19//19 29//29
f 24//24 18//18 21//21
f 29//29 19//19 18//18
f 30//30 25//25 31//31
f 32//32 19//19 28//28
f 31//31 19//19 32//32
f 25//25 19//19 31//31
f 33//33 25//25 30//30
f 34//34 25//25 33//33
f 26//26 25//25 34//34
f 5//5 21//21 4//4
f 5//5 24//24 21//21
f 7//7 24//24 5//5
f 7//7 22//22 24//24
f 6//6 22//22 7//7
f 6//6 23//23 22//22
f 9//9 23//23 6//6
f 9//9 25//25 23//23
f 2//2 25//25 9//9
f 2//2 19//19 25//25
f 1//1 19//19 2//2
f 1//1 20//20 19//19
f 10//10 20//20 1//1
f 10//10 27//27 20//20
f 4//4 27//27 10//10
f 4//4 21//21 27//27
f 11//11 29//29 3//3
f 18//18 3//3 29//29
f 12//12 28//28 11//11
f 29//29 11//11 28//28
f 15//15 32//32 12//12
f 28//28 12//12 32//32
f 13//13 31//31 15//15
f 32//32 15//15 31//31
f 14//14 30//30 13//13
f 31//31 13//13 30//30
f 16//16 33//33 14//14
f 30//30 14//14 33//33
f 17//17 34//34 16//16
f 33//33 16//16 34//34
f 8//8 26//26 17//17
f 34//34 17//17 26//26
f 3//3 18//18 8//8
f 26//26 8//8 18//18
