# Blender 4.4.3
# www.blender.org
g A_Mesh
v -0.277882 -0.075000 0.304900
v -0.043935 -0.075000 -0.268372
v -0.107808 -0.075000 0.076644
v -0.131413 -0.075000 0.137267
v 0.129787 -0.075000 0.137267
v 0.274638 -0.075000 0.304900
v 0.195293 -0.075000 0.304900
v 0.106593 -0.075000 0.076644
v 0.044338 -0.075000 -0.268372
v -0.197331 -0.075000 0.304900
v -0.034581 -0.075000 -0.111710
v -0.017079 -0.075000 -0.159837
v -0.000813 -0.075000 -0.209779
v 0.010173 -0.075000 -0.175996
v -0.004491 -0.075000 -0.198380
v 0.021556 -0.075000 -0.142442
v 0.032954 -0.075000 -0.112534
v -0.107808 0.075000 0.076644
v -0.043935 0.075000 -0.268372
v -0.277882 0.075000 0.304900
v -0.131413 0.075000 0.137267
v 0.195293 0.075000 0.304900
v 0.274638 0.075000 0.304900
v 0.129787 0.075000 0.137267
v 0.044338 0.075000 -0.268372
v 0.106593 0.075000 0.076644
v -0.197331 0.075000 0.304900
v -0.017079 0.075000 -0.159837
v -0.034581 0.075000 -0.111710
v 0.010173 0.075000 -0.175996
v -0.000813 0.075000 -0.209779
v -0.004491 0.075000 -0.198380
v 0.021556 0.075000 -0.142442
v 0.032954 0.075000 -0.112534
vn -0.6878 -0.5597 0.4622
vn -0.4460 -0.6005 -0.6637
vn 0.2720 -0.9442 -0.1860
vn 0.2892 -0.8580 0.4244
vn -0.2894 -0.8583 0.4237
vn 0.6865 -0.5599 0.4640
vn -0.4514 -0.5995 0.6610
vn -0.2719 -0.9442 -0.1859
vn 0.4480 -0.6001 -0.6627
vn 0.4506 -0.5997 0.6613
vn 0.6641 -0.7046 0.2498
vn 0.6719 -0.7034 0.2318
vn 0.0002 -0.9857 0.1687
vn -0.6724 -0.7057 0.2234
vn 0.6729 -0.7067 0.2184
vn -0.6692 -0.7030 0.2409
vn -0.6606 -0.7063 0.2545
vn 0.2719 0.9442 -0.1861
vn -0.4460 0.6005 -0.6637
vn -0.6879 0.5597 0.4622
vn 0.2892 0.8580 0.4244
vn -0.4514 0.5995 0.6609
vn 0.6865 0.5599 0.4640
vn -0.2894 0.8583 0.4237
vn 0.4480 0.6001 -0.6627
vn -0.2719 0.9442 -0.1859
vn 0.4506 0.5997 0.6613
vn 0.6719 0.7034 0.2318
vn 0.6641 0.7046 0.2498
vn -0.6724 0.7057 0.2234
vn 0.0002 0.9857 0.1687
vn 0.6729 0.7067 0.2184
vn -0.6692 0.7030 0.2409
vn -0.6606 0.7063 0.2544
vt 0.612728 0.000000
vt 0.408682 0.500000
vt 0.464392 0.199082
vt 0.484980 0.146207
vt 0.257165 0.146207
vt 0.130828 0.000000
vt 0.200032 0.000000
vt 0.277394 0.199082
vt 0.331693 0.500000
vt 0.542473 0.000000
vt 0.400524 0.363362
vt 0.385260 0.405337
vt 0.371073 0.448895
vt 0.361491 0.419430
vt 0.374280 0.438954
vt 0.351562 0.390165
vt 0.341621 0.364080
vt 0.279164 0.699082
vt 0.334874 1.000000
vt 0.130828 0.500000
vt 0.258576 0.646207
vt 0.543524 0.500000
vt 0.612728 0.500000
vt 0.486391 0.646207
vt 0.411863 1.000000
vt 0.466162 0.699082
vt 0.201083 0.500000
vt 0.358297 0.905337
vt 0.343032 0.863362
vt 0.382066 0.919430
vt 0.372483 0.948895
vt 0.369276 0.938954
vt 0.391994 0.890165
vt 0.401935 0.864080
vt 0.130828 0.767847
vt 0.000000 0.540032
vt 0.130828 0.540032
vt 0.000000 0.767847
vt 0.743556 0.474858
vt 0.857338 0.344031
vt 0.857338 0.474858
vt 0.743556 0.344031
vt 0.743556 0.867342
vt 0.812760 0.736514
vt 0.812760 0.867342
vt 0.743556 0.736514
vt 0.743556 0.402820
vt 0.612728 -0.000000
vt 0.743556 -0.000000
vt 0.612728 0.402820
vt 0.743556 0.605686
vt 0.820546 0.474858
vt 0.820546 0.605686
vt 0.743556 0.474858
vt 0.130828 0.540032
vt -0.000000 0.000000
vt 0.130828 0.000000
vt 0.000000 0.540032
vt 0.813812 0.605686
vt 0.813812 0.736514
vt 0.743556 0.605686
vt 0.874384 0.344031
vt 0.743556 0.186998
vt 0.874384 0.186998
vt 0.743556 0.344031
vt 0.743556 0.579017
vt 0.612728 0.579017
vt 0.743556 0.402820
vt 0.612728 0.402820
vt 0.743556 0.623681
vt 0.612728 0.623681
vt 0.743556 0.659031
vt 0.612728 0.659032
vt 0.743556 0.669472
vt 0.612728 0.669472
vt 0.743556 0.693132
vt 0.612728 0.693132
vt 0.743556 0.669472
vt 0.612728 0.669472
vt 0.743556 0.716477
vt 0.612728 0.716477
vt 0.743556 0.736872
vt 0.612728 0.736872
vt 0.743556 0.865372
vt 0.612728 0.865372
vt 0.874384 0.186998
vt 0.743556 0.186998
vt 0.874384 -0.000000
vt 0.743556 -0.000000
s 1
f 1/1/1 2/2/2 3/3/3
f 3/3/3 4/4/4 1/1/1
f 5/5/5 6/6/6 7/7/7
f 8/8/8 9/9/9 6/6/6
f 3/3/3 8/8/8 5/5/5
f 10/10/10 1/1/1 4/4/4
f 5/5/5 8/8/8 6/6/6
f 11/11/11 2/2/2 12/12/12
f 4/4/4 3/3/3 5/5/5
f 3/3/3 2/2/2 11/11/11
f 13/13/13 9/9/9 14/14/14
f 12/12/12 2/2/2 15/15/15
f 15/15/15 2/2/2 13/13/13
f 13/13/13 2/2/2 9/9/9
f 14/14/14 9/9/9 16/16/16
f 16/16/16 9/9/9 17/17/17
f 17/17/17 9/9/9 8/8/8
f 18/18/18 19/19/19 20/20/20
f 20/20/20 21/21/21 18/18/18
f 22/22/22 23/23/23 24/24/24
f 23/23/23 25/25/25 26/26/26
f 24/24/24 26/26/26 18/18/18
f 21/21/21 20/20/20 27/27/27
f 23/23/23 26/26/26 24/24/24
f 28/28/28 19/19/19 29/29/29
f 24/24/24 18/18/18 21/21/21
f 29/29/29 19/19/19 18/18/18
f 30/30/30 25/25/25 31/31/31
f 32/32/32 19/19/19 28/28/28
f 31/31/31 19/19/19 32/32/32
f 25/25/25 19/19/19 31/31/31
f 33/33/33 25/25/25 30/30/30
f 34/34/34 25/25/25 33/33/33
f 26/26/26 25/25/25 34/34/34
f 5/35/5 21/36/21 4/37/4
f 5/35/5 24/38/24 21/36/21
f 7/39/7 24/40/24 5/41/5
f 7/39/7 22/42/22 24/40/24
f 6/43/6 22/44/22 7/45/7
f 6/43/6 23/46/23 22/44/22
f 9/47/9 23/48/23 6/49/6
f 9/47/9 25/50/25 23/48/23
f 2/51/2 25/52/25 9/53/9
f 2/51/2 19/54/19 25/52/25
f 1/55/1 19/56/19 2/57/2
f 1/55/1 20/58/20 19/56/19
f 10/46/10 20/59/20 1/60/1
f 10/46/10 27/61/27 20/59/20
f 4/62/4 27/63/27 10/64/10
f 4/62/4 21/65/21 27/63/27
f 11/66/11 29/67/29 3/68/3
f 18/69/18 3/68/3 29/67/29
f 12/70/12 28/71/28 11/66/11
f 29/67/29 11/66/11 28/71/28
f 15/72/15 32/73/32 12/70/12
f 28/71/28 12/70/12 32/73/32
f 13/74/13 31/75/31 15/72/15
f 32/73/32 15/72/15 31/75/31
f 14/76/14 30/77/30 13/78/13
f 31/79/31 13/78/13 30/77/30
f 16/80/16 33/81/33 14/76/14
f 30/77/30 14/76/14 33/81/33
f 17/82/17 34/83/34 16/80/16
f 33/81/33 16/80/16 34/83/34
f 8/84/8 26/85/26 17/82/17
f 34/83/34 17/82/17 26/85/26
f 3/86/3 18/87/18 8/88/8
f 26/89/26 8/88/8 18/87/18
