# Blender 4.4.3
# www.blender.org
o Ab
g Ab_Mesh
v 0.190275 -0.075000 -0.202534
v 0.171552 -0.075000 -0.145985
v 0.144651 -0.075000 -0.197956
v 0.262647 -0.075000 -0.188511
v 0.218854 -0.075000 -0.136021
v 0.051526 -0.075000 -0.123615
v 0.053159 -0.075000 -0.123615
v 0.081434 -0.075000 -0.103672
v 0.076810 -0.075000 -0.159916
v 0.118101 -0.075000 -0.135411
v 0.107068 -0.075000 -0.184223
v 0.250898 -0.075000 -0.106114
v -0.020693 -0.075000 0.212154
v 0.052350 -0.075000 0.177456
v 0.051938 -0.075000 0.193386
v -0.020083 -0.075000 0.155086
v 0.060071 -0.075000 0.105907
v 0.052747 -0.075000 -0.157078
v -0.020083 -0.075000 -0.357975
v 0.053159 -0.075000 -0.185856
v 0.053159 -0.075000 -0.357975
v -0.470919 -0.075000 0.078182
v -0.536822 -0.075000 0.245815
v -0.617388 -0.075000 0.245815
v 0.049283 -0.075000 0.236309
v -0.022524 -0.075000 0.245815
v 0.311719 -0.075000 0.196377
v 0.218397 -0.075000 0.189617
v 0.250699 -0.075000 0.158947
v 0.048276 -0.075000 0.245815
v 0.050718 -0.075000 0.215908
v 0.144452 -0.075000 0.249431
v 0.107068 -0.075000 0.235851
v 0.117139 -0.075000 0.189510
v 0.080823 -0.075000 0.158535
v 0.053159 -0.075000 0.177456
v 0.077009 -0.075000 0.212200
v 0.170743 -0.075000 0.199840
v 0.190275 -0.075000 0.253948
v 0.269163 -0.075000 0.105297
v 0.275312 -0.075000 0.026104
v 0.352216 -0.075000 0.023662
v 0.060224 -0.075000 -0.048939
v 0.053159 -0.075000 0.030575
v 0.342389 -0.075000 -0.075794
v 0.269208 -0.075000 -0.053120
v 0.312955 -0.075000 -0.146397
v -0.383441 -0.075000 -0.327458
v -0.447314 -0.075000 0.017559
v -0.209704 -0.075000 0.078182
v -0.232897 -0.075000 0.017559
v -0.144198 -0.075000 0.245815
v -0.064868 -0.075000 0.245815
v -0.295138 -0.075000 -0.327458
v -0.374072 -0.075000 -0.170811
v -0.356585 -0.075000 -0.218922
v -0.340304 -0.075000 -0.268864
v -0.329318 -0.075000 -0.235096
v -0.343966 -0.075000 -0.257466
v -0.317935 -0.075000 -0.201527
v -0.306536 -0.075000 -0.171620
v 0.144651 0.075000 -0.197956
v 0.171552 0.075000 -0.145985
v 0.190275 0.075000 -0.202534
v 0.218854 0.075000 -0.136021
v 0.262647 0.075000 -0.188511
v 0.081434 0.075000 -0.103672
v 0.053159 0.075000 -0.123615
v 0.051526 0.075000 -0.123615
v 0.076810 0.075000 -0.159916
v 0.107068 0.075000 -0.184223
v 0.118101 0.075000 -0.135411
v 0.250898 0.075000 -0.106114
v 0.051938 0.075000 0.193386
v 0.052350 0.075000 0.177456
v -0.020693 0.075000 0.212154
v 0.060071 0.075000 0.105907
v -0.020083 0.075000 0.155086
v 0.053159 0.075000 -0.185856
v -0.020083 0.075000 -0.357975
v 0.052747 0.075000 -0.157078
v 0.053159 0.075000 -0.357975
v -0.617388 0.075000 0.245815
v -0.536822 0.075000 0.245815
v -0.470919 0.075000 0.078182
v -0.022524 0.075000 0.245815
v 0.049283 0.075000 0.236309
v 0.250699 0.075000 0.158947
v 0.218397 0.075000 0.189617
v 0.311719 0.075000 0.196377
v 0.048276 0.075000 0.245815
v 0.050718 0.075000 0.215908
v 0.117139 0.075000 0.189510
v 0.107068 0.075000 0.235851
v 0.144452 0.075000 0.249431
v 0.080823 0.075000 0.158535
v 0.053159 0.075000 0.177456
v 0.077009 0.075000 0.212200
v 0.170743 0.075000 0.199840
v 0.190275 0.075000 0.253948
v 0.352216 0.075000 0.023662
v 0.275312 0.075000 0.026104
v 0.269163 0.075000 0.105297
v 0.060224 0.075000 -0.048939
v 0.053159 0.075000 0.030575
v 0.269208 0.075000 -0.053120
v 0.342389 0.075000 -0.075794
v 0.312955 0.075000 -0.146397
v -0.447314 0.075000 0.017559
v -0.383441 0.075000 -0.327458
v -0.232897 0.075000 0.017559
v -0.209704 0.075000 0.078182
v -0.064868 0.075000 0.245815
v -0.144198 0.075000 0.245815
v -0.295138 0.075000 -0.327458
v -0.356585 0.075000 -0.218922
v -0.374072 0.075000 -0.170811
v -0.329318 0.075000 -0.235096
v -0.340304 0.075000 -0.268864
v -0.343966 0.075000 -0.257466
v -0.317935 0.075000 -0.201527
v -0.306536 0.075000 -0.171620
vn 0.0337 -0.6759 -0.7363
vn -0.0040 -0.7551 0.6557
vn -0.1637 -0.6801 -0.7146
vn 0.3247 -0.6549 -0.6824
vn -0.2927 -0.7728 0.5632
vn 0.3004 -0.9088 -0.2896
vn -0.2647 -0.8316 -0.4883
vn 0.5259 -0.7657 0.3703
vn -0.5481 -0.6733 -0.4962
vn 0.2803 -0.7696 0.5738
vn -0.3637 -0.6723 -0.6448
vn -0.5394 -0.7657 0.3505
vn -0.7018 -0.7120 -0.0228
vn 0.3021 -0.9015 0.3100
vn 0.7097 -0.7039 0.0284
vn -0.7059 -0.7083 -0.0038
vn 0.6539 -0.7404 -0.1556
vn 0.7093 -0.7046 0.0180
vn -0.5774 -0.5773 -0.5774
vn 0.7087 -0.7055 0.0051
vn 0.5774 -0.5773 -0.5773
vn 0.2892 -0.8580 0.4244
vn 0.4506 -0.5997 0.6613
vn -0.6878 -0.5597 0.4622
vn 0.7083 -0.7031 0.0624
vn -0.5942 -0.5745 0.5628
vn 0.6097 -0.6212 0.4923
vn -0.2958 -0.7734 -0.5607
vn -0.5420 -0.7647 -0.3485
vn 0.5434 -0.5831 0.6039
vn 0.7075 -0.7053 0.0440
vn -0.1624 -0.6801 0.7149
vn -0.3594 -0.6731 0.6463
vn 0.2769 -0.7693 -0.5758
vn 0.5233 -0.7659 -0.3737
vn -0.2610 -0.8284 0.4957
vn -0.5386 -0.6747 0.5046
vn -0.0069 -0.7549 -0.6558
vn 0.1300 -0.6516 0.7473
vn -0.6621 -0.7368 -0.1373
vn -0.6889 -0.7249 -0.0002
vn 0.7389 -0.6721 0.0488
vn 0.6550 -0.7400 0.1528
vn 0.6857 -0.7279 -0.0010
vn 0.7152 -0.6753 -0.1801
vn -0.6618 -0.7370 0.1375
vn 0.6069 -0.6574 -0.4466
vn -0.4460 -0.6005 -0.6637
vn 0.2719 -0.9442 -0.1860
vn -0.2894 -0.8583 0.4237
vn -0.2719 -0.9442 -0.1859
vn -0.4514 -0.5995 0.6610
vn 0.6865 -0.5599 0.4640
vn 0.4480 -0.6001 -0.6627
vn 0.6642 -0.7046 0.2498
vn 0.6718 -0.7035 0.2320
vn 0.0003 -0.9857 0.1684
vn -0.6724 -0.7057 0.2234
vn 0.6732 -0.7065 0.2183
vn -0.6692 -0.7029 0.2409
vn -0.6606 -0.7063 0.2545
vn -0.1637 0.6801 -0.7146
vn -0.0040 0.7551 0.6556
vn 0.0337 0.6759 -0.7363
vn -0.2927 0.7728 0.5632
vn 0.3247 0.6549 -0.6824
vn 0.5259 0.7657 0.3703
vn -0.2647 0.8315 -0.4883
vn 0.3004 0.9088 -0.2896
vn -0.5481 0.6733 -0.4962
vn -0.3637 0.6723 -0.6448
vn 0.2803 0.7696 0.5738
vn -0.5394 0.7657 0.3505
vn 0.7097 0.7039 0.0284
vn 0.3021 0.9015 0.3100
vn -0.7018 0.7120 -0.0228
vn 0.6539 0.7404 -0.1556
vn -0.7059 0.7083 -0.0038
vn 0.7087 0.7055 0.0051
vn -0.5773 0.5773 -0.5774
vn 0.7094 0.7046 0.0180
vn 0.5774 0.5774 -0.5773
vn -0.6879 0.5597 0.4622
vn 0.4506 0.5996 0.6613
vn 0.2892 0.8581 0.4244
vn -0.5943 0.5745 0.5628
vn 0.7083 0.7031 0.0624
vn -0.5420 0.7647 -0.3485
vn -0.2958 0.7734 -0.5607
vn 0.6097 0.6212 0.4923
vn 0.5434 0.5831 0.6040
vn 0.7075 0.7053 0.0440
vn 0.2769 0.7693 -0.5758
vn -0.3594 0.6731 0.6463
vn -0.1624 0.6801 0.7149
vn 0.5233 0.7659 -0.3736
vn -0.2610 0.8284 0.4957
vn -0.5386 0.6747 0.5046
vn -0.0069 0.7549 -0.6558
vn 0.1300 0.6516 0.7473
vn 0.7389 0.6721 0.0488
vn -0.6889 0.7249 -0.0002
vn -0.6621 0.7368 -0.1373
vn 0.6550 0.7400 0.1528
vn 0.6856 0.7279 -0.0010
vn -0.6618 0.7370 0.1374
vn 0.7152 0.6753 -0.1801
vn 0.6069 0.6574 -0.4466
vn 0.2719 0.9442 -0.1860
vn -0.4460 0.6005 -0.6637
vn -0.2719 0.9442 -0.1859
vn -0.2894 0.8583 0.4237
vn 0.6864 0.5599 0.4640
vn -0.4514 0.5995 0.6609
vn 0.4480 0.6001 -0.6627
vn 0.6718 0.7035 0.2320
vn 0.6642 0.7046 0.2498
vn -0.6724 0.7057 0.2234
vn 0.0003 0.9857 0.1684
vn 0.6732 0.7065 0.2183
vn -0.6692 0.7029 0.2409
vn -0.6606 0.7063 0.2544
vt 0.112919 0.316509
vt 0.125742 0.277247
vt 0.144540 0.313207
vt 0.062699 0.306989
vt 0.092916 0.270471
vt 0.208901 0.261401
vt 0.207769 0.261405
vt 0.188108 0.247656
vt 0.191472 0.286641
vt 0.162774 0.269765
vt 0.170560 0.303580
vt 0.070614 0.249824
vt 0.258034 0.028387
vt 0.207485 0.052650
vt 0.207726 0.041604
vt 0.257771 0.067958
vt 0.202332 0.102281
vt 0.208148 0.284606
vt 0.259209 0.423697
vt 0.207943 0.304561
vt 0.208426 0.423902
vt 0.281545 0.540134
vt 0.327240 0.423902
vt 0.383102 0.423902
vt 0.209447 0.011835
vt 0.259209 0.005043
vt 0.027595 0.040259
vt 0.092321 0.044684
vt 0.070009 0.066040
vt 0.210119 0.005241
vt 0.208510 0.025984
vt 0.143423 0.003003
vt 0.169382 0.012315
vt 0.162529 0.044474
vt 0.187796 0.065849
vt 0.206925 0.052653
vt 0.190291 0.028629
vt 0.125333 0.037462
vt 0.111639 0.000000
vt 0.057358 0.103291
vt 0.053316 0.158218
vt -0.000000 0.160126
vt 0.202661 0.209647
vt 0.207336 0.154495
vt 0.007092 0.229059
vt 0.057770 0.213132
vt 0.027699 0.277929
vt 0.220889 0.821393
vt 0.265177 0.582168
vt 0.100425 0.540134
vt 0.116507 0.582168
vt 0.055005 0.423902
vt 0.000000 0.423902
vt 0.159663 0.821393
vt 0.214393 0.712778
vt 0.202269 0.746137
vt 0.190980 0.780766
vt 0.183362 0.757352
vt 0.193519 0.772862
vt 0.175469 0.734076
vt 0.167566 0.713339
vt 0.373879 0.313207
vt 0.392677 0.277247
vt 0.405500 0.316509
vt 0.425503 0.270471
vt 0.455720 0.306989
vt 0.330311 0.247656
vt 0.310650 0.261405
vt 0.309518 0.261401
vt 0.326947 0.286641
vt 0.347859 0.303580
vt 0.355645 0.269765
vt 0.447804 0.249824
vt 0.310692 0.041604
vt 0.310933 0.052650
vt 0.260385 0.028387
vt 0.316086 0.102281
vt 0.260648 0.067958
vt 0.310476 0.304561
vt 0.310271 0.284606
vt 0.309993 0.423902
vt 0.518419 0.427788
vt 0.574281 0.427788
vt 0.619976 0.544020
vt 0.259209 0.005043
vt 0.308972 0.011835
vt 0.448410 0.066040
vt 0.426098 0.044684
vt 0.490824 0.040259
vt 0.308300 0.005241
vt 0.309909 0.025984
vt 0.355890 0.044474
vt 0.349037 0.012315
vt 0.374996 0.003003
vt 0.330622 0.065849
vt 0.311494 0.052653
vt 0.328128 0.028629
vt 0.393086 0.037462
vt 0.406780 0.000000
vt 0.518419 0.160126
vt 0.465103 0.158218
vt 0.461061 0.103291
vt 0.315758 0.209647
vt 0.311082 0.154495
vt 0.460649 0.213132
vt 0.511326 0.229059
vt 0.490720 0.277929
vt 0.636343 0.586054
vt 0.680631 0.825279
vt 0.785014 0.586054
vt 0.801095 0.544020
vt 0.901521 0.427788
vt 0.846515 0.427788
vt 0.741858 0.825279
vt 0.699252 0.750023
vt 0.687127 0.716664
vt 0.718159 0.761238
vt 0.710541 0.784651
vt 0.708002 0.776748
vt 0.726051 0.737962
vt 0.733955 0.717225
vt 0.830436 0.122880
vt 0.726430 -0.000000
vt 0.830436 -0.000000
vt 0.726430 0.122880
vt 0.830436 0.189399
vt 0.726430 0.189399
vt 0.830436 0.233745
vt 0.726430 0.233745
vt 0.726430 0.862838
vt 0.622424 0.825279
vt 0.726430 0.825279
vt 0.622424 0.862838
vt 0.726430 0.913727
vt 0.622424 0.913727
vt 0.726430 0.944902
vt 0.622424 0.944902
vt 0.726430 0.969910
vt 0.622424 0.969910
vt 0.963358 0.104006
vt 0.985706 0.000000
vt 0.985706 0.104006
vt 0.963358 0.000000
vt 0.934441 0.104006
vt 0.934441 0.000000
vt 0.487108 0.527908
vt 0.488234 0.423902
vt 0.488234 0.527908
vt 0.487108 0.423902
vt 0.312017 0.844352
vt 0.208011 0.821393
vt 0.312017 0.821393
vt 0.208011 0.844352
vt 0.312017 0.864016
vt 0.208011 0.864016
vt 0.312017 0.981309
vt 0.208011 0.981309
vt 0.934441 0.208011
vt 0.984984 0.104006
vt 0.984984 0.208011
vt 0.726430 0.339529
vt 0.622424 -0.000000
vt 0.726430 -0.000000
vt 0.622424 0.339529
vt 0.726430 0.377421
vt 0.622424 0.377421
vt 0.726430 0.400076
vt 0.622424 0.400076
vt 0.934441 0.312017
vt 0.982852 0.208011
vt 0.982852 0.312017
vt 0.934441 0.208011
vt 0.974940 0.416023
vt 0.981547 0.312017
vt 0.981547 0.416023
vt 0.974940 0.312017
vt 0.960854 0.416023
vt 0.960854 0.312017
vt 0.945350 0.416023
vt 0.945350 0.312017
vt 0.934441 0.416023
vt 0.934441 0.312017
vt 0.830436 0.234298
vt 0.726430 0.234298
vt 0.830436 0.254603
vt 0.726430 0.254603
vt 0.830436 0.277878
vt 0.726430 0.277878
vt 0.830436 0.305003
vt 0.726430 0.305003
vt 0.830436 0.336854
vt 0.726430 0.336854
vt 0.830436 0.413267
vt 0.726430 0.413267
vt 0.901521 0.531793
vt 0.901521 0.427788
vt 0.928672 0.531793
vt 0.928672 0.427788
vt 0.934441 0.242087
vt 0.830436 0.242087
vt 0.934441 0.208879
vt 0.830436 0.208879
vt 0.934441 0.292539
vt 0.830436 0.292539
vt 0.934441 0.347629
vt 0.830436 0.347629
vt 0.934441 0.387641
vt 0.830436 0.387641
vt 0.934441 0.413962
vt 0.830436 0.413962
vt 0.960362 0.635799
vt 0.960362 0.531793
vt 0.995693 0.635799
vt 0.995693 0.531793
vt 0.926872 0.635799
vt 0.926872 0.531793
vt 0.901521 0.635799
vt 0.901521 0.531793
vt 0.487108 0.816380
vt 0.383102 0.816380
vt 0.487108 0.785099
vt 0.383102 0.785099
vt 0.487108 0.867544
vt 0.383102 0.867544
vt 0.487108 0.921224
vt 0.383102 0.921224
vt 0.487108 0.960549
vt 0.383102 0.960549
vt 0.487108 0.987530
vt 0.383102 0.987530
vt 0.966360 0.531793
vt 0.966360 0.427788
vt 0.998555 0.531793
vt 0.998555 0.427788
vt 0.104006 1.000000
vt -0.000000 0.821393
vt 0.104006 0.821393
vt 0.000000 1.000000
vt 0.830436 0.929284
vt 0.927814 0.825279
vt 0.927814 0.929284
vt 0.830436 0.825279
vt 0.982057 0.825279
vt 0.982057 0.929284
vt 0.487108 0.785099
vt 0.383102 0.423902
vt 0.487108 0.423902
vt 0.383102 0.785099
vt 0.312017 0.925398
vt 0.372953 0.821393
vt 0.372953 0.925398
vt 0.312017 0.821393
vt 0.622424 0.427788
vt 0.518419 -0.000000
vt 0.622424 -0.000000
vt 0.518419 0.427788
vt 0.901521 0.739805
vt 0.956608 0.635799
vt 0.956608 0.739805
vt 0.901521 0.635799
vt 0.830436 0.947947
vt 0.830436 0.825279
vt 0.726430 0.947947
vt 0.934441 0.137739
vt 0.830436 0.137739
vt 0.934441 0.000000
vt 0.830436 0.000000
vt 0.934441 0.172762
vt 0.830436 0.172762
vt 0.934441 0.200643
vt 0.830436 0.200643
vt 0.934441 0.208879
vt 0.830436 0.208879
vt 0.208011 0.841466
vt 0.104006 0.841466
vt 0.104006 0.821393
vt 0.208011 0.861325
vt 0.104006 0.861325
vt 0.208011 0.878758
vt 0.104006 0.878758
vt 0.208011 0.988712
vt 0.104006 0.988712
vt 0.622424 0.973243
vt 0.518419 0.973243
vt 0.622424 0.825279
vt 0.518419 0.825279
s 1
f 1/1/1 2/2/2 3/3/3
f 4/4/4 5/5/5 1/1/1
f 6/6/6 7/7/7 8/8/8
f 8/8/8 7/7/7 9/9/9
f 3/3/3 10/10/10 11/11/11
f 4/4/4 12/12/12 5/5/5
f 13/13/13 14/14/14 15/15/15
f 14/14/14 16/16/16 17/17/17
f 18/18/18 19/19/19 20/20/20
f 20/20/20 19/19/19 21/21/21
f 18/18/18 6/6/6 19/19/19
f 19/19/19 6/6/6 16/16/16
f 22/22/22 23/23/23 24/24/24
f 25/25/25 26/26/26 13/13/13
f 27/27/27 28/28/28 29/29/29
f 25/25/25 30/30/30 26/26/26
f 31/31/31 25/25/25 13/13/13
f 32/32/32 33/33/33 34/34/34
f 15/15/15 31/31/31 13/13/13
f 13/13/13 16/16/16 14/14/14
f 14/14/14 17/17/17 35/35/35
f 14/14/14 35/35/35 36/36/36
f 37/37/37 35/35/35 34/34/34
f 34/34/34 38/38/38 32/32/32
f 38/38/38 39/39/39 32/32/32
f 40/40/40 41/41/41 42/42/42
f 33/33/33 37/37/37 34/34/34
f 37/37/37 36/36/36 35/35/35
f 16/16/16 6/6/6 43/43/43
f 17/17/17 16/16/16 44/44/44
f 44/44/44 16/16/16 43/43/43
f 8/8/8 43/43/43 6/6/6
f 45/45/45 42/42/42 46/46/46
f 10/10/10 9/9/9 11/11/11
f 8/8/8 9/9/9 10/10/10
f 2/2/2 10/10/10 3/3/3
f 5/5/5 2/2/2 1/1/1
f 4/4/4 47/47/47 12/12/12
f 46/46/46 12/12/12 45/45/45
f 12/12/12 47/47/47 45/45/45
f 41/41/41 46/46/46 42/42/42
f 40/40/40 42/42/42 27/27/27
f 29/29/29 40/40/40 27/27/27
f 38/38/38 28/28/28 39/39/39
f 28/28/28 27/27/27 39/39/39
f 24/24/24 48/48/48 49/49/49
f 22/22/22 24/24/24 49/49/49
f 50/50/50 49/49/49 51/51/51
f 52/52/52 50/50/50 53/53/53
f 51/51/51 54/54/54 53/53/53
f 50/50/50 51/51/51 53/53/53
f 55/55/55 48/48/48 56/56/56
f 22/22/22 49/49/49 50/50/50
f 49/49/49 48/48/48 55/55/55
f 57/57/57 54/54/54 58/58/58
f 56/56/56 48/48/48 59/59/59
f 59/59/59 48/48/48 57/57/57
f 57/57/57 48/48/48 54/54/54
f 58/58/58 54/54/54 60/60/60
f 60/60/60 54/54/54 61/61/61
f 61/61/61 54/54/54 51/51/51
f 62/62/62 63/63/63 64/64/64
f 64/64/64 65/65/65 66/66/66
f 67/67/67 68/68/68 69/69/69
f 70/70/70 68/68/68 67/67/67
f 71/71/71 72/72/72 62/62/62
f 65/65/65 73/73/73 66/66/66
f 74/74/74 75/75/75 76/76/76
f 77/77/77 78/78/78 75/75/75
f 79/79/79 80/19/80 81/80/81
f 82/81/82 80/19/80 79/79/79
f 80/19/80 69/69/69 81/80/81
f 78/78/78 69/69/69 80/19/80
f 83/82/83 84/83/84 85/84/85
f 76/76/76 86/85/86 87/86/87
f 88/87/88 89/88/89 90/89/90
f 86/85/86 91/90/91 87/86/87
f 76/76/76 87/86/87 92/91/92
f 93/92/93 94/93/94 95/94/95
f 76/76/76 92/91/92 74/74/74
f 75/75/75 78/78/78 76/76/76
f 96/95/96 77/77/77 75/75/75
f 97/96/97 96/95/96 75/75/75
f 93/92/93 96/95/96 98/97/98
f 95/94/95 99/98/99 93/92/93
f 95/94/95 100/99/100 99/98/99
f 101/100/101 102/101/102 103/102/103
f 93/92/93 98/97/98 94/93/94
f 96/95/96 97/96/97 98/97/98
f 104/103/104 69/69/69 78/78/78
f 105/104/105 78/78/78 77/77/77
f 104/103/104 78/78/78 105/104/105
f 69/69/69 104/103/104 67/67/67
f 106/105/106 101/100/101 107/106/107
f 71/71/71 70/70/70 72/72/72
f 72/72/72 70/70/70 67/67/67
f 62/62/62 72/72/72 63/63/63
f 64/64/64 63/63/63 65/65/65
f 73/73/73 108/107/108 66/66/66
f 107/106/107 73/73/73 106/105/106
f 107/106/107 108/107/108 73/73/73
f 101/100/101 106/105/106 102/101/102
f 90/89/90 101/100/101 103/102/103
f 90/89/90 103/102/103 88/87/88
f 100/99/100 89/88/89 99/98/99
f 100/99/100 90/89/90 89/88/89
f 109/108/109 110/109/110 83/82/83
f 109/108/109 83/82/83 85/84/85
f 111/110/111 109/108/109 112/111/112
f 113/112/113 112/111/112 114/113/114
f 113/112/113 115/114/115 111/110/111
f 113/112/113 111/110/111 112/111/112
f 116/115/116 110/109/110 117/116/117
f 112/111/112 109/108/109 85/84/85
f 117/116/117 110/109/110 109/108/109
f 118/117/118 115/114/115 119/118/119
f 120/119/120 110/109/110 116/115/116
f 119/118/119 110/109/110 120/119/120
f 115/114/115 110/109/110 119/118/119
f 121/120/121 115/114/115 118/117/118
f 122/121/122 115/114/115 121/120/121
f 111/110/111 115/114/115 122/121/122
f 42/122/42 90/123/90 27/124/27
f 42/122/42 101/125/101 90/123/90
f 45/126/45 101/125/101 42/122/42
f 45/126/45 107/127/107 101/125/101
f 47/128/47 107/127/107 45/126/45
f 47/128/47 108/129/108 107/127/107
f 4/130/4 108/131/108 47/132/47
f 4/130/4 66/133/66 108/131/108
f 1/134/1 66/133/66 4/130/4
f 1/134/1 64/135/64 66/133/66
f 3/136/3 64/135/64 1/134/1
f 3/136/3 62/137/62 64/135/64
f 11/138/11 62/137/62 3/136/3
f 11/138/11 71/139/71 62/137/62
f 9/140/9 71/141/71 11/142/11
f 9/140/9 70/143/70 71/141/71
f 7/144/7 70/143/70 9/140/9
f 7/144/7 68/145/68 70/143/70
f 6/146/6 68/147/68 7/148/7
f 6/146/6 69/149/69 68/147/68
f 18/150/18 69/151/69 6/152/6
f 18/150/18 81/153/81 69/151/69
f 20/154/20 81/153/81 18/150/18
f 20/154/20 79/155/79 81/153/81
f 21/156/21 79/155/79 20/154/20
f 21/156/21 82/157/82 79/155/79
f 19/158/19 82/159/82 21/160/21
f 19/158/19 80/144/80 82/159/82
f 16/161/16 80/162/80 19/163/19
f 16/161/16 78/164/78 80/162/80
f 13/165/13 78/164/78 16/161/16
f 13/165/13 76/166/76 78/164/78
f 26/167/26 76/166/76 13/165/13
f 26/167/26 86/168/86 76/166/76
f 30/169/30 86/170/86 26/171/26
f 30/169/30 91/172/91 86/170/86
f 25/173/25 91/174/91 30/175/30
f 25/173/25 87/176/87 91/174/91
f 31/177/31 87/176/87 25/173/25
f 31/177/31 92/178/92 87/176/87
f 15/179/15 92/178/92 31/177/31
f 15/179/15 74/180/74 92/178/92
f 14/181/14 74/180/74 15/179/15
f 14/181/14 75/182/75 74/180/74
f 36/183/36 75/129/75 14/128/14
f 36/183/36 97/184/97 75/129/75
f 37/185/37 97/184/97 36/183/36
f 37/185/37 98/186/98 97/184/97
f 33/187/33 98/186/98 37/185/37
f 33/187/33 94/188/94 98/186/98
f 32/189/32 94/188/94 33/187/33
f 32/189/32 95/190/95 94/188/94
f 39/191/39 95/190/95 32/189/32
f 39/191/39 100/192/100 95/190/95
f 27/193/27 100/192/100 39/191/39
f 27/193/27 90/194/90 100/192/100
f 35/195/35 96/196/96 34/197/34
f 93/198/93 34/197/34 96/196/96
f 17/199/17 77/200/77 35/201/35
f 96/202/96 35/201/35 77/200/77
f 44/203/44 105/204/105 17/199/17
f 77/200/77 17/199/17 105/204/105
f 43/205/43 104/206/104 44/203/44
f 105/204/105 44/203/44 104/206/104
f 8/207/8 67/208/67 43/205/43
f 104/206/104 43/205/43 67/208/67
f 10/209/10 72/210/72 8/207/8
f 67/208/67 8/207/8 72/210/72
f 2/211/2 63/212/63 10/213/10
f 72/214/72 10/213/10 63/212/63
f 5/215/5 65/216/65 2/211/2
f 63/212/63 2/211/2 65/216/65
f 12/217/12 73/218/73 5/215/5
f 65/216/65 5/215/5 73/218/73
f 46/219/46 106/220/106 12/221/12
f 73/222/73 12/221/12 106/220/106
f 41/223/41 102/224/102 46/219/46
f 106/220/106 46/219/46 102/224/102
f 40/225/40 103/226/103 41/223/41
f 102/224/102 41/223/41 103/226/103
f 29/227/29 88/228/88 40/225/40
f 103/226/103 40/225/40 88/228/88
f 28/229/28 89/230/89 29/227/29
f 88/228/88 29/227/29 89/230/89
f 38/231/38 99/232/99 28/233/28
f 89/234/89 28/233/28 99/232/99
f 34/197/34 93/198/93 38/231/38
f 99/232/99 38/231/38 93/198/93
f 50/235/50 85/236/85 22/237/22
f 50/235/50 112/238/112 85/236/85
f 52/239/52 112/240/112 50/241/50
f 52/239/52 114/242/114 112/240/112
f 53/241/53 114/243/114 52/244/52
f 53/241/53 113/240/113 114/243/114
f 54/245/54 113/246/113 53/247/53
f 54/245/54 115/248/115 113/246/113
f 48/249/48 115/250/115 54/251/54
f 48/249/48 110/252/110 115/250/115
f 24/253/24 110/254/110 48/255/48
f 24/253/24 83/256/83 110/254/110
f 23/257/23 83/258/83 24/259/24
f 23/257/23 84/260/84 83/258/83
f 22/261/22 84/132/84 23/262/23
f 22/261/22 85/263/85 84/132/84
f 55/264/55 117/265/117 49/266/49
f 109/267/109 49/266/49 117/265/117
f 56/268/56 116/269/116 55/264/55
f 117/265/117 55/264/55 116/269/116
f 59/270/59 120/271/120 56/268/56
f 116/269/116 56/268/56 120/271/120
f 57/272/57 119/273/119 59/270/59
f 120/271/120 59/270/59 119/273/119
f 58/274/58 118/275/118 57/151/57
f 119/276/119 57/151/57 118/275/118
f 60/277/60 121/278/121 58/274/58
f 118/275/118 58/274/58 121/278/121
f 61/279/61 122/280/122 60/277/60
f 121/278/121 60/277/60 122/280/122
f 51/281/51 111/282/111 61/279/61
f 122/280/122 61/279/61 111/282/111
f 49/283/49 109/284/109 51/285/51
f 111/286/111 51/285/51 109/284/109
