# Blender 4.4.3
# www.blender.org
o B
g B_Mesh
v 0.153515 -0.075000 0.070739
v 0.162762 -0.075000 0.123168
v 0.084240 -0.075000 0.117065
v 0.125744 -0.075000 0.028182
v 0.048641 -0.075000 0.041091
v 0.080883 -0.075000 -0.002076
v 0.020367 -0.075000 -0.017594
v -0.058170 -0.075000 0.015762
v 0.076107 -0.075000 0.163055
v -0.202991 -0.075000 -0.044846
v -0.280704 -0.075000 -0.288575
v -0.202991 -0.075000 -0.226319
v 0.129406 -0.075000 -0.149415
v 0.051296 -0.075000 -0.140061
v 0.043347 -0.075000 -0.179826
v 0.078961 -0.075000 -0.253785
v -0.019306 -0.075000 -0.221330
v -0.072407 -0.075000 -0.226319
v -0.072407 -0.075000 -0.288575
v -0.202991 -0.075000 0.015762
v 0.040402 -0.075000 0.274078
v -0.047993 -0.075000 0.284698
v 0.009472 -0.075000 0.215850
v -0.202991 -0.075000 0.222457
v -0.052067 -0.075000 0.222457
v -0.280704 -0.075000 0.284698
v 0.019543 -0.075000 -0.206376
v 0.122295 -0.075000 -0.102616
v 0.043606 -0.075000 -0.097901
v 0.100933 -0.075000 -0.063966
v 0.020565 -0.075000 -0.068238
v 0.066540 -0.075000 -0.035081
v -0.072407 -0.075000 -0.044846
v -0.018040 -0.075000 -0.050691
v 0.148831 -0.075000 0.191177
v 0.051693 -0.075000 0.196014
v 0.107021 -0.075000 0.242187
v 0.084240 0.075000 0.117065
v 0.162762 0.075000 0.123168
v 0.153515 0.075000 0.070739
v 0.048641 0.075000 0.041091
v 0.125744 0.075000 0.028182
v 0.080883 0.075000 -0.002076
v -0.058170 0.075000 0.015762
v 0.020367 0.075000 -0.017594
v 0.076107 0.075000 0.163055
v -0.202991 0.075000 -0.226319
v -0.280704 0.075000 -0.288575
v -0.202991 0.075000 -0.044846
v 0.043347 0.075000 -0.179826
v 0.051296 0.075000 -0.140061
v 0.129406 0.075000 -0.149415
v 0.078961 0.075000 -0.253785
v -0.072407 0.075000 -0.288575
v -0.072407 0.075000 -0.226319
v -0.019306 0.075000 -0.221330
v -0.202991 0.075000 0.015762
v 0.009472 0.075000 0.215850
v -0.047993 0.075000 0.284698
v 0.040402 0.075000 0.274078
v -0.052067 0.075000 0.222457
v -0.202991 0.075000 0.222457
v -0.280704 0.075000 0.284698
v 0.019543 0.075000 -0.206376
v 0.122295 0.075000 -0.102616
v 0.100933 0.075000 -0.063966
v 0.043606 0.075000 -0.097901
v 0.066540 0.075000 -0.035081
v 0.020565 0.075000 -0.068238
v -0.018040 0.075000 -0.050691
v -0.072407 0.075000 -0.044846
v 0.148831 0.075000 0.191177
v 0.107021 0.075000 0.242187
v 0.051693 0.075000 0.196014
vn 0.6949 -0.6647 -0.2746
vn 0.7447 -0.6673 0.0102
vn -0.6182 -0.7818 0.0818
vn 0.5320 -0.6651 -0.5240
vn -0.3618 -0.8192 0.4449
vn 0.3039 -0.6707 -0.6766
vn 0.1646 -0.9863 -0.0091
vn -0.0789 -0.7342 0.6743
vn -0.5943 -0.7625 -0.2557
vn 0.3015 -0.9045 -0.3015
vn -0.5773 -0.5773 -0.5774
vn 0.3015 -0.9045 0.3015
vn 0.7547 -0.6462 -0.1138
vn -0.6592 -0.7519 0.0056
vn -0.5689 -0.7715 0.2848
vn 0.4885 -0.6215 -0.6125
vn -0.1539 -0.7392 0.6557
vn -0.0326 -0.7178 0.6955
vn 0.0824 -0.6826 -0.7261
vn 0.2067 -0.6723 0.7109
vn 0.0430 -0.6939 0.7188
vn -0.1795 -0.7463 -0.6409
vn -0.0371 -0.7193 -0.6937
vn -0.5773 -0.5774 0.5774
vn -0.3664 -0.7638 0.5314
vn 0.7032 -0.6695 0.2392
vn -0.5882 -0.7647 -0.2630
vn 0.5745 -0.6682 0.4727
vn -0.3990 -0.7652 -0.5052
vn 0.3749 -0.6713 0.6394
vn -0.0372 -0.7193 -0.6937
vn -0.1760 -0.7447 -0.6437
vn 0.6808 -0.6569 0.3241
vn -0.4069 -0.7665 -0.4969
vn 0.4630 -0.6613 0.5901
vn -0.6182 0.7818 0.0818
vn 0.7447 0.6673 0.0102
vn 0.6949 0.6647 -0.2746
vn -0.3618 0.8192 0.4449
vn 0.5320 0.6651 -0.5240
vn 0.3039 0.6707 -0.6766
vn -0.0789 0.7342 0.6743
vn 0.1646 0.9863 -0.0092
vn -0.5943 0.7625 -0.2557
vn 0.3015 0.9045 0.3015
vn -0.5773 0.5774 -0.5774
vn 0.3015 0.9045 -0.3015
vn -0.5689 0.7715 0.2848
vn -0.6592 0.7519 0.0056
vn 0.7547 0.6461 -0.1138
vn 0.4885 0.6215 -0.6125
vn 0.0824 0.6826 -0.7261
vn -0.0326 0.7178 0.6955
vn -0.1539 0.7392 0.6557
vn -0.1795 0.7463 -0.6409
vn 0.0430 0.6939 0.7188
vn 0.2067 0.6723 0.7109
vn -0.0371 0.7193 -0.6937
vn -0.5773 0.5774 0.5774
vn -0.3664 0.7638 0.5314
vn 0.7032 0.6695 0.2392
vn 0.5744 0.6682 0.4727
vn -0.5882 0.7647 -0.2630
vn 0.3749 0.6713 0.6394
vn -0.3990 0.7652 -0.5052
vn -0.1760 0.7447 -0.6437
vn -0.0372 0.7194 -0.6936
vn 0.6808 0.6569 0.3241
vn 0.4630 0.6613 0.5901
vn -0.4069 0.7665 -0.4969
vt 0.008563 0.198138
vt -0.000000 0.149586
vt 0.072716 0.155238
vt 0.034281 0.237548
vt 0.105682 0.225594
vt 0.075824 0.265569
vt 0.131866 0.279940
vt 0.204596 0.249050
vt 0.080247 0.112649
vt 0.338709 0.305177
vt 0.410675 0.530884
vt 0.338709 0.473231
vt 0.030889 0.402013
vt 0.103223 0.393351
vt 0.110585 0.430176
vt 0.077605 0.498666
vt 0.168605 0.468611
vt 0.217780 0.473231
vt 0.217780 0.530884
vt 0.338709 0.249050
vt 0.113313 0.009835
vt 0.195171 0.000000
vt 0.141955 0.063757
vt 0.338709 0.057638
vt 0.198944 0.057638
vt 0.410675 0.000000
vt 0.132629 0.454763
vt 0.037474 0.358675
vt 0.110345 0.354309
vt 0.057257 0.322882
vt 0.131682 0.326839
vt 0.089107 0.296133
vt 0.217780 0.305177
vt 0.167433 0.310589
vt 0.012901 0.086606
vt 0.102856 0.082127
vt 0.051619 0.039368
vt 0.748635 0.155238
vt 0.821351 0.149586
vt 0.812788 0.198138
vt 0.715669 0.225594
vt 0.787070 0.237548
vt 0.745526 0.265569
vt 0.616755 0.249050
vt 0.689485 0.279940
vt 0.741104 0.112649
vt 0.482642 0.473231
vt 0.410675 0.530884
vt 0.482642 0.305177
vt 0.710765 0.430176
vt 0.718127 0.393351
vt 0.790461 0.402013
vt 0.743746 0.498666
vt 0.603571 0.530884
vt 0.603571 0.473231
vt 0.652745 0.468611
vt 0.482642 0.249050
vt 0.679395 0.063757
vt 0.626180 0.000000
vt 0.708038 0.009835
vt 0.622407 0.057638
vt 0.482642 0.057638
vt 0.410675 0.000000
vt 0.688722 0.454763
vt 0.783877 0.358675
vt 0.764094 0.322882
vt 0.711006 0.354309
vt 0.732244 0.296133
vt 0.689668 0.326839
vt 0.653918 0.310589
vt 0.603571 0.305177
vt 0.808450 0.086606
vt 0.769732 0.039368
vt 0.718495 0.082127
vt 0.138909 0.890824
vt 0.000000 0.828400
vt 0.138909 0.828400
vt 0.000000 0.890824
vt 0.833452 0.784938
vt 0.694543 0.736428
vt 0.833452 0.736428
vt 0.694543 0.784938
vt 0.833452 0.848315
vt 0.694543 0.848315
vt 0.833452 0.896553
vt 0.694543 0.896553
vt 0.833452 0.935079
vt 0.694543 0.935079
vt 0.888420 0.952107
vt 0.928017 0.813199
vt 0.928017 0.952107
vt 0.888420 0.813199
vt 0.833452 0.952107
vt 0.833452 0.813199
vt 0.171428 1.000000
vt 0.214584 0.861091
vt 0.214584 1.000000
vt 0.171428 0.861091
vt 0.138909 1.000000
vt 0.138909 0.861091
vt 0.555635 0.799676
vt 0.416726 0.763240
vt 0.555635 0.763240
vt 0.416726 0.799676
vt 0.555635 0.843210
vt 0.416726 0.843210
vt 0.555635 0.938242
vt 0.416726 0.938242
vt 0.277817 0.668619
vt 0.138909 0.530884
vt 0.277817 0.530884
vt 0.138909 0.668619
vt 0.277817 0.861091
vt 0.138909 0.861091
vt 0.960259 0.530084
vt 0.821351 -0.000000
vt 0.960259 -0.000000
vt 0.821351 0.530084
vt 0.138909 0.746319
vt -0.000000 0.530884
vt 0.138909 0.530884
vt 0.000000 0.746319
vt 0.416726 0.935800
vt 0.277817 0.935800
vt 0.416726 0.767840
vt 0.277817 0.767840
vt 0.833452 0.651774
vt 0.694543 0.651774
vt 0.833452 0.530884
vt 0.694543 0.530884
vt 0.833452 0.700815
vt 0.694543 0.700815
vt 0.833452 0.736428
vt 0.694543 0.736428
vt 0.935475 0.813199
vt 0.935475 0.674290
vt 0.961235 0.813199
vt 0.961235 0.674290
vt 0.898303 0.813199
vt 0.898303 0.674290
vt 0.859710 0.813199
vt 0.859710 0.674290
vt 0.833452 0.674290
vt 0.694543 0.567631
vt 0.555635 0.567631
vt 0.694543 0.530884
vt 0.555635 0.530884
vt 0.694543 0.618226
vt 0.555635 0.618226
vt 0.694543 0.738890
vt 0.555635 0.738890
vt 0.694543 0.930194
vt 0.555635 0.930194
vt 0.694543 0.738890
vt 0.555635 0.738890
vt 0.555635 0.664953
vt 0.416726 0.664953
vt 0.555635 0.530884
vt 0.416726 0.530884
vt 0.972361 0.602942
vt 0.833452 0.602942
vt 0.972361 0.530884
vt 0.833452 0.530884
vt 0.972361 0.645054
vt 0.833452 0.645054
vt 0.972361 0.674290
vt 0.833452 0.674290
vt 0.416726 0.571113
vt 0.277817 0.571113
vt 0.416726 0.530884
vt 0.277817 0.530884
vt 0.416726 0.628381
vt 0.277817 0.628381
vt 0.416726 0.767840
vt 0.277817 0.767840
s 1
f 1/1/1 2/2/2 3/3/3
f 4/4/4 3/3/3 5/5/5
f 4/4/4 5/5/5 6/6/6
f 1/1/1 3/3/3 4/4/4
f 7/7/7 5/5/5 8/8/8
f 2/2/2 9/9/9 3/3/3
f 10/10/10 11/11/11 12/12/12
f 13/13/13 14/14/14 15/15/15
f 16/16/16 13/13/13 15/15/15
f 17/17/17 18/18/18 19/19/19
f 11/11/11 10/10/10 20/20/12
f 21/21/20 22/22/21 23/23/22
f 22/22/21 24/24/10 25/25/23
f 20/20/12 26/26/24 11/11/11
f 12/12/12 11/11/11 19/19/19
f 18/18/18 12/12/12 19/19/19
f 17/17/17 19/19/19 16/16/16
f 15/15/15 27/27/25 16/16/16
f 27/27/25 17/17/17 16/16/16
f 13/13/13 28/28/26 14/14/14
f 29/29/27 28/28/26 30/30/28
f 14/14/14 28/28/26 29/29/27
f 31/31/29 29/29/27 32/32/30
f 29/29/27 30/30/28 32/32/30
f 31/31/29 32/32/30 7/7/7
f 33/33/31 34/34/32 8/8/8
f 34/34/32 31/31/29 7/7/7
f 22/22/21 25/25/23 23/23/22
f 20/20/12 10/10/10 33/33/31
f 26/26/24 24/24/10 22/22/21
f 26/26/24 20/20/12 24/24/10
f 7/7/7 8/8/8 34/34/32
f 8/8/8 20/20/12 33/33/31
f 6/6/6 5/5/5 7/7/7
f 2/2/2 35/35/33 9/9/9
f 36/36/34 9/9/9 37/37/35
f 9/9/9 35/35/33 37/37/35
f 21/21/20 36/36/34 37/37/35
f 21/21/20 23/23/22 36/36/34
f 38/38/36 39/39/37 40/40/38
f 41/41/39 38/38/36 42/42/40
f 43/43/41 41/41/39 42/42/40
f 42/42/40 38/38/36 40/40/38
f 44/44/42 41/41/39 45/45/43
f 38/38/36 46/46/44 39/39/37
f 47/47/45 48/48/46 49/49/47
f 50/50/48 51/51/49 52/52/50
f 50/50/48 52/52/50 53/53/51
f 54/54/52 55/55/53 56/56/54
f 57/57/45 49/49/47 48/48/46
f 58/58/55 59/59/56 60/60/57
f 61/61/58 62/62/47 59/59/56
f 48/48/46 63/63/59 57/57/45
f 54/54/52 48/48/46 47/47/45
f 54/54/52 47/47/45 55/55/53
f 53/53/51 54/54/52 56/56/54
f 53/53/51 64/64/60 50/50/48
f 53/53/51 56/56/54 64/64/60
f 51/51/49 65/65/61 52/52/50
f 66/66/62 65/65/61 67/67/63
f 67/67/63 65/65/61 51/51/49
f 68/68/64 67/67/63 69/69/65
f 68/68/64 66/66/62 67/67/63
f 45/45/43 68/68/64 69/69/65
f 44/44/42 70/70/66 71/71/67
f 45/45/43 69/69/65 70/70/66
f 58/58/55 61/61/58 59/59/56
f 71/71/67 49/49/47 57/57/45
f 59/59/56 62/62/47 63/63/59
f 62/62/47 57/57/45 63/63/59
f 70/70/66 44/44/42 45/45/43
f 71/71/67 57/57/45 44/44/42
f 45/45/43 41/41/39 43/43/41
f 46/46/44 72/72/68 39/39/37
f 73/73/69 46/46/44 74/74/70
f 73/73/69 72/72/68 46/46/44
f 73/73/69 74/74/70 60/60/57
f 74/74/70 58/58/55 60/60/57
f 37/75/35 60/76/57 21/77/20
f 37/75/35 73/78/69 60/76/57
f 35/79/33 73/80/69 37/81/35
f 35/79/33 72/82/68 73/80/69
f 2/83/2 72/82/68 35/79/33
f 2/83/2 39/84/37 72/82/68
f 1/85/1 39/84/37 2/83/2
f 1/85/1 40/86/38 39/84/37
f 4/87/4 40/86/38 1/85/1
f 4/87/4 42/88/40 40/86/38
f 6/89/6 42/90/40 4/91/4
f 6/89/6 43/92/41 42/90/40
f 7/93/7 43/92/41 6/89/6
f 7/93/7 45/94/43 43/92/41
f 32/95/30 45/96/43 7/97/7
f 32/95/30 68/98/64 45/96/43
f 30/99/28 68/98/64 32/95/30
f 30/99/28 66/100/62 68/98/64
f 28/101/26 66/102/62 30/103/28
f 28/101/26 65/104/61 66/102/62
f 13/105/13 65/104/61 28/101/26
f 13/105/13 52/106/50 65/104/61
f 16/107/16 52/106/50 13/105/13
f 16/107/16 53/108/51 52/106/50
f 19/109/19 53/110/51 16/111/16
f 19/109/19 54/112/52 53/110/51
f 11/113/11 54/112/52 19/109/19
f 11/113/11 48/114/46 54/112/52
f 26/115/24 48/116/46 11/117/11
f 26/115/24 63/118/59 48/116/46
f 22/119/21 63/120/59 26/121/24
f 22/119/21 59/122/56 63/120/59
f 21/77/20 59/122/56 22/119/21
f 21/77/20 60/76/57 59/122/56
f 12/123/12 47/124/45 10/125/10
f 49/126/47 10/125/10 47/124/45
f 18/127/18 55/128/53 12/129/12
f 47/130/45 12/129/12 55/128/53
f 17/131/17 56/132/54 18/127/18
f 55/128/53 18/127/18 56/132/54
f 27/133/25 64/134/60 17/131/17
f 56/132/54 17/131/17 64/134/60
f 15/135/15 50/136/48 27/137/25
f 64/138/60 27/137/25 50/136/48
f 14/139/14 51/140/49 15/135/15
f 50/136/48 15/135/15 51/140/49
f 29/141/27 67/142/63 14/139/14
f 51/140/49 14/139/14 67/142/63
f 31/94/29 69/143/65 29/141/27
f 67/142/63 29/141/27 69/143/65
f 34/144/32 70/145/66 31/146/29
f 69/147/65 31/146/29 70/145/66
f 33/148/31 71/149/67 34/144/32
f 70/145/66 34/144/32 71/149/67
f 10/150/10 49/151/47 33/148/31
f 71/149/67 33/148/31 49/151/47
f 20/152/12 57/153/45 24/154/10
f 62/155/47 24/154/10 57/153/45
f 8/156/8 44/157/42 20/158/12
f 57/159/45 20/158/12 44/157/42
f 5/103/5 41/102/39 8/156/8
f 44/157/42 8/156/8 41/102/39
f 3/160/3 38/161/36 5/162/5
f 41/163/39 5/162/5 38/161/36
f 9/164/9 46/165/44 3/160/3
f 38/161/36 3/160/3 46/165/44
f 36/166/34 74/167/70 9/164/9
f 46/165/44 9/164/9 74/167/70
f 23/168/22 58/169/55 36/170/34
f 74/171/70 36/170/34 58/169/55
f 25/172/23 61/173/58 23/168/22
f 58/169/55 23/168/22 61/173/58
f 24/174/10 62/175/47 25/172/23
f 61/173/58 25/172/23 62/175/47
