# Blender 4.4.3
# www.blender.org
o B
v 0.153515 -0.075000 0.070739
v 0.162762 -0.075000 0.123168
v 0.084240 -0.075000 0.117065
v 0.125744 -0.075000 0.028182
v 0.048641 -0.075000 0.041091
v 0.080883 -0.075000 -0.002076
v 0.020367 -0.075000 -0.017594
v -0.058170 -0.075000 0.015762
v 0.076107 -0.075000 0.163055
v -0.202991 -0.075000 -0.044846
v -0.280704 -0.075000 -0.288575
v -0.202991 -0.075000 -0.226319
v 0.129406 -0.075000 -0.149415
v 0.051296 -0.075000 -0.140061
v 0.043347 -0.075000 -0.179826
v 0.078961 -0.075000 -0.253785
v -0.019306 -0.075000 -0.221330
v -0.072407 -0.075000 -0.226319
v -0.072407 -0.075000 -0.288575
v -0.202991 -0.075000 0.015762
v 0.040402 -0.075000 0.274078
v -0.047993 -0.075000 0.284698
v 0.009472 -0.075000 0.215850
v -0.202991 -0.075000 0.222457
v -0.052067 -0.075000 0.222457
v -0.280704 -0.075000 0.284698
v 0.019543 -0.075000 -0.206376
v 0.122295 -0.075000 -0.102616
v 0.043606 -0.075000 -0.097901
v 0.100933 -0.075000 -0.063966
v 0.020565 -0.075000 -0.068238
v 0.066540 -0.075000 -0.035081
v -0.072407 -0.075000 -0.044846
v -0.018040 -0.075000 -0.050691
v 0.148831 -0.075000 0.191177
v 0.051693 -0.075000 0.196014
v 0.107021 -0.075000 0.242187
v 0.084240 0.075000 0.117065
v 0.162762 0.075000 0.123168
v 0.153515 0.075000 0.070739
v 0.048641 0.075000 0.041091
v 0.125744 0.075000 0.028182
v 0.080883 0.075000 -0.002076
v -0.058170 0.075000 0.015762
v 0.020367 0.075000 -0.017594
v 0.076107 0.075000 0.163055
v -0.202991 0.075000 -0.226319
v -0.280704 0.075000 -0.288575
v -0.202991 0.075000 -0.044846
v 0.043347 0.075000 -0.179826
v 0.051296 0.075000 -0.140061
v 0.129406 0.075000 -0.149415
v 0.078961 0.075000 -0.253785
v -0.072407 0.075000 -0.288575
v -0.072407 0.075000 -0.226319
v -0.019306 0.075000 -0.221330
v -0.202991 0.075000 0.015762
v 0.009472 0.075000 0.215850
v -0.047993 0.075000 0.284698
v 0.040402 0.075000 0.274078
v -0.052067 0.075000 0.222457
v -0.202991 0.075000 0.222457
v -0.280704 0.075000 0.284698
v 0.019543 0.075000 -0.206376
v 0.122295 0.075000 -0.102616
v 0.100933 0.075000 -0.063966
v 0.043606 0.075000 -0.097901
v 0.066540 0.075000 -0.035081
v 0.020565 0.075000 -0.068238
v -0.018040 0.075000 -0.050691
v -0.072407 0.075000 -0.044846
v 0.148831 0.075000 0.191177
v 0.107021 0.075000 0.242187
v 0.051693 0.075000 0.196014
vn 0.6949 -0.6647 -0.2746
vn 0.7447 -0.6673 0.0102
vn -0.6182 -0.7818 0.0818
vn 0.5320 -0.6651 -0.5240
vn -0.3618 -0.8192 0.4449
vn 0.3039 -0.6707 -0.6766
vn 0.1646 -0.9863 -0.0091
vn -0.0789 -0.7342 0.6743
vn -0.5943 -0.7625 -0.2557
vn 0.3015 -0.9045 -0.3015
vn -0.5773 -0.5773 -0.5774
vn 0.3015 -0.9045 0.3015
vn 0.7547 -0.6462 -0.1138
vn -0.6592 -0.7519 0.0056
vn -0.5689 -0.7715 0.2848
vn 0.4885 -0.6215 -0.6125
vn -0.1539 -0.7392 0.6557
vn -0.0326 -0.7178 0.6955
vn 0.0824 -0.6826 -0.7261
vn 0.2067 -0.6723 0.7109
vn 0.0430 -0.6939 0.7188
vn -0.1795 -0.7463 -0.6409
vn -0.0371 -0.7193 -0.6937
vn -0.5773 -0.5774 0.5774
vn -0.3664 -0.7638 0.5314
vn 0.7032 -0.6695 0.2392
vn -0.5882 -0.7647 -0.2630
vn 0.5745 -0.6682 0.4727
vn -0.3990 -0.7652 -0.5052
vn 0.3749 -0.6713 0.6394
vn -0.0372 -0.7193 -0.6937
vn -0.1760 -0.7447 -0.6437
vn 0.6808 -0.6569 0.3241
vn -0.4069 -0.7665 -0.4969
vn 0.4630 -0.6613 0.5901
vn -0.6182 0.7818 0.0818
vn 0.7447 0.6673 0.0102
vn 0.6949 0.6647 -0.2746
vn -0.3618 0.8192 0.4449
vn 0.5320 0.6651 -0.5240
vn 0.3039 0.6707 -0.6766
vn -0.0789 0.7342 0.6743
vn 0.1646 0.9863 -0.0092
vn -0.5943 0.7625 -0.2557
vn 0.3015 0.9045 0.3015
vn -0.5773 0.5774 -0.5774
vn 0.3015 0.9045 -0.3015
vn -0.5689 0.7715 0.2848
vn -0.6592 0.7519 0.0056
vn 0.7547 0.6461 -0.1138
vn 0.4885 0.6215 -0.6125
vn 0.0824 0.6826 -0.7261
vn -0.0326 0.7178 0.6955
vn -0.1539 0.7392 0.6557
vn -0.1795 0.7463 -0.6409
vn 0.0430 0.6939 0.7188
vn 0.2067 0.6723 0.7109
vn -0.0371 0.7193 -0.6937
vn -0.5773 0.5774 0.5774
vn -0.3664 0.7638 0.5314
vn 0.7032 0.6695 0.2392
vn 0.5744 0.6682 0.4727
vn -0.5882 0.7647 -0.2630
vn 0.3749 0.6713 0.6394
vn -0.3990 0.7652 -0.5052
vn -0.1760 0.7447 -0.6437
vn -0.0372 0.7194 -0.6936
vn 0.6808 0.6569 0.3241
vn 0.4630 0.6613 0.5901
vn -0.4069 0.7665 -0.4969
s 1
f 1//1 2//2 3//3
f 4//4 3//3 5//5
f 4//4 5//5 6//6
f 1//1 3//3 4//4
f 7//7 5//5 8//8
f 2//2 9//9 3//3
f 10//10 11//11 12//12
f 13//13 14//14 15//15
f 16//16 13//13 15//15
f 17//17 18//18 19//19
f 11//11 10//10 20//12
f 21//20 22//21 23//22
f 22//21 24//10 25//23
f 20//12 26//24 11//11
f 12//12 11//11 19//19
f 18//18 12//12 19//19
f 17//17 19//19 16//16
f 15//15 27//25 16//16
f 27//25 17//17 16//16
f 13//13 28//26 14//14
f 29//27 28//26 30//28
f 14//14 28//26 29//27
f 31//29 29//27 32//30
f 29//27 30//28 32//30
f 31//29 32//30 7//7
f 33//31 34//32 8//8
f 34//32 31//29 7//7
f 22//21 25//23 23//22
f 20//12 10//10 33//31
f 26//24 24//10 22//21
f 26//24 20//12 24//10
f 7//7 8//8 34//32
f 8//8 20//12 33//31
f 6//6 5//5 7//7
f 2//2 35//33 9//9
f 36//34 9//9 37//35
f 9//9 35//33 37//35
f 21//20 36//34 37//35
f 21//20 23//22 36//34
f 38//36 39//37 40//38
f 41//39 38//36 42//40
f 43//41 41//39 42//40
f 42//40 38//36 40//38
f 44//42 41//39 45//43
f 38//36 46//44 39//37
f 47//45 48//46 49//47
f 50//48 51//49 52//50
f 50//48 52//50 53//51
f 54//52 55//53 56//54
f 57//45 49//47 48//46
f 58//55 59//56 60//57
f 61//58 62//47 59//56
f 48//46 63//59 57//45
f 54//52 48//46 47//45
f 54//52 47//45 55//53
f 53//51 54//52 56//54
f 53//51 64//60 50//48
f 53//51 56//54 64//60
f 51//49 65//61 52//50
f 66//62 65//61 67//63
f 67//63 65//61 51//49
f 68//64 67//63 69//65
f 68//64 66//62 67//63
f 45//43 68//64 69//65
f 44//42 70//66 71//67
f 45//43 69//65 70//66
f 58//55 61//58 59//56
f 71//67 49//47 57//45
f 59//56 62//47 63//59
f 62//47 57//45 63//59
f 70//66 44//42 45//43
f 71//67 57//45 44//42
f 45//43 41//39 43//41
f 46//44 72//68 39//37
f 73//69 46//44 74//70
f 73//69 72//68 46//44
f 73//69 74//70 60//57
f 74//70 58//55 60//57
f 37//35 60//57 21//20
f 37//35 73//69 60//57
f 35//33 73//69 37//35
f 35//33 72//68 73//69
f 2//2 72//68 35//33
f 2//2 39//37 72//68
f 1//1 39//37 2//2
f 1//1 40//38 39//37
f 4//4 40//38 1//1
f 4//4 42//40 40//38
f 6//6 42//40 4//4
f 6//6 43//41 42//40
f 7//7 43//41 6//6
f 7//7 45//43 43//41
f 32//30 45//43 7//7
f 32//30 68//64 45//43
f 30//28 68//64 32//30
f 30//28 66//62 68//64
f 28//26 66//62 30//28
f 28//26 65//61 66//62
f 13//13 65//61 28//26
f 13//13 52//50 65//61
f 16//16 52//50 13//13
f 16//16 53//51 52//50
f 19//19 53//51 16//16
f 19//19 54//52 53//51
f 11//11 54//52 19//19
f 11//11 48//46 54//52
f 26//24 48//46 11//11
f 26//24 63//59 48//46
f 22//21 63//59 26//24
f 22//21 59//56 63//59
f 21//20 59//56 22//21
f 21//20 60//57 59//56
f 12//12 47//45 10//10
f 49//47 10//10 47//45
f 18//18 55//53 12//12
f 47//45 12//12 55//53
f 17//17 56//54 18//18
f 55//53 18//18 56//54
f 27//25 64//60 17//17
f 56//54 17//17 64//60
f 15//15 50//48 27//25
f 64//60 27//25 50//48
f 14//14 51//49 15//15
f 50//48 15//15 51//49
f 29//27 67//63 14//14
f 51//49 14//14 67//63
f 31//29 69//65 29//27
f 67//63 29//27 69//65
f 34//32 70//66 31//29
f 69//65 31//29 70//66
f 33//31 71//67 34//32
f 70//66 34//32 71//67
f 10//10 49//47 33//31
f 71//67 33//31 49//47
f 20//12 57//45 24//10
f 62//47 24//10 57//45
f 8//8 44//42 20//12
f 57//45 20//12 44//42
f 5//5 41//39 8//8
f 44//42 8//8 41//39
f 3//3 38//36 5//5
f 41//39 5//5 38//36
f 9//9 46//44 3//3
f 38//36 3//3 46//44
f 36//34 74//70 9//9
f 46//44 9//9 74//70
f 23//22 58//55 36//34
f 74//70 36//34 58//55
f 25//23 61//58 23//22
f 58//55 23//22 61//58
f 24//10 62//47 25//23
f 61//58 25//23 62//47
