# Blender 4.4.3
# www.blender.org
o Bb
v 0.242328 -0.075000 -0.197171
v 0.223605 -0.075000 -0.140622
v 0.196704 -0.075000 -0.192594
v 0.314700 -0.075000 -0.183149
v 0.270908 -0.075000 -0.130658
v 0.103580 -0.075000 -0.118253
v 0.105212 -0.075000 -0.118253
v 0.133487 -0.075000 -0.098310
v 0.128864 -0.075000 -0.154554
v 0.170154 -0.075000 -0.130048
v 0.159122 -0.075000 -0.178861
v 0.302951 -0.075000 -0.100751
v 0.031360 -0.075000 0.217517
v 0.104404 -0.075000 0.182818
v 0.103992 -0.075000 0.198748
v 0.031970 -0.075000 0.160449
v 0.112125 -0.075000 0.111270
v 0.104800 -0.075000 -0.151716
v 0.031970 -0.075000 -0.352613
v 0.105212 -0.075000 -0.180494
v 0.105212 -0.075000 -0.352613
v 0.101337 -0.075000 0.241671
v 0.029529 -0.075000 0.251178
v -0.055127 -0.075000 0.089648
v -0.133649 -0.075000 0.083545
v -0.064389 -0.075000 0.037219
v 0.363773 -0.075000 0.201739
v 0.270450 -0.075000 0.194979
v 0.302753 -0.075000 0.164309
v 0.100330 -0.075000 0.251178
v 0.102771 -0.075000 0.221270
v 0.196506 -0.075000 0.254794
v 0.159122 -0.075000 0.241214
v 0.169193 -0.075000 0.194873
v 0.132877 -0.075000 0.163897
v 0.105212 -0.075000 0.182818
v 0.129062 -0.075000 0.217562
v 0.222797 -0.075000 0.205203
v 0.242328 -0.075000 0.259310
v 0.321216 -0.075000 0.110659
v 0.327365 -0.075000 0.031466
v 0.404269 -0.075000 0.029025
v 0.112277 -0.075000 -0.043576
v 0.105212 -0.075000 0.035937
v 0.394443 -0.075000 -0.070432
v 0.321262 -0.075000 -0.047757
v 0.365009 -0.075000 -0.141034
v -0.141782 -0.075000 0.129519
v -0.092145 -0.075000 -0.005353
v -0.169247 -0.075000 0.007571
v -0.136990 -0.075000 -0.035611
v -0.197522 -0.075000 -0.051114
v -0.276044 -0.075000 -0.017759
v -0.420895 -0.075000 -0.078367
v -0.498608 -0.075000 -0.322095
v -0.420895 -0.075000 -0.259839
v -0.138928 -0.075000 -0.287305
v -0.088467 -0.075000 -0.182935
v -0.174527 -0.075000 -0.213361
v -0.237195 -0.075000 -0.254865
v -0.290280 -0.075000 -0.259839
v -0.290280 -0.075000 -0.322095
v -0.420895 -0.075000 -0.017759
v -0.177487 -0.075000 0.240557
v -0.265881 -0.075000 0.251178
v -0.208401 -0.075000 0.182315
v -0.420895 -0.075000 0.188937
v -0.269940 -0.075000 0.188937
v -0.498608 -0.075000 0.251178
v -0.198331 -0.075000 -0.239911
v -0.166592 -0.075000 -0.173581
v -0.095593 -0.075000 -0.136152
v -0.174268 -0.075000 -0.131421
v -0.116956 -0.075000 -0.097501
v -0.197308 -0.075000 -0.101773
v -0.151334 -0.075000 -0.068601
v -0.290280 -0.075000 -0.078367
v -0.235913 -0.075000 -0.084226
v -0.069058 -0.075000 0.157656
v -0.166196 -0.075000 0.162478
v -0.110852 -0.075000 0.208667
v 0.196704 0.075000 -0.192594
v 0.223605 0.075000 -0.140622
v 0.242328 0.075000 -0.197171
v 0.270908 0.075000 -0.130658
v 0.314700 0.075000 -0.183149
v 0.133487 0.075000 -0.098310
v 0.105212 0.075000 -0.118253
v 0.103580 0.075000 -0.118253
v 0.128864 0.075000 -0.154554
v 0.159122 0.075000 -0.178861
v 0.170154 0.075000 -0.130048
v 0.302951 0.075000 -0.100751
v 0.103992 0.075000 0.198748
v 0.104404 0.075000 0.182818
v 0.031360 0.075000 0.217517
v 0.112125 0.075000 0.111270
v 0.031970 0.075000 0.160449
v 0.105212 0.075000 -0.180494
v 0.031970 0.075000 -0.352613
v 0.104800 0.075000 -0.151716
v 0.105212 0.075000 -0.352613
v 0.029529 0.075000 0.251178
v 0.101337 0.075000 0.241671
v -0.064389 0.075000 0.037219
v -0.133649 0.075000 0.083545
v -0.055127 0.075000 0.089648
v 0.302753 0.075000 0.164309
v 0.270450 0.075000 0.194979
v 0.363773 0.075000 0.201739
v 0.100330 0.075000 0.251178
v 0.102771 0.075000 0.221270
v 0.169193 0.075000 0.194873
v 0.159122 0.075000 0.241214
v 0.196506 0.075000 0.254794
v 0.132877 0.075000 0.163897
v 0.105212 0.075000 0.182818
v 0.129062 0.075000 0.217562
v 0.222797 0.075000 0.205203
v 0.242328 0.075000 0.259310
v 0.404269 0.075000 0.029025
v 0.327365 0.075000 0.031466
v 0.321216 0.075000 0.110659
v 0.112277 0.075000 -0.043576
v 0.105212 0.075000 0.035937
v 0.321262 0.075000 -0.047757
v 0.394443 0.075000 -0.070432
v 0.365009 0.075000 -0.141034
v -0.141782 0.075000 0.129519
v -0.136990 0.075000 -0.035611
v -0.169247 0.075000 0.007571
v -0.092145 0.075000 -0.005353
v -0.276044 0.075000 -0.017759
v -0.197522 0.075000 -0.051114
v -0.420895 0.075000 -0.259839
v -0.498608 0.075000 -0.322095
v -0.420895 0.075000 -0.078367
v -0.174527 0.075000 -0.213361
v -0.088467 0.075000 -0.182935
v -0.138928 0.075000 -0.287305
v -0.290280 0.075000 -0.322095
v -0.290280 0.075000 -0.259839
v -0.237195 0.075000 -0.254865
v -0.420895 0.075000 -0.017759
v -0.208401 0.075000 0.182315
v -0.265881 0.075000 0.251178
v -0.177487 0.075000 0.240557
v -0.269940 0.075000 0.188937
v -0.420895 0.075000 0.188937
v -0.498608 0.075000 0.251178
v -0.198331 0.075000 -0.239911
v -0.095593 0.075000 -0.136152
v -0.166592 0.075000 -0.173581
v -0.116956 0.075000 -0.097501
v -0.174268 0.075000 -0.131421
v -0.151334 0.075000 -0.068601
v -0.197308 0.075000 -0.101773
v -0.235913 0.075000 -0.084226
v -0.290280 0.075000 -0.078367
v -0.069058 0.075000 0.157656
v -0.110852 0.075000 0.208667
v -0.166196 0.075000 0.162478
vn 0.0337 -0.6759 -0.7363
vn -0.0040 -0.7551 0.6557
vn -0.1637 -0.6801 -0.7146
vn 0.3247 -0.6549 -0.6824
vn -0.2927 -0.7728 0.5632
vn 0.3004 -0.9088 -0.2896
vn -0.2647 -0.8316 -0.4883
vn 0.5259 -0.7657 0.3703
vn -0.5481 -0.6733 -0.4962
vn 0.2803 -0.7696 0.5738
vn -0.3637 -0.6723 -0.6448
vn -0.5394 -0.7657 0.3505
vn -0.7018 -0.7120 -0.0228
vn 0.3021 -0.9015 0.3100
vn 0.7097 -0.7039 0.0284
vn -0.7059 -0.7083 -0.0038
vn 0.6539 -0.7404 -0.1556
vn 0.7093 -0.7046 0.0180
vn -0.5774 -0.5773 -0.5774
vn 0.7087 -0.7055 0.0051
vn 0.5774 -0.5773 -0.5773
vn 0.7083 -0.7031 0.0624
vn -0.5942 -0.5745 0.5628
vn 0.7447 -0.6673 0.0101
vn -0.6182 -0.7818 0.0818
vn 0.6948 -0.6647 -0.2746
vn 0.6097 -0.6212 0.4923
vn -0.2958 -0.7734 -0.5607
vn -0.5420 -0.7647 -0.3485
vn 0.5434 -0.5831 0.6039
vn 0.7075 -0.7053 0.0440
vn -0.1624 -0.6801 0.7149
vn -0.3594 -0.6731 0.6463
vn 0.2769 -0.7693 -0.5758
vn 0.5233 -0.7659 -0.3737
vn -0.2610 -0.8284 0.4957
vn -0.5386 -0.6747 0.5046
vn -0.0069 -0.7549 -0.6558
vn 0.1300 -0.6516 0.7473
vn -0.6621 -0.7368 -0.1373
vn -0.6889 -0.7249 -0.0002
vn 0.7389 -0.6721 0.0488
vn 0.6550 -0.7400 0.1528
vn 0.6857 -0.7279 -0.0010
vn 0.7152 -0.6753 -0.1801
vn -0.6618 -0.7370 0.1375
vn 0.6069 -0.6574 -0.4466
vn -0.5943 -0.7625 -0.2557
vn 0.5322 -0.6651 -0.5239
vn -0.3618 -0.8192 0.4449
vn 0.3039 -0.6707 -0.6767
vn 0.1645 -0.9863 -0.0091
vn -0.0789 -0.7342 0.6743
vn 0.3015 -0.9045 -0.3015
vn -0.5773 -0.5773 -0.5774
vn 0.3015 -0.9045 0.3015
vn 0.4885 -0.6215 -0.6125
vn 0.7547 -0.6461 -0.1138
vn -0.5689 -0.7716 0.2846
vn -0.1538 -0.7392 0.6557
vn -0.0325 -0.7178 0.6955
vn 0.0824 -0.6826 -0.7261
vn 0.2067 -0.6723 0.7109
vn 0.0430 -0.6939 0.7188
vn -0.1796 -0.7463 -0.6409
vn -0.0372 -0.7193 -0.6937
vn -0.5773 -0.5774 0.5774
vn -0.3664 -0.7638 0.5314
vn -0.6594 -0.7518 0.0055
vn 0.7031 -0.6696 0.2393
vn -0.5882 -0.7648 -0.2629
vn 0.5745 -0.6683 0.4726
vn -0.3990 -0.7652 -0.5053
vn 0.3750 -0.6712 0.6394
vn -0.0373 -0.7194 -0.6936
vn -0.1761 -0.7447 -0.6437
vn 0.6808 -0.6569 0.3240
vn -0.4070 -0.7665 -0.4968
vn 0.4631 -0.6613 0.5901
vn -0.1637 0.6801 -0.7146
vn -0.0040 0.7551 0.6556
vn 0.0337 0.6759 -0.7363
vn -0.2927 0.7728 0.5632
vn 0.3247 0.6549 -0.6824
vn 0.5259 0.7657 0.3703
vn -0.2647 0.8315 -0.4883
vn 0.3004 0.9088 -0.2896
vn -0.5481 0.6733 -0.4962
vn -0.3637 0.6723 -0.6448
vn 0.2803 0.7696 0.5738
vn -0.5394 0.7657 0.3505
vn 0.7097 0.7039 0.0284
vn 0.3021 0.9015 0.3100
vn -0.7018 0.7120 -0.0228
vn 0.6539 0.7404 -0.1556
vn -0.7059 0.7083 -0.0038
vn 0.7087 0.7055 0.0051
vn -0.5773 0.5773 -0.5774
vn 0.7094 0.7046 0.0180
vn 0.5774 0.5774 -0.5773
vn -0.5943 0.5745 0.5628
vn 0.7083 0.7031 0.0624
vn 0.6948 0.6647 -0.2745
vn -0.6182 0.7818 0.0818
vn 0.7447 0.6673 0.0101
vn -0.5420 0.7647 -0.3485
vn -0.2958 0.7734 -0.5607
vn 0.6097 0.6212 0.4923
vn 0.5434 0.5831 0.6040
vn 0.7075 0.7053 0.0440
vn 0.2769 0.7693 -0.5758
vn -0.3594 0.6731 0.6463
vn -0.1624 0.6801 0.7149
vn 0.5233 0.7659 -0.3736
vn -0.2610 0.8284 0.4957
vn -0.5386 0.6747 0.5046
vn -0.0069 0.7549 -0.6558
vn 0.1300 0.6516 0.7473
vn 0.7389 0.6721 0.0488
vn -0.6889 0.7249 -0.0002
vn -0.6621 0.7368 -0.1373
vn 0.6550 0.7400 0.1528
vn 0.6856 0.7279 -0.0010
vn -0.6618 0.7370 0.1374
vn 0.7152 0.6753 -0.1801
vn 0.6069 0.6574 -0.4466
vn -0.5943 0.7625 -0.2557
vn 0.3039 0.6707 -0.6767
vn -0.3618 0.8192 0.4449
vn 0.5322 0.6651 -0.5239
vn -0.0789 0.7342 0.6743
vn 0.1645 0.9863 -0.0092
vn 0.3015 0.9045 0.3015
vn -0.5773 0.5774 -0.5774
vn 0.3015 0.9045 -0.3015
vn -0.5689 0.7716 0.2846
vn 0.7547 0.6461 -0.1138
vn 0.4885 0.6215 -0.6125
vn 0.0824 0.6826 -0.7261
vn -0.0325 0.7178 0.6955
vn -0.1538 0.7392 0.6557
vn -0.1796 0.7463 -0.6409
vn 0.0430 0.6939 0.7188
vn 0.2067 0.6723 0.7109
vn -0.0372 0.7194 -0.6936
vn -0.5773 0.5774 0.5774
vn -0.3664 0.7638 0.5314
vn 0.7031 0.6696 0.2393
vn -0.6594 0.7518 0.0055
vn 0.5745 0.6683 0.4726
vn -0.5882 0.7648 -0.2629
vn 0.3750 0.6712 0.6394
vn -0.3990 0.7652 -0.5053
vn -0.1761 0.7447 -0.6437
vn -0.0373 0.7194 -0.6936
vn 0.6808 0.6569 0.3240
vn 0.4631 0.6613 0.5901
vn -0.4070 0.7665 -0.4969
s 1
f 1//1 2//2 3//3
f 4//4 5//5 1//1
f 6//6 7//7 8//8
f 8//8 7//7 9//9
f 3//3 10//10 11//11
f 4//4 12//12 5//5
f 13//13 14//14 15//15
f 14//14 16//16 17//17
f 18//18 19//19 20//20
f 20//20 19//19 21//21
f 18//18 6//6 19//19
f 19//19 6//6 16//16
f 22//22 23//23 13//13
f 24//24 25//25 26//26
f 27//27 28//28 29//29
f 22//22 30//30 23//23
f 31//31 22//22 13//13
f 32//32 33//33 34//34
f 15//15 31//31 13//13
f 13//13 16//16 14//14
f 14//14 17//17 35//35
f 14//14 35//35 36//36
f 37//37 35//35 34//34
f 34//34 38//38 32//32
f 38//38 39//39 32//32
f 40//40 41//41 42//42
f 33//33 37//37 34//34
f 37//37 36//36 35//35
f 16//16 6//6 43//43
f 17//17 16//16 44//44
f 44//44 16//16 43//43
f 8//8 43//43 6//6
f 45//45 42//42 46//46
f 10//10 9//9 11//11
f 8//8 9//9 10//10
f 2//2 10//10 3//3
f 5//5 2//2 1//1
f 4//4 47//47 12//12
f 46//46 12//12 45//45
f 12//12 47//47 45//45
f 41//41 46//46 42//42
f 40//40 42//42 27//27
f 29//29 40//40 27//27
f 38//38 28//28 39//39
f 28//28 27//27 39//39
f 24//24 48//48 25//25
f 49//49 50//50 51//51
f 49//49 25//25 50//50
f 26//26 25//25 49//49
f 52//52 50//50 53//53
f 54//54 55//55 56//56
f 57//57 58//58 59//59
f 60//60 61//61 62//62
f 55//55 54//54 63//56
f 64//63 65//64 66//65
f 65//64 67//54 68//66
f 63//56 69//67 55//55
f 56//56 55//55 62//62
f 61//61 56//56 62//62
f 60//60 62//62 57//57
f 59//59 70//68 57//57
f 70//68 60//60 57//57
f 71//69 58//58 72//70
f 59//59 58//58 71//69
f 73//71 72//70 74//72
f 71//69 72//70 73//71
f 75//73 73//71 76//74
f 73//71 74//72 76//74
f 75//73 76//74 52//52
f 77//75 78//76 53//53
f 78//76 75//73 52//52
f 65//64 68//66 66//65
f 63//56 54//54 77//75
f 69//67 67//54 65//64
f 69//67 63//56 67//54
f 52//52 53//53 78//76
f 53//53 63//56 77//75
f 51//51 50//50 52//52
f 24//24 79//77 48//48
f 80//78 48//48 81//79
f 48//48 79//77 81//79
f 64//63 80//78 81//79
f 64//63 66//65 80//78
f 82//80 83//81 84//82
f 84//82 85//83 86//84
f 87//85 88//86 89//87
f 90//88 88//86 87//85
f 91//89 92//90 82//80
f 85//83 93//91 86//84
f 94//92 95//93 96//94
f 97//95 98//96 95//93
f 99//97 100//98 101//99
f 102//100 100//98 99//97
f 100//98 89//87 101//99
f 98//96 89//87 100//98
f 96//94 103//101 104//102
f 105//103 106//104 107//105
f 108//106 109//107 110//108
f 103//101 111//109 104//102
f 96//94 104//102 112//110
f 113//111 114//112 115//113
f 96//94 112//110 94//92
f 95//93 98//96 96//94
f 116//114 97//95 95//93
f 117//115 116//114 95//93
f 113//111 116//114 118//116
f 115//113 119//117 113//111
f 115//113 120//118 119//117
f 121//119 122//120 123//121
f 113//111 118//116 114//112
f 116//114 117//115 118//116
f 124//122 89//87 98//96
f 125//123 98//96 97//95
f 124//122 98//96 125//123
f 89//87 124//122 87//85
f 126//124 121//119 127//125
f 91//89 90//88 92//90
f 92//90 90//88 87//85
f 82//80 92//90 83//81
f 84//82 83//81 85//83
f 93//91 128//126 86//84
f 127//125 93//91 126//124
f 127//125 128//126 93//91
f 121//119 126//124 122//120
f 110//108 121//119 123//121
f 110//108 123//121 108//106
f 120//118 109//107 119//117
f 120//118 110//108 109//107
f 106//104 129//127 107//105
f 130//128 131//129 132//130
f 131//129 106//104 132//130
f 132//130 106//104 105//103
f 133//131 131//129 134//132
f 135//133 136//134 137//135
f 138//136 139//137 140//138
f 141//139 142//140 143//141
f 144//133 137//135 136//134
f 145//142 146//143 147//144
f 148//145 149//135 146//143
f 136//134 150//146 144//133
f 141//139 136//134 135//133
f 141//139 135//133 142//140
f 140//138 141//139 143//141
f 140//138 151//147 138//136
f 140//138 143//141 151//147
f 152//148 139//137 153//149
f 153//149 139//137 138//136
f 154//150 152//148 155//151
f 155//151 152//148 153//149
f 156//152 155//151 157//153
f 156//152 154//150 155//151
f 134//132 156//152 157//153
f 133//131 158//154 159//155
f 134//132 157//153 158//154
f 145//142 148//145 146//143
f 159//155 137//135 144//133
f 146//143 149//135 150//146
f 149//135 144//133 150//146
f 158//154 133//131 134//132
f 159//155 144//133 133//131
f 134//132 131//129 130//128
f 129//127 160//156 107//105
f 161//157 129//127 162//158
f 161//157 160//156 129//127
f 161//157 162//158 147//144
f 162//158 145//142 147//144
f 42//42 110//108 27//27
f 42//42 121//119 110//108
f 45//45 121//119 42//42
f 45//45 127//125 121//119
f 47//47 127//125 45//45
f 47//47 128//126 127//125
f 4//4 128//126 47//47
f 4//4 86//84 128//126
f 1//1 86//84 4//4
f 1//1 84//82 86//84
f 3//3 84//82 1//1
f 3//3 82//80 84//82
f 11//11 82//80 3//3
f 11//11 91//89 82//80
f 9//9 91//89 11//11
f 9//9 90//88 91//89
f 7//7 90//88 9//9
f 7//7 88//86 90//88
f 6//6 88//86 7//7
f 6//6 89//87 88//86
f 18//18 89//87 6//6
f 18//18 101//99 89//87
f 20//20 101//99 18//18
f 20//20 99//97 101//99
f 21//21 99//97 20//20
f 21//21 102//100 99//97
f 19//19 102//100 21//21
f 19//19 100//98 102//100
f 16//16 100//98 19//19
f 16//16 98//96 100//98
f 13//13 98//96 16//16
f 13//13 96//94 98//96
f 23//23 96//94 13//13
f 23//23 103//101 96//94
f 30//30 103//101 23//23
f 30//30 111//109 103//101
f 22//22 111//109 30//30
f 22//22 104//102 111//109
f 31//31 104//102 22//22
f 31//31 112//110 104//102
f 15//15 112//110 31//31
f 15//15 94//92 112//110
f 14//14 94//92 15//15
f 14//14 95//93 94//92
f 36//36 95//93 14//14
f 36//36 117//115 95//93
f 37//37 117//115 36//36
f 37//37 118//116 117//115
f 33//33 118//116 37//37
f 33//33 114//112 118//116
f 32//32 114//112 33//33
f 32//32 115//113 114//112
f 39//39 115//113 32//32
f 39//39 120//118 115//113
f 27//27 120//118 39//39
f 27//27 110//108 120//118
f 35//35 116//114 34//34
f 113//111 34//34 116//114
f 17//17 97//95 35//35
f 116//114 35//35 97//95
f 44//44 125//123 17//17
f 97//95 17//17 125//123
f 43//43 124//122 44//44
f 125//123 44//44 124//122
f 8//8 87//85 43//43
f 124//122 43//43 87//85
f 10//10 92//90 8//8
f 87//85 8//8 92//90
f 2//2 83//81 10//10
f 92//90 10//10 83//81
f 5//5 85//83 2//2
f 83//81 2//2 85//83
f 12//12 93//91 5//5
f 85//83 5//5 93//91
f 46//46 126//124 12//12
f 93//91 12//12 126//124
f 41//41 122//120 46//46
f 126//124 46//46 122//120
f 40//40 123//121 41//41
f 122//120 41//41 123//121
f 29//29 108//106 40//40
f 123//121 40//40 108//106
f 28//28 109//107 29//29
f 108//106 29//29 109//107
f 38//38 119//117 28//28
f 109//107 28//28 119//117
f 34//34 113//111 38//38
f 119//117 38//38 113//111
f 81//79 147//144 64//63
f 81//79 161//157 147//144
f 79//77 161//157 81//79
f 79//77 160//156 161//157
f 24//24 160//156 79//77
f 24//24 107//105 160//156
f 26//26 107//105 24//24
f 26//26 105//103 107//105
f 49//49 105//103 26//26
f 49//49 132//130 105//103
f 51//51 132//130 49//49
f 51//51 130//128 132//130
f 52//52 130//128 51//51
f 52//52 134//132 130//128
f 76//74 134//132 52//52
f 76//74 156//152 134//132
f 74//72 156//152 76//74
f 74//72 154//150 156//152
f 72//70 154//150 74//72
f 72//70 152//148 154//150
f 58//58 152//148 72//70
f 58//58 139//137 152//148
f 57//57 139//137 58//58
f 57//57 140//138 139//137
f 62//62 140//138 57//57
f 62//62 141//139 140//138
f 55//55 141//139 62//62
f 55//55 136//134 141//139
f 69//67 136//134 55//55
f 69//67 150//146 136//134
f 65//64 150//146 69//67
f 65//64 146//143 150//146
f 64//63 146//143 65//64
f 64//63 147//144 146//143
f 56//56 135//133 54//54
f 137//135 54//54 135//133
f 61//61 142//140 56//56
f 135//133 56//56 142//140
f 60//60 143//141 61//61
f 142//140 61//61 143//141
f 70//68 151//147 60//60
f 143//141 60//60 151//147
f 59//59 138//136 70//68
f 151//147 70//68 138//136
f 71//69 153//149 59//59
f 138//136 59//59 153//149
f 73//71 155//151 71//69
f 153//149 71//69 155//151
f 75//73 157//153 73//71
f 155//151 73//71 157//153
f 78//76 158//154 75//73
f 157//153 75//73 158//154
f 77//75 159//155 78//76
f 158//154 78//76 159//155
f 54//54 137//135 77//75
f 159//155 77//75 137//135
f 63//56 144//133 67//54
f 149//135 67//54 144//133
f 53//53 133//131 63//56
f 144//133 63//56 133//131
f 50//50 131//129 53//53
f 133//131 53//53 131//129
f 25//25 106//104 50//50
f 131//129 50//50 106//104
f 48//48 129//127 25//25
f 106//104 25//25 129//127
f 80//78 162//158 48//48
f 129//127 48//48 162//158
f 66//65 145//142 80//78
f 162//158 80//78 145//142
f 68//66 148//145 66//65
f 145//142 66//65 148//145
f 67//54 149//135 68//66
f 148//145 68//66 149//135
