# Blender 4.4.3
# www.blender.org
o D
g D_Mesh
v 0.182383 -0.075000 0.053388
v 0.156443 -0.075000 0.125455
v 0.106501 -0.075000 0.036344
v 0.191035 -0.075000 -0.029757
v 0.112910 -0.075000 -0.029757
v 0.114649 -0.075000 0.184202
v 0.087290 -0.075000 0.093107
v 0.013850 -0.075000 0.172864
v 0.056101 -0.075000 0.139082
v 0.058390 -0.075000 0.227384
v 0.016123 -0.075000 -0.292239
v -0.016927 -0.075000 -0.234255
v -0.112890 -0.075000 -0.310503
v 0.054530 -0.075000 -0.192294
v -0.224767 -0.075000 -0.248248
v -0.114507 -0.075000 -0.248248
v -0.088064 -0.075000 0.262769
v -0.302480 -0.075000 0.262769
v -0.224767 -0.075000 0.200529
v -0.009969 -0.075000 0.253934
v -0.037786 -0.075000 0.193616
v -0.097021 -0.075000 0.200529
v -0.302480 -0.075000 -0.310503
v 0.111887 -0.075000 -0.237460
v 0.098322 -0.075000 -0.123690
v 0.171244 -0.075000 -0.149020
v 0.106501 0.075000 0.036344
v 0.156443 0.075000 0.125455
v 0.182383 0.075000 0.053388
v 0.112910 0.075000 -0.029757
v 0.191035 0.075000 -0.029757
v 0.087290 0.075000 0.093107
v 0.114649 0.075000 0.184202
v 0.058390 0.075000 0.227384
v 0.056101 0.075000 0.139082
v 0.013850 0.075000 0.172864
v -0.112890 0.075000 -0.310503
v -0.016927 0.075000 -0.234255
v 0.016123 0.075000 -0.292239
v 0.054530 0.075000 -0.192294
v -0.114507 0.075000 -0.248248
v -0.224767 0.075000 -0.248248
v -0.224767 0.075000 0.200529
v -0.302480 0.075000 0.262769
v -0.088064 0.075000 0.262769
v -0.037786 0.075000 0.193616
v -0.009969 0.075000 0.253934
v -0.097021 0.075000 0.200529
v -0.302480 0.075000 -0.310503
v 0.111887 0.075000 -0.237460
v 0.171244 0.075000 -0.149020
v 0.098322 0.075000 -0.123690
vn 0.7139 -0.6810 0.1631
vn 0.6515 -0.6778 0.3408
vn -0.6642 -0.7339 -0.1426
vn 0.7345 -0.6782 -0.0223
vn -0.6763 -0.7364 0.0194
vn 0.5310 -0.6752 0.5120
vn -0.6036 -0.7387 -0.3000
vn -0.3383 -0.7414 -0.5796
vn -0.4920 -0.7424 -0.4548
vn 0.3611 -0.6766 0.6417
vn 0.2415 -0.6671 -0.7048
vn -0.2173 -0.7533 0.6208
vn 0.0507 -0.6916 -0.7205
vn -0.4479 -0.7637 0.4649
vn 0.3015 -0.9045 0.3015
vn -0.0491 -0.7235 0.6886
vn 0.0405 -0.6947 0.7182
vn -0.5773 -0.5774 0.5774
vn 0.3015 -0.9045 -0.3015
vn 0.1756 -0.6793 0.7126
vn -0.1663 -0.7382 -0.6537
vn -0.0403 -0.7204 -0.6924
vn -0.5773 -0.5774 -0.5774
vn 0.5124 -0.6592 -0.5504
vn -0.6119 -0.7564 0.2311
vn 0.6963 -0.6624 -0.2763
vn -0.6642 0.7339 -0.1426
vn 0.6515 0.6778 0.3408
vn 0.7139 0.6810 0.1631
vn -0.6763 0.7364 0.0194
vn 0.7345 0.6782 -0.0223
vn -0.6036 0.7387 -0.3000
vn 0.5310 0.6752 0.5120
vn 0.3611 0.6766 0.6417
vn -0.4919 0.7424 -0.4548
vn -0.3383 0.7414 -0.5796
vn 0.0507 0.6916 -0.7205
vn -0.2173 0.7533 0.6208
vn 0.2415 0.6671 -0.7048
vn -0.4480 0.7637 0.4649
vn -0.0491 0.7235 0.6886
vn 0.3015 0.9045 0.3015
vn 0.3015 0.9045 -0.3015
vn -0.5773 0.5774 0.5774
vn 0.0405 0.6947 0.7182
vn -0.1663 0.7382 -0.6537
vn 0.1755 0.6793 0.7126
vn -0.0403 0.7204 -0.6924
vn -0.5773 0.5774 -0.5774
vn 0.5124 0.6592 -0.5504
vn 0.6963 0.6624 -0.2763
vn -0.6119 0.7564 0.2311
vt 0.007609 0.184147
vt 0.030423 0.120765
vt 0.074346 0.199137
vt 0.000000 0.257272
vt 0.068710 0.257272
vt 0.067180 0.069099
vt 0.091242 0.149215
vt 0.155831 0.079070
vt 0.118672 0.108781
vt 0.116659 0.031121
vt 0.153832 0.488121
vt 0.182899 0.437125
vt 0.267297 0.504184
vt 0.120054 0.400221
vt 0.365691 0.449431
vt 0.268719 0.449431
vt 0.245463 0.000000
vt 0.434039 0.000000
vt 0.365691 0.054740
vt 0.176780 0.007770
vt 0.201244 0.060819
vt 0.253340 0.054740
vt 0.434039 0.504184
vt 0.069609 0.439943
vt 0.081539 0.339885
vt 0.017406 0.362162
vt 0.793731 0.199137
vt 0.837655 0.120765
vt 0.860468 0.184147
vt 0.799368 0.257272
vt 0.868077 0.257272
vt 0.776836 0.149215
vt 0.800898 0.069099
vt 0.751418 0.031121
vt 0.749406 0.108781
vt 0.712246 0.079070
vt 0.600780 0.504184
vt 0.685178 0.437125
vt 0.714245 0.488121
vt 0.748023 0.400221
vt 0.599358 0.449431
vt 0.502386 0.449431
vt 0.502386 0.054740
vt 0.434039 0.000000
vt 0.622615 0.000000
vt 0.666833 0.060819
vt 0.691297 0.007770
vt 0.614737 0.054740
vt 0.434039 0.504184
vt 0.798469 0.439943
vt 0.850672 0.362162
vt 0.786538 0.339885
vt 0.527691 0.820485
vt 0.395768 0.761093
vt 0.527691 0.761093
vt 0.395768 0.820485
vt 0.527691 0.868799
vt 0.395768 0.868799
vt 0.263845 0.558324
vt 0.131923 0.504184
vt 0.263845 0.504184
vt 0.131923 0.558324
vt 0.263845 0.623163
vt 0.131923 0.623163
vt 0.263845 0.696643
vt 0.131923 0.696643
vt 0.263845 0.800037
vt 0.131923 0.800037
vt 0.263845 0.873926
vt 0.131923 0.873926
vt 0.395768 0.589612
vt 0.263845 0.504184
vt 0.395768 0.504184
vt 0.263845 0.589612
vt 0.395768 0.703451
vt 0.263845 0.703451
vt 0.395768 0.870138
vt 0.263845 0.870138
vt 1.000000 0.503353
vt 0.868077 0.000000
vt 1.000000 0.000000
vt 0.868077 0.503353
vt 0.527691 0.692675
vt 0.395768 0.504184
vt 0.527691 0.504184
vt 0.395768 0.692675
vt 0.131923 0.897885
vt 0.000000 0.897885
vt 0.131923 0.504184
vt -0.000000 0.504184
vt 0.791536 0.601112
vt 0.659613 0.601112
vt 0.791536 0.504184
vt 0.659613 0.504184
vt 0.791536 0.687264
vt 0.659613 0.687264
vt 0.791536 0.751191
vt 0.659613 0.751191
vt 0.659613 0.566631
vt 0.527691 0.566631
vt 0.659613 0.504184
vt 0.659613 0.649844
vt 0.527691 0.649844
vt 0.659613 0.707560
vt 0.527691 0.707560
vt 0.659613 0.756429
vt 0.527691 0.756429
vt 0.659613 0.795222
vt 0.527691 0.795222
vt 0.923459 0.540572
vt 0.791536 0.540572
vt 0.923459 0.504184
vt 0.791536 0.504184
vt 0.923459 0.585503
vt 0.791536 0.585503
vt 0.923459 0.637426
vt 0.791536 0.637426
vt 0.923459 0.749740
vt 0.791536 0.749740
s 1
f 1/1/1 2/2/2 3/3/3
f 4/4/4 3/3/3 5/5/5
f 2/2/2 6/6/6 7/7/7
f 8/8/8 9/9/9 10/10/10
f 11/11/11 12/12/12 13/13/13
f 11/11/11 14/14/14 12/12/12
f 15/15/15 13/13/13 16/16/16
f 17/17/17 18/18/18 19/19/19
f 20/20/20 17/17/17 21/21/21
f 22/22/22 17/17/17 19/19/19
f 19/19/19 18/18/18 15/15/15
f 13/13/13 15/15/15 23/23/23
f 15/15/15 18/18/18 23/23/23
f 16/16/16 13/13/13 12/12/12
f 11/11/11 24/24/24 14/14/14
f 25/25/25 24/24/24 26/26/26
f 14/14/14 24/24/24 25/25/25
f 5/5/5 25/25/25 4/4/4
f 25/25/25 26/26/26 4/4/4
f 4/4/4 1/1/1 3/3/3
f 3/3/3 2/2/2 7/7/7
f 7/7/7 6/6/6 9/9/9
f 9/9/9 6/6/6 10/10/10
f 8/8/8 10/10/10 20/20/20
f 22/22/22 21/21/21 17/17/17
f 21/21/21 8/8/8 20/20/20
f 27/27/27 28/28/28 29/29/29
f 30/30/30 27/27/27 31/31/31
f 32/32/32 33/33/33 28/28/28
f 34/34/34 35/35/35 36/36/36
f 37/37/37 38/38/38 39/39/39
f 38/38/38 40/40/40 39/39/39
f 41/41/41 37/37/37 42/42/42
f 43/43/43 44/44/44 45/45/45
f 46/46/46 45/45/45 47/47/47
f 43/43/43 45/45/45 48/48/48
f 42/42/42 44/44/44 43/43/43
f 49/49/49 42/42/42 37/37/37
f 49/49/49 44/44/44 42/42/42
f 38/38/38 37/37/37 41/41/41
f 40/40/40 50/50/50 39/39/39
f 51/51/51 50/50/50 52/52/52
f 52/52/52 50/50/50 40/40/40
f 31/31/31 52/52/52 30/30/30
f 31/31/31 51/51/51 52/52/52
f 27/27/27 29/29/29 31/31/31
f 32/32/32 28/28/28 27/27/27
f 35/35/35 33/33/33 32/32/32
f 34/34/34 33/33/33 35/35/35
f 47/47/47 34/34/34 36/36/36
f 45/45/45 46/46/46 48/48/48
f 47/47/47 36/36/36 46/46/46
f 10/53/10 47/54/47 20/55/20
f 10/53/10 34/56/34 47/54/47
f 6/57/6 34/56/34 10/53/10
f 6/57/6 33/58/33 34/56/34
f 2/59/2 33/60/33 6/61/6
f 2/59/2 28/62/28 33/60/33
f 1/63/1 28/62/28 2/59/2
f 1/63/1 29/64/29 28/62/28
f 4/65/4 29/64/29 1/63/1
f 4/65/4 31/66/31 29/64/29
f 26/67/26 31/66/31 4/65/4
f 26/67/26 51/68/51 31/66/31
f 24/69/24 51/68/51 26/67/26
f 24/69/24 50/70/50 51/68/51
f 11/71/11 50/72/50 24/73/24
f 11/71/11 39/74/39 50/72/50
f 13/75/13 39/74/39 11/71/11
f 13/75/13 37/76/37 39/74/39
f 23/77/23 37/76/37 13/75/13
f 23/77/23 49/78/49 37/76/37
f 18/79/18 49/80/49 23/81/23
f 18/79/18 44/82/44 49/80/49
f 17/83/17 44/84/44 18/85/18
f 17/83/17 45/86/45 44/84/44
f 20/55/20 45/86/45 17/83/17
f 20/55/20 47/54/47 45/86/45
f 15/87/15 42/88/42 19/89/19
f 43/90/43 19/89/19 42/88/42
f 16/91/16 41/92/41 15/93/15
f 42/94/42 15/93/15 41/92/41
f 12/95/12 38/96/38 16/91/16
f 41/92/41 16/91/16 38/96/38
f 14/97/14 40/98/40 12/95/12
f 38/96/38 12/95/12 40/98/40
f 25/99/25 52/100/52 14/101/14
f 40/85/40 14/101/14 52/100/52
f 5/102/5 30/103/30 25/99/25
f 52/100/52 25/99/25 30/103/30
f 3/104/3 27/105/27 5/102/5
f 30/103/30 5/102/5 27/105/27
f 7/106/7 32/107/32 3/104/3
f 27/105/27 3/104/3 32/107/32
f 9/108/9 35/109/35 7/106/7
f 32/107/32 7/106/7 35/109/35
f 8/110/8 36/111/36 9/112/9
f 35/113/35 9/112/9 36/111/36
f 21/114/21 46/115/46 8/110/8
f 36/111/36 8/110/8 46/115/46
f 22/116/22 48/117/48 21/114/21
f 46/115/46 21/114/21 48/117/48
f 19/118/19 43/119/43 22/116/22
f 48/117/48 22/116/22 43/119/43
