# Blender 4.4.3
# www.blender.org
o D
v 0.182383 -0.075000 0.053388
v 0.156443 -0.075000 0.125455
v 0.106501 -0.075000 0.036344
v 0.191035 -0.075000 -0.029757
v 0.112910 -0.075000 -0.029757
v 0.114649 -0.075000 0.184202
v 0.087290 -0.075000 0.093107
v 0.013850 -0.075000 0.172864
v 0.056101 -0.075000 0.139082
v 0.058390 -0.075000 0.227384
v 0.016123 -0.075000 -0.292239
v -0.016927 -0.075000 -0.234255
v -0.112890 -0.075000 -0.310503
v 0.054530 -0.075000 -0.192294
v -0.224767 -0.075000 -0.248248
v -0.114507 -0.075000 -0.248248
v -0.088064 -0.075000 0.262769
v -0.302480 -0.075000 0.262769
v -0.224767 -0.075000 0.200529
v -0.009969 -0.075000 0.253934
v -0.037786 -0.075000 0.193616
v -0.097021 -0.075000 0.200529
v -0.302480 -0.075000 -0.310503
v 0.111887 -0.075000 -0.237460
v 0.098322 -0.075000 -0.123690
v 0.171244 -0.075000 -0.149020
v 0.106501 0.075000 0.036344
v 0.156443 0.075000 0.125455
v 0.182383 0.075000 0.053388
v 0.112910 0.075000 -0.029757
v 0.191035 0.075000 -0.029757
v 0.087290 0.075000 0.093107
v 0.114649 0.075000 0.184202
v 0.058390 0.075000 0.227384
v 0.056101 0.075000 0.139082
v 0.013850 0.075000 0.172864
v -0.112890 0.075000 -0.310503
v -0.016927 0.075000 -0.234255
v 0.016123 0.075000 -0.292239
v 0.054530 0.075000 -0.192294
v -0.114507 0.075000 -0.248248
v -0.224767 0.075000 -0.248248
v -0.224767 0.075000 0.200529
v -0.302480 0.075000 0.262769
v -0.088064 0.075000 0.262769
v -0.037786 0.075000 0.193616
v -0.009969 0.075000 0.253934
v -0.097021 0.075000 0.200529
v -0.302480 0.075000 -0.310503
v 0.111887 0.075000 -0.237460
v 0.171244 0.075000 -0.149020
v 0.098322 0.075000 -0.123690
vn 0.7139 -0.6810 0.1631
vn 0.6515 -0.6778 0.3408
vn -0.6642 -0.7339 -0.1426
vn 0.7345 -0.6782 -0.0223
vn -0.6763 -0.7364 0.0194
vn 0.5310 -0.6752 0.5120
vn -0.6036 -0.7387 -0.3000
vn -0.3383 -0.7414 -0.5796
vn -0.4920 -0.7424 -0.4548
vn 0.3611 -0.6766 0.6417
vn 0.2415 -0.6671 -0.7048
vn -0.2173 -0.7533 0.6208
vn 0.0507 -0.6916 -0.7205
vn -0.4479 -0.7637 0.4649
vn 0.3015 -0.9045 0.3015
vn -0.0491 -0.7235 0.6886
vn 0.0405 -0.6947 0.7182
vn -0.5773 -0.5774 0.5774
vn 0.3015 -0.9045 -0.3015
vn 0.1756 -0.6793 0.7126
vn -0.1663 -0.7382 -0.6537
vn -0.0403 -0.7204 -0.6924
vn -0.5773 -0.5774 -0.5774
vn 0.5124 -0.6592 -0.5504
vn -0.6119 -0.7564 0.2311
vn 0.6963 -0.6624 -0.2763
vn -0.6642 0.7339 -0.1426
vn 0.6515 0.6778 0.3408
vn 0.7139 0.6810 0.1631
vn -0.6763 0.7364 0.0194
vn 0.7345 0.6782 -0.0223
vn -0.6036 0.7387 -0.3000
vn 0.5310 0.6752 0.5120
vn 0.3611 0.6766 0.6417
vn -0.4919 0.7424 -0.4548
vn -0.3383 0.7414 -0.5796
vn 0.0507 0.6916 -0.7205
vn -0.2173 0.7533 0.6208
vn 0.2415 0.6671 -0.7048
vn -0.4480 0.7637 0.4649
vn -0.0491 0.7235 0.6886
vn 0.3015 0.9045 0.3015
vn 0.3015 0.9045 -0.3015
vn -0.5773 0.5774 0.5774
vn 0.0405 0.6947 0.7182
vn -0.1663 0.7382 -0.6537
vn 0.1755 0.6793 0.7126
vn -0.0403 0.7204 -0.6924
vn -0.5773 0.5774 -0.5774
vn 0.5124 0.6592 -0.5504
vn 0.6963 0.6624 -0.2763
vn -0.6119 0.7564 0.2311
s 1
f 1//1 2//2 3//3
f 4//4 3//3 5//5
f 2//2 6//6 7//7
f 8//8 9//9 10//10
f 11//11 12//12 13//13
f 11//11 14//14 12//12
f 15//15 13//13 16//16
f 17//17 18//18 19//19
f 20//20 17//17 21//21
f 22//22 17//17 19//19
f 19//19 18//18 15//15
f 13//13 15//15 23//23
f 15//15 18//18 23//23
f 16//16 13//13 12//12
f 11//11 24//24 14//14
f 25//25 24//24 26//26
f 14//14 24//24 25//25
f 5//5 25//25 4//4
f 25//25 26//26 4//4
f 4//4 1//1 3//3
f 3//3 2//2 7//7
f 7//7 6//6 9//9
f 9//9 6//6 10//10
f 8//8 10//10 20//20
f 22//22 21//21 17//17
f 21//21 8//8 20//20
f 27//27 28//28 29//29
f 30//30 27//27 31//31
f 32//32 33//33 28//28
f 34//34 35//35 36//36
f 37//37 38//38 39//39
f 38//38 40//40 39//39
f 41//41 37//37 42//42
f 43//43 44//44 45//45
f 46//46 45//45 47//47
f 43//43 45//45 48//48
f 42//42 44//44 43//43
f 49//49 42//42 37//37
f 49//49 44//44 42//42
f 38//38 37//37 41//41
f 40//40 50//50 39//39
f 51//51 50//50 52//52
f 52//52 50//50 40//40
f 31//31 52//52 30//30
f 31//31 51//51 52//52
f 27//27 29//29 31//31
f 32//32 28//28 27//27
f 35//35 33//33 32//32
f 34//34 33//33 35//35
f 47//47 34//34 36//36
f 45//45 46//46 48//48
f 47//47 36//36 46//46
f 10//10 47//47 20//20
f 10//10 34//34 47//47
f 6//6 34//34 10//10
f 6//6 33//33 34//34
f 2//2 33//33 6//6
f 2//2 28//28 33//33
f 1//1 28//28 2//2
f 1//1 29//29 28//28
f 4//4 29//29 1//1
f 4//4 31//31 29//29
f 26//26 31//31 4//4
f 26//26 51//51 31//31
f 24//24 51//51 26//26
f 24//24 50//50 51//51
f 11//11 50//50 24//24
f 11//11 39//39 50//50
f 13//13 39//39 11//11
f 13//13 37//37 39//39
f 23//23 37//37 13//13
f 23//23 49//49 37//37
f 18//18 49//49 23//23
f 18//18 44//44 49//49
f 17//17 44//44 18//18
f 17//17 45//45 44//44
f 20//20 45//45 17//17
f 20//20 47//47 45//45
f 15//15 42//42 19//19
f 43//43 19//19 42//42
f 16//16 41//41 15//15
f 42//42 15//15 41//41
f 12//12 38//38 16//16
f 41//41 16//16 38//38
f 14//14 40//40 12//12
f 38//38 12//12 40//40
f 25//25 52//52 14//14
f 40//40 14//14 52//52
f 5//5 30//30 25//25
f 52//52 25//25 30//30
f 3//3 27//27 5//5
f 30//30 5//5 27//27
f 7//7 32//32 3//3
f 27//27 3//3 32//32
f 9//9 35//35 7//7
f 32//32 7//7 35//35
f 8//8 36//36 9//9
f 35//35 9//9 36//36
f 21//21 46//46 8//8
f 36//36 8//8 46//46
f 22//22 48//48 21//21
f 46//46 21//21 48//48
f 19//19 43//43 22//22
f 48//48 22//22 43//43
