# Blender 4.4.3
# www.blender.org
g Db_Mesh
v 0.216675 -0.075000 -0.210585
v 0.197968 -0.075000 -0.154036
v 0.171051 -0.075000 -0.206008
v 0.289047 -0.075000 -0.196563
v 0.245255 -0.075000 -0.144072
v 0.077927 -0.075000 -0.131667
v 0.079559 -0.075000 -0.131667
v 0.107834 -0.075000 -0.111724
v 0.103210 -0.075000 -0.167968
v 0.144501 -0.075000 -0.143462
v 0.133469 -0.075000 -0.192275
v 0.277298 -0.075000 -0.114165
v 0.005707 -0.075000 0.204103
v 0.078751 -0.075000 0.169404
v 0.078339 -0.075000 0.185334
v 0.006317 -0.075000 0.147035
v 0.086472 -0.075000 0.097856
v 0.079147 -0.075000 -0.165130
v 0.006317 -0.075000 -0.366027
v 0.079559 -0.075000 -0.193908
v 0.079559 -0.075000 -0.366027
v 0.075699 -0.075000 0.228257
v 0.003876 -0.075000 0.237764
v -0.110214 -0.075000 0.100450
v -0.160141 -0.075000 0.011338
v -0.084274 -0.075000 0.028382
v 0.338135 -0.075000 0.188325
v 0.244797 -0.075000 0.181565
v 0.277100 -0.075000 0.150895
v 0.074677 -0.075000 0.237764
v 0.077118 -0.075000 0.207856
v 0.170853 -0.075000 0.241380
v 0.133469 -0.075000 0.227800
v 0.143539 -0.075000 0.181459
v 0.107224 -0.075000 0.150483
v 0.079559 -0.075000 0.169404
v 0.103409 -0.075000 0.204148
v 0.197144 -0.075000 0.191789
v 0.216675 -0.075000 0.245896
v 0.295563 -0.075000 0.097245
v 0.301712 -0.075000 0.018052
v 0.378616 -0.075000 0.015611
v 0.086624 -0.075000 -0.056990
v 0.079559 -0.075000 0.022523
v 0.368805 -0.075000 -0.083846
v 0.295609 -0.075000 -0.061171
v 0.339355 -0.075000 -0.154448
v -0.250519 -0.075000 -0.317244
v -0.212128 -0.075000 -0.217299
v -0.283585 -0.075000 -0.259276
v -0.152008 -0.075000 0.159196
v -0.179367 -0.075000 0.068101
v -0.075638 -0.075000 -0.054763
v -0.153732 -0.075000 -0.054763
v -0.252808 -0.075000 0.147844
v -0.210541 -0.075000 0.114076
v -0.208252 -0.075000 0.202378
v -0.379547 -0.075000 -0.335509
v -0.491440 -0.075000 -0.273253
v -0.381180 -0.075000 -0.273253
v -0.354736 -0.075000 0.237764
v -0.569153 -0.075000 0.237764
v -0.491440 -0.075000 0.175523
v -0.276611 -0.075000 0.228913
v -0.304428 -0.075000 0.168595
v -0.363678 -0.075000 0.175523
v -0.569153 -0.075000 -0.335509
v -0.154755 -0.075000 -0.262465
v -0.168335 -0.075000 -0.148696
v -0.095413 -0.075000 -0.174025
v 0.171051 0.075000 -0.206008
v 0.197968 0.075000 -0.154036
v 0.216675 0.075000 -0.210585
v 0.245255 0.075000 -0.144072
v 0.289047 0.075000 -0.196563
v 0.107834 0.075000 -0.111724
v 0.079559 0.075000 -0.131667
v 0.077927 0.075000 -0.131667
v 0.103210 0.075000 -0.167968
v 0.133469 0.075000 -0.192275
v 0.144501 0.075000 -0.143462
v 0.277298 0.075000 -0.114165
v 0.078339 0.075000 0.185334
v 0.078751 0.075000 0.169404
v 0.005707 0.075000 0.204103
v 0.086472 0.075000 0.097856
v 0.006317 0.075000 0.147035
v 0.079559 0.075000 -0.193908
v 0.006317 0.075000 -0.366027
v 0.079147 0.075000 -0.165130
v 0.079559 0.075000 -0.366027
v 0.003876 0.075000 0.237764
v 0.075699 0.075000 0.228257
v -0.084274 0.075000 0.028382
v -0.160141 0.075000 0.011338
v -0.110214 0.075000 0.100450
v 0.277100 0.075000 0.150895
v 0.244797 0.075000 0.181565
v 0.338135 0.075000 0.188325
v 0.074677 0.075000 0.237764
v 0.077118 0.075000 0.207856
v 0.143539 0.075000 0.181459
v 0.133469 0.075000 0.227800
v 0.170853 0.075000 0.241380
v 0.107224 0.075000 0.150483
v 0.079559 0.075000 0.169404
v 0.103409 0.075000 0.204148
v 0.197144 0.075000 0.191789
v 0.216675 0.075000 0.245896
v 0.378616 0.075000 0.015611
v 0.301712 0.075000 0.018052
v 0.295563 0.075000 0.097245
v 0.086624 0.075000 -0.056990
v 0.079559 0.075000 0.022523
v 0.295609 0.075000 -0.061171
v 0.368805 0.075000 -0.083846
v 0.339355 0.075000 -0.154448
v -0.283585 0.075000 -0.259276
v -0.212128 0.075000 -0.217299
v -0.250519 0.075000 -0.317244
v -0.179367 0.075000 0.068101
v -0.152008 0.075000 0.159196
v -0.153732 0.075000 -0.054763
v -0.075638 0.075000 -0.054763
v -0.208252 0.075000 0.202378
v -0.210541 0.075000 0.114076
v -0.252808 0.075000 0.147844
v -0.379547 0.075000 -0.335509
v -0.381180 0.075000 -0.273253
v -0.491440 0.075000 -0.273253
v -0.491440 0.075000 0.175523
v -0.569153 0.075000 0.237764
v -0.354736 0.075000 0.237764
v -0.304428 0.075000 0.168595
v -0.276611 0.075000 0.228913
v -0.363678 0.075000 0.175523
v -0.569153 0.075000 -0.335509
v -0.154755 0.075000 -0.262465
v -0.095413 0.075000 -0.174025
v -0.168335 0.075000 -0.148696
vn 0.0337 -0.6759 -0.7363
vn -0.0041 -0.7551 0.6556
vn -0.1637 -0.6801 -0.7146
vn 0.3247 -0.6549 -0.6824
vn -0.2927 -0.7728 0.5632
vn 0.3004 -0.9088 -0.2896
vn -0.2647 -0.8316 -0.4883
vn 0.5259 -0.7657 0.3703
vn -0.5481 -0.6733 -0.4962
vn 0.2803 -0.7696 0.5738
vn -0.3637 -0.6723 -0.6448
vn -0.5394 -0.7657 0.3505
vn -0.7018 -0.7120 -0.0228
vn 0.3021 -0.9015 0.3100
vn 0.7097 -0.7039 0.0284
vn -0.7059 -0.7083 -0.0038
vn 0.6539 -0.7404 -0.1556
vn 0.7093 -0.7046 0.0180
vn -0.5774 -0.5773 -0.5774
vn 0.7087 -0.7055 0.0051
vn 0.5774 -0.5773 -0.5773
vn 0.7085 -0.7029 0.0627
vn -0.5942 -0.5745 0.5628
vn 0.6515 -0.6778 0.3408
vn -0.6641 -0.7339 -0.1427
vn 0.7140 -0.6809 0.1630
vn 0.6097 -0.6212 0.4923
vn -0.2958 -0.7734 -0.5607
vn -0.5420 -0.7647 -0.3485
vn 0.5428 -0.5832 0.6043
vn 0.7075 -0.7054 0.0438
vn -0.1624 -0.6801 0.7149
vn -0.3594 -0.6731 0.6463
vn 0.2769 -0.7693 -0.5758
vn 0.5233 -0.7659 -0.3737
vn -0.2610 -0.8284 0.4957
vn -0.5386 -0.6747 0.5046
vn -0.0069 -0.7549 -0.6558
vn 0.1300 -0.6516 0.7473
vn -0.6621 -0.7368 -0.1373
vn -0.6889 -0.7249 -0.0002
vn 0.7389 -0.6721 0.0488
vn 0.6550 -0.7400 0.1528
vn 0.6857 -0.7279 -0.0010
vn 0.7152 -0.6753 -0.1802
vn -0.6618 -0.7370 0.1375
vn 0.6068 -0.6574 -0.4467
vn 0.2415 -0.6671 -0.7048
vn -0.4480 -0.7637 0.4649
vn -0.2173 -0.7533 0.6208
vn 0.5310 -0.6752 0.5120
vn -0.6037 -0.7386 -0.3000
vn 0.7345 -0.6783 -0.0223
vn -0.6763 -0.7364 0.0195
vn -0.3382 -0.7414 -0.5797
vn -0.4919 -0.7425 -0.4548
vn 0.3611 -0.6766 0.6418
vn 0.0507 -0.6916 -0.7205
vn 0.3015 -0.9045 0.3015
vn -0.0491 -0.7234 0.6886
vn 0.0406 -0.6946 0.7182
vn -0.5773 -0.5774 0.5774
vn 0.3015 -0.9045 -0.3015
vn 0.1755 -0.6793 0.7125
vn -0.1664 -0.7382 -0.6537
vn -0.0403 -0.7204 -0.6924
vn -0.5773 -0.5774 -0.5774
vn 0.5124 -0.6592 -0.5504
vn -0.6119 -0.7564 0.2311
vn 0.6964 -0.6624 -0.2762
vn -0.1637 0.6801 -0.7146
vn -0.0041 0.7551 0.6556
vn 0.0337 0.6759 -0.7363
vn -0.2927 0.7728 0.5632
vn 0.3247 0.6549 -0.6824
vn 0.5259 0.7657 0.3703
vn -0.2647 0.8315 -0.4883
vn 0.3004 0.9088 -0.2896
vn -0.5481 0.6733 -0.4962
vn -0.3637 0.6723 -0.6448
vn 0.2802 0.7696 0.5738
vn -0.5394 0.7657 0.3505
vn 0.7097 0.7039 0.0284
vn 0.3020 0.9015 0.3100
vn -0.7018 0.7120 -0.0228
vn 0.6539 0.7404 -0.1556
vn -0.7059 0.7083 -0.0038
vn 0.7087 0.7055 0.0051
vn -0.5773 0.5773 -0.5774
vn 0.7094 0.7046 0.0180
vn 0.5774 0.5774 -0.5773
vn -0.5943 0.5745 0.5628
vn 0.7085 0.7029 0.0627
vn 0.7140 0.6809 0.1630
vn -0.6641 0.7339 -0.1427
vn 0.6515 0.6778 0.3408
vn -0.5420 0.7647 -0.3485
vn -0.2958 0.7734 -0.5607
vn 0.6097 0.6212 0.4923
vn 0.5428 0.5832 0.6043
vn 0.7075 0.7054 0.0438
vn 0.2769 0.7693 -0.5758
vn -0.3594 0.6731 0.6463
vn -0.1624 0.6801 0.7149
vn 0.5233 0.7659 -0.3736
vn -0.2610 0.8284 0.4957
vn -0.5386 0.6747 0.5046
vn -0.0069 0.7549 -0.6558
vn 0.1300 0.6516 0.7473
vn 0.7389 0.6721 0.0488
vn -0.6889 0.7249 -0.0002
vn -0.6621 0.7368 -0.1373
vn 0.6550 0.7400 0.1528
vn 0.6856 0.7279 -0.0010
vn -0.6618 0.7370 0.1374
vn 0.7152 0.6753 -0.1801
vn 0.6068 0.6574 -0.4467
vn -0.2173 0.7533 0.6208
vn -0.4480 0.7637 0.4649
vn 0.2415 0.6671 -0.7048
vn -0.6037 0.7386 -0.3000
vn 0.5310 0.6752 0.5120
vn -0.6763 0.7364 0.0195
vn 0.7345 0.6783 -0.0223
vn 0.3611 0.6766 0.6418
vn -0.4918 0.7425 -0.4548
vn -0.3382 0.7414 -0.5797
vn 0.0507 0.6916 -0.7205
vn -0.0491 0.7234 0.6886
vn 0.3015 0.9045 0.3015
vn 0.3015 0.9045 -0.3015
vn -0.5773 0.5774 0.5774
vn 0.0405 0.6946 0.7182
vn -0.1664 0.7382 -0.6537
vn 0.1755 0.6793 0.7125
vn -0.0403 0.7204 -0.6923
vn -0.5773 0.5774 -0.5774
vn 0.5124 0.6592 -0.5504
vn 0.6964 0.6624 -0.2762
vn -0.6119 0.7564 0.2311
vt 0.370950 0.315506
vt 0.383722 0.276369
vt 0.402471 0.312215
vt 0.320889 0.306017
vt 0.351010 0.269614
vt 0.466628 0.260573
vt 0.465499 0.260577
vt 0.445901 0.246872
vt 0.449254 0.285733
vt 0.420647 0.268911
vt 0.428408 0.302618
vt 0.328779 0.249033
vt 0.515605 0.028297
vt 0.465217 0.052484
vt 0.465457 0.041472
vt 0.515343 0.067742
vt 0.460080 0.101957
vt 0.465877 0.283704
vt 0.516777 0.422355
vt 0.465673 0.303596
vt 0.466154 0.422559
vt 0.467162 0.011798
vt 0.516777 0.005026
vt 0.023898 0.517467
vt 0.058406 0.579059
vt 0.005969 0.567279
vt 0.285885 0.040131
vt 0.350417 0.044542
vt 0.328176 0.065831
vt 0.467842 0.005224
vt 0.466238 0.025902
vt 0.401357 0.002994
vt 0.427234 0.012275
vt 0.420403 0.044333
vt 0.445590 0.065641
vt 0.464658 0.052486
vt 0.448077 0.028538
vt 0.383325 0.037343
vt 0.369674 0.000000
vt 0.315564 0.102964
vt 0.311536 0.157717
vt 0.258388 0.159619
vt 0.460407 0.208983
vt 0.465068 0.154006
vt 0.265448 0.228333
vt 0.315976 0.212457
vt 0.286000 0.277049
vt 0.120873 0.806167
vt 0.094338 0.737088
vt 0.143728 0.766101
vt 0.052785 0.476863
vt 0.071695 0.539826
vt 0.000000 0.624746
vt 0.053977 0.624746
vt 0.122455 0.484710
vt 0.093242 0.508049
vt 0.091660 0.447017
vt 0.210055 0.818791
vt 0.287392 0.775762
vt 0.211183 0.775762
vt 0.192906 0.422559
vt 0.341105 0.422559
vt 0.287392 0.465579
vt 0.138908 0.428676
vt 0.158134 0.470367
vt 0.199086 0.465579
vt 0.341105 0.818791
vt 0.054684 0.768305
vt 0.064070 0.689671
vt 0.013668 0.707178
vt 0.114306 0.312215
vt 0.133055 0.276369
vt 0.145827 0.315506
vt 0.165767 0.269614
vt 0.195888 0.306017
vt 0.070876 0.246872
vt 0.051278 0.260577
vt 0.050149 0.260573
vt 0.067523 0.285733
vt 0.088369 0.302618
vt 0.096130 0.268911
vt 0.187998 0.249033
vt 0.051320 0.041472
vt 0.051560 0.052484
vt 0.001172 0.028297
vt 0.056697 0.101957
vt 0.001434 0.067742
vt 0.051104 0.303596
vt -0.000000 0.422355
vt 0.050899 0.283704
vt 0.050623 0.422559
vt 0.000000 0.005026
vt 0.049615 0.011798
vt 0.676241 0.567279
vt 0.623804 0.579059
vt 0.658312 0.517467
vt 0.188601 0.065831
vt 0.166360 0.044542
vt 0.230892 0.040131
vt 0.048935 0.005224
vt 0.050539 0.025902
vt 0.096374 0.044333
vt 0.089543 0.012275
vt 0.115419 0.002994
vt 0.071187 0.065641
vt 0.052119 0.052486
vt 0.068700 0.028538
vt 0.133452 0.037343
vt 0.147103 0.000000
vt 0.258388 0.159619
vt 0.205241 0.157717
vt 0.201212 0.102964
vt 0.056369 0.208983
vt 0.051709 0.154006
vt 0.200801 0.212457
vt 0.251329 0.228333
vt 0.230777 0.277049
vt 0.538483 0.766101
vt 0.587872 0.737088
vt 0.561337 0.806167
vt 0.610516 0.539826
vt 0.629425 0.476863
vt 0.628234 0.624746
vt 0.682211 0.624746
vt 0.590551 0.447017
vt 0.588969 0.508049
vt 0.559755 0.484710
vt 0.472156 0.818791
vt 0.471028 0.775762
vt 0.394819 0.775762
vt 0.394819 0.465579
vt 0.489305 0.422559
vt 0.524077 0.470367
vt 0.543303 0.428676
vt 0.483124 0.465579
vt 0.627527 0.768305
vt 0.668542 0.707178
vt 0.618141 0.689671
vt 0.889563 0.829859
vt 0.785887 0.709993
vt 0.889563 0.709993
vt 0.785887 0.829859
vt 0.889563 0.898466
vt 0.785887 0.898466
vt 0.889563 0.946885
vt 0.785887 0.946885
vt 0.207353 0.853272
vt 0.103676 0.818791
vt 0.207353 0.818791
vt 0.103676 0.853272
vt 0.207353 0.903195
vt 0.103676 0.903195
vt 0.207353 0.934759
vt 0.103676 0.934759
vt 0.207353 0.960828
vt 0.103676 0.960828
vt 0.207353 0.981908
vt 0.103676 0.981908
vt 0.561547 0.922468
vt 0.586339 0.818791
vt 0.586339 0.922468
vt 0.561547 0.818791
vt 0.610646 0.922468
vt 0.611775 0.818791
vt 0.611775 0.922468
vt 0.610646 0.818791
vt 0.414705 0.841931
vt 0.311029 0.818791
vt 0.414705 0.818791
vt 0.311029 0.841931
vt 0.414705 0.861824
vt 0.311029 0.861824
vt 0.414705 0.980769
vt 0.311029 0.980769
vt 0.414705 0.922468
vt 0.465326 0.818791
vt 0.465326 0.922468
vt 0.414705 0.818791
vt 0.620453 0.354558
vt 0.516777 -0.000000
vt 0.620453 -0.000000
vt 0.516777 0.354558
vt 0.620453 0.393988
vt 0.516777 0.393988
vt 0.620453 0.417227
vt 0.516777 0.417227
vt 0.465326 0.922468
vt 0.514256 0.818791
vt 0.514256 0.922468
vt 0.465326 0.818791
vt 0.554965 0.922468
vt 0.561547 0.818791
vt 0.561547 0.922468
vt 0.554965 0.818791
vt 0.540849 0.922468
vt 0.540849 0.818791
vt 0.525269 0.922468
vt 0.525269 0.818791
vt 0.611775 0.922468
vt 0.612334 0.818791
vt 0.612334 0.922468
vt 0.611775 0.818791
vt 0.311029 0.839822
vt 0.207353 0.818791
vt 0.207353 0.839822
vt 0.311029 0.865805
vt 0.207353 0.865805
vt 0.311029 0.897521
vt 0.207353 0.897521
vt 0.311029 0.980837
vt 0.207353 0.980837
vt 0.827806 0.408764
vt 0.724130 0.408764
vt 0.827806 0.383878
vt 0.724130 0.383878
vt 0.103676 0.854899
vt 0.000000 0.854899
vt 0.103676 0.818791
vt -0.000000 0.818791
vt 0.103676 0.906871
vt 0.000000 0.906871
vt 0.103676 0.961909
vt 0.000000 0.961909
vt 0.103676 1.000000
vt 0.000000 1.000000
vt 0.931482 0.316355
vt 0.827806 0.316355
vt 0.931482 0.291359
vt 0.827806 0.291359
vt 0.931482 0.353191
vt 0.827806 0.353191
vt 0.931482 0.385978
vt 0.827806 0.385978
vt 0.931482 0.408447
vt 0.827806 0.408447
vt 0.993240 0.847609
vt 0.889563 0.847609
vt 0.993240 0.810759
vt 0.889563 0.810759
vt 0.993240 0.902433
vt 0.889563 0.902433
vt 0.993240 0.957084
vt 0.889563 0.957084
vt 0.993240 0.993930
vt 0.889563 0.993930
vt 0.827806 0.313895
vt 0.724130 0.313895
vt 0.827806 0.291359
vt 0.724130 0.291359
vt 0.827806 0.346901
vt 0.724130 0.346901
vt 0.889563 0.671591
vt 0.785887 0.624636
vt 0.889563 0.624636
vt 0.785887 0.671591
vt 0.889563 0.709993
vt 0.785887 0.709993
vt 0.827806 0.041124
vt 0.724130 0.000000
vt 0.827806 0.000000
vt 0.724130 0.041124
vt 0.827806 0.091254
vt 0.724130 0.091254
vt 0.827806 0.148821
vt 0.724130 0.148821
vt 0.827806 0.230990
vt 0.724130 0.230990
vt 0.724130 0.291359
vt 0.931482 0.065810
vt 0.827806 -0.000000
vt 0.931482 -0.000000
vt 0.827806 0.065810
vt 0.931482 0.154861
vt 0.827806 0.154861
vt 0.931482 0.285906
vt 0.827806 0.285906
vt 0.724129 0.396168
vt 0.620453 -0.000000
vt 0.724129 -0.000000
vt 0.620453 0.396168
vt 0.889563 0.570741
vt 0.785887 0.422559
vt 0.889563 0.422559
vt 0.785887 0.570741
vt 0.785887 0.732691
vt 0.682211 0.732691
vt 0.785887 0.422560
vt 0.682211 0.422560
vt 0.993240 0.693322
vt 0.889563 0.693322
vt 0.993240 0.617122
vt 0.889563 0.617122
vt 0.993240 0.760921
vt 0.889563 0.760921
vt 0.993240 0.810759
vt 0.889563 0.810759
vt 0.785887 0.780645
vt 0.682211 0.780645
vt 0.785887 0.732691
vt 0.682211 0.732691
vt 0.785887 0.845741
vt 0.682211 0.845741
vt 0.785887 0.891341
vt 0.682211 0.891341
vt 0.785887 0.930328
vt 0.682211 0.930328
vt 0.785887 0.961712
vt 0.682211 0.961712
vt 0.993240 0.452004
vt 0.889563 0.452004
vt 0.993240 0.422559
vt 0.889563 0.422559
vt 0.993240 0.487823
vt 0.889563 0.487823
vt 0.993240 0.528821
vt 0.889563 0.528821
vt 0.993240 0.617122
vt 0.889563 0.617123
s 1
f 1/1/1 2/2/2 3/3/3
f 4/4/4 5/5/5 1/1/1
f 6/6/6 7/7/7 8/8/8
f 8/8/8 7/7/7 9/9/9
f 3/3/3 10/10/10 11/11/11
f 4/4/4 12/12/12 5/5/5
f 13/13/13 14/14/14 15/15/15
f 14/14/14 16/16/16 17/17/17
f 18/18/18 19/19/19 20/20/20
f 20/20/20 19/19/19 21/21/21
f 18/18/18 6/6/6 19/19/19
f 19/19/19 6/6/6 16/16/16
f 22/22/22 23/23/23 13/13/13
f 24/24/24 25/25/25 26/26/26
f 27/27/27 28/28/28 29/29/29
f 22/22/22 30/30/30 23/23/23
f 31/31/31 22/22/22 13/13/13
f 32/32/32 33/33/33 34/34/34
f 15/15/15 31/31/31 13/13/13
f 13/13/13 16/16/16 14/14/14
f 14/14/14 17/17/17 35/35/35
f 14/14/14 35/35/35 36/36/36
f 37/37/37 35/35/35 34/34/34
f 34/34/34 38/38/38 32/32/32
f 38/38/38 39/39/39 32/32/32
f 40/40/40 41/41/41 42/42/42
f 33/33/33 37/37/37 34/34/34
f 37/37/37 36/36/36 35/35/35
f 16/16/16 6/6/6 43/43/43
f 17/17/17 16/16/16 44/44/44
f 44/44/44 16/16/16 43/43/43
f 8/8/8 43/43/43 6/6/6
f 45/45/45 42/42/42 46/46/46
f 10/10/10 9/9/9 11/11/11
f 8/8/8 9/9/9 10/10/10
f 2/2/2 10/10/10 3/3/3
f 5/5/5 2/2/2 1/1/1
f 4/4/4 47/47/47 12/12/12
f 46/46/46 12/12/12 45/45/45
f 12/12/12 47/47/47 45/45/45
f 41/41/41 46/46/46 42/42/42
f 40/40/40 42/42/42 27/27/27
f 29/29/29 40/40/40 27/27/27
f 38/38/38 28/28/28 39/39/39
f 28/28/28 27/27/27 39/39/39
f 48/48/48 49/49/49 50/50/50
f 24/24/24 51/51/51 52/52/52
f 53/53/53 25/25/25 54/54/54
f 55/55/55 56/56/56 57/57/57
f 48/48/48 50/50/50 58/58/58
f 59/59/59 58/58/58 60/60/60
f 61/61/61 62/62/62 63/63/63
f 64/64/64 61/61/61 65/65/65
f 66/66/66 61/61/61 63/63/63
f 63/63/63 62/62/62 59/59/59
f 58/58/58 59/59/59 67/67/67
f 59/59/59 62/62/62 67/67/67
f 60/60/60 58/58/58 50/50/50
f 48/48/48 68/68/68 49/49/49
f 69/69/69 68/68/68 70/70/70
f 49/49/49 68/68/68 69/69/69
f 54/54/54 69/69/69 53/53/53
f 69/69/69 70/70/70 53/53/53
f 53/53/53 26/26/26 25/25/25
f 25/25/25 24/24/24 52/52/52
f 52/52/52 51/51/51 56/56/56
f 56/56/56 51/51/51 57/57/57
f 55/55/55 57/57/57 64/64/64
f 66/66/66 65/65/65 61/61/61
f 65/65/65 55/55/55 64/64/64
f 71/71/71 72/72/72 73/73/73
f 73/73/73 74/74/74 75/75/75
f 76/76/76 77/77/77 78/78/78
f 79/79/79 77/77/77 76/76/76
f 80/80/80 81/81/81 71/71/71
f 74/74/74 82/82/82 75/75/75
f 83/83/83 84/84/84 85/85/85
f 86/86/86 87/87/87 84/84/84
f 88/88/88 89/89/89 90/90/90
f 91/91/91 89/89/89 88/88/88
f 89/89/89 78/78/78 90/90/90
f 87/87/87 78/78/78 89/89/89
f 85/85/85 92/92/92 93/93/93
f 94/94/94 95/95/95 96/96/96
f 97/97/97 98/98/98 99/99/99
f 92/92/92 100/100/100 93/93/93
f 85/85/85 93/93/93 101/101/101
f 102/102/102 103/103/103 104/104/104
f 85/85/85 101/101/101 83/83/83
f 84/84/84 87/87/87 85/85/85
f 105/105/105 86/86/86 84/84/84
f 106/106/106 105/105/105 84/84/84
f 102/102/102 105/105/105 107/107/107
f 104/104/104 108/108/108 102/102/102
f 104/104/104 109/109/109 108/108/108
f 110/110/110 111/111/111 112/112/112
f 102/102/102 107/107/107 103/103/103
f 105/105/105 106/106/106 107/107/107
f 113/113/113 78/78/78 87/87/87
f 114/114/114 87/87/87 86/86/86
f 113/113/113 87/87/87 114/114/114
f 78/78/78 113/113/113 76/76/76
f 115/115/115 110/110/110 116/116/116
f 80/80/80 79/79/79 81/81/81
f 81/81/81 79/79/79 76/76/76
f 71/71/71 81/81/81 72/72/72
f 73/73/73 72/72/72 74/74/74
f 82/82/82 117/117/117 75/75/75
f 116/116/116 82/82/82 115/115/115
f 116/116/116 117/117/117 82/82/82
f 110/110/110 115/115/115 111/111/111
f 99/99/99 110/110/110 112/112/112
f 99/99/99 112/112/112 97/97/97
f 109/109/109 98/98/98 108/108/108
f 109/109/109 99/99/99 98/98/98
f 118/118/118 119/119/119 120/120/120
f 121/121/121 122/122/122 96/96/96
f 123/123/123 95/95/95 124/124/124
f 125/125/125 126/126/126 127/127/127
f 128/128/128 118/118/118 120/120/120
f 129/129/129 128/128/128 130/130/130
f 131/131/131 132/62/132 133/132/133
f 134/133/134 133/132/133 135/134/135
f 131/131/131 133/132/133 136/135/136
f 130/130/130 132/62/132 131/131/131
f 137/67/137 130/130/130 128/128/128
f 137/67/137 132/62/132 130/130/130
f 118/118/118 128/128/128 129/129/129
f 119/119/119 138/136/138 120/120/120
f 139/137/139 138/136/138 140/138/140
f 140/138/140 138/136/138 119/119/119
f 124/124/124 140/138/140 123/123/123
f 124/124/124 139/137/139 140/138/140
f 95/95/95 94/94/94 124/124/124
f 121/121/121 96/96/96 95/95/95
f 126/126/126 122/122/122 121/121/121
f 125/125/125 122/122/122 126/126/126
f 135/134/135 125/125/125 127/127/127
f 133/132/133 134/133/134 136/135/136
f 135/134/135 127/127/127 134/133/134
f 42/139/42 99/140/99 27/141/27
f 42/139/42 110/142/110 99/140/99
f 45/143/45 110/142/110 42/139/42
f 45/143/45 116/144/116 110/142/110
f 47/145/47 116/144/116 45/143/45
f 47/145/47 117/146/117 116/144/116
f 4/147/4 117/148/117 47/149/47
f 4/147/4 75/150/75 117/148/117
f 1/151/1 75/150/75 4/147/4
f 1/151/1 73/152/73 75/150/75
f 3/153/3 73/152/73 1/151/1
f 3/153/3 71/154/71 73/152/73
f 11/155/11 71/154/71 3/153/3
f 11/155/11 80/156/80 71/154/71
f 9/157/9 80/156/80 11/155/11
f 9/157/9 79/158/79 80/156/80
f 7/159/7 79/160/79 9/161/9
f 7/159/7 77/162/77 79/160/79
f 6/163/6 77/164/77 7/165/7
f 6/163/6 78/166/78 77/164/77
f 18/167/18 78/168/78 6/169/6
f 18/167/18 90/170/90 78/168/78
f 20/171/20 90/170/90 18/167/18
f 20/171/20 88/172/88 90/170/90
f 21/173/21 88/172/88 20/171/20
f 21/173/21 91/174/91 88/172/88
f 19/175/19 91/176/91 21/177/21
f 19/175/19 89/178/89 91/176/91
f 16/179/16 89/180/89 19/181/19
f 16/179/16 87/182/87 89/180/89
f 13/183/13 87/182/87 16/179/16
f 13/183/13 85/184/85 87/182/87
f 23/185/23 85/184/85 13/183/13
f 23/185/23 92/186/92 85/184/85
f 30/187/30 92/188/92 23/189/23
f 30/187/30 100/190/100 92/188/92
f 22/191/22 100/192/100 30/193/30
f 22/191/22 93/194/93 100/192/100
f 31/195/31 93/194/93 22/191/22
f 31/195/31 101/196/101 93/194/93
f 15/197/15 101/196/101 31/195/31
f 15/197/15 83/198/83 101/196/101
f 14/189/14 83/198/83 15/197/15
f 14/189/14 84/188/84 83/198/83
f 36/199/36 84/200/84 14/201/14
f 36/199/36 106/202/106 84/200/84
f 37/161/37 106/166/106 36/163/36
f 37/161/37 107/160/107 106/166/106
f 33/203/33 107/204/107 37/168/37
f 33/203/33 103/205/103 107/204/107
f 32/206/32 103/205/103 33/203/33
f 32/206/32 104/207/104 103/205/103
f 39/208/39 104/207/104 32/206/32
f 39/208/39 109/209/109 104/207/104
f 27/210/27 109/209/109 39/208/39
f 27/210/27 99/211/99 109/209/109
f 35/212/35 105/213/105 34/214/34
f 102/215/102 34/214/34 105/213/105
f 17/216/17 86/217/86 35/218/35
f 105/219/105 35/218/35 86/217/86
f 44/220/44 114/221/114 17/216/17
f 86/217/86 17/216/17 114/221/114
f 43/222/43 113/223/113 44/220/44
f 114/221/114 44/220/44 113/223/113
f 8/224/8 76/225/76 43/222/43
f 113/223/113 43/222/43 76/225/76
f 10/226/10 81/227/81 8/228/8
f 76/229/76 8/228/8 81/227/81
f 2/230/2 72/231/72 10/226/10
f 81/227/81 10/226/10 72/231/72
f 5/232/5 74/233/74 2/230/2
f 72/231/72 2/230/2 74/233/74
f 12/234/12 82/235/82 5/232/5
f 74/233/74 5/232/5 82/235/82
f 46/236/46 115/237/115 12/238/12
f 82/239/82 12/238/12 115/237/115
f 41/240/41 111/241/111 46/236/46
f 115/237/115 46/236/46 111/241/111
f 40/242/40 112/243/112 41/240/41
f 111/241/111 41/240/41 112/243/112
f 29/244/29 97/245/97 40/242/40
f 112/243/112 40/242/40 97/245/97
f 28/246/28 98/247/98 29/248/29
f 97/249/97 29/248/29 98/247/98
f 38/250/38 108/251/108 28/246/28
f 98/247/98 28/246/28 108/251/108
f 34/214/34 102/215/102 38/250/38
f 108/251/108 38/250/38 102/215/102
f 57/252/57 135/253/135 64/254/64
f 57/252/57 125/255/125 135/253/135
f 51/256/51 125/255/125 57/252/57
f 51/256/51 122/257/122 125/255/125
f 24/258/24 122/259/122 51/260/51
f 24/258/24 96/261/96 122/259/122
f 26/262/26 96/261/96 24/258/24
f 26/262/26 94/263/94 96/261/96
f 53/264/53 94/263/94 26/262/26
f 53/264/53 124/265/124 94/263/94
f 70/266/70 124/265/124 53/264/53
f 70/266/70 139/267/139 124/265/124
f 68/229/68 139/267/139 70/266/70
f 68/229/68 138/268/138 139/267/139
f 48/269/48 138/270/138 68/271/68
f 48/269/48 120/272/120 138/270/138
f 58/273/58 120/272/120 48/269/48
f 58/273/58 128/274/128 120/272/120
f 67/275/67 128/274/128 58/273/58
f 67/275/67 137/276/137 128/274/128
f 62/277/62 137/278/137 67/279/67
f 62/277/62 132/280/132 137/278/137
f 61/281/61 132/282/132 62/283/62
f 61/281/61 133/284/133 132/282/132
f 64/254/64 133/284/133 61/281/61
f 64/254/64 135/253/135 133/284/133
f 59/285/59 130/286/130 63/287/63
f 131/288/131 63/287/63 130/286/130
f 60/289/60 129/290/129 59/291/59
f 130/292/130 59/291/59 129/290/129
f 50/293/50 118/294/118 60/289/60
f 129/290/129 60/289/60 118/294/118
f 49/295/49 119/296/119 50/293/50
f 118/294/118 50/293/50 119/296/119
f 69/297/69 140/298/140 49/299/49
f 119/300/119 49/299/49 140/298/140
f 54/301/54 123/302/123 69/297/69
f 140/298/140 69/297/69 123/302/123
f 25/303/25 95/304/95 54/301/54
f 123/302/123 54/301/54 95/304/95
f 52/305/52 121/306/121 25/303/25
f 95/304/95 25/303/25 121/306/121
f 56/307/56 126/308/126 52/305/52
f 121/306/121 52/305/52 126/308/126
f 55/309/55 127/310/127 56/311/56
f 126/312/126 56/311/56 127/310/127
f 65/313/65 134/314/134 55/309/55
f 127/310/127 55/309/55 134/314/134
f 66/315/66 136/316/136 65/313/65
f 134/314/134 65/313/65 136/316/136
f 63/317/63 131/318/131 66/315/66
f 136/316/136 66/315/66 131/318/131
