# Blender 4.4.3
# www.blender.org
o E
g E_Mesh
v -0.242083 -0.075000 0.289276
v -0.242083 -0.075000 -0.283997
v -0.164370 -0.075000 0.026031
v -0.164370 -0.075000 0.225815
v 0.209531 -0.075000 0.225815
v 0.209531 -0.075000 0.289276
v -0.164370 -0.075000 -0.036606
v 0.168439 -0.075000 -0.036606
v 0.168439 -0.075000 0.026031
v -0.164370 -0.075000 -0.220520
v 0.192853 -0.075000 -0.283997
v 0.192853 -0.075000 -0.220520
v -0.164370 0.075000 0.026031
v -0.242083 0.075000 -0.283997
v -0.242083 0.075000 0.289276
v 0.209531 0.075000 0.289276
v 0.209531 0.075000 0.225815
v -0.164370 0.075000 0.225815
v -0.164370 0.075000 -0.036606
v 0.168439 0.075000 0.026031
v 0.168439 0.075000 -0.036606
v -0.164370 0.075000 -0.220520
v 0.192853 0.075000 -0.220520
v 0.192853 0.075000 -0.283997
vn -0.5773 -0.5774 0.5774
vn -0.5774 -0.5774 -0.5773
vn 0.3015 -0.9045 0.3015
vn 0.3015 -0.9045 -0.3015
vn 0.5773 -0.5774 -0.5774
vn 0.5774 -0.5774 0.5773
vn 0.3015 0.9045 0.3015
vn -0.5773 0.5774 -0.5774
vn -0.5774 0.5774 0.5773
vn 0.5773 0.5774 0.5774
vn 0.5774 0.5774 -0.5773
vn 0.3015 0.9045 -0.3015
vt 0.427632 0.000000
vt 0.427632 0.542830
vt 0.354046 0.249265
vt 0.354046 0.060091
vt 0.000000 0.060091
vt 0.000000 0.000000
vt 0.354046 0.308576
vt 0.038910 0.308576
vt 0.038910 0.249265
vt 0.354046 0.482724
vt 0.015792 0.542830
vt 0.015792 0.482724
vt 0.501218 0.249265
vt 0.855264 0.000000
vt 0.855264 0.060091
vt 0.501218 0.060091
vt 0.501218 0.308576
vt 0.816354 0.249265
vt 0.816354 0.308576
vt 0.501218 0.482724
vt 0.839472 0.482724
vt 0.839472 0.542830
vt 0.426103 0.896875
vt 0.284069 0.542830
vt 0.426103 0.542830
vt 0.284069 0.896875
vt 0.995769 0.732004
vt 0.853735 0.542830
vt 0.995769 0.542830
vt 0.853735 0.732004
vt 0.711701 0.857966
vt 0.569666 0.542830
vt 0.711701 0.542830
vt 0.569666 0.857966
vt 0.689863 1.000000
vt 0.749174 0.857966
vt 0.749174 1.000000
vt 0.689863 0.857966
vt 0.853735 0.857966
vt 0.711701 0.542830
vt 0.995769 0.906151
vt 0.853735 0.906151
vt 0.569666 0.881083
vt 0.427632 0.542830
vt 0.427632 0.881083
vt 0.569666 1.000000
vt 0.629772 0.857966
vt 0.629772 1.000000
vt 0.569666 0.857966
vt 0.284069 0.954669
vt 0.142034 0.542830
vt 0.142034 0.954669
vt 0.997298 0.542830
vt 0.855264 -0.000000
vt 0.997298 -0.000000
vt 0.855264 0.542830
vt 0.142034 0.970462
vt -0.000000 0.542830
vt 0.142034 0.542830
vt 0.000000 0.970462
s 1
f 1/1/1 2/2/2 3/3/3
f 4/4/4 5/5/5 6/6/6
f 3/3/3 2/2/2 7/7/4
f 4/4/4 6/6/6 1/1/1
f 7/7/4 8/8/5 9/9/6
f 3/3/3 7/7/4 9/9/6
f 7/7/4 2/2/2 10/10/3
f 10/10/3 11/11/5 12/12/6
f 10/10/3 2/2/2 11/11/5
f 4/4/4 1/1/1 3/3/3
f 13/13/7 14/2/8 15/1/9
f 16/14/10 17/15/11 18/16/12
f 19/17/12 14/2/8 13/13/7
f 15/1/9 16/14/10 18/16/12
f 20/18/10 21/19/11 19/17/12
f 20/18/10 19/17/12 13/13/7
f 22/20/7 14/2/8 19/17/12
f 23/21/10 24/22/11 22/20/7
f 24/22/11 14/2/8 22/20/7
f 13/13/7 15/1/9 18/16/12
f 4/23/4 17/24/11 5/25/5
f 4/23/4 18/26/12 17/24/11
f 3/27/3 18/28/12 4/29/4
f 3/27/3 13/30/7 18/28/12
f 9/31/6 13/32/7 3/33/3
f 9/31/6 20/34/10 13/32/7
f 8/35/5 20/36/10 9/37/6
f 8/35/5 21/38/11 20/36/10
f 7/39/4 21/40/11 8/28/5
f 7/39/4 19/31/12 21/40/11
f 10/41/3 19/30/12 7/27/4
f 10/41/3 22/42/7 19/30/12
f 12/43/6 22/44/7 10/32/3
f 12/43/6 23/45/10 22/44/7
f 11/46/5 23/47/10 12/48/6
f 11/46/5 24/49/11 23/47/10
f 2/50/2 24/51/11 11/24/5
f 2/50/2 14/52/8 24/51/11
f 1/53/1 14/54/8 2/55/2
f 1/53/1 15/56/9 14/54/8
f 6/57/6 15/58/9 1/59/1
f 6/57/6 16/60/10 15/58/9
f 5/48/5 16/38/10 6/35/6
f 5/48/5 17/47/11 16/38/10
