# Blender 4.4.3
# www.blender.org
o Eb
g Eb_Mesh
v 0.153337 -0.075000 -0.211157
v 0.134615 -0.075000 -0.154608
v 0.107713 -0.075000 -0.206579
v 0.225710 -0.075000 -0.197134
v 0.181917 -0.075000 -0.144644
v 0.014589 -0.075000 -0.132238
v 0.016222 -0.075000 -0.132238
v 0.044496 -0.075000 -0.112295
v 0.039873 -0.075000 -0.168539
v 0.081163 -0.075000 -0.144033
v 0.070131 -0.075000 -0.192846
v 0.213960 -0.075000 -0.114737
v -0.057631 -0.075000 0.203531
v 0.015413 -0.075000 0.168833
v 0.015001 -0.075000 0.184763
v -0.057020 -0.075000 0.146463
v 0.023134 -0.075000 0.097284
v 0.015810 -0.075000 -0.165701
v -0.057020 -0.075000 -0.366598
v 0.016222 -0.075000 -0.194479
v 0.016222 -0.075000 -0.366598
v 0.012346 -0.075000 0.227686
v -0.059462 -0.075000 0.237192
v 0.274782 -0.075000 0.187754
v 0.181459 -0.075000 0.180994
v 0.213762 -0.075000 0.150324
v 0.011339 -0.075000 0.237192
v 0.013780 -0.075000 0.207285
v 0.107515 -0.075000 0.240808
v 0.070131 -0.075000 0.227228
v 0.080202 -0.075000 0.180887
v 0.043886 -0.075000 0.149912
v 0.016222 -0.075000 0.168833
v 0.040071 -0.075000 0.203577
v 0.133806 -0.075000 0.191217
v 0.153337 -0.075000 0.245325
v 0.232225 -0.075000 0.096674
v 0.238374 -0.075000 0.017481
v 0.315279 -0.075000 0.015039
v 0.023287 -0.075000 -0.057562
v 0.016222 -0.075000 0.021952
v 0.305452 -0.075000 -0.084417
v 0.232271 -0.075000 -0.061743
v 0.276018 -0.075000 -0.155020
v -0.135985 -0.075000 0.173716
v -0.135985 -0.075000 0.237192
v -0.509886 -0.075000 0.173716
v -0.587599 -0.075000 0.237192
v -0.177061 -0.075000 -0.026052
v -0.509886 -0.075000 -0.026052
v -0.509886 -0.075000 -0.088705
v -0.587599 -0.075000 -0.336081
v -0.177061 -0.075000 -0.088705
v -0.152663 -0.075000 -0.336081
v -0.509886 -0.075000 -0.272604
v -0.152663 -0.075000 -0.272604
v 0.107713 0.075000 -0.206579
v 0.134615 0.075000 -0.154608
v 0.153337 0.075000 -0.211157
v 0.181917 0.075000 -0.144644
v 0.225710 0.075000 -0.197134
v 0.044496 0.075000 -0.112295
v 0.016222 0.075000 -0.132238
v 0.014589 0.075000 -0.132238
v 0.039873 0.075000 -0.168539
v 0.070131 0.075000 -0.192846
v 0.081163 0.075000 -0.144033
v 0.213960 0.075000 -0.114737
v 0.015001 0.075000 0.184763
v 0.015413 0.075000 0.168833
v -0.057631 0.075000 0.203531
v 0.023134 0.075000 0.097284
v -0.057020 0.075000 0.146463
v 0.016222 0.075000 -0.194479
v -0.057020 0.075000 -0.366598
v 0.015810 0.075000 -0.165701
v 0.016222 0.075000 -0.366598
v -0.059462 0.075000 0.237192
v 0.012346 0.075000 0.227686
v 0.213762 0.075000 0.150324
v 0.181459 0.075000 0.180994
v 0.274782 0.075000 0.187754
v 0.011339 0.075000 0.237192
v 0.013780 0.075000 0.207285
v 0.080202 0.075000 0.180887
v 0.070131 0.075000 0.227228
v 0.107515 0.075000 0.240808
v 0.043886 0.075000 0.149912
v 0.016222 0.075000 0.168833
v 0.040071 0.075000 0.203577
v 0.133806 0.075000 0.191217
v 0.153337 0.075000 0.245325
v 0.315279 0.075000 0.015039
v 0.238374 0.075000 0.017481
v 0.232225 0.075000 0.096674
v 0.023287 0.075000 -0.057562
v 0.016222 0.075000 0.021952
v 0.232271 0.075000 -0.061743
v 0.305452 0.075000 -0.084417
v 0.276018 0.075000 -0.155020
v -0.509886 0.075000 0.173716
v -0.135985 0.075000 0.237192
v -0.135985 0.075000 0.173716
v -0.587599 0.075000 0.237192
v -0.509886 0.075000 -0.088705
v -0.509886 0.075000 -0.026052
v -0.177061 0.075000 -0.026052
v -0.587599 0.075000 -0.336081
v -0.177061 0.075000 -0.088705
v -0.509886 0.075000 -0.272604
v -0.152663 0.075000 -0.336081
v -0.152663 0.075000 -0.272604
vn 0.0337 -0.6759 -0.7363
vn -0.0040 -0.7551 0.6557
vn -0.1637 -0.6801 -0.7146
vn 0.3247 -0.6549 -0.6824
vn -0.2927 -0.7728 0.5632
vn 0.3004 -0.9088 -0.2896
vn -0.2647 -0.8316 -0.4883
vn 0.5259 -0.7657 0.3703
vn -0.5481 -0.6733 -0.4962
vn 0.2803 -0.7696 0.5738
vn -0.3637 -0.6723 -0.6448
vn -0.5394 -0.7657 0.3505
vn -0.7018 -0.7120 -0.0228
vn 0.3021 -0.9015 0.3100
vn 0.7097 -0.7039 0.0284
vn -0.7059 -0.7083 -0.0038
vn 0.6539 -0.7404 -0.1556
vn 0.7093 -0.7046 0.0180
vn -0.5774 -0.5773 -0.5774
vn 0.7087 -0.7055 0.0051
vn 0.5774 -0.5773 -0.5773
vn 0.7083 -0.7031 0.0624
vn -0.5942 -0.5745 0.5628
vn 0.6097 -0.6212 0.4923
vn -0.2958 -0.7734 -0.5607
vn -0.5420 -0.7647 -0.3485
vn 0.5434 -0.5831 0.6039
vn 0.7075 -0.7053 0.0440
vn -0.1624 -0.6801 0.7149
vn -0.3594 -0.6731 0.6463
vn 0.2769 -0.7693 -0.5758
vn 0.5233 -0.7659 -0.3737
vn -0.2610 -0.8284 0.4957
vn -0.5386 -0.6747 0.5046
vn -0.0069 -0.7549 -0.6558
vn 0.1300 -0.6516 0.7473
vn -0.6621 -0.7368 -0.1373
vn -0.6889 -0.7249 -0.0002
vn 0.7389 -0.6721 0.0488
vn 0.6550 -0.7400 0.1528
vn 0.6857 -0.7279 -0.0010
vn 0.7152 -0.6753 -0.1801
vn -0.6618 -0.7370 0.1375
vn 0.6069 -0.6574 -0.4466
vn 0.5773 -0.5774 -0.5774
vn 0.5774 -0.5774 0.5773
vn 0.3015 -0.9045 -0.3015
vn -0.5773 -0.5774 0.5774
vn 0.3015 -0.9045 0.3015
vn -0.5774 -0.5774 -0.5773
vn -0.1637 0.6801 -0.7146
vn -0.0040 0.7551 0.6556
vn 0.0337 0.6759 -0.7363
vn -0.2927 0.7728 0.5632
vn 0.3247 0.6549 -0.6824
vn 0.5259 0.7657 0.3703
vn -0.2647 0.8315 -0.4883
vn 0.3004 0.9088 -0.2896
vn -0.5481 0.6733 -0.4962
vn -0.3637 0.6723 -0.6448
vn 0.2803 0.7696 0.5738
vn -0.5394 0.7657 0.3505
vn 0.7097 0.7039 0.0284
vn 0.3020 0.9015 0.3100
vn -0.7018 0.7120 -0.0228
vn 0.6539 0.7404 -0.1556
vn -0.7059 0.7083 -0.0038
vn 0.7087 0.7055 0.0051
vn -0.5773 0.5773 -0.5774
vn 0.7094 0.7046 0.0180
vn 0.5774 0.5774 -0.5773
vn -0.5943 0.5745 0.5628
vn 0.7083 0.7031 0.0624
vn -0.5420 0.7647 -0.3485
vn -0.2958 0.7734 -0.5607
vn 0.6097 0.6212 0.4923
vn 0.5434 0.5831 0.6040
vn 0.7075 0.7053 0.0440
vn 0.2769 0.7693 -0.5758
vn -0.3594 0.6731 0.6463
vn -0.1624 0.6801 0.7149
vn 0.5233 0.7659 -0.3736
vn -0.2610 0.8284 0.4957
vn -0.5386 0.6747 0.5046
vn -0.0069 0.7549 -0.6558
vn 0.1300 0.6516 0.7473
vn 0.7389 0.6721 0.0488
vn -0.6889 0.7249 -0.0002
vn -0.6621 0.7368 -0.1373
vn 0.6550 0.7400 0.1528
vn 0.6856 0.7279 -0.0010
vn -0.6618 0.7370 0.1374
vn 0.7152 0.6753 -0.1801
vn 0.6069 0.6574 -0.4466
vn 0.3015 0.9045 -0.3015
vn 0.5773 0.5774 0.5774
vn -0.5774 0.5774 0.5773
vn 0.3015 0.9045 0.3015
vn -0.5773 0.5774 -0.5774
vt 0.377716 0.321261
vt 0.390732 0.281410
vt 0.409812 0.317910
vt 0.326742 0.311598
vt 0.357413 0.274532
vt 0.475139 0.265326
vt 0.473990 0.265330
vt 0.454034 0.251375
vt 0.457448 0.290945
vt 0.428319 0.273816
vt 0.436222 0.308138
vt 0.334776 0.253576
vt 0.525010 0.028813
vt 0.473703 0.053441
vt 0.473947 0.042229
vt 0.524743 0.068978
vt 0.468472 0.103817
vt 0.474375 0.288879
vt 0.526203 0.430059
vt 0.474167 0.309134
vt 0.474657 0.430267
vt 0.475694 0.012013
vt 0.526203 0.005118
vt 0.291111 0.040863
vt 0.356809 0.045355
vt 0.334162 0.067032
vt 0.476375 0.005320
vt 0.474742 0.026375
vt 0.408678 0.003048
vt 0.435027 0.012499
vt 0.428071 0.045142
vt 0.453718 0.066838
vt 0.473133 0.053443
vt 0.456250 0.029059
vt 0.390317 0.038024
vt 0.376417 0.000000
vt 0.321321 0.104842
vt 0.317218 0.160593
vt 0.263102 0.162531
vt 0.468806 0.212795
vt 0.473551 0.156815
vt 0.270300 0.232498
vt 0.321739 0.216332
vt 0.291216 0.282103
vt -0.000000 0.474941
vt -0.000000 0.430267
vt 0.263145 0.474941
vt 0.317838 0.430267
vt 0.028909 0.615534
vt 0.263145 0.615534
vt 0.263145 0.659628
vt 0.317838 0.833727
vt 0.028909 0.659628
vt 0.011738 0.833727
vt 0.263145 0.789053
vt 0.011738 0.789053
vt 0.116391 0.317910
vt 0.135472 0.281410
vt 0.148487 0.321261
vt 0.168790 0.274532
vt 0.199461 0.311598
vt 0.072169 0.251375
vt 0.052213 0.265330
vt 0.051064 0.265326
vt 0.068755 0.290945
vt 0.089981 0.308138
vt 0.097884 0.273816
vt 0.191427 0.253576
vt 0.052256 0.042229
vt 0.052501 0.053441
vt 0.001193 0.028813
vt 0.057731 0.103817
vt 0.001460 0.068978
vt 0.052036 0.309134
vt -0.000000 0.430059
vt 0.051828 0.288879
vt 0.051546 0.430267
vt 0.000000 0.005118
vt 0.050510 0.012013
vt 0.192041 0.067032
vt 0.169395 0.045355
vt 0.235092 0.040863
vt 0.049828 0.005320
vt 0.051461 0.026375
vt 0.098132 0.045142
vt 0.091176 0.012499
vt 0.117525 0.003048
vt 0.072485 0.066838
vt 0.053070 0.053443
vt 0.069953 0.029059
vt 0.135887 0.038024
vt 0.149786 0.000000
vt 0.263102 0.162531
vt 0.208985 0.160593
vt 0.204883 0.104842
vt 0.057398 0.212795
vt 0.052652 0.156815
vt 0.204464 0.216332
vt 0.255903 0.232498
vt 0.234987 0.282103
vt 0.372532 0.474941
vt 0.635677 0.430267
vt 0.635677 0.474941
vt 0.317838 0.430267
vt 0.372532 0.659628
vt 0.372532 0.615534
vt 0.606768 0.615534
vt 0.317838 0.833727
vt 0.606768 0.659628
vt 0.372532 0.789053
vt 0.623939 0.833727
vt 0.623939 0.789053
vt 0.948473 0.121618
vt 0.842906 0.000000
vt 0.948473 0.000000
vt 0.842906 0.121618
vt 0.948473 0.191598
vt 0.842906 0.191598
vt 0.948473 0.241239
vt 0.842906 0.241239
vt 0.105567 0.868299
vt -0.000000 0.833727
vt 0.105567 0.833727
vt 0.000000 0.868299
vt 0.105567 0.918941
vt 0.000000 0.918941
vt 0.105567 0.951127
vt 0.000000 0.951127
vt 0.105567 0.977834
vt 0.000000 0.977834
vt 0.105567 0.999595
vt 0.000000 0.999595
vt 0.952379 0.746970
vt 0.978062 0.641402
vt 0.978062 0.746970
vt 0.952379 0.641402
vt 0.633405 0.939294
vt 0.634553 0.833727
vt 0.634553 0.939294
vt 0.633405 0.833727
vt 0.316702 0.857279
vt 0.211135 0.833727
vt 0.316702 0.833727
vt 0.211135 0.857279
vt 0.316702 0.877533
vt 0.211135 0.877533
vt 0.316702 0.998667
vt 0.211135 0.998667
vt 0.948473 0.105567
vt 1.000000 0.000000
vt 1.000000 0.105567
vt 0.948473 0.000000
vt 0.631771 0.361072
vt 0.526203 -0.000000
vt 0.631771 -0.000000
vt 0.526203 0.361072
vt 0.631771 0.401237
vt 0.526203 0.401237
vt 0.631771 0.424937
vt 0.526203 0.424937
vt 0.948473 0.211135
vt 0.998301 0.105567
vt 0.998301 0.211135
vt 0.989898 0.316702
vt 0.996590 0.211135
vt 0.996590 0.316702
vt 0.989898 0.211135
vt 0.975538 0.316702
vt 0.975538 0.211135
vt 0.959685 0.316702
vt 0.959685 0.211135
vt 0.948473 0.316702
vt 0.948473 0.211135
vt 0.635108 0.939294
vt 0.635677 0.833727
vt 0.635677 0.939294
vt 0.635108 0.833727
vt 0.952379 0.852537
vt 0.976694 0.746970
vt 0.976694 0.852537
vt 0.952379 0.746970
vt 0.211135 0.854922
vt 0.105567 0.833727
vt 0.211135 0.833727
vt 0.105567 0.854922
vt 0.211135 0.881254
vt 0.105567 0.881254
vt 0.211135 0.913511
vt 0.105567 0.913511
vt 0.211135 0.998885
vt 0.105567 0.998885
vt 0.842906 0.425486
vt 0.737338 0.425486
vt 0.842906 0.400540
vt 0.737338 0.400540
vt 0.948473 0.278244
vt 0.842906 0.278244
vt 0.948473 0.331251
vt 0.842906 0.331251
vt 0.948473 0.387222
vt 0.842906 0.387222
vt 0.948473 0.425777
vt 0.842906 0.425777
vt 0.633405 0.859479
vt 0.527837 0.859479
vt 0.633405 0.833727
vt 0.527837 0.833727
vt 0.633405 0.897080
vt 0.527837 0.897080
vt 0.633405 0.930387
vt 0.527837 0.930387
vt 0.633405 0.952988
vt 0.527837 0.952988
vt 0.741244 0.785294
vt 0.635677 0.785294
vt 0.741244 0.748105
vt 0.635677 0.748105
vt 0.741244 0.841014
vt 0.635677 0.841014
vt 0.741244 0.896782
vt 0.635677 0.896782
vt 0.741244 0.934645
vt 0.635677 0.934645
vt 0.842906 0.329306
vt 0.737338 0.329306
vt 0.842906 0.305984
vt 0.737338 0.305984
vt 0.842906 0.363030
vt 0.737338 0.363030
vt 0.846812 0.693312
vt 0.741244 0.430267
vt 0.846812 0.430267
vt 0.741244 0.693312
vt 0.422270 0.974320
vt 0.316702 0.833727
vt 0.422270 0.833727
vt 0.316702 0.974320
vt 0.952379 0.664503
vt 0.846812 0.430267
vt 0.952379 0.430267
vt 0.846812 0.664503
vt 0.952379 0.641402
vt 0.996473 0.535835
vt 0.996473 0.641402
vt 0.952379 0.535835
vt 0.952379 0.927458
vt 0.846812 0.693312
vt 0.952379 0.693312
vt 0.846812 0.927458
vt 0.527837 0.963151
vt 0.422270 0.833727
vt 0.527837 0.833727
vt 0.422270 0.963151
vt 0.846812 0.944719
vt 0.741244 0.693312
vt 0.846812 0.693312
vt 0.741244 0.944719
vt 0.997053 0.430267
vt 0.997053 0.535835
vt 0.952379 0.430267
vt 0.737338 -0.000000
vt 0.842906 -0.000000
vt 0.737338 0.403446
vt 0.631771 -0.000000
vt 0.737338 -0.000000
vt 0.631771 0.403446
vt 0.741244 0.748105
vt 0.635677 0.430267
vt 0.741244 0.430267
vt 0.635677 0.748105
vt 0.948473 0.422270
vt 0.993147 0.316702
vt 0.993147 0.422270
s 1
f 1/1/1 2/2/2 3/3/3
f 4/4/4 5/5/5 1/1/1
f 6/6/6 7/7/7 8/8/8
f 8/8/8 7/7/7 9/9/9
f 3/3/3 10/10/10 11/11/11
f 4/4/4 12/12/12 5/5/5
f 13/13/13 14/14/14 15/15/15
f 14/14/14 16/16/16 17/17/17
f 18/18/18 19/19/19 20/20/20
f 20/20/20 19/19/19 21/21/21
f 18/18/18 6/6/6 19/19/19
f 19/19/19 6/6/6 16/16/16
f 22/22/22 23/23/23 13/13/13
f 24/24/24 25/25/25 26/26/26
f 22/22/22 27/27/27 23/23/23
f 28/28/28 22/22/22 13/13/13
f 29/29/29 30/30/30 31/31/31
f 15/15/15 28/28/28 13/13/13
f 13/13/13 16/16/16 14/14/14
f 14/14/14 17/17/17 32/32/32
f 14/14/14 32/32/32 33/33/33
f 34/34/34 32/32/32 31/31/31
f 31/31/31 35/35/35 29/29/29
f 35/35/35 36/36/36 29/29/29
f 37/37/37 38/38/38 39/39/39
f 30/30/30 34/34/34 31/31/31
f 34/34/34 33/33/33 32/32/32
f 16/16/16 6/6/6 40/40/40
f 17/17/17 16/16/16 41/41/41
f 41/41/41 16/16/16 40/40/40
f 8/8/8 40/40/40 6/6/6
f 42/42/42 39/39/39 43/43/43
f 10/10/10 9/9/9 11/11/11
f 8/8/8 9/9/9 10/10/10
f 2/2/2 10/10/10 3/3/3
f 5/5/5 2/2/2 1/1/1
f 4/4/4 44/44/44 12/12/12
f 43/43/43 12/12/12 42/42/42
f 12/12/12 44/44/44 42/42/42
f 38/38/38 43/43/43 39/39/39
f 37/37/37 39/39/39 24/24/24
f 26/26/26 37/37/37 24/24/24
f 35/35/35 25/25/25 36/36/36
f 25/25/25 24/24/24 36/36/36
f 45/45/45 46/46/46 47/47/47
f 47/47/47 46/46/46 48/48/48
f 49/49/46 50/50/49 51/51/47
f 50/50/49 48/48/48 52/52/50
f 53/53/45 49/49/46 51/51/47
f 51/51/47 50/50/49 52/52/50
f 54/54/45 55/55/49 52/52/50
f 55/55/49 51/51/47 52/52/50
f 54/54/45 56/56/46 55/55/49
f 50/50/49 47/47/47 48/48/48
f 57/57/51 58/58/52 59/59/53
f 59/59/53 60/60/54 61/61/55
f 62/62/56 63/63/57 64/64/58
f 65/65/59 63/63/57 62/62/56
f 66/66/60 67/67/61 57/57/51
f 60/60/54 68/68/62 61/61/55
f 69/69/63 70/70/64 71/71/65
f 72/72/66 73/73/67 70/70/64
f 74/74/68 75/75/69 76/76/70
f 77/77/71 75/75/69 74/74/68
f 75/75/69 64/64/58 76/76/70
f 73/73/67 64/64/58 75/75/69
f 71/71/65 78/78/72 79/79/73
f 80/80/74 81/81/75 82/82/76
f 78/78/72 83/83/77 79/79/73
f 71/71/65 79/79/73 84/84/78
f 85/85/79 86/86/80 87/87/81
f 71/71/65 84/84/78 69/69/63
f 70/70/64 73/73/67 71/71/65
f 88/88/82 72/72/66 70/70/64
f 89/89/83 88/88/82 70/70/64
f 85/85/79 88/88/82 90/90/84
f 87/87/81 91/91/85 85/85/79
f 87/87/81 92/92/86 91/91/85
f 93/93/87 94/94/88 95/95/89
f 85/85/79 90/90/84 86/86/80
f 88/88/82 89/89/83 90/90/84
f 96/96/90 64/64/58 73/73/67
f 97/97/91 73/73/67 72/72/66
f 96/96/90 73/73/67 97/97/91
f 64/64/58 96/96/90 62/62/56
f 98/98/92 93/93/87 99/99/93
f 66/66/60 65/65/59 67/67/61
f 67/67/61 65/65/59 62/62/56
f 57/57/51 67/67/61 58/58/52
f 59/59/53 58/58/52 60/60/54
f 68/68/62 100/100/94 61/61/55
f 99/99/93 68/68/62 98/98/92
f 99/99/93 100/100/94 68/68/62
f 93/93/87 98/98/92 94/94/88
f 82/82/76 93/93/87 95/95/89
f 82/82/76 95/95/89 80/80/74
f 92/92/86 81/81/75 91/91/85
f 92/92/86 82/82/76 81/81/75
f 101/101/95 102/102/96 103/103/71
f 104/104/97 102/102/96 101/101/95
f 105/105/95 106/106/98 107/107/96
f 108/108/99 104/104/97 106/106/98
f 105/105/95 107/107/96 109/109/71
f 108/108/99 106/106/98 105/105/95
f 108/108/99 110/110/98 111/111/71
f 108/108/99 105/105/95 110/110/98
f 110/110/98 112/112/96 111/111/71
f 104/104/97 101/101/95 106/106/98
f 39/113/39 82/114/76 24/115/24
f 39/113/39 93/116/87 82/114/76
f 42/117/42 93/116/87 39/113/39
f 42/117/42 99/118/93 93/116/87
f 44/119/44 99/118/93 42/117/42
f 44/119/44 100/120/94 99/118/93
f 4/121/4 100/122/94 44/123/44
f 4/121/4 61/124/55 100/122/94
f 1/125/1 61/124/55 4/121/4
f 1/125/1 59/126/53 61/124/55
f 3/127/3 59/126/53 1/125/1
f 3/127/3 57/128/51 59/126/53
f 11/129/11 57/128/51 3/127/3
f 11/129/11 66/130/60 57/128/51
f 9/131/9 66/130/60 11/129/11
f 9/131/9 65/132/59 66/130/60
f 7/133/7 65/134/59 9/135/9
f 7/133/7 63/136/57 65/134/59
f 6/137/6 63/138/57 7/139/7
f 6/137/6 64/140/58 63/138/57
f 18/141/18 64/142/58 6/143/6
f 18/141/18 76/144/70 64/142/58
f 20/145/20 76/144/70 18/141/18
f 20/145/20 74/146/68 76/144/70
f 21/147/21 74/146/68 20/145/20
f 21/147/21 77/148/71 74/146/68
f 19/149/19 77/150/71 21/151/21
f 19/149/19 75/152/69 77/150/71
f 16/153/16 75/154/69 19/155/19
f 16/153/16 73/156/67 75/154/69
f 13/157/13 73/156/67 16/153/16
f 13/157/13 71/158/65 73/156/67
f 23/159/23 71/158/65 13/157/13
f 23/159/23 78/160/72 71/158/65
f 27/161/27 78/162/72 23/163/23
f 27/161/27 83/149/77 78/162/72
f 22/164/22 83/165/77 27/166/27
f 22/164/22 79/167/73 83/165/77
f 28/168/28 79/167/73 22/164/22
f 28/168/28 84/169/78 79/167/73
f 15/170/15 84/169/78 28/168/28
f 15/170/15 69/171/63 84/169/78
f 14/172/14 69/171/63 15/170/15
f 14/172/14 70/173/64 69/171/63
f 33/174/33 70/175/64 14/176/14
f 33/174/33 89/177/83 70/175/64
f 34/178/34 89/179/83 33/180/33
f 34/178/34 90/181/84 89/179/83
f 30/182/30 90/183/84 34/184/34
f 30/182/30 86/185/80 90/183/84
f 29/186/29 86/185/80 30/182/30
f 29/186/29 87/187/81 86/185/80
f 36/188/36 87/187/81 29/186/29
f 36/188/36 92/189/86 87/187/81
f 24/190/24 92/189/86 36/188/36
f 24/190/24 82/191/76 92/189/86
f 32/192/32 88/193/82 31/194/31
f 85/195/79 31/194/31 88/193/82
f 17/196/17 72/197/66 32/119/32
f 88/120/82 32/119/32 72/197/66
f 41/198/41 97/199/91 17/196/17
f 72/197/66 17/196/17 97/199/91
f 40/200/40 96/201/90 41/198/41
f 97/199/91 41/198/41 96/201/90
f 8/202/8 62/203/56 40/200/40
f 96/201/90 40/200/40 62/203/56
f 10/204/10 67/205/61 8/206/8
f 62/207/56 8/206/8 67/205/61
f 2/208/2 58/209/52 10/204/10
f 67/205/61 10/204/10 58/209/52
f 5/210/5 60/211/54 2/208/2
f 58/209/52 2/208/2 60/211/54
f 12/212/12 68/213/62 5/210/5
f 60/211/54 5/210/5 68/213/62
f 43/214/43 98/215/92 12/216/12
f 68/217/62 12/216/12 98/215/92
f 38/218/38 94/219/88 43/214/43
f 98/215/92 43/214/43 94/219/88
f 37/220/37 95/221/89 38/218/38
f 94/219/88 38/218/38 95/221/89
f 26/222/26 80/223/74 37/220/37
f 95/221/89 37/220/37 80/223/74
f 25/224/25 81/225/75 26/226/26
f 80/227/74 26/226/26 81/225/75
f 35/228/35 91/229/85 25/224/25
f 81/225/75 25/224/25 91/229/85
f 31/194/31 85/195/79 35/228/35
f 91/229/85 35/228/35 85/195/79
f 47/230/47 103/231/71 45/232/45
f 47/230/47 101/233/95 103/231/71
f 50/234/49 101/235/95 47/236/47
f 50/234/49 106/237/98 101/235/95
f 49/238/46 106/239/98 50/240/49
f 49/238/46 107/241/96 106/239/98
f 53/242/45 107/243/96 49/244/46
f 53/242/45 109/245/71 107/243/96
f 51/246/47 109/247/71 53/248/45
f 51/246/47 105/249/95 109/247/71
f 55/250/49 105/251/95 51/252/47
f 55/250/49 110/253/98 105/251/95
f 56/254/46 110/255/98 55/256/49
f 56/254/46 112/257/96 110/255/98
f 54/245/45 112/258/96 56/259/46
f 54/245/45 111/260/71 112/258/96
f 52/226/50 111/261/71 54/262/45
f 52/226/50 108/227/99 111/261/71
f 48/263/48 108/264/99 52/265/50
f 48/263/48 104/266/97 108/264/99
f 46/267/46 104/268/97 48/269/48
f 46/267/46 102/270/96 104/268/97
f 45/271/45 102/272/96 46/273/46
f 45/271/45 103/172/71 102/272/96
