# Blender 4.4.3
# www.blender.org
o F
g F_Mesh
v 0.205466 -0.075000 0.090079
v -0.114328 -0.075000 0.025809
v 0.205466 -0.075000 0.025809
v -0.114328 -0.075000 0.090079
v -0.192041 -0.075000 0.322394
v -0.192041 -0.075000 -0.250879
v -0.114328 -0.075000 -0.187402
v 0.215231 -0.075000 -0.187402
v 0.215231 -0.075000 -0.250879
v -0.114328 -0.075000 0.322394
v 0.205466 0.075000 0.025809
v -0.114328 0.075000 0.025809
v 0.205466 0.075000 0.090079
v -0.114328 0.075000 0.090079
v -0.192041 0.075000 0.322394
v -0.192041 0.075000 -0.250879
v -0.114328 0.075000 -0.187402
v 0.215231 0.075000 -0.250879
v 0.215231 0.075000 -0.187402
v -0.114328 0.075000 0.322394
vn 0.5774 -0.5773 0.5773
vn 0.3015 -0.9045 -0.3015
vn 0.5773 -0.5774 -0.5774
vn 0.3015 -0.9045 0.3015
vn -0.5773 -0.5773 0.5774
vn -0.5774 -0.5774 -0.5773
vn 0.5774 -0.5774 0.5773
vn 0.5774 0.5774 -0.5773
vn 0.3015 0.9045 -0.3015
vn 0.5773 0.5774 0.5774
vn 0.3015 0.9045 0.3015
vn -0.5774 0.5773 0.5774
vn -0.5773 0.5774 -0.5774
vn 0.5774 0.5773 0.5773
vt 0.009959 0.236924
vt 0.336098 0.302470
vt 0.009959 0.302470
vt 0.336098 0.236924
vt 0.415353 0.000000
vt 0.415353 0.584647
vt 0.336098 0.519911
vt 0.000000 0.519911
vt 0.000000 0.584647
vt 0.336098 0.000000
vt 0.820747 0.302470
vt 0.494608 0.302470
vt 0.820747 0.236924
vt 0.494608 0.236924
vt 0.415353 0.000000
vt 0.415353 0.584647
vt 0.494608 0.519911
vt 0.830706 0.584647
vt 0.830706 0.519911
vt 0.494608 0.000000
vt 0.458929 0.910786
vt 0.305953 0.584647
vt 0.458929 0.584647
vt 0.305953 0.910786
vt 0.844136 0.955065
vt 0.909681 0.802088
vt 0.909681 0.955065
vt 0.844136 0.802088
vt 0.611905 0.910786
vt 0.458929 0.584647
vt 0.611905 0.584647
vt 0.458929 0.910786
vt 0.917858 0.802088
vt 0.764881 0.584647
vt 0.917858 0.584647
vt 0.764881 0.802088
vt 0.305953 0.920745
vt 0.152976 0.584647
vt 0.152976 0.920745
vt 0.909681 0.955065
vt 0.974417 0.802088
vt 0.974417 0.955065
vt 0.909681 0.802088
vt 0.152976 1.000000
vt -0.000000 0.584647
vt 0.152976 0.584647
vt 0.000000 1.000000
vt 0.983682 0.584647
vt 0.830706 -0.000000
vt 0.983682 -0.000000
vt 0.764881 0.955065
vt 0.764881 0.821571
vt 0.764881 0.584647
vt 0.611905 0.821571
s 1
f 1/1/1 2/2/2 3/3/3
f 1/1/1 4/4/4 2/2/2
f 2/2/2 4/4/4 5/5/5
f 2/2/2 5/5/5 6/6/6
f 7/7/4 2/2/2 6/6/6
f 8/8/7 7/7/4 9/9/3
f 9/9/3 7/7/4 6/6/6
f 4/4/4 10/10/7 5/5/5
f 11/11/8 12/12/9 13/13/10
f 12/12/9 14/14/11 13/13/10
f 15/15/12 14/14/11 12/12/9
f 16/16/13 15/15/12 12/12/9
f 16/16/13 12/12/9 17/17/11
f 18/18/8 17/17/11 19/19/10
f 16/16/13 17/17/11 18/18/8
f 15/15/12 20/20/14 14/14/11
f 1/21/1 14/22/11 4/23/4
f 1/21/1 13/24/10 14/22/11
f 3/25/3 13/26/10 1/27/1
f 3/25/3 11/28/8 13/26/10
f 2/29/2 11/30/8 3/31/3
f 2/29/2 12/32/9 11/30/8
f 7/33/4 12/34/9 2/35/2
f 7/33/4 17/36/11 12/34/9
f 8/37/7 17/38/11 7/22/4
f 8/37/7 19/39/10 17/38/11
f 9/40/3 19/41/10 8/42/7
f 9/40/3 18/43/8 19/41/10
f 6/44/6 18/45/8 9/46/3
f 6/44/6 16/47/13 18/45/8
f 5/48/5 16/49/13 6/50/6
f 5/48/5 15/18/12 16/49/13
f 10/51/7 15/28/12 5/25/5
f 10/51/7 20/36/14 15/28/12
f 4/52/4 20/31/14 10/53/7
f 4/52/4 14/54/11 20/31/14
