# Blender 4.4.3
# www.blender.org
o F
v 0.205466 -0.075000 0.090079
v -0.114328 -0.075000 0.025809
v 0.205466 -0.075000 0.025809
v -0.114328 -0.075000 0.090079
v -0.192041 -0.075000 0.322394
v -0.192041 -0.075000 -0.250879
v -0.114328 -0.075000 -0.187402
v 0.215231 -0.075000 -0.187402
v 0.215231 -0.075000 -0.250879
v -0.114328 -0.075000 0.322394
v 0.205466 0.075000 0.025809
v -0.114328 0.075000 0.025809
v 0.205466 0.075000 0.090079
v -0.114328 0.075000 0.090079
v -0.192041 0.075000 0.322394
v -0.192041 0.075000 -0.250879
v -0.114328 0.075000 -0.187402
v 0.215231 0.075000 -0.250879
v 0.215231 0.075000 -0.187402
v -0.114328 0.075000 0.322394
vn 0.5774 -0.5773 0.5773
vn 0.3015 -0.9045 -0.3015
vn 0.5773 -0.5774 -0.5774
vn 0.3015 -0.9045 0.3015
vn -0.5773 -0.5773 0.5774
vn -0.5774 -0.5774 -0.5773
vn 0.5774 -0.5774 0.5773
vn 0.5774 0.5774 -0.5773
vn 0.3015 0.9045 -0.3015
vn 0.5773 0.5774 0.5774
vn 0.3015 0.9045 0.3015
vn -0.5774 0.5773 0.5774
vn -0.5773 0.5774 -0.5774
vn 0.5774 0.5773 0.5773
s 1
f 1//1 2//2 3//3
f 1//1 4//4 2//2
f 2//2 4//4 5//5
f 2//2 5//5 6//6
f 7//4 2//2 6//6
f 8//7 7//4 9//3
f 9//3 7//4 6//6
f 4//4 10//7 5//5
f 11//8 12//9 13//10
f 12//9 14//11 13//10
f 15//12 14//11 12//9
f 16//13 15//12 12//9
f 16//13 12//9 17//11
f 18//8 17//11 19//10
f 16//13 17//11 18//8
f 15//12 20//14 14//11
f 1//1 14//11 4//4
f 1//1 13//10 14//11
f 3//3 13//10 1//1
f 3//3 11//8 13//10
f 2//2 11//8 3//3
f 2//2 12//9 11//8
f 7//4 12//9 2//2
f 7//4 17//11 12//9
f 8//7 17//11 7//4
f 8//7 19//10 17//11
f 9//3 19//10 8//7
f 9//3 18//8 19//10
f 6//6 18//8 9//3
f 6//6 16//13 18//8
f 5//5 16//13 6//6
f 5//5 15//12 16//13
f 10//7 15//12 5//5
f 10//7 20//14 15//12
f 4//4 20//14 10//7
f 4//4 14//11 20//14
