# Blender 4.4.3
# www.blender.org
o G
g G_Mesh
v 0.188861 -0.075000 0.049738
v 0.017566 -0.075000 0.049738
v 0.017566 -0.075000 -0.015340
v 0.260471 -0.075000 0.182383
v 0.188861 -0.075000 0.153086
v 0.209766 -0.075000 0.223536
v 0.079868 -0.075000 0.273264
v 0.059620 -0.075000 0.212290
v 0.110126 -0.075000 0.199473
v 0.005359 -0.075000 0.279627
v 0.005359 -0.075000 0.216563
v 0.154117 -0.075000 0.179331
v 0.148777 -0.075000 0.254206
v 0.260471 -0.075000 -0.015340
v -0.078335 -0.075000 0.270670
v -0.082409 -0.075000 0.200846
v -0.207058 -0.075000 0.200129
v -0.249127 -0.075000 0.140681
v -0.148831 -0.075000 0.153696
v -0.190640 -0.075000 0.079386
v -0.274914 -0.075000 0.067393
v -0.204571 -0.075000 -0.017782
v -0.283505 -0.075000 -0.017782
v -0.191449 -0.075000 -0.114568
v -0.264782 -0.075000 -0.141576
v -0.152081 -0.075000 -0.186834
v -0.208645 -0.075000 -0.233831
v -0.118618 -0.075000 -0.291204
v -0.087902 -0.075000 -0.231847
v 0.001697 -0.075000 -0.310323
v 0.087955 -0.075000 -0.302297
v 0.058307 -0.075000 -0.241262
v 0.156314 -0.075000 -0.278188
v 0.106464 -0.075000 -0.224477
v 0.208896 -0.075000 -0.236379
v 0.144764 -0.075000 -0.195486
v 0.173801 -0.075000 -0.153265
v 0.247852 -0.075000 -0.175237
v -0.000332 -0.075000 -0.246847
v -0.149640 -0.075000 0.243830
v 0.017566 0.075000 -0.015340
v 0.017566 0.075000 0.049738
v 0.188861 0.075000 0.049738
v 0.188861 0.075000 0.153086
v 0.260471 0.075000 0.182383
v 0.209766 0.075000 0.223536
v 0.110126 0.075000 0.199473
v 0.059620 0.075000 0.212290
v 0.079868 0.075000 0.273264
v 0.005359 0.075000 0.216563
v 0.005359 0.075000 0.279627
v 0.148777 0.075000 0.254206
v 0.154117 0.075000 0.179331
v 0.260471 0.075000 -0.015340
v -0.082409 0.075000 0.200846
v -0.078335 0.075000 0.270670
v -0.148831 0.075000 0.153696
v -0.249127 0.075000 0.140681
v -0.207058 0.075000 0.200129
v -0.190640 0.075000 0.079386
v -0.204571 0.075000 -0.017782
v -0.274914 0.075000 0.067393
v -0.191449 0.075000 -0.114568
v -0.283505 0.075000 -0.017782
v -0.152081 0.075000 -0.186834
v -0.264782 0.075000 -0.141576
v -0.118618 0.075000 -0.291204
v -0.208645 0.075000 -0.233831
v 0.001697 0.075000 -0.310323
v -0.087902 0.075000 -0.231847
v 0.058307 0.075000 -0.241262
v 0.087955 0.075000 -0.302297
v 0.106464 0.075000 -0.224477
v 0.156314 0.075000 -0.278188
v 0.144764 0.075000 -0.195486
v 0.208896 0.075000 -0.236379
v 0.173801 0.075000 -0.153265
v 0.247852 0.075000 -0.175237
v -0.000332 0.075000 -0.246847
v -0.149640 0.075000 0.243830
vn -0.3015 -0.9045 0.3015
vn -0.5773 -0.5774 0.5774
vn -0.5774 -0.5773 -0.5774
vn 0.7070 -0.6219 0.3367
vn -0.5093 -0.8224 -0.2535
vn 0.3962 -0.6836 0.6129
vn 0.1283 -0.6869 0.7153
vn -0.1118 -0.7267 -0.6778
vn -0.2279 -0.7280 -0.6466
vn -0.0078 -0.6862 0.7274
vn 0.0333 -0.7370 -0.6751
vn -0.3490 -0.7324 -0.5847
vn 0.2618 -0.6857 0.6792
vn 0.5774 -0.5774 -0.5773
vn -0.1696 -0.6797 0.7136
vn 0.2516 -0.7597 -0.5996
vn -0.5310 -0.6745 0.5129
vn -0.6536 -0.6773 0.3378
vn 0.4832 -0.7598 -0.4350
vn 0.6253 -0.7510 -0.2124
vn -0.7144 -0.6814 0.1593
vn 0.6731 -0.7396 -0.0026
vn -0.7330 -0.6800 -0.0182
vn 0.6283 -0.7502 0.2060
vn -0.7017 -0.6653 -0.2548
vn 0.4828 -0.7622 0.4312
vn -0.5370 -0.6595 -0.5260
vn -0.2651 -0.6640 -0.6991
vn 0.2475 -0.7599 0.6010
vn -0.0238 -0.6801 -0.7328
vn 0.1570 -0.6805 -0.7157
vn -0.1447 -0.7351 0.6623
vn 0.3587 -0.6717 -0.6482
vn -0.3155 -0.7439 0.5891
vn 0.5504 -0.6718 -0.4957
vn -0.4824 -0.7448 0.4610
vn -0.2678 -0.5957 0.7572
vn 0.7735 -0.5641 0.2890
vn 0.0252 -0.7380 0.6743
vn -0.3567 -0.6759 0.6449
vn -0.5773 0.5773 -0.5774
vn -0.5773 0.5773 0.5774
vn -0.3015 0.9045 0.3015
vn -0.5093 0.8224 -0.2535
vn 0.7070 0.6219 0.3367
vn 0.3962 0.6836 0.6129
vn -0.2279 0.7280 -0.6466
vn -0.1118 0.7267 -0.6777
vn 0.1283 0.6869 0.7153
vn 0.0333 0.7370 -0.6751
vn -0.0078 0.6862 0.7274
vn 0.2618 0.6857 0.6792
vn -0.3490 0.7324 -0.5847
vn 0.5773 0.5774 -0.5773
vn 0.2516 0.7597 -0.5996
vn -0.1696 0.6797 0.7136
vn 0.4832 0.7598 -0.4350
vn -0.6536 0.6773 0.3378
vn -0.5310 0.6745 0.5129
vn 0.6253 0.7510 -0.2124
vn 0.6731 0.7396 -0.0026
vn -0.7144 0.6814 0.1593
vn 0.6283 0.7502 0.2060
vn -0.7329 0.6800 -0.0182
vn 0.4828 0.7622 0.4312
vn -0.7017 0.6653 -0.2548
vn -0.2651 0.6641 -0.6991
vn -0.5370 0.6595 -0.5260
vn -0.0238 0.6801 -0.7328
vn 0.2475 0.7599 0.6010
vn -0.1447 0.7351 0.6623
vn 0.1570 0.6805 -0.7158
vn -0.3155 0.7439 0.5891
vn 0.3587 0.6717 -0.6482
vn -0.4824 0.7448 0.4610
vn 0.5504 0.6718 -0.4957
vn -0.2678 0.5957 0.7572
vn 0.7735 0.5641 0.2890
vn 0.0252 0.7380 0.6743
vn -0.3567 0.6759 0.6449
vt 0.067963 0.190756
vt 0.219655 0.202728
vt 0.215107 0.260359
vt 0.013819 0.068287
vt 0.075186 0.099235
vt 0.061597 0.035387
vt 0.180105 0.000427
vt 0.193775 0.055839
vt 0.148153 0.063660
vt 0.246532 0.000000
vt 0.242124 0.055848
vt 0.107788 0.078422
vt 0.117750 0.012489
vt -0.000000 0.243383
vt 0.320023 0.013781
vt 0.318751 0.075900
vt 0.429085 0.085246
vt 0.462184 0.140831
vt 0.374276 0.122296
vt 0.406107 0.191024
vt 0.479899 0.207535
vt 0.411653 0.278046
vt 0.481554 0.283562
vt 0.393268 0.362839
vt 0.456322 0.391882
vt 0.353355 0.424084
vt 0.400162 0.469656
vt 0.316427 0.514171
vt 0.293375 0.459460
vt 0.208544 0.522694
vt 0.132719 0.509558
vt 0.163239 0.457579
vt 0.073867 0.483430
vt 0.121766 0.439350
vt 0.030225 0.442731
vt 0.089876 0.410999
vt 0.067112 0.371581
vt -0.000000 0.385863
vt 0.214778 0.466623
vt 0.381291 0.042533
vt 0.748000 0.260359
vt 0.743452 0.202728
vt 0.895145 0.190756
vt 0.887922 0.099235
vt 0.949289 0.068287
vt 0.901510 0.035387
vt 0.814955 0.063660
vt 0.769332 0.055839
vt 0.783002 0.000427
vt 0.720983 0.055848
vt 0.716575 0.000000
vt 0.845357 0.012489
vt 0.855319 0.078422
vt 0.963107 0.243383
vt 0.644357 0.075900
vt 0.643085 0.013781
vt 0.588832 0.122296
vt 0.500923 0.140831
vt 0.534022 0.085246
vt 0.557001 0.191024
vt 0.551454 0.278046
vt 0.483209 0.207535
vt 0.569840 0.362839
vt 0.481554 0.283562
vt 0.609753 0.424084
vt 0.506786 0.391882
vt 0.646680 0.514171
vt 0.562946 0.469656
vt 0.754563 0.522694
vt 0.669733 0.459460
vt 0.799868 0.457579
vt 0.830389 0.509558
vt 0.841341 0.439350
vt 0.889240 0.483430
vt 0.873231 0.410999
vt 0.932883 0.442731
vt 0.895995 0.371581
vt 0.963107 0.385863
vt 0.748330 0.466623
vt 0.581816 0.042533
vt 0.266495 0.785882
vt 0.133247 0.723396
vt 0.266495 0.723396
vt 0.133247 0.785882
vt 0.266495 0.842288
vt 0.133247 0.842288
vt 0.266495 0.890432
vt 0.133247 0.890432
vt 0.799485 0.925960
vt 0.666237 0.754439
vt 0.799485 0.754439
vt 0.666237 0.925960
vt 0.932732 0.737470
vt 0.799485 0.522694
vt 0.932732 0.522694
vt 0.799485 0.737470
vt 0.341013 0.982427
vt 0.397505 0.849180
vt 0.397505 0.982427
vt 0.341013 0.849180
vt 0.932732 0.889019
vt 0.932732 0.737470
vt 0.799485 0.889019
vt 0.399742 0.954581
vt 0.489454 0.821333
vt 0.489454 0.954581
vt 0.399742 0.821333
vt 0.532990 0.555656
vt 0.399742 0.522694
vt 0.532990 0.522694
vt 0.399742 0.555656
vt 0.532990 0.596274
vt 0.399742 0.596274
vt 0.532990 0.642026
vt 0.399742 0.642026
vt 0.532990 0.690368
vt 0.399742 0.690368
vt 0.532990 0.766631
vt 0.399742 0.766631
vt 0.532990 0.821333
vt 0.666237 0.595153
vt 0.666237 0.522694
vt 0.532990 0.595153
vt 0.666237 0.682109
vt 0.532990 0.682109
vt 0.666237 0.763560
vt 0.532990 0.763560
vt 0.666237 0.818720
vt 0.532990 0.818720
vt 0.799485 0.583066
vt 0.666237 0.522694
vt 0.799485 0.522694
vt 0.666237 0.583066
vt 0.799485 0.661738
vt 0.666237 0.661738
vt 0.799485 0.713172
vt 0.666237 0.713172
vt 0.799485 0.754439
vt 0.666237 0.754439
vt 0.308622 0.982427
vt 0.341013 0.849180
vt 0.341013 0.982427
vt 0.308622 0.849180
vt 0.266495 0.982427
vt 0.266495 0.849180
vt 0.932732 0.655941
vt 1.000000 0.522694
vt 1.000000 0.655941
vt 0.932732 0.522694
vt 0.579315 0.951967
vt 0.639805 0.818720
vt 0.639805 0.951967
vt 0.579315 0.818720
vt 0.532990 0.951967
vt 0.532990 0.818720
vt 0.399742 0.581078
vt 0.266495 0.522694
vt 0.399742 0.522694
vt 0.266495 0.581078
vt 0.399742 0.656662
vt 0.266495 0.656662
vt 0.399742 0.764678
vt 0.266495 0.764678
vt 0.399742 0.849180
vt 0.266495 0.849180
vt 0.133247 0.592187
vt 0.000000 0.522694
vt 0.133247 0.522694
vt 0.000000 0.592187
vt 0.133247 0.696117
vt 0.000000 0.696117
vt 0.133247 0.771673
vt 0.000000 0.771673
vt 0.133247 0.840156
vt 0.000000 0.840156
vt 0.133247 0.899696
vt 0.000000 0.899696
vt 0.133247 0.948461
vt 0.000000 0.948461
vt 0.266495 0.583637
vt 0.133247 0.522694
vt 0.266495 0.522694
vt 0.133247 0.583637
vt 0.266495 0.656969
vt 0.133247 0.656969
s 1
f 1/1/1 2/2/2 3/3/3
f 4/4/4 5/5/5 1/1/1
f 4/4/4 6/6/6 5/5/5
f 7/7/7 8/8/8 9/9/9
f 8/8/8 10/10/10 11/11/11
f 12/12/12 6/6/6 13/13/13
f 4/4/4 1/1/1 14/14/14
f 1/1/1 3/3/3 14/14/14
f 5/5/5 6/6/6 12/12/12
f 9/9/9 12/12/12 13/13/13
f 7/7/7 9/9/9 13/13/13
f 10/10/10 8/8/8 7/7/7
f 11/11/11 15/15/15 16/16/16
f 17/17/17 18/18/18 19/19/19
f 19/19/19 18/18/18 20/20/20
f 20/20/20 21/21/21 22/22/22
f 22/22/22 23/23/23 24/24/24
f 24/24/24 25/25/25 26/26/26
f 26/26/26 27/27/27 28/28/28
f 29/29/29 28/28/28 30/30/30
f 30/30/30 31/31/31 32/32/32
f 31/31/31 33/33/33 34/34/34
f 33/33/33 35/35/35 36/36/36
f 36/36/36 35/35/35 37/37/37
f 37/37/37 35/35/35 38/38/38
f 34/34/34 33/33/33 36/36/36
f 32/32/32 31/31/31 34/34/34
f 39/39/39 30/30/30 32/32/32
f 39/39/39 29/29/29 30/30/30
f 29/29/29 26/26/26 28/28/28
f 26/26/26 25/25/25 27/27/27
f 24/24/24 23/23/23 25/25/25
f 22/22/22 21/21/21 23/23/23
f 20/20/20 18/18/18 21/21/21
f 40/40/40 17/17/17 19/19/19
f 16/16/16 40/40/40 19/19/19
f 16/16/16 15/15/15 40/40/40
f 11/11/11 10/10/10 15/15/15
f 41/41/41 42/42/42 43/43/43
f 43/43/43 44/44/44 45/45/45
f 44/44/44 46/46/46 45/45/45
f 47/47/47 48/48/48 49/49/49
f 50/50/50 51/51/51 48/48/48
f 52/52/52 46/46/46 53/53/53
f 54/54/54 43/43/43 45/45/45
f 54/54/54 41/41/41 43/43/43
f 53/53/53 46/46/46 44/44/44
f 52/52/52 53/53/53 47/47/47
f 52/52/52 47/47/47 49/49/49
f 49/49/49 48/48/48 51/51/51
f 55/55/55 56/56/56 50/50/50
f 57/57/57 58/58/58 59/59/59
f 60/60/60 58/58/58 57/57/57
f 61/61/61 62/62/62 60/60/60
f 63/63/63 64/64/64 61/61/61
f 65/65/65 66/66/66 63/63/63
f 67/67/67 68/68/68 65/65/65
f 69/69/69 67/67/67 70/70/70
f 71/71/71 72/72/72 69/69/69
f 73/73/73 74/74/74 72/72/72
f 75/75/75 76/76/76 74/74/74
f 77/77/77 76/76/76 75/75/75
f 78/78/78 76/76/76 77/77/77
f 75/75/75 74/74/74 73/73/73
f 73/73/73 72/72/72 71/71/71
f 71/71/71 69/69/69 79/79/79
f 69/69/69 70/70/70 79/79/79
f 67/67/67 65/65/65 70/70/70
f 68/68/68 66/66/66 65/65/65
f 66/66/66 64/64/64 63/63/63
f 64/64/64 62/62/62 61/61/61
f 62/62/62 58/58/58 60/60/60
f 57/57/57 59/59/59 80/80/80
f 57/57/57 80/80/80 55/55/55
f 80/80/80 56/56/56 55/55/55
f 56/56/56 51/51/51 50/50/50
f 13/81/13 49/82/49 7/83/7
f 13/81/13 52/84/52 49/82/49
f 6/85/6 52/84/52 13/81/13
f 6/85/6 46/86/46 52/84/52
f 4/87/4 46/86/46 6/85/6
f 4/87/4 45/88/45 46/86/46
f 14/89/14 45/90/45 4/91/4
f 14/89/14 54/92/54 45/90/45
f 3/93/3 54/94/54 14/95/14
f 3/93/3 41/96/41 54/94/54
f 2/97/2 41/98/41 3/99/3
f 2/97/2 42/100/42 41/98/41
f 1/101/1 42/96/42 2/102/2
f 1/101/1 43/103/43 42/96/42
f 5/104/5 43/105/43 1/106/1
f 5/104/5 44/107/44 43/105/43
f 12/108/12 44/109/44 5/110/5
f 12/108/12 53/111/53 44/109/44
f 9/112/9 53/111/53 12/108/12
f 9/112/9 47/113/47 53/111/53
f 8/114/8 47/113/47 9/112/9
f 8/114/8 48/115/48 47/113/47
f 11/116/11 48/115/48 8/114/8
f 11/116/11 50/117/50 48/115/48
f 16/118/16 50/117/50 11/116/11
f 16/118/16 55/119/55 50/117/50
f 19/120/19 55/119/55 16/118/16
f 19/120/19 57/107/57 55/119/55
f 20/121/20 57/110/57 19/122/19
f 20/121/20 60/123/60 57/110/57
f 22/124/22 60/123/60 20/121/20
f 22/124/22 61/125/61 60/123/60
f 24/126/24 61/125/61 22/124/22
f 24/126/24 63/127/63 61/125/61
f 26/128/26 63/127/63 24/126/24
f 26/128/26 65/129/65 63/127/63
f 29/130/29 65/131/65 26/132/26
f 29/130/29 70/133/70 65/131/65
f 39/134/39 70/133/70 29/130/29
f 39/134/39 79/135/79 70/133/70
f 32/136/32 79/135/79 39/134/39
f 32/136/32 71/137/71 79/135/79
f 34/138/34 71/137/71 32/136/32
f 34/138/34 73/139/73 71/137/71
f 36/140/36 73/141/73 34/142/34
f 36/140/36 75/143/75 73/141/73
f 37/144/37 75/143/75 36/140/36
f 37/144/37 77/145/77 75/143/75
f 38/146/38 77/147/77 37/148/37
f 38/146/38 78/149/78 77/147/77
f 35/150/35 78/151/78 38/152/38
f 35/150/35 76/153/76 78/151/78
f 33/154/33 76/153/76 35/150/35
f 33/154/33 74/155/74 76/153/76
f 31/156/31 74/157/74 33/158/33
f 31/156/31 72/159/72 74/157/74
f 30/160/30 72/159/72 31/156/31
f 30/160/30 69/161/69 72/159/72
f 28/162/28 69/161/69 30/160/30
f 28/162/28 67/163/67 69/161/69
f 27/164/27 67/163/67 28/162/28
f 27/164/27 68/165/68 67/163/67
f 25/166/25 68/167/68 27/168/27
f 25/166/25 66/169/66 68/167/68
f 23/170/23 66/169/66 25/166/25
f 23/170/23 64/171/64 66/169/66
f 21/172/21 64/171/64 23/170/23
f 21/172/21 62/173/62 64/171/64
f 18/174/18 62/173/62 21/172/21
f 18/174/18 58/175/58 62/173/62
f 17/176/17 58/175/58 18/174/18
f 17/176/17 59/177/59 58/175/58
f 40/178/40 59/177/59 17/176/17
f 40/178/40 80/179/80 59/177/59
f 15/180/15 80/181/80 40/182/40
f 15/180/15 56/183/56 80/181/80
f 10/184/10 56/183/56 15/180/15
f 10/184/10 51/185/51 56/183/56
f 7/83/7 51/185/51 10/184/10
f 7/83/7 49/82/49 51/185/51
