# Blender 4.4.3
# www.blender.org
mtllib joint_08.mtl
o joint_08
v -7.903040 -1.495010 0.344382
v -7.927100 -1.489140 0.200817
v -7.763450 -1.494870 0.200817
v -8.000000 -1.488100 0.243951
v -7.984900 -1.492080 0.342571
v -7.768850 -1.499820 0.347351
v -7.941080 -1.488100 0.185029
v -7.912770 -1.999020 0.325886
v -7.756050 -1.976000 -0.000001
v -8.000000 -1.976000 -0.243953
v -7.774170 -1.992600 0.329854
v -7.707030 -1.501030 0.320220
v -7.725310 -1.496210 0.200817
v -7.724400 -1.501410 0.348335
v -8.097960 -1.497640 0.346005
v -8.190550 -1.502190 0.348816
v -8.243950 -1.488100 -0.000001
v -8.172520 -1.771280 0.466636
v -8.172520 -1.692820 0.466636
v -8.168810 -1.732050 0.490880
v -8.243950 -1.976000 -0.000001
v -8.193150 -1.989400 0.331827
v -7.725310 -1.774270 0.200817
v -7.707030 -1.988930 0.320220
v -7.756050 -1.907970 -0.000001
v -7.914450 -1.998960 0.325922
v -8.087820 -1.993010 0.329595
v -7.714040 -1.989810 0.331575
v -8.185340 -1.963390 -0.347905
v -8.241100 -1.960890 -0.349449
v -7.801980 -1.477340 -0.200819
v -7.753350 -1.473780 -0.331260
v -7.754410 -1.479420 -0.200819
v -7.831350 -1.470470 -0.329214
v -8.240650 -1.699200 -0.404881
v -8.241250 -1.473780 -0.331260
v -8.240650 -1.592900 -0.404881
v -8.240650 -1.764900 -0.404881
v -8.240650 -1.871200 -0.404881
v -7.902420 -1.967470 -0.345386
v -7.999190 -1.971730 -0.342752
v -7.809900 -1.963390 -0.347905
v -8.097630 -1.967320 -0.345477
v -7.752830 -1.575840 -0.394339
v -7.754410 -1.791080 -0.200819
v -7.752830 -1.888260 -0.394339
v -7.753200 -1.960890 -0.349449
v -7.999650 -1.486220 0.200463
v -8.000000 -1.486250 0.200817
v -7.995360 -1.463500 -0.324912
v -7.996400 -1.469020 -0.197223
v -8.000000 -1.469020 -0.200819
v -8.086380 -1.467310 -0.327262
v -8.200820 -1.486250 -0.000001
v -7.961020 -1.486220 0.161834
v -7.899310 -1.473100 -0.200819
v -7.913750 -1.466970 -0.327053
v -7.949660 -1.473100 -0.150475
v -8.490880 -1.544550 -0.000001
v -8.303380 -1.428670 -0.303382
v -8.490880 -1.919550 -0.000001
v -7.990360 -1.247130 -0.191182
v -7.757350 -1.391140 -0.200819
v -7.696620 -1.428670 -0.303382
v -7.978450 -1.254490 -0.179270
v -7.800570 -1.364420 -0.111326
v -7.633230 -1.467840 -0.200819
v -8.303380 -2.035430 -0.303382
v -8.000000 -2.222930 -0.187501
v -7.633230 -1.721110 -0.200819
v -7.509120 -1.919550 -0.000001
v -7.509120 -1.765400 -0.000001
v -7.696620 -2.035430 -0.303382
v -7.990360 -1.247130 0.191180
v -7.994910 -1.254490 0.195730
v -7.696620 -1.428670 0.303380
v -8.021550 -1.254490 -0.179270
v -8.009640 -1.247130 -0.191182
v -7.994910 -1.254490 -0.195732
v -7.757350 -1.391140 0.200817
v -7.978450 -1.254490 0.179268
v -7.800570 -1.364420 0.111324
v -7.633230 -1.467840 0.200817
v -8.000000 -2.222930 0.187499
v -8.303380 -2.035430 0.303380
v -7.696620 -2.035430 0.303380
v -8.187500 -1.732050 0.490880
v -7.836370 -1.342290 0.037193
v -7.836370 -1.342290 -0.037194
v -8.200820 -1.365280 -0.000001
v -8.021550 -1.254490 0.179268
v -8.000000 -1.262720 -0.200819
v -8.005090 -1.254490 -0.195732
v -8.303380 -1.428670 0.303380
v -8.000000 -1.262720 0.200817
v -8.005090 -1.254490 0.195730
v -8.009640 -1.247130 0.191180
v -7.633230 -1.721110 0.200817
vn -0.0350 -0.9988 -0.0350
vn -0.0349 -0.9988 -0.0350
vn -0.0349 -0.9988 -0.0349
vn -0.0476 0.9977 0.0476
vn -0.0351 -0.9988 -0.0349
vn -0.0350 -0.9988 -0.0351
vn 0.0476 -0.9977 -0.0476
vn 0.9885 -0.0000 -0.1513
vn -0.9885 -0.0000 0.1513
vn 0.0350 0.9988 0.0350
vn 0.0364 0.9987 0.0348
vn -0.0477 0.9977 0.0476
vn -0.0477 0.9977 0.0479
vn 0.0435 0.9981 0.0435
vn -0.0436 -0.9981 -0.0435
vn -0.0435 -0.9981 -0.0435
vn 1.0000 -0.0000 0.0082
vn 1.0000 -0.0000 0.0081
vn -0.0428 0.9982 0.0428
vn -0.0429 0.9982 0.0427
vn -1.0000 -0.0001 -0.0081
vn -1.0000 -0.0000 -0.0082
vn 0.0424 -0.9982 -0.0428
vn 0.0428 -0.9982 -0.0428
vn 0.0429 -0.9982 -0.0428
vn 0.0428 -0.9982 -0.0427
vn -0.0436 -0.9981 -0.0436
vn -0.8507 -0.0000 -0.5257
vn 0.5257 0.8506 -0.0000
vn 0.5257 0.8506 -0.0001
vn 0.5257 0.8507 -0.0000
vn -0.0000 -0.5257 -0.8506
vn 0.8506 -0.0000 -0.5257
vn 0.8507 -0.0000 -0.5257
vn -0.0000 -0.5257 -0.8507
vn -0.0001 -0.5257 -0.8506
vn 0.0001 0.5258 0.8506
vn -0.0000 0.5257 0.8507
vn -0.0000 0.5257 0.8506
vn -0.5257 0.8507 -0.0001
vn -0.5257 0.8507 -0.0000
vn 0.0001 0.5258 -0.8506
vn -0.0000 0.5257 -0.8506
vn -0.0000 0.5257 -0.8507
vn 0.5257 0.8506 0.0001
vn -0.5257 -0.8506 -0.0000
vn -0.0005 -0.5256 0.8507
vn -0.0000 -0.5257 0.8506
vn -0.0000 -0.5258 0.8506
vn -0.0000 -0.5257 0.8507
vn 0.5257 -0.8506 -0.0000
vn 0.5257 -0.8507 -0.0000
vn 0.5257 0.8507 0.0001
vn 0.5257 0.8507 -0.0001
vn -0.5257 0.8506 -0.0000
vn -0.0001 0.5257 -0.8506
vn -0.0001 0.5258 -0.8506
vn -0.8507 -0.0000 0.5257
vn -0.5257 -0.8507 -0.0000
vn -0.0001 0.5257 0.8506
vn -0.0001 0.5258 0.8506
vn -0.5257 0.8507 0.0001
vn 0.8507 -0.0001 0.5256
vn 0.8506 -0.0000 0.5258
vn 0.8509 0.0002 0.5253
vn 0.8506 -0.0000 0.5257
vn 0.8507 -0.0000 0.5257
vn 0.7071 -0.0000 -0.7071
vn 0.7071 0.0003 -0.7071
vn 0.7071 -0.0000 0.7071
vn 0.7071 0.0003 0.7071
vn -0.7067 -0.0000 0.7075
vn -0.7072 -0.0000 0.7070
vn -0.7072 0.0003 0.7071
vn -0.7071 0.0001 0.7071
vn -0.7071 -0.0000 0.7071
vn -0.7112 -0.0000 -0.7030
vn -0.7072 0.0003 -0.7071
vn -0.7071 0.0001 -0.7071
vn -0.7071 -0.0000 -0.7071
vn -0.0000 -0.0000 1.0000
vn 0.4472 -0.7746 -0.4472
vn 0.4473 -0.7746 -0.4471
vn -0.4472 0.7746 0.4472
vn 0.4472 -0.7746 0.4472
vn -0.4472 0.7746 -0.4472
vn -0.0000 -0.0000 -1.0000
s 0
usemtl Onyx12Tone
f 1//1 2//1 3//1
f 2//2 1//2 4//2
f 4//1 1//1 5//1
f 1//1 3//1 6//1
f 7//3 2//3 4//3
f 8//4 9//4 10//4
f 9//4 8//4 11//4
f 12//5 3//5 13//5
f 12//2 6//2 3//2
f 6//6 12//6 14//6
f 15//7 4//7 5//7
f 16//7 4//7 15//7
f 4//7 16//7 17//7
f 18//8 16//8 19//8
f 18//8 19//8 20//8
f 21//8 16//8 18//8
f 16//8 21//8 17//8
f 21//8 18//8 22//8
f 23//9 12//9 13//9
f 24//9 25//9 9//9
f 23//9 24//9 12//9
f 25//9 24//9 23//9
f 26//10 10//10 21//10
f 10//11 26//11 8//11
f 21//10 27//10 26//10
f 27//10 21//10 22//10
f 11//12 24//12 9//12
f 24//13 11//13 28//13
f 29//14 30//14 21//14
f 31//15 32//15 33//15
f 32//16 31//16 34//16
f 35//17 36//17 17//17
f 36//18 35//18 37//18
f 17//18 38//18 35//18
f 21//18 38//18 17//18
f 30//17 38//17 21//17
f 38//18 30//18 39//18
f 10//19 40//19 41//19
f 40//20 10//20 42//20
f 42//19 10//19 9//19
f 10//14 43//14 29//14
f 43//14 10//14 41//14
f 10//14 29//14 21//14
f 44//21 33//21 32//21
f 44//22 45//22 33//22
f 46//22 45//22 44//22
f 47//22 45//22 46//22
f 9//22 45//22 47//22
f 45//22 9//22 25//22
f 47//19 42//19 9//19
f 48//23 4//23 49//23
f 50//24 51//24 52//24
f 52//25 53//25 50//25
f 53//26 52//26 36//26
f 54//24 36//24 52//24
f 54//24 17//24 36//24
f 49//24 17//24 54//24
f 17//24 49//24 4//24
f 7//16 48//16 55//16
f 48//16 7//16 4//16
f 56//16 57//16 34//16
f 56//16 34//16 31//16
f 51//15 57//15 56//15
f 57//15 51//15 50//15
f 51//27 56//27 58//27
f 37//28 59//28 60//28
f 59//28 37//28 35//28
f 38//28 59//28 35//28
f 59//28 38//28 61//28
f 62//29 63//29 64//29
f 65//30 63//30 62//30
f 63//30 65//30 66//30
f 64//31 63//31 67//31
f 39//28 61//28 38//28
f 61//28 39//28 68//28
f 41//32 69//32 43//32
f 69//32 41//32 40//32
f 70//33 64//33 67//33
f 71//34 70//34 72//34
f 70//33 73//33 64//33
f 73//34 70//34 71//34
f 42//32 69//32 40//32
f 73//35 42//35 47//35
f 42//35 73//35 69//35
f 73//36 47//36 46//36
f 1//37 74//37 75//37
f 76//38 1//38 6//38
f 76//38 6//38 14//38
f 1//39 76//39 74//39
f 64//34 46//34 44//34
f 46//34 64//34 73//34
f 60//40 77//40 78//40
f 77//41 60//41 59//41
f 62//42 57//42 79//42
f 62//43 34//43 57//43
f 64//44 34//44 62//44
f 32//43 64//43 44//43
f 34//44 64//44 32//44
f 80//45 81//45 74//45
f 81//45 80//45 82//45
f 80//31 76//31 83//31
f 76//29 80//29 74//29
f 84//46 68//46 69//46
f 68//46 84//46 85//46
f 84//47 8//47 26//47
f 84//48 11//48 8//48
f 86//49 11//49 84//49
f 11//50 86//50 28//50
f 84//50 22//50 85//50
f 22//50 84//50 27//50
f 18//48 85//48 22//48
f 85//50 18//50 87//50
f 68//32 39//32 30//32
f 29//35 68//35 30//35
f 69//32 29//32 43//32
f 29//35 69//35 68//35
f 73//51 84//51 69//51
f 84//51 73//51 86//51
f 71//52 86//52 73//52
f 88//53 81//53 82//53
f 65//54 89//54 66//54
f 59//55 90//55 77//55
f 90//55 59//55 91//55
f 92//56 53//56 93//56
f 92//43 50//43 53//43
f 57//42 92//42 79//42
f 92//43 57//43 50//43
f 78//44 36//44 60//44
f 36//43 78//43 53//43
f 53//57 78//57 93//57
f 60//43 36//43 37//43
f 59//58 87//58 94//58
f 61//58 87//58 59//58
f 85//58 87//58 61//58
f 68//59 85//59 61//59
f 87//38 20//38 19//38
f 15//60 95//60 96//60
f 5//39 95//39 15//39
f 1//39 95//39 5//39
f 95//37 1//37 75//37
f 26//50 27//50 84//50
f 18//50 20//50 87//50
f 19//38 94//38 87//38
f 94//39 19//39 16//39
f 97//39 16//39 15//39
f 16//38 97//38 94//38
f 97//61 15//61 96//61
f 94//41 91//41 59//41
f 91//62 94//62 97//62
f 76//63 14//63 12//63
f 86//64 12//64 24//64
f 12//64 86//64 76//64
f 86//65 24//65 28//65
f 76//66 98//66 83//66
f 98//67 71//67 72//67
f 98//67 86//67 71//67
f 86//66 98//66 76//66
f 96//68 91//68 97//68
f 95//69 91//69 96//69
f 49//68 91//68 95//68
f 91//68 49//68 90//68
f 90//68 49//68 54//68
f 77//70 93//70 78//70
f 77//71 92//71 93//71
f 52//70 77//70 90//70
f 77//70 52//70 92//70
f 52//70 90//70 54//70
f 51//72 92//72 52//72
f 58//73 92//73 51//73
f 92//74 65//74 79//74
f 79//75 65//75 62//75
f 92//76 58//76 65//76
f 65//76 58//76 89//76
f 95//77 48//77 49//77
f 81//78 95//78 75//78
f 81//79 75//79 74//79
f 88//80 95//80 81//80
f 95//80 55//80 48//80
f 95//80 88//80 55//80
f 45//81 70//81 33//81
f 31//81 63//81 56//81
f 33//81 63//81 31//81
f 67//81 33//81 70//81
f 33//81 67//81 63//81
f 82//82 55//82 88//82
f 82//82 7//82 55//82
f 2//82 82//82 80//82
f 82//83 2//83 7//83
f 25//84 70//84 45//84
f 70//84 25//84 72//84
f 66//85 56//85 63//85
f 56//85 66//85 58//85
f 58//85 66//85 89//85
f 98//86 25//86 23//86
f 25//86 98//86 72//86
f 80//87 3//87 2//87
f 80//87 13//87 3//87
f 83//87 13//87 80//87
f 98//87 13//87 83//87
f 13//87 98//87 23//87
