# Blender 4.4.3
# www.blender.org
mtllib joint_09.mtl
o joint_09
v -0.367111 -0.780192 -8.932310
v 0.000001 -0.756047 -8.976000
v -0.403210 -0.778526 -8.873900
v -0.426788 -0.772889 -8.628350
v -0.243951 -0.756047 -8.732050
v -0.200817 -0.756047 -8.688920
v -0.418067 -0.767499 -8.711330
v -0.351282 -0.775631 -8.506180
v -0.200817 -0.767243 -8.498430
v -0.367111 -0.888994 -8.932310
v -0.367111 -1.111010 -8.932310
v -0.361110 -1.267700 -8.933030
v -0.367111 -1.263990 -8.932310
v 0.000001 -1.243950 -8.976000
v -0.200817 -0.799181 -8.464200
v -0.316808 -0.920082 -8.450400
v -0.316808 -0.776884 -8.450400
v -0.316808 -1.079920 -8.450400
v -0.200817 -1.200820 -8.464200
v -0.184665 -0.768193 -8.466120
v -0.173328 -0.790166 -8.467470
v -0.168677 -0.799181 -8.468020
v -0.316808 -1.264790 -8.450400
v 0.000001 -1.243950 -8.488100
v 0.000001 -1.200820 -8.488100
v -0.200817 -0.768193 -8.482270
v -0.433638 -0.777123 -8.824670
v -0.337647 -1.282200 -8.662840
v -0.354048 -1.272070 -8.510650
v 0.243953 -1.243950 -8.732050
v -0.348384 -1.275570 -8.786480
v -0.338607 -1.281610 -8.673890
v 0.349249 -0.900034 -8.961220
v 0.349249 -1.099970 -8.961220
v 0.349249 -1.220560 -8.961220
v 0.349249 -0.732655 -8.961220
v -0.200817 -0.754822 -8.706440
v -0.176162 -0.751507 -8.729180
v 0.336620 -0.717160 -8.707470
v 0.200819 -0.727821 -8.690850
v 0.177460 -0.727821 -8.714210
v 0.356265 -0.729302 -8.514240
v 0.200819 -0.742596 -8.479600
v 0.331440 -0.733847 -8.474070
v 0.003221 -0.751077 -8.901880
v 0.000001 -0.751507 -8.905340
v 0.359028 -0.731009 -8.945390
v -0.003191 -0.751507 -8.902150
v 0.200819 -0.763556 -8.479600
v 0.200819 -0.799181 -8.479600
v 0.331440 -0.911041 -8.474070
v 0.181087 -0.799181 -8.480430
v 0.200819 -1.200820 -8.479600
v 0.331440 -1.221750 -8.474070
v 0.331440 -1.088960 -8.474070
v 0.431630 -1.224120 -8.827920
v 0.422718 -1.229630 -8.758090
v 0.418453 -1.232260 -8.724660
v 0.420706 -1.230870 -8.705250
v 0.429180 -1.225630 -8.632210
v -0.303380 -0.696618 -9.035430
v -0.187499 -1.000000 -9.222930
v -0.303380 -1.303380 -9.035430
v 0.065936 -0.799181 -8.365280
v 0.110795 -0.799181 -8.365280
v 0.099932 -0.770742 -8.382860
v -0.110793 -0.799181 -8.365280
v -0.065934 -0.799181 -8.365280
v -0.099931 -0.770742 -8.382860
v 0.303382 -0.696618 -9.035430
v 0.303382 -0.696618 -8.428670
v 0.187501 -1.000000 -9.222930
v 0.000001 -1.490880 -8.919550
v 0.303382 -1.303380 -9.035430
v -0.303380 -0.696618 -8.428670
v 0.200819 -1.008230 -8.262720
v 0.200819 -0.991769 -8.262720
v 0.000001 -1.490880 -8.544550
v 0.200819 -0.965133 -8.262720
v -0.200817 -1.008230 -8.262720
v -0.200817 -0.991769 -8.262720
v -0.018645 -0.520642 -8.753410
v 0.000001 -0.509118 -8.919550
v 0.000001 -0.509118 -8.765400
v -0.200817 -0.633231 -8.636240
v -0.200817 -0.633231 -8.467840
v 0.018646 -0.520642 -8.753410
v 0.200819 -0.633231 -8.636240
v 0.200819 -0.633231 -8.467840
v -0.200817 -0.799181 -8.365280
v -0.168205 -0.713626 -8.418160
v -0.200817 -0.686344 -8.435020
v -0.200817 -0.965133 -8.262720
v -0.303380 -1.303380 -8.428670
v 0.200819 -0.799181 -8.365280
v 0.200819 -0.686344 -8.435020
v 0.168207 -0.713626 -8.418160
v 0.110795 -1.200820 -8.365280
v -0.110793 -1.200820 -8.365280
v 0.200819 -1.034870 -8.262720
v 0.303382 -1.303380 -8.428670
v -0.200817 -1.200820 -8.365280
v -0.200817 -1.034870 -8.262720
v 0.200819 -1.200820 -8.365280
v 0.173934 -0.799181 -8.473280
vn 0.0742 -0.9945 0.0743
vn 0.0586 -0.9966 -0.0586
vn 0.1182 -0.0000 0.9930
vn 0.1191 -0.0000 0.9929
vn -0.1181 -0.0000 -0.9930
vn -0.1181 0.0001 -0.9930
vn -0.1180 -0.0003 -0.9930
vn -0.1182 -0.0000 -0.9930
vn -0.1182 0.0001 -0.9930
vn 0.0742 -0.9945 0.0742
vn -0.0744 0.9945 -0.0742
vn -0.0742 0.9945 -0.0742
vn -0.0586 0.9966 0.0586
vn -0.0588 0.9966 0.0583
vn -0.0423 -0.0000 0.9991
vn 0.0696 -0.9951 -0.0696
vn 0.0642 -0.9959 0.0640
vn 0.0640 -0.9959 0.0640
vn 0.0423 -0.0000 -0.9991
vn 0.0420 -0.0000 -0.9991
vn -0.0696 0.9951 0.0696
vn -0.0696 0.9952 0.0694
vn -0.0640 0.9959 -0.0639
vn -0.0640 0.9959 -0.0640
vn -0.8506 -0.0001 -0.5258
vn -0.8507 -0.0000 -0.5257
vn -0.0000 0.5258 0.8506
vn 0.5257 0.8507 -0.0000
vn 0.5257 0.8506 -0.0000
vn -0.0000 0.5257 -0.8507
vn 0.8506 -0.0000 -0.5257
vn -0.5257 -0.8506 -0.0000
vn -0.5257 -0.8507 -0.0000
vn -0.5259 -0.8506 -0.0001
vn 0.8506 -0.0000 -0.5258
vn 0.8507 -0.0000 -0.5257
vn -0.5257 0.8506 -0.0000
vn 0.8507 -0.0000 0.5257
vn 0.5257 -0.8507 -0.0000
vn 0.5257 -0.8506 -0.0000
vn 0.5257 -0.8507 0.0001
vn 0.5257 -0.8507 -0.0001
vn 0.8507 0.0005 -0.5256
vn -0.0000 -0.5257 -0.8507
vn -0.0000 -0.5257 -0.8506
vn -0.8507 -0.0000 0.5257
vn -0.5257 0.8507 -0.0000
vn 0.0001 0.5257 0.8506
vn 0.0001 0.5258 0.8506
vn -0.0000 0.5257 0.8507
vn -0.0000 0.5257 0.8506
vn -0.8506 -0.0000 0.5257
vn -0.5258 -0.8506 0.0003
vn -0.0001 0.5258 0.8506
vn -0.0001 0.5257 0.8506
vn -0.0000 -0.5257 0.8506
vn 0.8506 -0.0000 0.5257
vn -0.0000 -0.5258 0.8506
vn -0.0000 -0.5257 0.8507
vn -0.8506 0.0001 0.5258
vn -0.6547 0.3779 -0.6546
vn -0.6546 0.3780 -0.6547
vn -0.6546 0.3778 -0.6549
vn -0.0000 1.0000 -0.0000
vn 0.6546 -0.3780 0.6547
vn 0.6545 -0.3780 0.6548
vn 0.6547 -0.3780 0.6547
vn -0.6547 0.3779 -0.6547
vn 0.6547 0.3779 -0.6547
vn 0.6547 0.3778 -0.6547
vn -1.0000 -0.0000 -0.0000
vn 0.6546 0.3779 -0.6547
vn 0.6546 0.3780 -0.6547
vn 1.0000 -0.0000 -0.0000
vn -0.6547 -0.3780 0.6547
vn -0.6547 -0.3780 0.6546
vn -0.6546 -0.3780 0.6547
vn -0.6537 -0.3784 0.6554
vn -0.0000 -1.0000 -0.0000
s 0
usemtl Onyx12Tone
f 1//1 2//1 3//1
f 4//2 5//2 6//2
f 5//2 4//2 7//2
f 6//2 8//2 4//2
f 8//2 6//2 9//2
f 2//3 10//3 11//3
f 12//4 11//4 13//4
f 14//3 11//3 12//3
f 2//3 11//3 14//3
f 10//3 2//3 1//3
f 15//5 16//5 17//5
f 16//5 15//5 18//5
f 18//5 15//5 19//5
f 20//6 15//6 17//6
f 21//6 15//6 20//6
f 15//7 21//7 22//7
f 18//5 19//5 23//5
f 24//8 19//8 25//8
f 19//9 24//9 23//9
f 17//2 9//2 26//2
f 17//2 26//2 20//2
f 9//2 17//2 8//2
f 5//10 3//10 2//10
f 3//10 5//10 27//10
f 27//10 5//10 7//10
f 23//11 28//11 29//11
f 28//12 24//12 30//12
f 28//12 23//12 24//12
f 31//13 14//13 12//13
f 32//13 14//13 31//13
f 28//14 14//14 32//14
f 14//13 28//13 30//13
f 33//15 2//15 14//15
f 34//15 14//15 35//15
f 33//15 14//15 34//15
f 2//15 33//15 36//15
f 37//16 5//16 38//16
f 5//16 37//16 6//16
f 39//16 40//16 41//16
f 42//16 40//16 39//16
f 42//16 43//16 40//16
f 43//16 42//16 44//16
f 2//17 45//17 46//17
f 36//18 41//18 45//18
f 41//18 47//18 39//18
f 41//18 36//18 47//18
f 45//18 2//18 36//18
f 48//18 2//18 46//18
f 48//18 5//18 2//18
f 5//18 48//18 38//18
f 44//19 49//19 43//19
f 49//19 44//19 50//19
f 50//19 44//19 51//19
f 52//20 49//20 50//20
f 53//19 24//19 25//19
f 53//19 54//19 24//19
f 50//19 51//19 53//19
f 55//19 53//19 51//19
f 53//19 55//19 54//19
f 30//21 35//21 14//21
f 35//21 30//21 56//21
f 56//21 30//21 57//21
f 57//22 30//22 58//22
f 30//23 59//23 58//23
f 30//24 60//24 59//24
f 54//24 30//24 24//24
f 30//24 54//24 60//24
f 61//25 3//25 27//25
f 61//26 1//26 3//26
f 61//26 10//26 1//26
f 10//26 61//26 62//26
f 62//26 11//26 10//26
f 63//26 11//26 62//26
f 11//26 63//26 13//26
f 64//27 65//27 66//27
f 67//27 68//27 69//27
f 70//28 39//28 47//28
f 39//29 71//29 42//29
f 71//28 39//28 70//28
f 61//30 72//30 62//30
f 72//30 61//30 70//30
f 33//31 34//31 72//31
f 73//32 12//32 63//32
f 12//33 73//33 31//33
f 63//34 12//34 13//34
f 74//35 34//35 35//35
f 34//31 74//31 72//31
f 74//36 35//36 56//36
f 7//37 61//37 27//37
f 75//37 7//37 4//37
f 7//37 75//37 61//37
f 76//38 51//38 77//38
f 51//38 76//38 55//38
f 56//39 73//39 74//39
f 73//40 56//40 57//40
f 73//33 32//33 31//33
f 32//33 73//33 78//33
f 58//41 73//41 57//41
f 78//42 58//42 59//42
f 58//40 78//40 73//40
f 36//43 70//43 47//43
f 33//35 70//35 36//35
f 70//31 33//31 72//31
f 71//38 44//38 42//38
f 71//38 51//38 44//38
f 79//38 51//38 71//38
f 51//38 79//38 77//38
f 74//44 73//44 63//44
f 72//45 63//45 62//45
f 63//45 72//45 74//45
f 16//46 80//46 81//46
f 80//46 16//46 18//46
f 82//47 83//47 61//47
f 83//37 82//37 84//37
f 61//47 85//47 82//47
f 75//47 85//47 61//47
f 85//47 75//47 86//47
f 87//29 83//29 84//29
f 83//28 87//28 70//28
f 88//28 70//28 87//28
f 71//28 88//28 89//28
f 88//28 71//28 70//28
f 90//48 91//48 92//48
f 67//27 91//27 90//27
f 91//49 67//49 69//49
f 90//50 75//50 93//50
f 92//51 75//51 90//51
f 75//50 92//50 86//50
f 8//52 75//52 4//52
f 17//52 75//52 8//52
f 93//46 17//46 16//46
f 17//46 93//46 75//46
f 93//46 16//46 81//46
f 61//30 83//30 70//30
f 78//53 28//53 32//53
f 78//33 29//33 28//33
f 29//33 78//33 94//33
f 71//50 95//50 79//50
f 95//51 71//51 96//51
f 96//50 71//50 89//50
f 65//54 97//54 66//54
f 95//27 97//27 65//27
f 97//55 95//55 96//55
f 78//56 98//56 99//56
f 100//38 55//38 76//38
f 100//38 54//38 55//38
f 54//57 101//57 60//57
f 101//38 54//38 100//38
f 94//58 99//58 102//58
f 99//56 94//56 78//56
f 94//59 102//59 103//59
f 18//46 103//46 80//46
f 23//46 103//46 18//46
f 23//46 94//46 103//46
f 94//60 23//60 29//60
f 101//56 98//56 78//56
f 104//59 101//59 100//59
f 98//58 101//58 104//58
f 60//40 78//40 59//40
f 78//40 60//40 101//40
f 49//61 105//61 97//61
f 49//62 97//62 96//62
f 105//63 49//63 52//63
f 99//64 25//64 19//64
f 99//64 19//64 102//64
f 98//64 25//64 99//64
f 25//64 98//64 53//64
f 53//64 98//64 104//64
f 48//65 84//65 82//65
f 84//66 48//66 46//66
f 85//65 37//65 38//65
f 38//67 82//67 85//67
f 82//67 38//67 48//67
f 105//68 66//68 97//68
f 66//68 105//68 64//68
f 69//69 21//69 91//69
f 21//70 69//70 22//70
f 22//69 69//69 68//69
f 43//71 89//71 88//71
f 43//71 88//71 40//71
f 89//71 43//71 96//71
f 96//71 43//71 49//71
f 50//71 79//71 95//71
f 50//71 77//71 79//71
f 50//71 76//71 77//71
f 53//71 76//71 50//71
f 76//71 53//71 100//71
f 100//71 53//71 104//71
f 91//72 26//72 92//72
f 26//72 91//72 20//72
f 20//73 91//73 21//73
f 9//74 86//74 92//74
f 86//74 9//74 85//74
f 85//74 6//74 37//74
f 85//74 9//74 6//74
f 9//74 92//74 26//74
f 93//74 15//74 90//74
f 81//74 15//74 93//74
f 80//74 15//74 81//74
f 19//74 80//74 103//74
f 19//74 103//74 102//74
f 80//74 19//74 15//74
f 87//75 41//75 88//75
f 41//76 87//76 45//76
f 88//75 41//75 40//75
f 84//77 45//77 87//77
f 45//78 84//78 46//78
f 50//79 105//79 52//79
f 95//79 105//79 50//79
f 65//79 105//79 95//79
f 105//79 65//79 64//79
f 67//79 22//79 68//79
f 90//79 22//79 67//79
f 22//79 90//79 15//79
