# Blender 4.4.3
# www.blender.org
mtllib joint_01.mtl
o joint_01
v -0.243951 2.243950 -7.000000
v -0.400313 2.243470 -6.965410
v -0.400163 2.243570 -7.002420
v -0.400766 2.243190 -6.854190
v -0.386086 2.243170 -6.830440
v 0.000001 2.243950 -6.756050
v 0.243953 2.243950 -7.000000
v 0.000001 2.243950 -7.243950
v -0.200817 1.772900 -7.247060
v -0.336887 1.907670 -7.249170
v -0.336887 1.755220 -7.249170
v -0.175190 1.817970 -7.246660
v -0.336887 2.092330 -7.249170
v -0.200817 1.755550 -7.247060
v 0.000001 2.126110 -7.243950
v -0.336887 2.243120 -7.249170
v 0.000001 2.126110 -6.756050
v -0.343394 2.096350 -6.761360
v -0.343394 2.243100 -6.761360
v -0.343394 1.903650 -6.761360
v -0.200817 1.783660 -6.759160
v -0.343394 1.755200 -6.761360
v -0.200817 1.755550 -6.759160
v -0.400728 2.243220 -7.145870
v -0.400290 2.243490 -7.034600
v -0.397610 1.754860 -6.849090
v -0.200817 1.755410 -6.816500
v -0.397506 1.754790 -6.875720
v -0.397550 1.754820 -7.151010
v -0.200817 1.755000 -7.025510
v -0.396980 1.754470 -7.009920
v -0.181898 1.755000 -7.006590
v -0.200817 1.755030 -6.974510
v -0.175326 1.755030 -7.000000
v 0.200819 1.754920 -6.921840
v 0.397099 1.754540 -6.848260
v 0.396905 1.754420 -6.887380
v 0.354382 1.754880 -6.779140
v 0.200819 1.755390 -6.769130
v 0.400209 2.243540 -6.965370
v 0.400184 2.243550 -6.972540
v 0.400600 2.243300 -6.853920
v 0.348980 2.243230 -6.770400
v 0.381553 2.242980 -7.176900
v 0.401050 2.243020 -7.145350
v 0.400494 2.243360 -7.034520
v 0.306790 2.243170 -6.702130
v 0.200819 1.755540 -7.208660
v 0.381553 1.755080 -7.176900
v 0.200819 1.839410 -7.208660
v 0.178737 1.870930 -7.212540
v 0.181947 1.755580 -6.724070
v 0.306790 1.755270 -6.702130
v 0.200819 1.755140 -7.025430
v 0.397822 1.754990 -7.150570
v 0.200819 1.755030 -6.974510
v 0.175393 1.755140 -7.000000
v 0.200819 1.755470 -6.742880
v -0.303380 2.303380 -7.303380
v -0.187499 2.000000 -7.490880
v 0.000001 2.490880 -7.187500
v 0.303382 2.303380 -7.303380
v -0.303380 1.696620 -7.303380
v 0.000001 1.854340 -7.400860
v -0.099931 1.770740 -7.349190
v 0.187500 2.000000 -7.490880
v 0.099931 1.770740 -7.349190
v 0.200819 1.633230 -6.735790
v 0.303382 1.696620 -6.696620
v 0.200818 1.686340 -6.702970
v 0.188536 1.696620 -6.696620
v -0.200818 1.686340 -6.702970
v -0.303380 1.696620 -6.696620
v -0.200817 1.633230 -6.735790
v -0.188536 1.696620 -6.696620
v 0.303382 1.696620 -7.303380
v 0.168207 1.713630 -7.313890
v 0.200819 1.686340 -7.297030
v 0.200819 1.633230 -7.264210
v -0.200817 1.633230 -7.095810
v -0.200817 1.633230 -7.264210
v -0.200817 1.633230 -6.904190
v -0.051852 1.541160 -7.000000
v -0.187500 2.000000 -6.509120
v 0.187499 2.000000 -6.509120
v -0.303380 2.303380 -6.696620
v 0.303382 2.303380 -6.696620
v -0.168205 1.713630 -7.313890
v -0.200817 1.686340 -7.297030
v 0.200819 1.633230 -7.095810
v 0.200819 1.633230 -6.904190
v 0.051853 1.541160 -7.000000
v 0.000001 2.490880 -6.812500
v 0.000000 1.854340 -6.599140
vn 0.0025 -1.0000 -0.0027
vn 0.0025 -1.0000 -0.0025
vn 0.0026 -1.0000 -0.0024
vn -0.0000 -1.0000 -0.0000
vn -0.0155 -0.0000 0.9999
vn 0.0155 -0.0000 -0.9999
vn 0.0154 -0.0000 -0.9999
vn 0.0025 -1.0000 -0.0026
vn 0.0024 -1.0000 0.0024
vn 0.0024 -1.0000 0.0025
vn -0.0024 1.0000 -0.0026
vn -0.0024 1.0000 -0.0024
vn -0.0025 1.0000 0.0026
vn -0.0025 1.0000 0.0025
vn -0.0023 1.0000 -0.0023
vn 0.0031 1.0000 -0.0031
vn 0.0031 1.0000 -0.0030
vn -0.0023 -1.0000 -0.0014
vn -0.0021 -1.0000 -0.0021
vn -0.0021 -1.0000 -0.0022
vn -0.0022 -1.0000 -0.0022
vn -0.0030 -1.0000 0.0031
vn -0.0031 -1.0000 0.0031
vn -0.1731 -0.0000 0.9849
vn 0.1731 -0.0000 -0.9849
vn 0.0022 1.0000 0.0022
vn 0.0021 1.0000 0.0021
vn 0.0022 1.0000 0.0021
vn 0.0021 1.0000 0.0022
vn 0.0030 1.0000 -0.0029
vn -0.8507 0.0001 -0.5257
vn -0.8506 -0.0000 -0.5258
vn -0.8506 -0.0000 -0.5257
vn 0.5257 0.8507 -0.0000
vn -0.8507 -0.0001 -0.5257
vn -0.0000 -0.5257 -0.8506
vn -0.0000 -0.5257 -0.8507
vn -0.0000 -0.5257 0.8507
vn -0.0000 -0.5255 0.8508
vn 0.8507 0.0001 -0.5257
vn 0.8506 -0.0000 -0.5257
vn 0.8507 -0.0003 -0.5256
vn -0.0000 -0.5256 -0.8507
vn -0.5257 0.8507 -0.0000
vn -0.5257 -0.8506 -0.0000
vn -0.0000 0.5257 -0.8507
vn -0.8506 -0.0000 0.5258
vn -0.8506 -0.0000 0.5257
vn -0.8507 -0.0001 0.5257
vn -0.0000 0.5257 0.8506
vn 0.5257 -0.8506 -0.0000
vn 0.5258 -0.8506 -0.0000
vn 0.5257 -0.8507 -0.0000
vn 0.5257 0.8506 -0.0000
vn 0.5256 0.8508 -0.0006
vn -0.5257 0.8506 -0.0000
vn -0.5258 0.8506 0.0002
vn -0.5257 -0.8507 -0.0000
vn -0.5260 -0.8505 0.0002
vn -0.8506 -0.0001 0.5258
vn -0.8507 0.0001 0.5257
vn 0.8506 -0.0000 0.5257
vn 0.8507 -0.0000 0.5257
vn 0.8505 -0.0000 0.5260
vn -0.0000 0.5257 0.8507
vn -0.0000 -0.5257 0.8506
vn -0.6547 0.3780 0.6547
vn -0.6547 -0.3780 -0.6546
vn -0.6547 -0.3780 -0.6547
vn -0.6547 -0.3779 -0.6546
vn 0.6547 -0.3780 -0.6546
vn 0.6548 -0.3779 -0.6546
vn 0.6546 0.3780 0.6547
vn 0.6547 0.3780 0.6547
vn 1.0000 -0.0000 -0.0000
vn -1.0000 -0.0000 -0.0000
vn -0.6547 0.3779 -0.6546
vn -0.6547 0.3780 -0.6547
vn 0.6546 -0.3780 0.6546
vn 0.6547 -0.3779 0.6546
vn 0.6547 -0.3780 0.6546
vn 0.6546 -0.3780 0.6547
vn 0.6547 0.3779 -0.6546
vn 0.6547 0.3780 -0.6547
vn -0.6546 -0.3780 0.6547
vn -0.6547 -0.3779 0.6546
vn -0.6547 -0.3780 0.6546
s 0
usemtl Onyx12Tone
f 1//1 2//1 3//1
f 1//2 4//2 2//2
f 1//3 5//3 4//3
f 5//2 1//2 6//2
f 7//4 1//4 8//4
f 1//4 7//4 6//4
f 9//5 10//5 11//5
f 10//5 12//5 13//5
f 9//5 11//5 14//5
f 10//5 9//5 12//5
f 15//5 13//5 12//5
f 13//5 15//5 16//5
f 16//5 15//5 8//5
f 17//6 18//6 19//6
f 18//6 17//6 20//6
f 20//7 21//7 22//7
f 17//6 19//6 6//6
f 20//7 17//7 21//7
f 22//7 21//7 23//7
f 19//8 5//8 6//8
f 1//9 16//9 8//9
f 16//9 1//9 24//9
f 24//9 1//9 25//9
f 25//10 1//10 3//10
f 26//11 27//11 28//11
f 22//12 27//12 26//12
f 27//12 22//12 23//12
f 29//13 14//13 11//13
f 29//14 30//14 14//14
f 31//14 30//14 29//14
f 30//14 31//14 32//14
f 33//12 32//12 31//12
f 32//15 33//15 34//15
f 28//12 33//12 31//12
f 33//12 28//12 27//12
f 35//16 36//16 37//16
f 35//17 38//17 36//17
f 38//16 35//16 39//16
f 40//18 7//18 41//18
f 42//19 7//19 40//19
f 43//20 7//20 42//20
f 7//21 43//21 6//21
f 7//22 44//22 45//22
f 7//23 45//23 46//23
f 44//23 7//23 8//23
f 7//23 46//23 41//23
f 6//21 43//21 47//21
f 48//24 49//24 50//24
f 44//24 15//24 51//24
f 49//24 51//24 50//24
f 51//24 49//24 44//24
f 15//24 44//24 8//24
f 47//25 17//25 6//25
f 17//25 47//25 52//25
f 52//25 47//25 53//25
f 54//26 49//26 48//26
f 49//27 54//27 55//27
f 56//26 54//26 57//26
f 37//26 54//26 56//26
f 37//28 56//28 35//28
f 54//29 37//29 55//29
f 53//17 39//17 58//17
f 53//30 58//30 52//30
f 39//16 53//16 38//16
f 59//31 16//31 24//31
f 59//32 13//32 16//32
f 13//33 59//33 60//33
f 60//33 10//33 13//33
f 61//34 45//34 62//34
f 45//34 61//34 46//34
f 63//33 10//33 60//33
f 11//35 63//35 29//35
f 10//32 63//32 11//32
f 60//36 64//36 65//36
f 64//36 66//36 67//36
f 66//37 64//37 60//37
f 68//38 69//38 70//38
f 71//39 70//39 69//39
f 72//38 73//38 74//38
f 73//39 72//39 75//39
f 44//40 62//40 45//40
f 76//41 44//41 49//41
f 44//41 76//41 62//41
f 76//42 49//42 55//42
f 66//36 77//36 67//36
f 76//36 77//36 66//36
f 78//37 76//37 79//37
f 77//43 76//43 78//43
f 62//41 76//41 66//41
f 24//44 61//44 59//44
f 61//44 24//44 25//44
f 80//45 63//45 81//45
f 82//45 80//45 83//45
f 82//45 63//45 80//45
f 73//45 82//45 74//45
f 82//45 73//45 63//45
f 66//46 61//46 62//46
f 73//47 20//47 22//47
f 20//48 73//48 84//48
f 73//49 22//49 26//49
f 85//50 86//50 84//50
f 86//50 85//50 87//50
f 88//36 63//36 60//36
f 63//43 88//43 89//43
f 88//36 60//36 65//36
f 63//37 89//37 81//37
f 76//51 90//51 79//51
f 90//51 91//51 92//51
f 76//51 91//51 90//51
f 69//51 91//51 76//51
f 91//51 69//51 68//51
f 37//52 76//52 55//52
f 69//53 37//53 36//53
f 37//53 69//53 76//53
f 61//34 41//34 46//34
f 93//54 41//54 61//54
f 41//55 93//55 40//55
f 3//56 61//56 25//56
f 93//57 3//57 2//57
f 3//44 93//44 61//44
f 93//34 42//34 40//34
f 42//34 93//34 87//34
f 63//58 31//58 29//58
f 73//45 31//45 63//45
f 31//58 73//58 28//58
f 28//59 73//59 26//59
f 60//46 61//46 66//46
f 59//46 61//46 60//46
f 5//60 86//60 4//60
f 19//61 86//61 5//61
f 18//47 86//47 19//47
f 86//48 18//48 84//48
f 20//48 84//48 18//48
f 87//62 85//62 69//62
f 87//62 43//62 42//62
f 87//63 47//63 43//63
f 87//64 53//64 47//64
f 38//63 69//63 36//63
f 53//63 69//63 38//63
f 69//64 53//64 87//64
f 86//65 87//65 93//65
f 4//56 93//56 2//56
f 93//56 4//56 86//56
f 75//66 84//66 73//66
f 94//66 84//66 75//66
f 94//38 85//38 84//38
f 71//66 85//66 94//66
f 85//66 71//66 69//66
f 91//67 57//67 92//67
f 57//67 91//67 56//67
f 52//68 94//68 17//68
f 52//69 71//69 94//69
f 58//68 71//68 52//68
f 71//70 58//70 70//70
f 94//71 21//71 17//71
f 75//71 21//71 94//71
f 21//72 75//72 72//72
f 82//73 34//73 33//73
f 34//74 82//74 83//74
f 72//75 23//75 21//75
f 74//75 23//75 72//75
f 23//75 74//75 27//75
f 27//75 74//75 82//75
f 27//75 82//75 33//75
f 14//75 89//75 9//75
f 80//75 14//75 30//75
f 81//75 14//75 80//75
f 14//75 81//75 89//75
f 91//76 35//76 56//76
f 68//76 35//76 91//76
f 35//76 68//76 70//76
f 70//76 39//76 35//76
f 39//76 70//76 58//76
f 78//76 48//76 50//76
f 79//76 48//76 78//76
f 48//76 79//76 90//76
f 48//76 90//76 54//76
f 90//77 57//77 54//77
f 57//78 90//78 92//78
f 65//79 12//79 88//79
f 64//80 12//80 65//80
f 12//81 64//81 15//81
f 9//82 88//82 12//82
f 88//80 9//80 89//80
f 32//83 80//83 30//83
f 34//83 80//83 32//83
f 80//84 34//84 83//84
f 77//85 50//85 51//85
f 50//86 77//86 78//86
f 51//86 64//86 67//86
f 51//85 67//85 77//85
f 64//87 51//87 15//87
