# Blender 4.4.3
# www.blender.org
g joint_04_Mesh
v -5.187500 -0.000000 -0.490881
v -5.490880 0.187500 -0.000000
v -5.303380 0.303381 -0.303381
v -5.490880 -0.187500 -0.000000
v -5.303380 -0.303381 -0.303381
v -5.000000 0.490881 -0.187500
v -5.000000 0.490881 0.187500
v -5.303380 0.303381 0.303381
v -5.187500 -0.000000 0.490881
v -5.303380 -0.303381 0.303381
v -5.000000 -0.490881 -0.187500
v -5.000000 -0.490881 0.187500
v -4.812500 -0.000000 0.490881
v -4.509120 0.187500 0.000000
v -4.696620 0.303381 0.303381
v -4.509120 -0.187500 0.000000
v -4.696620 -0.303381 0.303381
v -4.812500 -0.000000 -0.490881
v -4.696620 0.303381 -0.303381
v -4.696620 -0.303381 -0.303381
vn -0.8507 -0.0000 -0.5257
vn -0.5257 0.8507 -0.0000
vn -0.8507 -0.0000 0.5257
vn -0.5257 -0.8507 -0.0000
vn 0.8507 -0.0000 0.5257
vn 0.8507 -0.0000 -0.5257
vn 0.5257 0.8507 -0.0000
vn 0.5257 -0.8507 -0.0000
vn -0.0000 0.5257 -0.8507
vn -0.0000 -0.5257 -0.8507
vn -0.0000 0.5257 0.8507
vn -0.0000 -0.5257 0.8507
s 0
f 1//1 2//1 3//1
f 1//1 4//1 2//1
f 4//1 1//1 5//1
f 2//2 6//2 3//2
f 2//2 7//2 6//2
f 7//2 2//2 8//2
f 2//3 9//3 8//3
f 4//3 9//3 2//3
f 9//3 4//3 10//3
f 11//4 4//4 5//4
f 12//4 4//4 11//4
f 4//4 12//4 10//4
f 13//5 14//5 15//5
f 13//5 16//5 14//5
f 16//5 13//5 17//5
f 14//6 18//6 19//6
f 16//6 18//6 14//6
f 18//6 16//6 20//6
f 6//7 14//7 19//7
f 7//7 14//7 6//7
f 14//7 7//7 15//7
f 16//8 11//8 20//8
f 16//8 12//8 11//8
f 12//8 16//8 17//8
f 6//9 1//9 3//9
f 6//9 18//9 1//9
f 18//9 6//9 19//9
f 1//10 11//10 5//10
f 18//10 11//10 1//10
f 11//10 18//10 20//10
f 9//11 7//11 8//11
f 13//11 7//11 9//11
f 7//11 13//11 15//11
f 12//12 9//12 10//12
f 12//12 13//12 9//12
f 13//12 12//12 17//12
