# Blender 4.4.3
# www.blender.org
mtllib joint_05.mtl
o joint_05
v -0.443716 -1.216650 -5.191640
v -0.243952 -1.243950 -5.267950
v -0.434251 -1.222500 -5.241320
v -0.313042 -1.208660 -4.980200
v 0.000000 -1.243950 -5.024000
v 0.000000 -0.756047 -5.024000
v 0.158372 -0.746400 -5.255980
v 0.243952 -0.756047 -5.267950
v 0.000000 -0.746400 -5.097600
v -0.104487 -0.716768 -5.219200
v -0.303381 -0.696618 -5.174040
v -0.300273 -0.694697 -5.191810
v -0.313042 -0.720758 -4.980200
v -0.331945 -0.714272 -5.010790
v -0.313042 -1.077590 -4.980200
v -0.313042 -0.922410 -4.980200
v -0.372303 -1.201980 -5.459810
v -0.456423 -1.208800 -5.323700
v -0.446028 -1.215220 -5.285080
v 0.000000 -1.243950 -5.511900
v -0.435749 -1.221570 -5.246890
v 0.200818 -0.754342 -5.293840
v 0.200818 -0.756047 -5.311080
v -0.200818 -0.716768 -5.315530
v -0.337905 -0.717955 -5.464620
v -0.200818 -0.733409 -5.483800
v -0.303381 -0.696618 -5.214340
v -0.200818 -1.200820 -5.483800
v -0.372303 -1.114210 -5.459810
v -0.372303 -0.885785 -5.459810
v 0.000000 -1.200820 -5.511900
v -0.372303 -0.739214 -5.459810
v 0.304407 -1.302750 -5.260820
v 0.313472 -1.297140 -5.200180
v 0.337401 -1.280130 -5.019610
v 0.339869 -1.280830 -5.023610
v 0.398375 -0.789083 -5.417630
v 0.447640 -0.785775 -5.337910
v 0.200818 -0.772700 -5.464380
v 0.432197 -0.776231 -5.265500
v 0.446524 -0.785086 -5.196180
v 0.392661 -0.788609 -5.109030
v 0.337401 -0.792224 -5.019610
v 0.200818 -1.200820 -5.509290
v 0.342864 -0.903979 -5.507440
v 0.200818 -0.799181 -5.509290
v 0.342864 -0.792810 -5.507440
v 0.340472 -1.280460 -5.507480
v 0.342864 -1.278980 -5.507440
v 0.342864 -1.096020 -5.507440
v 0.200818 -0.782802 -5.509290
v 0.200818 -0.777579 -5.509290
v 0.191237 -0.799181 -5.509420
v 0.315257 -1.296040 -5.335030
v 0.337401 -1.092640 -5.019610
v 0.337401 -0.907356 -5.019610
v -0.303381 -0.696618 -5.571330
v -0.200818 -0.965133 -5.737280
v -0.200818 -0.991769 -5.737280
v -0.200818 -1.008230 -5.737280
v 0.303381 -1.303380 -5.571330
v 0.000000 -1.490880 -5.455450
v -0.200818 -1.034870 -5.737280
v -0.303381 -1.303380 -5.571330
v -0.303381 -0.696618 -4.964570
v -0.187500 -1.000000 -4.777070
v -0.303381 -1.303380 -4.964570
v 0.303381 -0.696618 -5.571330
v 0.200818 -0.965133 -5.737280
v 0.200818 -0.991769 -5.737280
v -0.200818 -1.200820 -5.634720
v -0.110794 -1.200820 -5.634720
v 0.187500 -1.000000 -4.777070
v 0.000000 -1.490880 -5.080450
v 0.110794 -1.200820 -5.634720
v 0.200818 -0.686344 -5.564980
v 0.200818 -0.633231 -5.532150
v 0.200818 -0.799181 -5.634720
v 0.099932 -0.770742 -5.617140
v 0.110794 -0.799181 -5.634720
v 0.303381 -0.696618 -4.964570
v 0.200818 -1.034870 -5.737280
v 0.200818 -1.200820 -5.634720
v 0.200818 -1.008230 -5.737280
v 0.200818 -0.633231 -5.363760
v 0.000000 -0.509118 -5.080450
v 0.000000 -0.509118 -5.234600
v -0.200818 -0.633231 -5.363760
v -0.200818 -0.633231 -5.532150
v 0.303381 -1.303380 -4.964570
v 0.065936 -0.799181 -5.634720
v -0.110794 -0.799181 -5.634720
v -0.099931 -0.770742 -5.617140
v -0.065935 -0.799181 -5.634720
v -0.200818 -0.799181 -5.634720
v -0.200818 -0.686344 -5.564980
v -0.200818 -0.799181 -5.499830
vn 0.0979 0.9904 -0.0980
vn 0.0979 0.9904 -0.0979
vn -0.1289 -0.9833 -0.1289
vn -0.1289 -0.9832 -0.1289
vn -0.1289 -0.9833 -0.1288
vn -0.1288 -0.9833 -0.1289
vn -0.1386 -0.0000 -0.9904
vn 0.1288 0.9833 0.1289
vn 0.1289 0.9833 0.1288
vn 0.1289 0.9833 0.1289
vn 0.1289 0.9832 0.1295
vn -0.0979 -0.9904 0.0979
vn -0.0979 -0.9904 0.0980
vn 0.1385 -0.0000 0.9904
vn 0.1386 -0.0000 0.9904
vn 0.1385 -0.0001 0.9904
vn 0.1074 0.9884 -0.1074
vn 0.1073 0.9884 -0.1075
vn 0.1074 0.9884 -0.1073
vn 0.1066 0.9885 -0.1072
vn -0.1074 -0.9884 0.1074
vn -0.1047 -0.9890 -0.1047
vn -0.0130 -0.0000 0.9999
vn -0.0148 -0.0032 0.9999
vn -0.0135 -0.0000 0.9999
vn 0.1047 0.9890 0.1047
vn 0.0130 -0.0000 -0.9999
vn -0.8507 -0.0000 -0.5257
vn 0.5262 -0.8504 -0.0004
vn 0.5257 -0.8507 -0.0000
vn -0.5257 0.8506 -0.0000
vn -0.5257 0.8507 -0.0000
vn -0.8506 -0.0000 0.5257
vn -0.8507 -0.0000 0.5257
vn 0.8507 0.0001 -0.5257
vn 0.8506 -0.0001 -0.5258
vn 0.8507 -0.0000 -0.5257
vn -0.5257 -0.8507 -0.0000
vn -0.5256 -0.8507 0.0001
vn -0.0000 -0.5257 -0.8507
vn -0.0000 -0.5258 -0.8506
vn -0.0000 -0.5257 -0.8506
vn 0.8506 -0.0000 0.5257
vn -0.5255 -0.8508 -0.0007
vn -0.0000 0.5258 -0.8506
vn -0.0000 0.5257 -0.8506
vn -0.0000 0.5257 -0.8507
vn -0.0000 0.5257 0.8507
vn -0.5257 -0.8507 0.0001
vn -0.5257 -0.8506 -0.0000
vn 0.5257 -0.8506 -0.0000
vn 0.5258 -0.8506 0.0001
vn 0.5257 0.8507 -0.0000
vn 0.5257 0.8506 -0.0000
vn 0.8507 0.0001 0.5257
vn -0.0000 -0.5257 0.8507
vn -0.8507 0.0001 0.5257
vn -0.8506 -0.0000 0.5258
vn -0.0000 -0.5257 0.8506
vn 0.8509 -0.0016 0.5253
vn 0.8506 -0.0000 0.5258
vn -0.0000 1.0000 -0.0000
vn -1.0000 -0.0000 -0.0000
vn -0.0000 -1.0000 -0.0000
vn 1.0000 -0.0000 -0.0000
vn -0.6547 0.3779 0.6547
vn -0.6547 0.3778 0.6547
vn -0.6547 0.3780 0.6547
vn -0.6546 -0.3780 -0.6547
vn -0.6547 -0.3780 -0.6546
vn 0.6547 -0.3780 -0.6547
vn 0.6547 -0.3780 -0.6546
vn 0.6546 -0.3780 -0.6547
vn 0.6547 0.3780 0.6546
vn 0.6547 0.3779 0.6546
s 0
usemtl Onyx12Tone
f 1//1 2//1 3//1
f 4//2 2//2 1//2
f 2//2 4//2 5//2
f 6//3 7//3 8//3
f 7//4 6//4 9//4
f 10//5 11//5 12//5
f 13//3 10//3 9//3
f 13//3 9//3 6//3
f 10//3 13//3 11//3
f 11//6 13//6 14//6
f 5//7 15//7 16//7
f 6//7 16//7 13//7
f 5//7 16//7 6//7
f 15//7 5//7 4//7
f 2//8 17//8 18//8
f 2//9 18//9 19//9
f 17//10 2//10 20//10
f 21//9 2//9 19//9
f 2//11 21//11 3//11
f 8//12 22//12 23//12
f 22//13 8//13 7//13
f 24//12 25//12 26//12
f 24//12 27//12 25//12
f 10//12 27//12 24//12
f 27//13 10//13 12//13
f 28//14 29//14 17//14
f 29//14 28//14 30//14
f 26//14 30//14 28//14
f 25//15 30//15 26//15
f 20//16 28//16 17//16
f 28//15 20//15 31//15
f 30//14 25//14 32//14
f 5//17 33//17 2//17
f 33//18 5//18 34//18
f 35//19 34//19 5//19
f 34//20 35//20 36//20
f 8//21 37//21 38//21
f 37//21 23//21 39//21
f 37//21 8//21 23//21
f 8//21 38//21 40//21
f 41//22 8//22 40//22
f 42//22 8//22 41//22
f 8//22 42//22 6//22
f 6//22 42//22 43//22
f 20//23 44//23 31//23
f 45//23 46//23 44//23
f 47//23 46//23 45//23
f 48//23 44//23 20//23
f 49//24 44//24 48//24
f 44//23 49//23 50//23
f 45//23 44//23 50//23
f 46//23 47//23 51//23
f 51//23 47//23 52//23
f 53//25 46//25 51//25
f 47//21 39//21 52//21
f 39//21 47//21 37//21
f 20//26 54//26 48//26
f 33//26 20//26 2//26
f 20//26 33//26 54//26
f 55//27 5//27 6//27
f 56//27 6//27 43//27
f 55//27 6//27 56//27
f 5//27 55//27 35//27
f 57//28 30//28 32//28
f 58//28 30//28 57//28
f 30//28 58//28 59//28
f 60//28 30//28 59//28
f 30//28 60//28 29//28
f 61//29 49//29 48//29
f 48//30 62//30 61//30
f 62//30 48//30 54//30
f 63//28 29//28 60//28
f 64//28 29//28 63//28
f 17//28 64//28 18//28
f 29//28 64//28 17//28
f 14//31 65//31 11//31
f 57//32 32//32 25//32
f 57//32 25//32 27//32
f 4//33 66//33 15//33
f 4//33 67//33 66//33
f 67//34 4//34 1//34
f 37//35 68//35 38//35
f 47//36 68//36 37//36
f 69//37 47//37 45//37
f 47//37 69//37 68//37
f 69//37 45//37 70//37
f 19//38 64//38 62//38
f 64//39 19//39 18//39
f 71//40 64//40 63//40
f 72//41 64//41 71//41
f 64//42 72//42 62//42
f 56//43 73//43 55//43
f 74//44 3//44 21//44
f 67//38 3//38 74//38
f 3//38 67//38 1//38
f 75//42 62//42 72//42
f 68//45 76//45 77//45
f 76//46 68//46 78//46
f 78//47 68//47 69//47
f 78//46 79//46 76//46
f 79//45 78//45 80//45
f 73//48 65//48 66//48
f 65//48 73//48 81//48
f 82//40 61//40 83//40
f 61//41 75//41 83//41
f 75//42 61//42 62//42
f 50//37 82//37 84//37
f 61//37 50//37 49//37
f 50//37 61//37 82//37
f 45//37 84//37 70//37
f 84//37 45//37 50//37
f 62//49 21//49 19//49
f 21//50 62//50 74//50
f 33//51 62//51 54//51
f 74//52 33//52 34//52
f 33//30 74//30 62//30
f 85//53 68//53 77//53
f 86//54 85//54 87//54
f 85//53 81//53 68//53
f 81//53 85//53 86//53
f 57//32 88//32 89//32
f 27//32 88//32 57//32
f 12//31 88//31 27//31
f 88//32 12//32 87//32
f 86//31 12//31 11//31
f 12//32 86//32 87//32
f 86//32 11//32 65//32
f 68//53 40//53 38//53
f 81//54 40//54 68//54
f 40//54 81//54 41//54
f 81//43 42//43 41//43
f 81//55 43//55 42//55
f 73//43 43//43 81//43
f 43//43 73//43 56//43
f 74//56 90//56 67//56
f 36//51 74//51 34//51
f 74//30 36//30 90//30
f 65//48 81//48 86//48
f 91//45 79//45 80//45
f 92//45 93//45 94//45
f 93//46 95//46 96//46
f 95//45 93//45 92//45
f 96//45 57//45 89//45
f 95//46 57//46 96//46
f 57//47 95//47 58//47
f 13//57 65//57 14//57
f 66//33 13//33 16//33
f 13//58 66//58 65//58
f 15//33 66//33 16//33
f 67//59 73//59 66//59
f 73//59 67//59 90//59
f 90//43 55//43 73//43
f 35//60 90//60 36//60
f 55//61 90//61 35//61
f 28//62 72//62 71//62
f 72//62 31//62 75//62
f 44//62 75//62 31//62
f 72//62 28//62 31//62
f 75//62 44//62 83//62
f 69//63 46//63 78//63
f 70//63 46//63 69//63
f 84//63 46//63 70//63
f 44//63 84//63 82//63
f 44//63 82//63 83//63
f 84//63 44//63 46//63
f 39//63 77//63 76//63
f 77//63 39//63 85//63
f 85//63 23//63 22//63
f 85//63 39//63 23//63
f 76//63 52//63 39//63
f 52//63 76//63 51//63
f 53//64 80//64 78//64
f 80//64 53//64 91//64
f 53//64 78//64 46//64
f 97//64 92//64 94//64
f 92//64 97//64 95//64
f 26//65 89//65 88//65
f 26//65 88//65 24//65
f 89//65 26//65 96//65
f 26//65 97//65 96//65
f 97//65 58//65 95//65
f 97//65 59//65 58//65
f 97//65 60//65 59//65
f 28//65 60//65 97//65
f 28//65 97//65 26//65
f 60//65 28//65 63//65
f 63//65 28//65 71//65
f 53//66 79//66 91//66
f 51//67 79//67 53//67
f 79//68 51//68 76//68
f 85//69 22//69 7//69
f 7//69 87//69 85//69
f 87//70 7//70 9//70
f 87//71 10//71 88//71
f 10//72 87//72 9//72
f 88//73 10//73 24//73
f 97//74 93//74 96//74
f 93//75 97//75 94//75
