# Blender 4.4.3
# www.blender.org
mtllib joint_03.mtl
o joint_03
v 0.337401 0.792224 5.019610
v -0.000000 0.756047 5.024000
v 0.392661 0.788609 5.109030
v -0.000000 1.243950 5.511900
v 0.304407 1.302750 5.260820
v 0.315257 1.296040 5.335030
v 0.340472 1.280460 5.507480
v -0.243952 1.243950 5.267950
v 0.200818 0.772700 5.464380
v 0.342864 0.792810 5.507440
v 0.398375 0.789083 5.417630
v 0.200818 0.777579 5.509290
v 0.243952 0.756047 5.267950
v 0.200818 0.756047 5.311080
v 0.447640 0.785775 5.337910
v 0.432197 0.776231 5.265500
v 0.446524 0.785086 5.196180
v 0.337401 1.092640 5.019610
v -0.000000 1.243950 5.024000
v 0.337401 0.907356 5.019610
v 0.337401 1.280130 5.019610
v 0.313472 1.297140 5.200180
v 0.339869 1.280830 5.023610
v 0.200818 1.200820 5.509290
v -0.000000 1.200820 5.511900
v 0.342864 0.903979 5.507440
v 0.200818 0.799181 5.509290
v 0.342864 1.278980 5.507440
v 0.342864 1.096020 5.507440
v 0.200818 0.782802 5.509290
v 0.191237 0.799181 5.509420
v -0.303381 0.696618 5.174040
v -0.313042 0.720758 4.980200
v -0.331945 0.714272 5.010790
v -0.000000 0.746400 5.097600
v -0.104487 0.716768 5.219200
v -0.300273 0.694697 5.191810
v 0.158372 0.746400 5.255980
v 0.200818 0.754342 5.293840
v -0.303381 0.696618 5.214340
v -0.200818 0.716768 5.315530
v -0.337905 0.717955 5.464620
v -0.200818 0.733409 5.483800
v -0.435749 1.221570 5.246890
v -0.434251 1.222500 5.241320
v -0.446028 1.215220 5.285080
v -0.456423 1.208800 5.323700
v -0.372303 1.201980 5.459810
v -0.313042 1.208660 4.980200
v -0.443716 1.216650 5.191640
v -0.200818 1.200820 5.483800
v -0.372303 0.739214 5.459810
v -0.187499 1.000000 4.777070
v -0.303381 0.696618 4.964570
v -0.303381 1.303380 4.964570
v -0.000000 1.490880 5.080450
v 0.303381 1.303380 4.964570
v 0.303381 0.696618 5.571330
v 0.200818 0.686344 5.564980
v 0.200818 0.633231 5.532150
v 0.200818 0.799181 5.634720
v 0.200818 0.965133 5.737280
v 0.099931 0.770742 5.617140
v 0.110794 0.799181 5.634720
v 0.187500 1.000000 4.777070
v 0.303381 0.696618 4.964570
v -0.000000 1.490880 5.455450
v -0.000000 0.509118 5.080450
v 0.303381 1.303380 5.571330
v 0.200818 1.034870 5.737280
v 0.200818 1.008230 5.737280
v 0.200818 0.991769 5.737280
v -0.303381 1.303380 5.571330
v -0.200818 0.965130 5.737280
v -0.200818 1.034870 5.737280
v -0.303381 0.696618 5.571330
v 0.110794 1.200820 5.634720
v 0.200818 1.200820 5.634720
v -0.110794 1.200820 5.634720
v -0.200818 1.200820 5.634720
v 0.200818 0.633231 5.363760
v -0.000000 0.509118 5.234600
v -0.099931 0.770742 5.617140
v -0.200818 0.799181 5.634720
v -0.200818 0.686344 5.564980
v -0.110793 0.799181 5.634720
v -0.200818 0.633231 5.532150
v -0.065936 0.799181 5.634720
v 0.065935 0.799181 5.634720
v -0.200818 0.633231 5.363760
v -0.200818 0.799181 5.499830
vn -0.1047 0.9890 0.1047
vn 0.1047 -0.9890 -0.1047
vn -0.1074 0.9884 -0.1074
vn 0.0130 -0.0000 0.9999
vn 0.1066 -0.9885 0.1072
vn 0.1074 -0.9884 0.1073
vn 0.1073 -0.9884 0.1075
vn 0.1074 -0.9884 0.1074
vn -0.0130 -0.0000 -0.9999
vn -0.0148 0.0032 -0.9999
vn -0.0135 -0.0000 -0.9999
vn -0.1288 0.9833 0.1289
vn -0.1289 0.9833 0.1289
vn -0.1289 0.9833 0.1288
vn -0.1289 0.9832 0.1289
vn -0.0979 0.9904 -0.0980
vn -0.0979 0.9904 -0.0979
vn 0.1289 -0.9832 -0.1295
vn 0.1289 -0.9833 -0.1288
vn 0.1288 -0.9833 -0.1289
vn 0.1289 -0.9833 -0.1289
vn 0.0979 -0.9904 0.0979
vn 0.0979 -0.9904 0.0980
vn 0.1385 -0.0000 -0.9904
vn 0.1385 0.0001 -0.9904
vn 0.1386 -0.0000 -0.9904
vn 0.1386 0.0001 -0.9904
vn -0.1386 -0.0000 0.9904
vn -0.8506 -0.0000 -0.5257
vn -0.0000 0.5257 -0.8507
vn -0.0000 -0.5258 0.8506
vn -0.0000 -0.5257 0.8506
vn -0.0000 -0.5257 0.8507
vn 0.8506 -0.0000 -0.5257
vn 0.8507 -0.0001 -0.5257
vn 0.5258 0.8506 -0.0001
vn 0.5257 0.8507 -0.0000
vn 0.5257 0.8506 -0.0000
vn -0.0000 -0.5257 -0.8507
vn -0.8507 -0.0000 -0.5257
vn -0.8506 -0.0000 -0.5258
vn -0.8507 -0.0001 -0.5257
vn 0.8507 -0.0000 0.5257
vn -0.5257 0.8507 -0.0000
vn -0.5255 0.8508 0.0007
vn 0.8507 -0.0001 0.5257
vn 0.8506 0.0001 0.5258
vn -0.8507 -0.0000 0.5257
vn -0.5257 0.8507 -0.0001
vn -0.5257 0.8506 -0.0000
vn 0.5262 0.8504 0.0004
vn -0.0000 0.5258 0.8506
vn -0.0000 0.5257 0.8506
vn -0.0000 0.5257 0.8507
vn 0.5257 -0.8506 -0.0000
vn 0.5257 -0.8507 -0.0000
vn -0.5257 -0.8506 -0.0000
vn -0.5257 -0.8507 -0.0000
vn 0.8509 0.0016 -0.5253
vn 0.8506 -0.0000 -0.5258
vn -0.0000 0.5257 -0.8506
vn -0.5256 0.8507 -0.0001
vn 0.6547 -0.3780 -0.6546
vn 0.6547 -0.3779 -0.6546
vn -0.6547 -0.3779 -0.6547
vn -0.6547 -0.3778 -0.6547
vn -0.6547 -0.3780 -0.6547
vn 0.6546 0.3780 0.6547
vn 0.6547 0.3780 0.6547
vn 0.6547 0.3780 0.6546
vn 1.0000 -0.0000 -0.0000
vn -0.0000 -1.0000 -0.0000
vn -1.0000 -0.0000 -0.0000
vn -0.6547 0.3780 0.6546
vn -0.6546 0.3780 0.6547
vn -0.0000 1.0000 -0.0000
s 0
usemtl Onyx12Tone
f 1//1 2//1 3//1
f 4//2 5//2 6//2
f 4//2 6//2 7//2
f 5//2 4//2 8//2
f 9//3 10//3 11//3
f 10//3 9//3 12//3
f 11//3 13//3 14//3
f 15//3 13//3 11//3
f 13//3 15//3 16//3
f 11//3 14//3 9//3
f 13//1 3//1 2//1
f 3//1 13//1 17//1
f 17//1 13//1 16//1
f 18//4 19//4 2//4
f 20//4 2//4 1//4
f 18//4 2//4 20//4
f 19//4 18//4 21//4
f 22//5 21//5 23//5
f 21//6 22//6 19//6
f 5//7 19//7 22//7
f 19//8 5//8 8//8
f 4//9 24//9 25//9
f 26//9 27//9 24//9
f 10//9 27//9 26//9
f 7//9 24//9 4//9
f 28//10 24//10 7//10
f 24//9 28//9 29//9
f 26//9 24//9 29//9
f 27//9 10//9 30//9
f 30//9 10//9 12//9
f 31//11 27//11 30//11
f 32//12 33//12 34//12
f 33//13 35//13 2//13
f 33//13 32//13 36//13
f 36//14 32//14 37//14
f 33//13 36//13 35//13
f 38//15 2//15 35//15
f 2//13 38//13 13//13
f 39//16 13//16 38//16
f 13//17 39//17 14//17
f 40//16 36//16 37//16
f 40//17 41//17 36//17
f 42//17 41//17 40//17
f 41//17 42//17 43//17
f 8//18 44//18 45//18
f 8//19 46//19 44//19
f 8//19 47//19 46//19
f 8//20 48//20 47//20
f 48//21 8//21 4//21
f 8//22 49//22 19//22
f 49//22 8//22 50//22
f 50//23 8//23 45//23
f 51//24 52//24 48//24
f 52//24 51//24 43//24
f 4//25 51//25 48//25
f 51//26 4//26 25//26
f 52//27 43//27 42//27
f 2//28 49//28 33//28
f 49//28 2//28 19//28
f 53//29 54//29 55//29
f 55//30 56//30 57//30
f 58//31 59//31 60//31
f 59//32 58//32 61//32
f 61//33 58//33 62//33
f 61//32 63//32 59//32
f 63//31 61//31 64//31
f 1//34 65//34 20//34
f 1//34 66//34 65//34
f 3//35 66//35 1//35
f 66//34 3//34 17//34
f 56//36 5//36 22//36
f 67//37 5//37 56//37
f 5//38 67//38 6//38
f 66//39 68//39 54//39
f 55//40 49//40 50//40
f 54//41 49//41 55//41
f 33//42 54//42 34//42
f 49//41 54//41 33//41
f 69//43 29//43 28//43
f 70//43 29//43 69//43
f 29//43 70//43 71//43
f 45//44 55//44 50//44
f 55//44 45//44 56//44
f 56//45 45//45 44//45
f 62//43 26//43 72//43
f 62//43 10//43 26//43
f 11//46 58//46 15//46
f 10//47 58//47 11//47
f 58//43 10//43 62//43
f 73//48 74//48 75//48
f 74//48 73//48 76//48
f 67//49 44//49 46//49
f 44//50 67//50 56//50
f 67//37 7//37 6//37
f 7//37 67//37 69//37
f 28//51 7//51 69//51
f 69//52 77//52 78//52
f 77//53 69//53 67//53
f 70//54 69//54 78//54
f 16//55 66//55 17//55
f 58//56 16//56 15//56
f 16//56 58//56 66//56
f 65//39 54//39 53//39
f 54//39 65//39 66//39
f 79//53 77//53 67//53
f 56//37 23//37 57//37
f 23//38 56//38 22//38
f 80//54 73//54 75//54
f 79//52 73//52 80//52
f 73//53 79//53 67//53
f 54//57 32//57 34//57
f 40//58 76//58 42//58
f 52//58 42//58 76//58
f 21//59 57//59 23//59
f 18//60 57//60 21//60
f 57//34 18//34 65//34
f 18//34 20//34 65//34
f 72//43 29//43 71//43
f 29//43 72//43 26//43
f 48//48 73//48 47//48
f 76//48 48//48 52//48
f 48//48 76//48 73//48
f 81//56 68//56 66//56
f 68//55 81//55 82//55
f 58//56 81//56 66//56
f 81//56 58//56 60//56
f 83//32 84//32 85//32
f 84//31 83//31 86//31
f 85//31 76//31 87//31
f 84//32 76//32 85//32
f 76//33 84//33 74//33
f 83//31 88//31 86//31
f 63//31 64//31 89//31
f 55//61 65//61 53//61
f 65//61 55//61 57//61
f 68//58 32//58 54//58
f 68//57 37//57 32//57
f 82//58 37//58 68//58
f 90//58 37//58 82//58
f 37//57 90//57 40//57
f 76//58 90//58 87//58
f 90//58 76//58 40//58
f 73//62 46//62 47//62
f 46//44 73//44 67//44
f 91//63 83//63 85//63
f 83//64 91//64 88//64
f 31//65 63//65 89//65
f 30//66 63//66 31//66
f 63//67 30//67 59//67
f 41//68 90//68 36//68
f 82//69 36//69 90//69
f 36//70 82//70 35//70
f 75//71 51//71 80//71
f 74//71 51//71 75//71
f 91//71 74//71 84//71
f 74//71 91//71 51//71
f 91//71 43//71 51//71
f 85//71 43//71 91//71
f 87//71 43//71 85//71
f 43//71 87//71 90//71
f 43//71 90//71 41//71
f 77//72 24//72 78//72
f 24//72 77//72 25//72
f 79//72 25//72 77//72
f 25//72 79//72 51//72
f 51//72 79//72 80//72
f 12//73 59//73 30//73
f 9//73 59//73 12//73
f 81//73 9//73 14//73
f 81//73 14//73 39//73
f 60//73 9//73 81//73
f 9//73 60//73 59//73
f 24//73 70//73 78//73
f 24//73 71//73 70//73
f 24//73 72//73 71//73
f 27//73 72//73 24//73
f 72//73 27//73 62//73
f 62//73 27//73 61//73
f 82//74 38//74 35//74
f 38//75 82//75 81//75
f 39//75 38//75 81//75
f 86//76 91//76 84//76
f 91//76 86//76 88//76
f 64//76 31//76 89//76
f 61//76 31//76 64//76
f 31//76 61//76 27//76
