# Blender 4.4.3
# www.blender.org
mtllib joint_04.mtl
o joint_04
v -4.821500 -0.206940 0.362985
v -4.729260 -0.196310 0.356199
v -4.756050 -0.243952 -0.000000
v -4.737770 -0.195657 0.369958
v -4.895350 -0.216891 0.356835
v -5.000000 -0.243952 0.243952
v -4.992120 -0.229932 0.348775
v -4.756050 0.243952 -0.000000
v -4.729260 0.217920 0.356199
v -4.732420 0.285968 0.314143
v -5.209740 0.058237 0.454889
v -5.228850 0.270811 0.200818
v -5.220330 0.285968 0.314143
v -5.209740 0.013748 0.454889
v -5.228850 -0.217092 0.200818
v -5.209740 -0.013748 0.454889
v -5.216070 -0.194363 0.370758
v -5.209740 -0.058237 0.454889
v -5.058920 0.243952 -0.185030
v -5.000000 0.243952 -0.243952
v -4.987220 0.266691 -0.073939
v -4.959430 0.316105 0.295518
v -5.140310 0.281825 0.200818
v -4.978710 0.281825 0.039216
v -5.071710 0.303135 0.303533
v -5.106620 -0.211746 0.360015
v -5.068380 -0.240300 0.200818
v -5.058920 -0.243952 0.185030
v -4.913280 0.266691 -0.000000
v -4.860390 0.302957 0.303644
v -4.931840 0.312442 0.297781
v -4.729260 0.196310 -0.356199
v -4.729260 -0.217920 -0.356199
v -4.732420 -0.285968 -0.314143
v -5.209740 0.013748 -0.454889
v -5.216070 0.194363 -0.370758
v -5.228850 0.217092 -0.200818
v -5.209740 0.058237 -0.454889
v -5.209740 -0.013748 -0.454889
v -5.228850 -0.270811 -0.200818
v -5.209740 -0.058237 -0.454889
v -5.220330 -0.285968 -0.314143
v -4.821500 0.206940 -0.362985
v -4.737770 0.195657 -0.369958
v -4.978710 -0.281825 -0.039217
v -4.931840 -0.312442 -0.297781
v -4.959430 -0.316105 -0.295518
v -4.860390 -0.302957 -0.303644
v -4.913280 -0.266691 -0.000000
v -4.987220 -0.266691 0.073939
v -5.068380 0.240300 -0.200818
v -5.106620 0.211746 -0.360015
v -4.992120 0.229932 -0.348775
v -4.895350 0.216891 -0.356835
v -5.140310 -0.281825 -0.200818
v -5.071710 -0.303135 -0.303533
v -5.303380 0.303381 -0.303381
v -5.366770 0.110794 -0.200818
v -5.366770 0.264206 -0.200818
v -5.366770 0.010936 -0.200818
v -5.366770 -0.010936 -0.200818
v -5.397420 0.000000 -0.151229
v -5.366770 -0.110794 -0.200818
v -5.000000 0.490881 -0.187500
v -4.509120 0.187500 -0.000000
v -4.696620 0.303381 -0.303381
v -5.303380 -0.303381 -0.303381
v -5.366770 -0.264206 -0.200818
v -5.366770 0.110794 0.200818
v -5.303380 0.303381 0.303381
v -5.366770 0.264206 0.200818
v -5.366770 0.010936 0.200818
v -5.366770 -0.010936 0.200818
v -5.397420 0.000000 0.151229
v -5.366770 -0.110794 0.200818
v -4.509120 -0.187500 -0.000000
v -4.696620 -0.303381 -0.303381
v -5.000000 -0.490881 -0.187500
v -5.242650 -0.340913 -0.200818
v -5.199430 -0.367627 -0.111325
v -5.242650 0.340913 -0.200818
v -5.199430 0.367627 -0.111325
v -4.696620 0.303381 0.303381
v -4.696620 -0.303381 0.303381
v -5.145660 -0.400858 -0.000000
v -5.000000 -0.490881 0.187500
v -5.199430 -0.367627 0.111325
v -5.000000 0.490881 0.187500
v -5.145660 0.400858 -0.000000
v -5.199430 0.367627 0.111325
v -5.242650 -0.340913 0.200818
v -5.303380 -0.303381 0.303381
v -5.366770 -0.264206 0.200818
v -5.242650 0.340913 0.200818
v -5.347830 0.000000 -0.200818
v -5.347830 0.000000 0.200818
vn -0.1225 0.9849 -0.1225
vn -0.9972 -0.0000 0.0750
vn 0.9972 -0.0000 -0.0750
vn 0.1225 -0.9849 0.1225
vn 0.1417 0.9797 -0.1417
vn -0.1417 -0.9797 0.1417
vn -0.9972 -0.0000 -0.0750
vn 0.9972 -0.0000 0.0750
vn -0.1225 -0.9849 0.1225
vn -0.1417 0.9797 -0.1417
vn 0.1417 -0.9797 0.1417
vn 0.1225 0.9849 -0.1225
vn -0.8506 -0.0000 -0.5257
vn -0.8506 -0.0000 -0.5258
vn 0.5257 0.8507 -0.0000
vn -0.8506 -0.0000 0.5257
vn -0.8506 -0.0000 0.5258
vn 0.8507 -0.0000 -0.5257
vn -0.0000 -0.5257 -0.8507
vn -0.0000 -0.5257 -0.8506
vn -0.5257 -0.8506 -0.0000
vn -0.5257 -0.8507 -0.0000
vn -0.5257 0.8507 -0.0000
vn -0.5257 0.8506 -0.0000
vn 0.8507 -0.0000 0.5257
vn 0.5257 -0.8507 -0.0000
vn 0.8505 0.0002 -0.5260
vn -0.0000 0.5257 -0.8507
vn -0.0000 0.5257 0.8507
vn -0.0000 0.5257 0.8506
vn -0.0000 -0.5257 0.8507
vn 0.8505 -0.0002 0.5260
vn -0.0000 -0.5257 0.8506
vn -0.0000 -0.0000 1.0000
vn 0.4472 -0.7746 -0.4472
vn -0.4472 0.7746 0.4472
vn 0.4472 -0.7746 0.4472
vn -0.4472 0.7746 -0.4472
vn -0.0000 -0.0000 -1.0000
vn -0.4472 -0.7746 -0.4472
vn 0.4472 0.7746 0.4472
vn -0.4472 -0.7746 0.4472
vn 0.4472 0.7746 -0.4472
vt 0.665789 0.011305
vt 0.704403 0.013364
vt 0.693803 0.165484
vt 0.700818 0.007574
vt 0.634893 0.014596
vt 0.591291 0.063675
vt 0.594409 0.018908
vt 0.141220 0.445375
vt 0.007113 0.475637
vt 0.019064 0.444845
vt 0.031873 0.649161
vt 0.170383 0.649762
vt 0.175708 0.892429
vt 0.085758 0.993054
vt 0.079344 0.948171
vt 0.194534 0.892429
vt 0.292215 0.993054
vt 0.206168 0.892429
vt 0.282596 0.925749
vt 0.224994 0.892429
vt 0.314675 0.745573
vt 0.339311 0.769130
vt 0.266746 0.774748
vt 0.109055 0.786962
vt 0.150882 0.713876
vt 0.218450 0.778488
vt 0.106548 0.741780
vt 0.103230 0.681975
vt 0.151599 0.678230
vt 0.545564 0.013396
vt 0.562236 0.081693
vt 0.493818 0.080703
vt 0.498874 0.008128
vt 0.566306 0.088502
vt 0.237314 0.873385
vt 0.235832 0.806347
vt 0.106514 0.829197
vt 0.108348 0.798728
vt 0.103231 0.883771
vt 0.287649 0.444845
vt 0.312408 0.618370
vt 0.299524 0.649294
vt 0.878268 0.543131
vt 0.913131 0.466703
vt 0.983551 0.457085
vt 0.878268 0.524305
vt 0.878268 0.554766
vt 0.983551 0.663541
vt 0.878268 0.573591
vt 0.936592 0.669955
vt 0.389346 0.883771
vt 0.391491 0.844588
vt 0.395142 0.880119
vt 0.600842 0.184520
vt 0.621026 0.294586
vt 0.609490 0.293900
vt 0.650899 0.296364
vt 0.628095 0.167087
vt 0.597024 0.136230
vt 0.321514 0.741766
vt 0.389935 0.726281
vt 0.384052 0.772185
vt 0.323025 0.677447
vt 0.395559 0.682401
vt 0.388271 0.813250
vt 0.704403 0.299548
vt 0.532315 0.252612
vt 0.561699 0.296753
vt 0.498439 0.300530
vt 0.494617 0.252167
vt 0.760245 0.656889
vt 0.826430 0.587839
vt 0.812691 0.651285
vt 0.709908 0.539851
vt 0.713892 0.521452
vt 0.835373 0.546541
vt 0.837332 0.537496
vt 0.860014 0.547142
vt 0.716354 0.510081
vt 0.846274 0.496198
vt 0.066718 0.155658
vt 0.128133 0.372395
vt 0.007490 0.288701
vt 0.720339 0.491682
vt 0.814584 0.405953
vt 0.860014 0.432752
vt 0.786749 0.116956
vt 0.755601 0.035463
vt 0.786749 0.052040
vt 0.709590 0.139196
vt 0.709590 0.158021
vt 0.786749 0.159211
vt 0.786749 0.168466
vt 0.801808 0.163839
vt 0.709590 0.169656
vt 0.786749 0.210721
vt 0.577608 0.494313
vt 0.677689 0.702028
vt 0.577607 0.652994
vt 0.677691 0.445276
vt 0.927316 0.897900
vt 0.897005 0.993054
vt 0.899957 0.911394
vt 0.993054 0.875970
vt 0.976317 0.873730
vt 0.968286 0.845671
vt 0.457913 0.288034
vt 0.453714 0.174240
vt 0.494151 0.144395
vt 0.418036 0.195708
vt 0.448718 0.116127
vt 0.749712 0.957857
vt 0.753767 0.845671
vt 0.780640 0.939578
vt 0.842590 0.926492
vt 0.052627 0.057515
vt 0.007490 0.032563
vt 0.048275 0.007339
vt 0.091669 0.075337
vt 0.431818 0.702028
vt 0.431820 0.445276
vt 0.494151 0.395346
vt 0.359758 0.466831
vt 0.695114 0.656720
vt 0.695115 0.481438
vt 0.699652 0.656444
vt 0.373654 0.222416
vt 0.301122 0.293196
vt 0.324944 0.198773
vt 0.223968 0.157126
vt 0.261924 0.291077
vt 0.889393 0.916605
vt 0.822938 0.906340
vt 0.811447 0.815541
vt 0.933661 0.804589
vt 0.798821 0.844427
vt 0.784506 0.877178
vt 0.140236 0.097509
vt 0.185033 0.076209
vt 0.827992 0.777690
vt 0.834074 0.729027
vt 0.893854 0.659577
vt 0.839888 0.682509
vt 0.784506 0.669380
vt 0.285786 0.179769
vt 0.240459 0.152747
vt 0.280790 0.121656
vt 0.862727 0.337036
vt 0.786278 0.344649
vt 0.852840 0.290233
vt 0.867938 0.347600
vt 0.552762 0.791633
vt 0.525863 0.897302
vt 0.477199 0.891220
vt 0.563714 0.913847
vt 0.406439 0.490583
vt 0.406438 0.665864
vt 0.399826 0.490859
vt 0.821475 0.197355
vt 0.933661 0.201410
vt 0.839754 0.228283
vt 0.216694 0.008912
vt 0.261924 0.034939
vt 0.221045 0.059087
vt 0.407750 0.831440
vt 0.430682 0.885405
vt 0.417553 0.940788
vt 0.709590 0.188482
vt 0.755601 0.292215
vt 0.786749 0.275638
vt 0.881432 0.374959
vt 0.903362 0.440698
vt 0.905602 0.423960
vt 0.933661 0.415929
vt 0.654513 0.902356
vt 0.592600 0.926473
vt 0.625351 0.940788
vt 0.240459 0.403698
vt 0.753813 0.401759
vt 0.694717 0.334703
vt 0.759012 0.343562
vt 0.647189 0.336244
vt 0.783990 0.400022
vt 0.601849 0.321907
vt 0.643700 0.327673
vt 0.549333 0.373583
vt 0.652866 0.328936
vt 0.537554 0.313047
vt 0.753315 0.439510
vt 0.498237 0.360647
vt 0.530338 0.439510
vt 0.085984 0.032605
vt 0.090278 0.008363
vt 0.090278 0.038012
vt 0.510037 0.220058
vt 0.490840 0.256161
vt 0.533920 0.175146
vt 0.114035 0.031405
vt 0.108580 0.035636
vt 0.108580 0.006948
vt 0.510464 0.126691
vt 0.491610 0.087737
vt 0.547419 0.715473
vt 0.606516 0.782528
vt 0.542221 0.773669
vt 0.654044 0.780987
vt 0.517243 0.717209
vt 0.699384 0.795325
vt 0.657533 0.789558
vt 0.751900 0.743649
vt 0.648367 0.788295
vt 0.763679 0.804184
vt 0.547918 0.677721
vt 0.802996 0.756584
vt 0.770895 0.677721
vt 0.227093 0.698380
vt 0.182711 0.680611
vt 0.147033 0.666328
vt 0.008807 0.075163
vt 0.014254 0.081472
vt 0.008807 0.104532
vt 0.275803 0.677545
vt 0.314960 0.660798
vt 0.071272 0.038012
vt 0.064999 0.013856
vt 0.071272 0.008367
s 0
usemtl Onyx12Tone
f 1/1/1 2/2/1 3/3/1
f 2/2/1 1/1/1 4/4/1
f 5/5/1 6/6/1 7/7/1
f 1/1/1 6/6/1 5/5/1
f 6/6/1 1/1/1 3/3/1
f 8/8/2 9/9/2 10/10/2
f 8/8/2 2/11/2 9/9/2
f 2/11/2 8/8/2 3/12/2
f 11/13/3 12/14/3 13/15/3
f 14/16/3 12/14/3 11/13/3
f 15/17/3 14/16/3 16/18/3
f 17/19/3 16/18/3 18/20/3
f 16/18/3 17/19/3 15/17/3
f 14/16/3 15/17/3 12/14/3
f 19/21/4 20/22/4 21/23/4
f 22/24/4 23/25/4 24/26/4
f 25/27/4 23/25/4 22/24/4
f 13/28/4 23/25/4 25/27/4
f 23/25/4 13/28/4 12/29/4
f 26/30/5 27/31/5 15/32/5
f 27/31/5 26/30/5 6/6/5
f 6/6/5 26/30/5 7/7/5
f 26/30/5 15/32/5 17/33/5
f 28/34/5 27/31/5 6/6/5
f 8/35/6 21/23/6 20/22/6
f 8/35/6 29/36/6 21/23/6
f 30/37/6 29/36/6 8/35/6
f 29/36/6 30/37/6 24/26/6
f 24/26/6 31/38/6 22/24/6
f 24/26/6 30/37/6 31/38/6
f 30/37/6 8/35/6 10/39/6
f 3/12/7 32/40/7 33/41/7
f 32/40/7 3/12/7 8/8/7
f 3/12/7 33/41/7 34/42/7
f 35/43/8 36/44/8 37/45/8
f 36/44/8 35/43/8 38/46/8
f 37/45/8 39/47/8 35/43/8
f 40/48/8 39/47/8 37/45/8
f 39/47/8 40/48/8 41/49/8
f 41/49/8 40/48/8 42/50/8
f 32/51/9 43/52/9 44/53/9
f 43/52/9 32/51/9 8/35/9
f 45/54/10 46/55/10 47/56/10
f 46/55/10 45/54/10 48/57/10
f 49/58/10 48/57/10 45/54/10
f 49/58/10 3/3/10 48/57/10
f 50/59/10 3/3/10 49/58/10
f 3/3/10 50/59/10 6/6/10
f 20/22/11 19/21/11 51/60/11
f 20/22/11 52/61/11 53/62/11
f 52/61/11 20/22/11 51/60/11
f 37/63/11 52/61/11 51/60/11
f 52/61/11 37/63/11 36/64/11
f 20/22/9 54/65/9 43/52/9
f 54/65/9 20/22/9 53/62/9
f 20/22/9 43/52/9 8/35/9
f 34/66/10 48/57/10 3/3/10
f 50/59/12 28/34/12 6/6/12
f 55/67/12 56/68/12 42/69/12
f 55/67/12 42/69/12 40/70/12
f 56/68/12 55/67/12 47/56/12
f 47/56/12 55/67/12 45/54/12
f 57/71/13 58/72/13 59/73/13
f 38/74/13 58/72/13 57/71/13
f 58/72/13 38/74/13 35/75/13
f 35/75/13 60/76/13 58/72/13
f 61/77/13 60/76/13 35/75/13
f 60/76/14 61/77/14 62/78/14
f 39/79/13 61/77/13 35/75/13
f 61/77/13 39/79/13 63/80/13
f 64/81/15 65/82/15 66/83/15
f 41/84/13 63/80/13 39/79/13
f 67/85/13 63/80/13 41/84/13
f 63/80/13 67/85/13 68/86/13
f 69/87/16 70/88/16 71/89/16
f 69/87/16 11/90/16 70/88/16
f 11/90/16 69/87/16 14/91/16
f 72/92/16 14/91/16 69/87/16
f 73/93/17 72/92/17 74/94/17
f 72/92/16 73/93/16 14/91/16
f 73/93/16 16/95/16 14/91/16
f 16/95/16 73/93/16 75/96/16
f 76/97/18 66/98/18 65/99/18
f 66/98/18 76/97/18 77/100/18
f 48/101/19 78/102/19 46/103/19
f 77/104/19 48/101/19 34/105/19
f 48/101/20 77/104/20 78/102/20
f 77/104/19 34/105/19 33/106/19
f 78/107/21 79/108/21 67/109/21
f 79/108/21 78/107/21 80/110/21
f 67/109/22 79/108/22 68/111/22
f 67/112/19 41/113/19 42/114/19
f 78/102/19 42/114/19 56/115/19
f 42/114/19 78/102/19 67/112/19
f 81/116/23 57/117/23 59/118/23
f 81/116/24 64/81/24 57/117/24
f 64/81/24 81/116/24 82/119/24
f 83/120/25 76/97/25 65/99/25
f 76/97/25 83/120/25 84/121/25
f 77/122/26 76/123/26 78/107/26
f 77/100/18 32/124/18 66/98/18
f 32/124/18 77/100/18 33/125/18
f 66/98/27 32/124/27 44/126/27
f 78/107/22 85/127/22 80/110/22
f 86/128/22 85/127/22 78/107/22
f 85/127/22 86/128/22 87/129/22
f 76/123/26 86/128/26 78/107/26
f 88/130/15 83/131/15 65/82/15
f 47/132/19 78/102/19 56/115/19
f 78/102/20 47/132/20 46/103/20
f 66/133/28 54/134/28 64/135/28
f 54/134/28 66/133/28 43/136/28
f 43/136/28 66/133/28 44/137/28
f 64/81/15 88/130/15 65/82/15
f 89/138/23 64/81/23 82/119/23
f 88/130/23 89/138/23 90/139/23
f 89/138/23 88/130/23 64/81/23
f 64/135/28 53/140/28 52/141/28
f 53/140/28 64/135/28 54/134/28
f 57/142/28 52/141/28 36/143/28
f 52/141/28 57/142/28 64/135/28
f 57/142/28 36/143/28 38/144/28
f 86/128/21 91/145/21 87/129/21
f 91/145/22 92/146/22 93/147/22
f 92/146/21 91/145/21 86/128/21
f 22/148/29 88/149/29 25/150/29
f 88/149/30 22/148/30 31/151/30
f 86/152/31 7/153/31 26/154/31
f 7/153/31 86/152/31 5/155/31
f 2/156/25 83/120/25 9/157/25
f 83/120/25 2/156/25 84/121/25
f 4/158/32 84/121/32 2/156/32
f 70/159/29 11/160/29 13/161/29
f 88/149/29 13/161/29 25/150/29
f 13/161/29 88/149/29 70/159/29
f 71/162/23 70/163/23 94/164/23
f 94/164/24 88/130/24 90/139/24
f 88/130/24 94/164/24 70/163/24
f 92/165/31 26/154/31 17/166/31
f 26/154/31 92/165/31 86/152/31
f 92/165/33 17/166/33 18/167/33
f 75/96/16 18/168/16 16/95/16
f 92/169/16 75/96/16 93/170/16
f 75/96/16 92/169/16 18/168/16
f 30/171/29 88/149/29 31/151/29
f 83/172/29 30/171/29 10/173/29
f 30/171/30 83/172/30 88/149/30
f 83/172/29 10/173/29 9/174/29
f 84/175/31 5/155/31 86/152/31
f 5/155/31 84/175/31 1/176/31
f 1/176/31 84/175/31 4/177/31
f 76/123/26 84/178/26 86/128/26
f 40/179/34 63/180/34 68/181/34
f 95/182/34 63/180/34 40/179/34
f 40/179/34 68/181/34 79/183/34
f 95/182/34 58/184/34 60/185/34
f 58/184/34 95/182/34 37/186/34
f 63/180/34 95/182/34 61/187/34
f 37/186/34 95/182/34 40/179/34
f 58/184/34 37/186/34 59/188/34
f 40/179/34 79/183/34 55/189/34
f 59/188/34 37/186/34 81/190/34
f 81/190/34 37/186/34 51/191/34
f 73/192/35 74/193/35 96/194/35
f 80/195/36 55/67/36 79/196/36
f 85/197/36 55/67/36 80/195/36
f 55/67/36 85/197/36 45/54/36
f 45/54/36 85/197/36 49/58/36
f 61/198/37 95/199/37 62/200/37
f 85/197/38 50/59/38 49/58/38
f 28/34/38 85/197/38 87/201/38
f 85/197/38 28/34/38 50/59/38
f 27/31/38 87/201/38 91/202/38
f 87/201/38 27/31/38 28/34/38
f 12/203/39 69/204/39 71/205/39
f 96/206/39 69/204/39 12/203/39
f 12/203/39 71/205/39 94/207/39
f 96/206/39 75/208/39 73/209/39
f 75/208/39 96/206/39 15/210/39
f 69/204/39 96/206/39 72/211/39
f 15/210/39 96/206/39 12/203/39
f 75/208/39 15/210/39 93/212/39
f 12/203/39 94/207/39 23/213/39
f 93/212/39 15/210/39 91/214/39
f 91/214/39 15/210/39 27/215/39
f 24/26/40 89/216/40 29/36/40
f 23/25/40 89/216/40 24/26/40
f 89/216/40 23/25/40 90/217/40
f 90/217/40 23/25/40 94/218/40
f 95/219/41 60/220/41 62/221/41
f 82/222/42 51/60/42 19/21/42
f 51/60/42 82/222/42 81/223/42
f 89/216/42 19/21/42 21/23/42
f 89/216/42 21/23/42 29/36/42
f 19/21/42 89/216/42 82/222/42
f 74/224/43 72/225/43 96/226/43
