# Blender 4.4.3
# www.blender.org
mtllib joint_11.mtl
o joint_11
v -0.200819 0.754822 8.706440
v -0.243953 0.756047 8.732050
v -0.176164 0.751507 8.729180
v -0.200819 0.756047 8.688920
v 0.200817 0.742596 8.479600
v 0.356263 0.729302 8.514240
v 0.331438 0.733847 8.474070
v 0.339980 0.719238 8.674410
v 0.200817 0.727821 8.690850
v 0.336619 0.717160 8.707470
v 0.177458 0.727821 8.714210
v 0.200817 1.200820 8.479600
v -0.000001 1.243950 8.488100
v -0.000001 1.200820 8.488100
v 0.331438 1.221750 8.474070
v 0.200817 0.799181 8.479600
v 0.331438 1.088960 8.474070
v 0.331438 0.911040 8.474070
v 0.200817 0.763556 8.479600
v 0.181085 0.799181 8.480430
v 0.431627 1.224120 8.827920
v 0.243951 1.243950 8.732050
v 0.418450 1.232260 8.724660
v 0.349247 1.220560 8.961220
v -0.000001 1.243950 8.976000
v 0.349247 0.900033 8.961220
v -0.000001 0.756047 8.976000
v 0.349247 1.099970 8.961220
v 0.349247 0.732655 8.961220
v -0.003192 0.751507 8.902150
v 0.344210 0.721852 8.788070
v 0.359026 0.731009 8.945390
v 0.003219 0.751077 8.901880
v -0.000001 0.751507 8.905340
v 0.429177 1.225630 8.632210
v -0.316810 0.776884 8.450400
v -0.200819 0.768193 8.482270
v -0.184667 0.768193 8.466120
v -0.200819 0.767243 8.498430
v -0.351284 0.775631 8.506180
v -0.424406 0.771414 8.757440
v -0.418070 0.767499 8.711330
v -0.403212 0.778526 8.873900
v -0.433641 0.777122 8.824670
v -0.337648 1.282200 8.662840
v -0.361112 1.267700 8.933030
v -0.426791 0.772889 8.628350
v -0.418787 0.767942 8.704510
v -0.200819 0.799181 8.464200
v -0.316810 0.920081 8.450400
v -0.316810 1.079920 8.450400
v -0.200819 1.200820 8.464200
v -0.173330 0.790166 8.467470
v -0.168679 0.799181 8.468020
v -0.316810 1.264790 8.450400
v -0.367113 0.888993 8.932310
v -0.367113 1.111010 8.932310
v -0.367113 1.263990 8.932310
v -0.367113 0.780192 8.932310
v -0.354050 1.272070 8.510650
v -0.303382 1.303380 8.428670
v -0.200819 1.034870 8.262720
v -0.200819 1.008230 8.262720
v -0.200819 0.991768 8.262720
v 0.200817 0.633231 8.467840
v 0.303380 0.696618 8.428670
v 0.200817 0.633230 8.621260
v -0.200819 0.965132 8.262720
v -0.303382 0.696618 8.428670
v -0.303382 1.303380 9.035430
v -0.303382 0.696618 9.035430
v -0.187501 0.999999 9.222930
v 0.303380 1.303380 8.428670
v 0.200817 1.034870 8.262720
v 0.200817 1.008230 8.262720
v -0.200819 0.633230 8.621260
v -0.200819 0.633231 8.467840
v -0.200819 0.799181 8.365280
v -0.168207 0.713626 8.418160
v -0.200819 0.686344 8.435020
v -0.110795 0.799181 8.365280
v -0.099932 0.770741 8.382860
v 0.187499 0.999999 9.222930
v -0.000001 0.509118 8.919550
v 0.110793 0.799181 8.365280
v 0.099931 0.770741 8.382860
v 0.065934 0.799181 8.365280
v -0.065935 0.799181 8.365280
v 0.110793 1.200820 8.365280
v -0.000001 1.490880 8.544550
v 0.200817 1.200820 8.365280
v 0.303380 1.303380 9.035430
v 0.200817 0.799181 8.365280
v 0.200817 0.965132 8.262720
v 0.200817 0.686344 8.435020
v 0.168205 0.713626 8.418160
v 0.200817 0.991768 8.262720
v -0.200819 0.633230 8.636240
v -0.018646 0.520642 8.753410
v -0.000001 0.509118 8.765400
v 0.200817 0.633230 8.636240
v 0.018645 0.520642 8.753410
v -0.000001 1.490880 8.919550
v 0.303380 0.696618 9.035430
v -0.110795 1.200820 8.365280
v -0.200819 1.200820 8.365280
v 0.173932 0.799181 8.473280
vn 0.0696 0.9951 0.0696
vn 0.0423 -0.0000 0.9991
vn 0.0420 -0.0000 0.9991
vn -0.0696 -0.9951 -0.0696
vn -0.0423 -0.0000 -0.9991
vn 0.0640 0.9959 -0.0640
vn 0.0642 0.9959 -0.0640
vn -0.0640 -0.9959 0.0640
vn 0.0586 0.9966 0.0586
vn 0.0742 0.9945 -0.0742
vn -0.0586 -0.9966 -0.0586
vn -0.1181 -0.0000 0.9930
vn -0.1181 -0.0001 0.9930
vn -0.1180 0.0003 0.9930
vn -0.1182 -0.0000 0.9930
vn -0.1182 -0.0001 0.9930
vn 0.1182 -0.0000 -0.9930
vn 0.1191 -0.0000 -0.9929
vn 0.0742 0.9945 -0.0743
vn -0.0742 -0.9945 0.0742
vn -0.0744 -0.9945 0.0742
vn -0.8506 -0.0001 -0.5258
vn -0.8507 -0.0000 -0.5257
vn 0.5257 -0.8507 -0.0000
vn 0.5257 -0.8506 -0.0000
vn -0.8506 -0.0000 -0.5257
vn -0.5258 0.8506 0.0001
vn -0.5256 0.8507 -0.0000
vn -0.5257 0.8506 -0.0000
vn -0.5258 0.8506 -0.0000
vn -0.8507 -0.0000 0.5257
vn -0.8506 0.0001 0.5258
vn 0.8506 -0.0000 -0.5257
vn 0.8507 -0.0000 -0.5257
vn -0.5257 -0.8507 -0.0000
vn -0.5257 -0.8506 -0.0000
vn 0.0001 -0.5257 -0.8506
vn -0.0000 -0.5258 -0.8506
vn -0.0000 -0.5257 -0.8507
vn -0.0000 -0.5257 -0.8506
vn 0.8506 -0.0000 0.5257
vn -0.0000 0.5257 -0.8506
vn -0.0000 0.5257 -0.8507
vn -0.0000 0.5258 -0.8506
vn -0.0000 0.5257 0.8507
vn -0.0001 -0.5257 -0.8506
vn 0.5257 0.8507 -0.0000
vn -0.5257 0.8507 -0.0000
vn 0.5257 0.8506 -0.0000
vn 0.8507 -0.0000 0.5257
vn 0.8506 -0.0000 0.5258
vn -0.0000 -0.5257 0.8507
vn 0.8507 -0.0005 0.5256
vn 1.0000 -0.0000 -0.0000
vn -0.0000 -1.0000 -0.0000
vn -1.0000 -0.0000 -0.0000
vn -0.0000 1.0000 -0.0000
vn 0.6546 -0.3779 0.6547
vn 0.6546 -0.3780 0.6547
vn -0.6546 0.3780 -0.6547
vn -0.6537 0.3784 -0.6554
vn 0.6545 0.3780 -0.6548
vn 0.6546 0.3780 -0.6547
vn -0.6547 -0.3779 0.6546
vn -0.6546 -0.3780 0.6547
vn -0.6546 -0.3778 0.6549
vn 0.6547 0.3780 -0.6547
vn -0.6547 0.3780 -0.6547
vn -0.6547 0.3780 -0.6546
vn -0.6547 -0.3779 0.6547
vn 0.6547 -0.3778 0.6547
vn 0.6547 -0.3779 0.6547
s 0
usemtl Onyx12Tone
f 1//1 2//1 3//1
f 2//1 1//1 4//1
f 5//1 6//1 7//1
f 5//1 8//1 6//1
f 9//1 8//1 5//1
f 9//1 10//1 8//1
f 10//1 9//1 11//1
f 12//2 13//2 14//2
f 12//2 15//2 13//2
f 16//2 15//2 12//2
f 17//2 16//2 18//2
f 16//2 17//2 15//2
f 7//2 19//2 5//2
f 19//2 7//2 16//2
f 18//2 16//2 7//2
f 20//3 19//3 16//3
f 21//4 22//4 23//4
f 24//4 22//4 21//4
f 22//4 24//4 25//4
f 26//5 27//5 25//5
f 28//5 25//5 24//5
f 26//5 25//5 28//5
f 27//5 26//5 29//5
f 2//6 30//6 3//6
f 27//6 30//6 2//6
f 31//6 29//6 32//6
f 33//6 27//6 29//6
f 30//6 27//6 34//6
f 11//6 31//6 10//6
f 29//6 11//6 33//6
f 27//7 33//7 34//7
f 29//6 31//6 11//6
f 22//8 15//8 35//8
f 22//8 35//8 23//8
f 15//8 22//8 13//8
f 36//9 37//9 38//9
f 36//9 39//9 37//9
f 39//9 36//9 40//9
f 41//10 2//10 42//10
f 43//10 41//10 44//10
f 41//10 43//10 2//10
f 2//10 43//10 27//10
f 25//11 45//11 22//11
f 45//11 25//11 46//11
f 4//9 40//9 47//9
f 40//9 4//9 39//9
f 2//9 47//9 48//9
f 2//9 48//9 42//9
f 47//9 2//9 4//9
f 49//12 50//12 36//12
f 50//12 49//12 51//12
f 51//12 49//12 52//12
f 38//13 49//13 36//13
f 53//13 49//13 38//13
f 49//14 53//14 54//14
f 51//12 52//12 55//12
f 13//15 52//15 14//15
f 52//16 13//16 55//16
f 27//17 56//17 57//17
f 46//18 57//18 58//18
f 25//17 57//17 46//17
f 27//17 57//17 25//17
f 56//17 27//17 59//17
f 43//19 59//19 27//19
f 45//20 55//20 13//20
f 55//21 45//21 60//21
f 45//20 13//20 22//20
f 61//22 55//22 60//22
f 62//23 55//23 61//23
f 55//23 62//23 51//23
f 51//23 62//23 63//23
f 64//23 51//23 63//23
f 51//23 64//23 50//23
f 6//24 65//24 66//24
f 6//25 67//25 65//25
f 67//25 6//25 8//25
f 68//23 50//23 64//23
f 68//23 36//23 50//23
f 69//26 40//26 36//26
f 40//26 69//26 47//26
f 69//23 36//23 68//23
f 58//27 70//27 46//27
f 45//28 61//28 60//28
f 70//29 45//29 46//29
f 45//30 70//30 61//30
f 71//31 56//31 59//31
f 56//31 71//31 72//31
f 43//31 71//31 59//31
f 71//32 43//32 44//32
f 15//33 73//33 35//33
f 74//34 15//34 17//34
f 15//34 74//34 73//34
f 74//34 17//34 75//34
f 76//35 69//35 77//35
f 76//36 47//36 69//36
f 47//36 76//36 48//36
f 78//37 79//37 80//37
f 81//38 79//38 78//38
f 79//38 81//38 82//38
f 78//39 69//39 68//39
f 80//40 69//40 78//40
f 69//39 80//39 77//39
f 28//41 83//41 26//41
f 84//35 44//35 41//35
f 44//35 84//35 71//35
f 85//38 86//38 87//38
f 88//38 82//38 81//38
f 73//42 89//42 90//42
f 91//43 73//43 74//43
f 89//44 73//44 91//44
f 83//45 70//45 72//45
f 70//45 83//45 92//45
f 66//39 93//39 94//39
f 93//40 66//40 95//40
f 95//39 66//39 65//39
f 85//38 96//38 86//38
f 93//38 96//38 85//38
f 96//46 93//46 95//46
f 18//34 94//34 97//34
f 66//34 18//34 7//34
f 18//34 66//34 94//34
f 66//34 7//34 6//34
f 17//34 97//34 75//34
f 97//34 17//34 18//34
f 98//35 48//35 76//35
f 98//35 42//35 48//35
f 84//35 98//35 99//35
f 98//36 41//36 42//36
f 84//36 99//36 100//36
f 98//35 84//35 41//35
f 8//25 101//25 67//25
f 10//25 101//25 8//25
f 31//24 101//24 10//24
f 101//24 31//24 102//24
f 84//24 102//24 31//24
f 102//25 84//25 100//25
f 103//47 73//47 90//47
f 73//47 103//47 92//47
f 61//48 103//48 90//48
f 103//48 61//48 70//48
f 73//49 23//49 35//49
f 92//49 23//49 73//49
f 23//47 92//47 21//47
f 92//50 24//50 21//50
f 92//51 28//51 24//51
f 28//41 92//41 83//41
f 84//52 104//52 71//52
f 32//24 84//24 31//24
f 84//24 32//24 104//24
f 70//45 92//45 103//45
f 105//42 90//42 89//42
f 61//44 105//44 106//44
f 105//42 61//42 90//42
f 61//43 106//43 62//43
f 57//31 70//31 58//31
f 70//31 57//31 72//31
f 56//31 72//31 57//31
f 71//52 83//52 72//52
f 83//52 71//52 104//52
f 104//41 26//41 83//41
f 29//53 104//53 32//53
f 26//51 104//51 29//51
f 52//54 62//54 106//54
f 52//54 63//54 62//54
f 52//54 64//54 63//54
f 49//54 64//54 52//54
f 64//54 49//54 68//54
f 68//54 49//54 78//54
f 98//54 4//54 1//54
f 4//54 76//54 39//54
f 77//54 39//54 76//54
f 80//54 39//54 77//54
f 4//54 98//54 76//54
f 39//54 80//54 37//54
f 12//55 89//55 91//55
f 89//55 14//55 105//55
f 52//55 105//55 14//55
f 89//55 12//55 14//55
f 105//55 52//55 106//55
f 74//56 12//56 91//56
f 75//56 12//56 74//56
f 97//56 12//56 75//56
f 16//56 97//56 94//56
f 16//56 94//56 93//56
f 97//56 16//56 12//56
f 95//56 5//56 19//56
f 65//56 5//56 95//56
f 5//56 65//56 67//56
f 5//56 67//56 9//56
f 9//56 67//56 101//56
f 107//57 85//57 87//57
f 85//57 107//57 93//57
f 107//57 16//57 93//57
f 16//57 107//57 20//57
f 54//57 81//57 78//57
f 54//57 78//57 49//57
f 81//57 54//57 88//57
f 79//58 37//58 80//58
f 37//58 79//58 38//58
f 38//59 79//59 53//59
f 100//60 33//60 102//60
f 33//61 100//61 34//61
f 100//62 30//62 34//62
f 30//63 100//63 99//63
f 19//64 107//64 96//64
f 19//65 96//65 95//65
f 107//66 19//66 20//66
f 99//67 3//67 30//67
f 3//67 99//67 98//67
f 1//63 3//63 98//63
f 102//68 11//68 101//68
f 11//69 102//69 33//69
f 9//68 101//68 11//68
f 107//70 86//70 96//70
f 86//70 107//70 87//70
f 82//71 54//71 53//71
f 54//72 82//72 88//72
f 82//72 53//72 79//72
