# Blender 4.4.3
# www.blender.org
mtllib curve_07.mtl
o curve_07
v -0.000001 -1.787870 6.787870
v -1.111410 -2.209390 6.805070
v -1.111410 -1.785130 6.805070
v -0.000001 -2.212130 6.787870
v -0.212133 -2.212130 7.000000
v -1.323550 -2.209390 7.017200
v -0.000001 -2.212130 7.212130
v -0.899284 -1.785130 7.017200
v 0.212131 -1.787870 7.000000
v -0.000001 -1.787870 7.212130
v -1.111411 -1.785130 7.229330
v 0.212131 -2.212130 7.000000
v -1.111411 -2.209390 7.229330
v -2.227720 -2.201180 7.068350
v -2.439851 -2.201180 6.856220
v -2.227720 -1.776910 7.068350
v -2.015590 -1.776910 6.856220
v -2.227720 -2.201180 6.644090
v -2.227720 -1.776910 6.644090
v -3.319970 -2.187510 6.303679
v -3.532100 -2.187510 6.515810
v -3.319970 -1.763240 6.303679
v -3.319970 -2.187510 6.727950
v -3.107841 -1.763240 6.515810
v -3.319970 -1.763240 6.727950
v -4.358911 -2.168430 5.787390
v -4.571041 -2.168430 5.999529
v -4.358911 -2.168430 6.211659
v -4.358911 -1.744160 6.211659
v -4.358911 -1.744160 5.787390
v -4.146780 -1.744160 5.999529
v -5.103641 -1.719720 5.315770
v -5.315771 -1.719720 5.103640
v -5.315771 -2.143980 5.103640
v -5.315771 -2.143980 5.527900
v -5.315771 -1.719720 5.527900
v -5.527901 -2.143980 5.315770
v -5.955960 -1.695800 4.470970
v -5.957170 -1.697210 4.469319
v -5.957170 -2.113940 4.469319
v -6.163120 -2.114240 4.265639
v -6.163120 -2.114240 4.689899
v -6.163120 -1.689980 4.689899
v -6.375250 -2.114240 4.477769
v -6.375250 -1.689980 4.477769
v -5.950991 -1.689980 4.477769
v -6.875660 -2.079290 3.291189
v -6.663530 -2.079290 3.503320
v -7.087790 -1.655030 3.503320
v -6.875660 -1.655030 3.715460
v -6.663530 -1.655030 3.503320
v -7.087790 -2.079290 3.503320
v -7.431050 -2.039220 2.202359
v -7.643190 -2.039220 2.414500
v -7.431050 -1.614960 2.626630
v -7.643190 -1.614960 2.414500
v -7.218920 -1.614960 2.414500
v -7.218920 -2.039220 2.414500
v -7.810620 -1.569880 1.449209
v -7.598490 -1.569880 1.237079
v -7.810620 -1.994140 1.024949
v -8.022750 -1.994140 1.237079
v -7.598490 -1.994140 1.237079
v -8.022750 -1.569880 1.237079
v -8.000000 -1.519920 0.212131
v -7.787870 -1.519920 -0.000001
v -8.000000 -1.944180 -0.212133
v -8.212130 -1.944180 -0.000001
v -7.787870 -1.944180 -0.000001
v -8.000000 -1.519920 -0.212133
v -8.212130 -1.519920 -0.000001
vn 0.2929 0.6277 -0.7212
vn 0.0410 -0.7247 -0.6878
vn 0.0491 0.7221 -0.6900
vn 0.2915 -0.6291 -0.7206
vn -0.0018 -1.0000 -0.0000
vn -0.0063 -1.0000 0.0012
vn 0.3018 -0.6317 0.7140
vn 0.0037 1.0000 0.0001
vn 0.8170 0.5767 -0.0000
vn 0.3032 0.6302 0.7148
vn -0.0426 0.6874 0.7250
vn 0.8165 -0.5774 -0.0000
vn -0.0485 -0.6889 0.7233
vn -0.1655 -0.6860 0.7085
vn -0.0126 -0.9999 0.0045
vn -0.1540 0.6869 0.7103
vn 0.0087 1.0000 -0.0009
vn 0.1457 -0.7239 -0.6744
vn 0.1627 0.7177 -0.6770
vn 0.2473 -0.7237 -0.6443
vn -0.0231 -0.9997 0.0124
vn 0.2755 0.7087 -0.6495
vn -0.2793 -0.6810 0.6769
vn 0.0151 0.9999 -0.0040
vn -0.2618 0.6869 0.6780
vn 0.3430 -0.7241 -0.5983
vn -0.0506 -0.9980 0.0375
vn -0.3888 -0.6712 0.6311
vn -0.3633 0.6874 0.6289
vn 0.3939 0.6817 -0.6165
vn 0.0257 0.9996 -0.0117
vn 0.0535 0.9979 -0.0364
vn 0.6702 0.1346 -0.7298
vn 0.4304 -0.7250 -0.5377
vn -0.4986 -0.6428 0.5816
vn -0.4558 0.6883 0.5643
vn -0.4521 -0.7803 0.4322
vn 0.7554 0.1090 -0.6461
vn 0.7736 0.0214 -0.6333
vn 0.7302 -0.0253 -0.6827
vn 0.0552 -0.9956 -0.0756
vn -0.7019 -0.1083 0.7040
vn -0.4866 0.7057 0.5149
vn -0.5612 -0.6897 0.4576
vn -0.5903 0.6199 0.5170
vn 0.4673 0.7815 -0.4134
vn 0.0249 -0.9985 -0.0489
vn 0.6248 -0.6594 -0.4180
vn -0.6381 0.6512 0.4109
vn -0.0557 0.9955 0.0769
vn 0.6014 0.7220 -0.3421
vn -0.6289 -0.6872 0.3636
vn 0.0134 -0.9990 -0.0420
vn -0.6817 -0.6847 0.2578
vn -0.0255 0.9984 0.0503
vn -0.6848 0.6621 0.3043
vn 0.6518 0.7193 -0.2403
vn 0.6573 -0.6904 -0.3022
vn -0.0141 0.9990 0.0434
vn 0.6860 0.7156 -0.1314
vn 0.0059 -0.9992 -0.0406
vn -0.7173 -0.6816 0.1448
vn 0.6866 -0.7011 -0.1928
vn -0.7185 0.6682 0.1933
vn -0.0067 0.9995 0.0313
vn 0.6846 0.6461 -0.3374
vn -0.0009 -0.5664 -0.8242
vn -0.7576 -0.5998 -0.2573
vn 0.6970 -0.6178 -0.3640
vn -0.0000 0.5773 -0.8165
vn -0.7471 0.6203 -0.2389
s 1
usemtl metalCurve
f 1//1 2//2 3//3
f 2//2 1//1 4//4
f 5//5 6//6 4//4
f 5//5 7//7 6//6
f 8//8 1//1 3//3
f 1//1 8//8 9//9
f 8//8 10//10 9//9
f 10//10 8//8 11//11
f 12//12 10//10 7//7
f 10//10 12//12 9//9
f 12//12 1//1 9//9
f 1//1 12//12 4//4
f 12//12 5//5 4//4
f 5//5 12//12 7//7
f 7//7 13//13 6//6
f 7//7 11//11 13//13
f 11//11 7//7 10//10
f 4//4 6//6 2//2
f 6//6 14//14 15//15
f 14//14 6//6 13//13
f 11//11 14//14 13//13
f 14//14 11//11 16//16
f 11//11 17//17 16//16
f 17//17 11//11 8//8
f 3//3 18//18 19//19
f 18//18 3//3 2//2
f 6//6 18//18 2//2
f 18//18 6//6 15//15
f 17//17 3//3 19//19
f 3//3 17//17 8//8
f 20//20 15//15 21//21
f 18//18 15//15 20//20
f 19//19 20//20 22//22
f 20//20 19//19 18//18
f 21//21 15//15 23//23
f 24//24 19//19 22//22
f 16//16 23//23 14//14
f 23//23 16//16 25//25
f 15//15 14//14 23//23
f 24//24 17//17 19//19
f 24//24 16//16 17//17
f 25//25 16//16 24//24
f 21//21 26//26 20//20
f 26//26 21//21 27//27
f 25//25 28//28 23//23
f 28//28 25//25 29//29
f 22//22 26//26 30//30
f 26//26 22//22 20//20
f 25//25 31//31 29//29
f 31//31 25//25 24//24
f 31//31 22//22 30//30
f 22//22 31//31 24//24
f 21//21 28//28 27//27
f 28//28 21//21 23//23
f 32//32 30//30 33//33
f 30//30 32//32 31//31
f 30//30 34//34 33//33
f 34//34 30//30 26//26
f 29//29 35//35 28//28
f 35//35 29//29 36//36
f 27//27 35//35 37//37
f 35//35 27//27 28//28
f 36//36 29//29 31//31
f 36//36 31//31 32//32
f 26//26 27//27 37//37
f 34//34 26//26 37//37
f 33//33 38//38 32//32
f 38//38 33//33 39//39
f 39//39 33//33 40//40
f 40//40 34//34 41//41
f 34//34 40//40 33//33
f 36//36 42//42 35//35
f 42//42 36//36 43//43
f 37//37 35//35 44//44
f 41//41 37//37 44//44
f 44//44 35//35 42//42
f 42//42 45//45 44//44
f 45//45 42//42 43//43
f 43//43 36//36 46//46
f 46//46 36//36 32//32
f 46//46 32//32 38//38
f 34//34 37//37 41//41
f 41//41 44//44 47//47
f 48//48 41//41 47//47
f 49//49 45//45 50//50
f 48//48 40//40 41//41
f 45//45 43//43 50//50
f 50//50 43//43 51//51
f 51//51 43//43 46//46
f 38//38 51//51 46//46
f 39//39 51//51 38//38
f 39//39 48//48 51//51
f 48//48 39//39 40//40
f 52//52 45//45 49//49
f 45//45 52//52 44//44
f 47//47 44//44 52//52
f 53//53 47//47 54//54
f 55//55 50//50 51//51
f 54//54 49//49 56//56
f 49//49 54//54 52//52
f 47//47 52//52 54//54
f 55//55 51//51 57//57
f 51//51 58//58 57//57
f 58//58 51//51 48//48
f 58//58 47//47 53//53
f 47//47 58//58 48//48
f 49//49 55//55 56//56
f 55//55 49//49 50//50
f 59//59 55//55 60//60
f 61//61 54//54 62//62
f 60//60 55//55 57//57
f 63//63 53//53 61//61
f 53//53 63//63 58//58
f 56//56 59//59 64//64
f 59//59 56//56 55//55
f 53//53 54//54 61//61
f 62//62 56//56 64//64
f 56//56 62//62 54//54
f 57//57 63//63 60//60
f 63//63 57//57 58//58
f 65//65 60//60 66//66
f 60//60 65//65 59//59
f 67//67 61//61 68//68
f 69//69 61//61 67//67
f 70//70 68//68 71//71
f 68//68 70//70 67//67
f 60//60 69//69 66//66
f 69//69 60//60 63//63
f 71//71 66//66 70//70
f 66//66 71//71 65//65
f 61//61 62//62 68//68
f 68//68 64//64 71//71
f 64//64 68//68 62//62
f 64//64 65//65 71//71
f 65//65 64//64 59//59
f 69//69 63//63 61//61
f 66//66 67//67 70//70
f 67//67 66//66 69//69
