# Blender 4.4.3
# www.blender.org
mtllib curve_09.mtl
o curve_09
v 1.585941 -1.120110 -8.673890
v 0.000001 -1.212130 -8.519920
v 0.212133 -1.212130 -8.732050
v 1.161681 -0.695848 -8.673890
v 0.000001 -0.787868 -8.944180
v -0.212131 -0.787868 -8.732050
v 1.373811 -0.695848 -8.886020
v 1.373811 -1.120110 -8.886020
v 0.000001 -1.212130 -8.944180
v 1.373811 -1.120110 -8.461760
v 0.000001 -0.787868 -8.519920
v 1.373811 -0.695848 -8.461760
v -0.212131 -1.212130 -8.732050
v 2.727721 -1.025610 -8.607190
v 2.727721 -0.601341 -8.607190
v 2.727721 -1.025610 -8.182930
v 2.939851 -1.025610 -8.395060
v 2.727721 -0.601341 -8.182930
v 2.515591 -0.601341 -8.395060
v 4.237741 -0.928867 -7.900700
v 4.025610 -0.928867 -7.688570
v 4.025610 -0.504603 -7.688570
v 3.813471 -0.504603 -7.900700
v 4.025610 -0.928867 -8.112830
v 4.025610 -0.504603 -8.112830
v 5.020401 -0.405902 -7.201960
v 5.232531 -0.830166 -7.414090
v 5.232531 -0.405902 -7.414090
v 5.444661 -0.830166 -7.201960
v 5.232531 -0.830166 -6.989830
v 5.232531 -0.405902 -6.989830
v 6.103641 -0.305506 -6.315770
v 6.227160 -0.313719 -6.176129
v 6.315771 -0.729770 -6.527900
v 6.315771 -0.305506 -6.527900
v 6.527901 -0.729770 -6.315770
v 6.227160 -0.716247 -6.176129
v 6.315771 -0.729770 -6.103640
v 6.527901 -0.305506 -6.315770
v 7.033660 -0.203691 -5.264380
v 7.033660 -0.627954 -5.264380
v 7.457931 -0.627954 -5.264380
v 7.457931 -0.203691 -5.264380
v 7.245790 -0.627954 -5.052249
v 7.245790 -0.203691 -5.476510
v 7.784990 -0.525001 -4.074739
v 7.784990 -0.100737 -4.074739
v 7.997120 -0.525001 -3.862599
v 8.209250 -0.525001 -4.074739
v 8.209250 -0.100737 -4.074739
v 7.997120 -0.100737 -4.286870
v 8.761220 -0.421188 -2.777769
v 8.761220 0.003075 -2.777769
v 8.336960 -0.421188 -2.777769
v 8.549090 -0.421188 -2.565629
v 8.336960 0.003075 -2.777769
v 8.549090 0.003075 -2.989899
v 9.098620 -0.316804 -1.407479
v 8.886490 -0.316804 -1.195349
v 8.674360 -0.316804 -1.407479
v 8.674360 0.107460 -1.407479
v 8.886490 0.107460 -1.619609
v 9.098620 0.107460 -1.407479
v 8.787870 0.212132 0.000001
v 9.212130 -0.212132 0.000001
v 9.000000 0.212132 0.212133
v 9.000000 -0.212132 0.212133
v 9.212130 0.212132 0.000001
v 8.787870 -0.212132 0.000001
v 9.000000 0.212132 -0.212131
vn 0.0721 -0.9973 -0.0156
vn -0.2985 -0.6381 0.7098
vn 0.0502 -0.9987 -0.0030
vn -0.0675 0.9977 0.0020
vn -0.3061 0.5926 -0.7451
vn -0.8292 0.5590 -0.0004
vn 0.0489 0.6699 -0.7408
vn 0.1313 -0.6598 -0.7399
vn -0.2714 -0.6308 -0.7269
vn -0.0358 -0.7041 0.7092
vn -0.3368 0.5963 0.7287
vn -0.1406 0.6890 0.7110
vn -0.8165 -0.5774 -0.0000
vn 0.2496 -0.6482 -0.7194
vn 0.1641 0.6748 -0.7195
vn -0.1464 -0.7099 0.6889
vn 0.0859 -0.9957 -0.0334
vn -0.2594 0.6704 0.6952
vn -0.0734 0.9972 0.0140
vn 0.1197 -0.9904 -0.0694
vn -0.2519 -0.7147 0.6525
vn -0.3845 0.6304 0.6743
vn -0.0875 0.9957 0.0316
vn 0.3658 -0.6288 -0.6861
vn 0.2742 0.6792 -0.6808
vn -0.1218 0.9903 0.0674
vn 0.4833 -0.5875 -0.6490
vn 0.3766 0.6833 -0.6255
vn 0.2428 -0.9509 -0.1917
vn -0.3499 -0.7190 0.6005
vn -0.5475 0.4801 0.6854
vn -0.2464 0.9507 0.1883
vn -0.7221 0.0256 0.6914
vn 0.6131 -0.4419 -0.6548
vn 0.4475 0.6931 -0.5652
vn 0.5533 -0.6979 -0.4547
vn -0.6644 -0.0256 0.7469
vn -0.2661 -0.9057 0.3300
vn 0.6785 0.3340 -0.6543
vn -0.5867 0.7197 0.3712
vn -0.7067 -0.3680 0.6042
vn 0.6104 -0.6843 -0.3990
vn 0.6439 0.5656 -0.5153
vn -0.0851 -0.9864 0.1406
vn 0.2711 0.9058 -0.3256
vn -0.6727 -0.6092 0.4199
vn -0.6430 0.7151 0.2744
vn -0.0396 -0.9944 0.0975
vn 0.6700 -0.6799 -0.2980
vn 0.6788 0.6183 -0.3962
vn 0.0871 0.9864 -0.1392
vn 0.7132 -0.6752 -0.1886
vn 0.7144 0.6409 -0.2808
vn -0.6919 -0.6604 0.2918
vn -0.0188 -0.9965 0.0811
vn -0.6838 0.7098 0.1692
vn 0.0415 0.9945 -0.0965
vn 0.7390 -0.6697 -0.0734
vn -0.0051 -0.9972 0.0748
vn -0.7103 -0.6823 0.1731
vn -0.7085 0.7033 0.0581
vn 0.0205 0.9965 -0.0806
vn 0.7386 0.6540 -0.1636
vn -0.7018 0.6419 0.3089
vn 0.7541 -0.5872 0.2943
vn -0.0000 0.5773 0.8165
vn 0.0009 -0.5570 0.8305
vn 0.7343 0.6280 0.2577
vn -0.7232 -0.5935 0.3532
vn 0.0064 0.9984 -0.0561
s 1
usemtl metalCurve
f 1//1 2//2 3//3
f 4//4 5//5 6//6
f 5//5 4//4 7//7
f 8//8 1//1 9//9
f 10//10 11//11 2//2
f 11//11 10//10 12//12
f 2//2 6//6 13//13
f 6//6 2//2 11//11
f 8//8 5//5 7//7
f 5//5 8//8 9//9
f 11//11 4//4 6//6
f 4//4 11//11 12//12
f 1//1 10//10 2//2
f 3//3 13//13 9//9
f 13//13 3//3 2//2
f 9//9 6//6 5//5
f 6//6 9//9 13//13
f 9//9 1//1 3//3
f 14//14 7//7 15//15
f 7//7 14//14 8//8
f 16//16 1//1 17//17
f 1//1 16//16 10//10
f 16//16 12//12 10//10
f 12//12 16//16 18//18
f 14//14 1//1 8//8
f 1//1 14//14 17//17
f 12//12 19//19 4//4
f 19//19 12//12 18//18
f 19//19 7//7 4//4
f 7//7 19//19 15//15
f 20//20 21//21 17//17
f 17//17 21//21 16//16
f 19//19 22//22 23//23
f 24//24 15//15 25//25
f 15//15 24//24 14//14
f 21//21 18//18 16//16
f 18//18 21//21 22//22
f 18//18 22//22 19//19
f 23//23 15//15 19//19
f 15//15 23//23 25//25
f 24//24 17//17 14//14
f 17//17 24//24 20//20
f 23//23 26//26 25//25
f 27//27 25//25 28//28
f 25//25 27//27 24//24
f 29//29 30//30 20//20
f 22//22 31//31 26//26
f 22//22 26//26 23//23
f 30//30 22//22 21//21
f 22//22 30//30 31//31
f 27//27 20//20 24//24
f 20//20 27//27 29//29
f 20//20 30//30 21//21
f 25//25 26//26 28//28
f 31//31 32//32 26//26
f 32//32 31//31 33//33
f 34//34 28//28 35//35
f 28//28 34//34 27//27
f 26//26 35//35 28//28
f 34//34 29//29 27//27
f 29//29 34//34 36//36
f 30//30 37//37 31//31
f 37//37 30//30 38//38
f 31//31 37//37 33//33
f 26//26 32//32 35//35
f 36//36 38//38 30//30
f 29//29 36//36 30//30
f 39//39 34//34 35//35
f 34//34 39//39 36//36
f 33//33 40//40 32//32
f 33//33 41//41 40//40
f 41//41 33//33 37//37
f 42//42 39//39 43//43
f 39//39 42//42 36//36
f 38//38 41//41 37//37
f 41//41 38//38 44//44
f 32//32 45//45 35//35
f 45//45 32//32 40//40
f 45//45 39//39 35//35
f 39//39 45//45 43//43
f 42//42 38//38 36//36
f 38//38 42//42 44//44
f 40//40 46//46 47//47
f 46//46 40//40 41//41
f 42//42 48//48 44//44
f 49//49 48//48 42//42
f 40//40 47//47 45//45
f 44//44 46//46 41//41
f 46//46 44//44 48//48
f 49//49 43//43 50//50
f 43//43 49//49 42//42
f 45//45 47//47 51//51
f 51//51 43//43 45//45
f 43//43 51//51 50//50
f 52//52 50//50 53//53
f 50//50 52//52 49//49
f 48//48 54//54 46//46
f 54//54 48//48 55//55
f 47//47 54//54 56//56
f 54//54 47//47 46//46
f 47//47 57//57 51//51
f 57//57 47//47 56//56
f 57//57 50//50 51//51
f 50//50 57//57 53//53
f 52//52 48//48 49//49
f 48//48 52//52 55//55
f 58//58 59//59 55//55
f 52//52 58//58 55//55
f 56//56 60//60 61//61
f 60//60 56//56 54//54
f 56//56 61//61 62//62
f 57//57 63//63 53//53
f 62//62 63//63 57//57
f 56//56 62//62 57//57
f 54//54 59//59 60//60
f 55//55 59//59 54//54
f 58//58 53//53 63//63
f 53//53 58//58 52//52
f 61//61 64//64 62//62
f 65//65 66//66 67//67
f 66//66 65//65 68//68
f 61//61 69//69 64//64
f 69//69 61//61 60//60
f 65//65 63//63 68//68
f 63//63 65//65 58//58
f 59//59 67//67 69//69
f 70//70 68//68 63//63
f 59//59 69//69 60//60
f 62//62 70//70 63//63
f 62//62 64//64 70//70
f 67//67 64//64 69//69
f 64//64 67//67 66//66
f 65//65 59//59 58//58
f 59//59 65//65 67//67
f 64//64 68//68 70//70
f 68//68 64//64 66//66
