# Blender 4.4.3
# www.blender.org
mtllib curve_03.mtl
o curve_03
v 0.212132 0.787868 5.267950
v -0.000000 1.212130 5.480080
v -0.000000 0.787868 5.480080
v 0.212132 1.212130 5.267950
v -0.604140 0.695848 5.153740
v -0.000000 0.787868 5.055820
v -0.816273 1.120110 5.365880
v -0.212132 1.212130 5.267950
v -1.028400 1.120110 5.153740
v -0.816273 1.120110 4.941610
v -0.000000 1.212130 5.055820
v -0.816273 0.695848 4.941610
v -0.816273 0.695848 5.365880
v -1.810650 1.025610 4.919730
v -1.598520 1.025610 5.131860
v -1.386380 0.601341 4.919730
v -1.598520 0.601341 5.131860
v -1.598520 1.025610 4.707600
v -1.598520 0.601341 4.707600
v -2.330260 0.504603 4.361260
v -2.118130 0.504603 4.573390
v -2.542390 0.928867 4.573390
v -2.330260 0.928867 4.361260
v -2.330261 0.928867 4.785520
v -2.330261 0.504603 4.785520
v -2.784330 0.405902 4.124280
v -2.996460 0.405902 3.912140
v -2.996460 0.830166 3.912140
v -3.208590 0.830166 4.124279
v -2.996460 0.830166 4.336410
v -2.996460 0.405902 4.336410
v -3.795850 0.729770 3.583720
v -3.583720 0.729770 3.371590
v -3.583720 0.729770 3.795850
v -3.583720 0.305506 3.795850
v -3.423350 0.719159 3.519200
v -3.423350 0.332922 3.519200
v -3.371590 0.305506 3.583720
v -3.795850 0.305506 3.583720
v -4.080440 0.627954 2.752480
v -3.868310 0.627954 2.964610
v -3.868310 0.203691 2.964610
v -4.292570 0.627954 2.964610
v -4.292570 0.203691 2.964610
v -4.080441 0.203691 3.176750
v -4.689100 0.525001 2.281130
v -4.689100 0.100737 2.281130
v -4.476970 0.100737 2.493260
v -4.264840 0.100737 2.281130
v -4.476970 0.525001 2.069000
v -4.264840 0.525001 2.281130
v -4.977830 0.421188 1.548470
v -4.977830 -0.003075 1.548470
v -4.553570 0.421188 1.548470
v -4.553570 -0.003075 1.548470
v -4.765700 -0.003075 1.760600
v -4.765700 0.421188 1.336340
v -5.153280 0.316804 0.782600
v -4.941150 -0.107460 0.994733
v -4.941150 0.316804 0.570469
v -4.729020 -0.107460 0.782600
v -4.729020 0.316804 0.782600
v -5.153280 -0.107460 0.782600
v -4.787870 0.212132 -0.000000
v -5.000000 -0.212132 -0.212132
v -5.000000 0.212132 -0.212132
v -4.787870 -0.212132 -0.000000
v -5.212130 -0.212132 -0.000000
v -5.212130 0.212132 -0.000000
v -5.000000 -0.212132 0.212132
vn 0.8375 -0.5464 0.0023
vn 0.2326 0.6249 0.7452
vn 0.2830 -0.5666 0.7739
vn 0.8165 0.5774 -0.0000
vn 0.1156 -0.9932 -0.0143
vn 0.3886 -0.5710 -0.7231
vn -0.2263 0.6298 0.7430
vn -0.0862 0.9961 0.0167
vn -0.1296 0.9908 0.0393
vn 0.0710 0.6930 -0.7174
vn 0.3187 0.6495 -0.6903
vn 0.2442 -0.6460 -0.7232
vn -0.0901 -0.6609 0.7450
vn -0.1638 0.9835 0.0765
vn -0.3401 0.6048 0.7201
vn 0.1328 -0.9905 -0.0365
vn -0.1959 -0.6677 0.7182
vn 0.1727 0.7005 -0.6925
vn 0.3646 -0.6027 -0.7098
vn 0.4987 -0.5033 -0.7057
vn 0.1676 -0.9831 -0.0733
vn -0.2434 0.9574 0.1556
vn 0.2688 0.7072 -0.6539
vn -0.4541 0.5604 0.6926
vn -0.2960 -0.6740 0.6768
vn 0.2480 -0.9568 -0.1517
vn 0.6547 -0.1822 -0.7336
vn 0.3574 0.7136 -0.6025
vn -0.4666 0.8065 0.3630
vn -0.5763 0.4591 0.6761
vn -0.3884 -0.6803 0.6216
vn -0.5925 0.6878 0.4194
vn 0.2444 0.9045 -0.3495
vn -0.6909 0.1518 0.7069
vn -0.4328 -0.6961 0.5729
vn 0.7029 0.0239 -0.7109
vn 0.7526 -0.0234 -0.6581
vn 0.4789 -0.8052 -0.3497
vn -0.6897 -0.3290 0.6450
vn 0.1145 0.9700 -0.2145
vn 0.7202 0.3687 -0.5876
vn 0.6306 -0.7091 -0.3155
vn -0.6500 0.6773 0.3447
vn -0.6851 -0.5048 0.5252
vn -0.2492 -0.9045 0.3461
vn -0.7004 0.6698 0.2466
vn -0.7104 -0.5710 0.4115
vn -0.1177 -0.9700 0.2128
vn 0.6783 -0.7010 -0.2203
vn 0.0601 0.9845 -0.1645
vn 0.7091 0.5480 -0.4437
vn -0.7364 0.6615 0.1419
vn -0.7374 -0.6046 0.3012
vn 0.7215 0.6130 -0.3221
vn 0.7123 -0.6917 -0.1187
vn -0.0631 -0.9845 0.1633
vn 0.0299 0.9893 -0.1425
vn -0.7575 0.6520 0.0329
vn -0.0327 -0.9894 0.1418
vn 0.0083 0.9910 -0.1335
vn 0.7326 -0.6806 -0.0124
vn 0.7346 0.6458 -0.2082
vn -0.7566 -0.6256 0.1902
vn 0.7417 0.5581 -0.3721
vn -0.0000 -0.5773 -0.8165
vn -0.0015 0.5404 -0.8414
vn 0.7048 -0.6448 -0.2957
vn -0.7341 -0.6314 -0.2498
vn -0.7686 0.5574 -0.3140
vn -0.0104 -0.9949 0.1000
s 1
usemtl metalCurve
f 1//1 2//2 3//3
f 2//2 1//1 4//4
f 1//1 3//3 5//5
f 6//6 1//1 5//5
f 7//7 8//8 9//9
f 8//8 7//7 2//2
f 8//8 10//10 9//9
f 10//10 8//8 11//11
f 8//8 4//4 11//11
f 4//4 8//8 2//2
f 1//1 11//11 4//4
f 11//11 1//1 6//6
f 6//6 10//10 11//11
f 10//10 6//6 12//12
f 6//6 5//5 12//12
f 5//5 3//3 13//13
f 3//3 7//7 13//13
f 7//7 3//3 2//2
f 14//14 9//9 10//10
f 15//15 7//7 9//9
f 12//12 5//5 16//16
f 5//5 13//13 17//17
f 16//16 5//5 17//17
f 13//13 15//15 17//17
f 15//15 13//13 7//7
f 14//14 10//10 18//18
f 12//12 18//18 10//10
f 18//18 12//12 19//19
f 19//19 12//12 16//16
f 15//15 9//9 14//14
f 20//20 16//16 21//21
f 22//22 15//15 14//14
f 19//19 23//23 18//18
f 23//23 19//19 20//20
f 24//24 15//15 22//22
f 19//19 16//16 20//20
f 14//14 23//23 22//22
f 23//23 14//14 18//18
f 17//17 24//24 25//25
f 24//24 17//17 15//15
f 17//17 21//21 16//16
f 21//21 17//17 25//25
f 20//20 26//26 27//27
f 26//26 20//20 21//21
f 22//22 28//28 29//29
f 28//28 22//22 23//23
f 30//30 22//22 29//29
f 22//22 30//30 24//24
f 20//20 28//28 23//23
f 28//28 20//20 27//27
f 25//25 26//26 21//21
f 26//26 25//25 31//31
f 25//25 30//30 31//31
f 30//30 25//25 24//24
f 32//32 28//28 33//33
f 34//34 30//30 29//29
f 26//26 31//31 35//35
f 28//28 36//36 33//33
f 27//27 36//36 28//28
f 36//36 27//27 37//37
f 37//37 27//27 38//38
f 35//35 32//32 39//39
f 32//32 35//35 34//34
f 27//27 26//26 38//38
f 31//31 34//34 35//35
f 34//34 31//31 30//30
f 38//38 26//26 35//35
f 34//34 29//29 32//32
f 32//32 29//29 28//28
f 40//40 32//32 33//33
f 37//37 41//41 36//36
f 37//37 42//42 41//41
f 42//42 37//37 38//38
f 43//43 39//39 32//32
f 39//39 43//43 44//44
f 33//33 41//41 40//40
f 41//41 33//33 36//36
f 42//42 35//35 45//45
f 45//45 39//39 44//44
f 39//39 45//45 35//35
f 43//43 32//32 40//40
f 38//38 35//35 42//42
f 46//46 44//44 43//43
f 44//44 46//46 47//47
f 42//42 48//48 49//49
f 48//48 42//42 45//45
f 46//46 40//40 50//50
f 40//40 46//46 43//43
f 42//42 51//51 41//41
f 51//51 42//42 49//49
f 40//40 51//51 50//50
f 51//51 40//40 41//41
f 48//48 44//44 47//47
f 44//44 48//48 45//45
f 52//52 47//47 46//46
f 47//47 52//52 53//53
f 49//49 54//54 51//51
f 54//54 49//49 55//55
f 55//55 48//48 56//56
f 57//57 46//46 50//50
f 49//49 48//48 55//55
f 52//52 46//46 57//57
f 56//56 47//47 53//53
f 47//47 56//56 48//48
f 50//50 54//54 57//57
f 54//54 50//50 51//51
f 58//58 52//52 57//57
f 55//55 56//56 59//59
f 58//58 57//57 60//60
f 59//59 56//56 53//53
f 61//61 55//55 59//59
f 55//55 62//62 54//54
f 62//62 55//55 61//61
f 60//60 57//57 62//62
f 57//57 54//54 62//62
f 59//59 53//53 63//63
f 58//58 53//53 52//52
f 53//53 58//58 63//63
f 64//64 65//65 66//66
f 65//65 64//64 67//67
f 61//61 59//59 67//67
f 68//68 59//59 63//63
f 66//66 68//68 69//69
f 68//68 66//66 65//65
f 61//61 64//64 62//62
f 64//64 61//61 67//67
f 69//69 63//63 58//58
f 63//63 69//69 68//68
f 69//69 60//60 66//66
f 60//60 69//69 58//58
f 67//67 59//59 70//70
f 70//70 59//59 68//68
f 67//67 68//68 65//65
f 68//68 67//67 70//70
f 60//60 64//64 66//66
f 64//64 60//60 62//62
