# Blender 4.4.3
# www.blender.org
mtllib curve_10.mtl
o curve_10
v 8.787870 0.212132 0.000001
v 8.886490 0.316804 1.195351
v 9.000000 0.212132 -0.212131
v 9.212130 0.212132 0.000001
v 9.000000 -0.212132 -0.212131
v 9.212130 -0.212132 0.000001
v 8.674360 -0.107460 1.407481
v 8.674360 0.316804 1.407481
v 8.787870 -0.212132 0.000001
v 9.098620 0.316804 1.407481
v 9.098620 -0.107460 1.407481
v 8.886490 -0.107460 1.619611
v 9.000000 -0.212132 0.212133
v 8.549090 -0.003075 2.989901
v 8.336960 0.421188 2.777771
v 8.549090 0.421188 2.565631
v 8.336960 -0.003075 2.777771
v 8.761220 -0.003075 2.777771
v 8.761220 0.421188 2.777771
v 7.784989 0.100737 4.074740
v 7.784989 0.525001 4.074740
v 8.209250 0.100737 4.074740
v 8.209250 0.525001 4.074740
v 7.997119 0.525001 3.862601
v 7.997119 0.100737 4.286870
v 7.033659 0.203691 5.264380
v 7.033659 0.627954 5.264380
v 7.457930 0.203691 5.264380
v 7.457930 0.627954 5.264380
v 7.245790 0.203691 5.476511
v 7.245790 0.627954 5.052250
v 6.315770 0.729770 6.103641
v 6.527900 0.729770 6.315771
v 6.527900 0.305506 6.315771
v 6.315770 0.729770 6.527901
v 6.315770 0.305506 6.527901
v 6.103640 0.305506 6.315771
v 6.227160 0.716247 6.176130
v 6.227160 0.313719 6.176130
v 5.020400 0.405902 7.201961
v 5.232530 0.830166 6.989830
v 5.232530 0.405902 7.414091
v 5.444660 0.830166 7.201961
v 5.232530 0.405902 6.989830
v 5.232530 0.830166 7.414091
v 3.813469 0.504603 7.900701
v 4.025609 0.504603 7.688570
v 4.025609 0.504603 8.112830
v 4.237740 0.928867 7.900701
v 4.025609 0.928867 8.112830
v 4.025609 0.928867 7.688570
v 2.727719 0.601341 8.607190
v 2.515589 0.601341 8.395060
v 2.939849 1.025610 8.395060
v 2.727719 1.025610 8.607190
v 2.727719 0.601341 8.182930
v 2.727719 1.025610 8.182930
v 1.373809 0.695848 8.886020
v 1.161679 0.695848 8.673890
v 1.373809 0.695848 8.461760
v 1.373809 1.120110 8.886020
v 1.585939 1.120110 8.673890
v 1.373809 1.120110 8.461760
v -0.000001 1.212130 8.944180
v -0.000001 0.787868 8.519920
v -0.212133 0.787868 8.732050
v -0.000001 1.212130 8.519920
v 0.212131 1.212130 8.732050
v -0.000001 0.787868 8.944180
v -0.212133 1.212130 8.732050
vn -0.7232 0.5935 -0.3532
vn -0.0051 0.9972 -0.0748
vn 0.0009 0.5570 -0.8305
vn 0.7541 0.5872 -0.2943
vn -0.0000 -0.5773 -0.8165
vn 0.7343 -0.6280 -0.2577
vn -0.7085 -0.7033 -0.0581
vn -0.7103 0.6823 -0.1731
vn -0.7018 -0.6419 -0.3089
vn 0.7390 0.6697 0.0734
vn 0.7386 -0.6540 0.1636
vn 0.0205 -0.9965 0.0806
vn 0.0064 -0.9984 0.0561
vn 0.0415 -0.9945 0.0965
vn -0.6919 0.6604 -0.2918
vn -0.0188 0.9965 -0.0811
vn -0.6838 -0.7098 -0.1692
vn 0.7144 -0.6409 0.2808
vn 0.7132 0.6752 0.1886
vn -0.6430 -0.7151 -0.2744
vn -0.6727 0.6092 -0.4199
vn 0.6788 -0.6183 0.3962
vn 0.6700 0.6799 0.2980
vn -0.0396 0.9944 -0.0975
vn 0.0871 -0.9864 0.1392
vn -0.5867 -0.7197 -0.3712
vn -0.7067 0.3680 -0.6042
vn 0.6439 -0.5656 0.5153
vn 0.6104 0.6843 0.3990
vn 0.2711 -0.9058 0.3256
vn -0.0851 0.9864 -0.1406
vn -0.2661 0.9057 -0.3300
vn 0.5533 0.6979 0.4547
vn 0.6785 -0.3340 0.6543
vn 0.6131 0.4419 0.6548
vn 0.4475 -0.6931 0.5652
vn -0.2464 -0.9507 -0.1883
vn -0.6644 0.0256 -0.7469
vn -0.7221 -0.0256 -0.6914
vn -0.1218 -0.9903 -0.0674
vn -0.3499 0.7190 -0.6005
vn 0.3766 -0.6833 0.6255
vn 0.2428 0.9509 0.1917
vn -0.5475 -0.4801 -0.6854
vn 0.4833 0.5875 0.6490
vn -0.0875 -0.9957 -0.0316
vn -0.3845 -0.6304 -0.6743
vn 0.2742 -0.6792 0.6808
vn 0.1197 0.9904 0.0694
vn 0.3658 0.6288 0.6861
vn -0.2519 0.7147 -0.6525
vn 0.1641 -0.6748 0.7195
vn -0.0734 -0.9972 -0.0140
vn 0.0859 0.9957 0.0334
vn 0.2496 0.6482 0.7194
vn -0.2594 -0.6704 -0.6952
vn -0.1464 0.7099 -0.6889
vn 0.0489 -0.6699 0.7408
vn -0.0675 -0.9977 -0.0020
vn -0.1406 -0.6890 -0.7110
vn 0.1313 0.6598 0.7399
vn 0.0721 0.9973 0.0156
vn -0.0358 0.7041 -0.7092
vn -0.2714 0.6308 0.7269
vn -0.3368 -0.5963 -0.7287
vn -0.8292 -0.5590 0.0004
vn -0.2985 0.6381 -0.7098
vn 0.0502 0.9987 0.0030
vn -0.3061 -0.5926 0.7451
vn -0.8165 0.5774 -0.0000
s 1
usemtl metalCurve
f 1//1 2//2 3//3
f 4//4 5//5 3//3
f 5//5 4//4 6//6
f 1//1 7//7 8//8
f 7//7 1//1 9//9
f 2//2 4//4 3//3
f 4//4 2//2 10//10
f 11//11 4//4 10//10
f 4//4 11//11 6//6
f 1//1 8//8 2//2
f 9//9 12//12 7//7
f 11//11 12//12 13//13
f 13//13 12//12 9//9
f 6//6 9//9 5//5
f 9//9 6//6 13//13
f 3//3 9//9 1//1
f 9//9 3//3 5//5
f 6//6 11//11 13//13
f 11//11 14//14 12//12
f 2//2 15//15 16//16
f 12//12 14//14 17//17
f 18//18 10//10 19//19
f 10//10 18//18 11//11
f 18//18 14//14 11//11
f 12//12 17//17 7//7
f 16//16 19//19 10//10
f 2//2 16//16 10//10
f 8//8 17//17 15//15
f 17//17 8//8 7//7
f 8//8 15//15 2//2
f 15//15 20//20 21//21
f 20//20 15//15 17//17
f 22//22 19//19 23//23
f 19//19 22//22 18//18
f 24//24 19//19 16//16
f 19//19 24//24 23//23
f 14//14 20//20 17//17
f 20//20 14//14 25//25
f 15//15 24//24 16//16
f 24//24 15//15 21//21
f 22//22 14//14 18//18
f 14//14 22//22 25//25
f 21//21 26//26 27//27
f 26//26 21//21 20//20
f 28//28 23//23 29//29
f 23//23 28//28 22//22
f 20//20 30//30 26//26
f 24//24 29//29 23//23
f 21//21 31//31 24//24
f 31//31 21//21 27//27
f 25//25 30//30 20//20
f 31//31 29//29 24//24
f 28//28 25//25 22//22
f 25//25 28//28 30//30
f 32//32 29//29 31//31
f 29//29 32//32 33//33
f 34//34 29//29 33//33
f 29//29 34//34 28//28
f 34//34 35//35 36//36
f 35//35 34//34 33//33
f 34//34 30//30 28//28
f 30//30 34//34 36//36
f 30//30 37//37 26//26
f 37//37 30//30 36//36
f 27//27 32//32 31//31
f 32//32 27//27 38//38
f 27//27 39//39 38//38
f 39//39 26//26 37//37
f 26//26 39//39 27//27
f 36//36 40//40 37//37
f 32//32 41//41 33//33
f 36//36 42//42 40//40
f 41//41 43//43 33//33
f 37//37 44//44 39//39
f 44//44 37//37 40//40
f 35//35 42//42 36//36
f 42//42 35//35 45//45
f 41//41 38//38 44//44
f 38//38 41//41 32//32
f 44//44 38//38 39//39
f 43//43 35//35 33//33
f 35//35 43//43 45//45
f 40//40 46//46 47//47
f 40//40 48//48 46//46
f 40//40 47//47 44//44
f 49//49 45//45 43//43
f 45//45 49//49 50//50
f 51//51 49//49 41//41
f 41//41 49//49 43//43
f 41//41 47//47 51//51
f 47//47 41//41 44//44
f 45//45 48//48 42//42
f 48//48 45//45 50//50
f 42//42 48//48 40//40
f 52//52 46//46 48//48
f 46//46 52//52 53//53
f 51//51 54//54 49//49
f 50//50 52//52 48//48
f 52//52 50//50 55//55
f 47//47 53//53 56//56
f 51//51 56//56 57//57
f 56//56 51//51 47//47
f 57//57 54//54 51//51
f 54//54 50//50 49//49
f 50//50 54//54 55//55
f 46//46 53//53 47//47
f 58//58 53//53 52//52
f 53//53 58//58 59//59
f 53//53 60//60 56//56
f 60//60 53//53 59//59
f 55//55 58//58 52//52
f 58//58 55//55 61//61
f 62//62 55//55 54//54
f 55//55 62//62 61//61
f 57//57 60//60 63//63
f 60//60 57//57 56//56
f 62//62 57//57 63//63
f 57//57 62//62 54//54
f 62//62 64//64 61//61
f 59//59 65//65 60//60
f 65//65 59//59 66//66
f 67//67 68//68 62//62
f 61//61 69//69 58//58
f 69//69 61//61 64//64
f 69//69 59//59 58//58
f 59//59 69//69 66//66
f 70//70 68//68 67//67
f 68//68 70//70 64//64
f 63//63 65//65 67//67
f 65//65 63//63 60//60
f 67//67 62//62 63//63
f 68//68 64//64 62//62
f 67//67 66//66 70//70
f 66//66 67//67 65//65
f 66//66 64//64 70//70
f 64//64 66//66 69//69
