# Blender 4.4.3
# www.blender.org
mtllib curve_04.mtl
o curve_04
v -4.787870 -0.212132 -0.000000
v -4.729020 0.107460 -0.782600
v -4.787870 0.212132 -0.000000
v -4.729020 -0.316804 -0.782600
v -4.941150 0.107460 -0.994733
v -5.212130 0.212132 -0.000000
v -5.000000 0.212132 -0.212132
v -5.153280 0.107460 -0.782600
v -5.212130 -0.212132 -0.000000
v -5.153280 -0.316804 -0.782600
v -5.000000 -0.212132 0.212132
v -5.000000 0.212132 0.212132
v -4.941150 -0.316804 -0.570469
v -4.553570 -0.421188 -1.548470
v -4.765700 -0.421188 -1.336340
v -4.977830 0.003075 -1.548470
v -4.765700 0.003075 -1.760600
v -4.553570 0.003075 -1.548470
v -4.977830 -0.421188 -1.548470
v -4.476970 -0.525001 -2.069000
v -4.264840 -0.525001 -2.281130
v -4.689100 -0.525001 -2.281130
v -4.476970 -0.100737 -2.493260
v -4.264840 -0.100737 -2.281130
v -4.689100 -0.100737 -2.281130
v -4.292570 -0.203691 -2.964610
v -4.292570 -0.627954 -2.964610
v -4.080440 -0.203691 -3.176750
v -3.868310 -0.203691 -2.964610
v -3.868310 -0.627954 -2.964610
v -4.080440 -0.627954 -2.752480
v -3.583720 -0.729770 -3.371590
v -3.795850 -0.729770 -3.583720
v -3.795850 -0.305506 -3.583720
v -3.583720 -0.305506 -3.795850
v -3.423350 -0.332922 -3.519200
v -3.371590 -0.305506 -3.583720
v -3.423350 -0.719159 -3.519200
v -3.583720 -0.729770 -3.795850
v -2.784330 -0.405902 -4.124280
v -2.996460 -0.405902 -3.912140
v -2.996460 -0.830166 -3.912140
v -3.208590 -0.830166 -4.124280
v -2.996460 -0.405902 -4.336410
v -2.996460 -0.830166 -4.336410
v -2.330260 -0.504603 -4.361260
v -2.330260 -0.928867 -4.361260
v -2.330260 -0.504603 -4.785520
v -2.330260 -0.928867 -4.785520
v -2.118130 -0.504603 -4.573390
v -2.542390 -0.928867 -4.573390
v -1.598520 -0.601341 -4.707600
v -1.598520 -1.025610 -4.707600
v -1.598520 -0.601341 -5.131860
v -1.598520 -1.025610 -5.131860
v -1.386380 -0.601341 -4.919730
v -1.810650 -1.025610 -4.919730
v -0.604140 -0.695848 -5.153740
v -0.816273 -0.695848 -4.941610
v -0.816273 -1.120110 -4.941610
v -1.028400 -1.120110 -5.153740
v -0.816273 -0.695848 -5.365880
v -0.816273 -1.120110 -5.365880
v 0.000000 -0.787868 -5.055820
v 0.212132 -0.787868 -5.267950
v 0.000000 -1.212130 -5.055820
v 0.212132 -1.212130 -5.267950
v -0.212132 -1.212130 -5.267950
v 0.000000 -1.212130 -5.480080
v 0.000000 -0.787868 -5.480080
vn 0.7417 -0.5581 0.3721
vn 0.7326 0.6806 0.0124
vn 0.7048 0.6448 0.2957
vn 0.7346 -0.6458 0.2082
vn -0.0327 0.9894 -0.1418
vn -0.7341 0.6314 0.2498
vn -0.0104 0.9949 -0.1000
vn -0.7566 0.6256 -0.1902
vn -0.7686 -0.5574 0.3140
vn -0.7575 -0.6520 -0.0329
vn -0.0015 -0.5404 0.8414
vn -0.0000 0.5773 0.8165
vn 0.0083 -0.9910 0.1335
vn 0.7215 -0.6130 0.3221
vn 0.0299 -0.9893 0.1425
vn -0.7374 0.6046 -0.3012
vn -0.0631 0.9845 -0.1633
vn 0.7123 0.6917 0.1187
vn -0.7364 -0.6615 -0.1419
vn 0.0601 -0.9845 0.1645
vn 0.7091 -0.5480 0.4437
vn -0.7004 -0.6698 -0.2466
vn -0.1177 0.9700 -0.2128
vn 0.6783 0.7010 0.2203
vn -0.7104 0.5710 -0.4115
vn -0.6851 0.5048 -0.5252
vn -0.6500 -0.6773 -0.3447
vn -0.2492 0.9045 -0.3461
vn 0.6306 0.7091 0.3155
vn 0.7202 -0.3687 0.5876
vn 0.1145 -0.9700 0.2145
vn 0.2444 -0.9045 0.3495
vn -0.5925 -0.6878 -0.4194
vn -0.6897 0.3290 -0.6450
vn -0.4328 0.6961 -0.5729
vn 0.7526 0.0234 0.6581
vn 0.4789 0.8052 0.3497
vn 0.7029 -0.0239 0.7109
vn -0.6909 -0.1518 -0.7069
vn 0.2480 0.9568 0.1517
vn 0.6547 0.1822 0.7336
vn 0.3574 -0.7136 0.6025
vn -0.4666 -0.8065 -0.3630
vn -0.3884 0.6803 -0.6216
vn -0.5763 -0.4591 -0.6761
vn 0.4987 0.5033 0.7057
vn 0.2688 -0.7072 0.6539
vn -0.2960 0.6740 -0.6768
vn -0.4541 -0.5604 -0.6926
vn 0.1676 0.9831 0.0733
vn -0.2434 -0.9574 -0.1556
vn 0.3646 0.6027 0.7098
vn 0.1727 -0.7005 0.6925
vn -0.1959 0.6677 -0.7182
vn -0.3401 -0.6048 -0.7201
vn 0.1328 0.9905 0.0365
vn -0.1638 -0.9835 -0.0765
vn 0.1156 0.9932 0.0143
vn 0.2442 0.6460 0.7232
vn 0.0710 -0.6930 0.7174
vn -0.1296 -0.9908 -0.0393
vn -0.0901 0.6609 -0.7450
vn -0.2263 -0.6298 -0.7430
vn 0.3886 0.5710 0.7231
vn 0.8375 0.5464 -0.0023
vn 0.3187 -0.6495 0.6903
vn 0.8165 -0.5774 -0.0000
vn -0.0862 -0.9961 -0.0167
vn 0.2326 -0.6249 -0.7452
vn 0.2830 0.5666 -0.7739
s 1
usemtl metalCurve
f 1//1 2//2 3//3
f 2//2 1//1 4//4
f 5//5 6//6 7//7
f 8//8 9//9 6//6
f 9//9 8//8 10//10
f 5//5 3//3 2//2
f 11//11 6//6 9//9
f 6//6 11//11 12//12
f 1//1 13//13 4//4
f 13//13 1//1 11//11
f 8//8 6//6 5//5
f 7//7 3//3 5//5
f 1//1 12//12 11//11
f 12//12 1//1 3//3
f 6//6 3//3 7//7
f 3//3 6//6 12//12
f 13//13 9//9 10//10
f 9//9 13//13 11//11
f 14//14 4//4 15//15
f 15//15 13//13 10//10
f 16//16 5//5 17//17
f 17//17 5//5 18//18
f 4//4 13//13 15//15
f 5//5 2//2 18//18
f 16//16 10//10 8//8
f 10//10 16//16 19//19
f 4//4 18//18 2//2
f 18//18 4//4 14//14
f 15//15 10//10 19//19
f 16//16 8//8 5//5
f 14//14 20//20 21//21
f 20//20 14//14 15//15
f 20//20 15//15 22//22
f 22//22 15//15 19//19
f 23//23 18//18 24//24
f 17//17 18//18 23//23
f 25//25 17//17 23//23
f 17//17 25//25 16//16
f 14//14 24//24 18//18
f 24//24 14//14 21//21
f 25//25 19//19 16//16
f 19//19 25//25 22//22
f 26//26 22//22 25//25
f 22//22 26//26 27//27
f 26//26 23//23 28//28
f 23//23 26//26 25//25
f 21//21 29//29 24//24
f 29//29 21//21 30//30
f 23//23 29//29 28//28
f 29//29 23//23 24//24
f 21//21 31//31 30//30
f 31//31 21//21 20//20
f 31//31 22//22 27//27
f 22//22 31//31 20//20
f 32//32 31//31 33//33
f 34//34 27//27 26//26
f 27//27 34//34 33//33
f 34//34 28//28 35//35
f 28//28 34//34 26//26
f 29//29 36//36 37//37
f 30//30 36//36 29//29
f 36//36 30//30 38//38
f 33//33 31//31 27//27
f 35//35 29//29 37//37
f 30//30 32//32 38//38
f 32//32 30//30 31//31
f 28//28 29//29 35//35
f 35//35 33//33 34//34
f 33//33 35//35 39//39
f 40//40 37//37 41//41
f 42//42 32//32 33//33
f 37//37 36//36 41//41
f 43//43 33//33 39//39
f 42//42 38//38 32//32
f 41//41 38//38 42//42
f 38//38 41//41 36//36
f 44//44 39//39 35//35
f 39//39 44//44 45//45
f 35//35 37//37 40//40
f 42//42 33//33 43//43
f 44//44 35//35 40//40
f 43//43 39//39 45//45
f 46//46 42//42 47//47
f 42//42 46//46 41//41
f 48//48 45//45 44//44
f 45//45 48//48 49//49
f 40//40 46//46 50//50
f 46//46 40//40 41//41
f 42//42 51//51 47//47
f 51//51 42//42 43//43
f 40//40 48//48 44//44
f 48//48 40//40 50//50
f 51//51 45//45 49//49
f 45//45 51//51 43//43
f 52//52 47//47 53//53
f 47//47 52//52 46//46
f 54//54 49//49 48//48
f 49//49 54//54 55//55
f 50//50 46//46 56//56
f 56//56 46//46 52//52
f 47//47 57//57 53//53
f 57//57 47//47 51//51
f 50//50 54//54 48//48
f 54//54 50//50 56//56
f 55//55 51//51 49//49
f 57//57 51//51 55//55
f 58//58 56//56 59//59
f 60//60 53//53 57//57
f 56//56 52//52 59//59
f 61//61 57//57 55//55
f 62//62 55//55 54//54
f 55//55 62//62 63//63
f 54//54 56//56 58//58
f 59//59 53//53 60//60
f 53//53 59//59 52//52
f 62//62 54//54 58//58
f 60//60 57//57 61//61
f 61//61 55//55 63//63
f 58//58 64//64 65//65
f 66//66 65//65 64//64
f 65//65 66//66 67//67
f 58//58 59//59 64//64
f 60//60 68//68 66//66
f 68//68 60//60 61//61
f 67//67 68//68 69//69
f 68//68 67//67 66//66
f 62//62 58//58 70//70
f 64//64 60//60 66//66
f 60//60 64//64 59//59
f 70//70 58//58 65//65
f 65//65 69//69 70//70
f 69//69 65//65 67//67
f 70//70 63//63 62//62
f 63//63 70//70 69//69
f 68//68 63//63 69//69
f 63//63 68//68 61//61
